<svg width="129" height="53" viewBox="0 0 129 53" fill="none" xmlns="http://www.w3.org/2000/svg">
<path d="M128.954 50.4639C128.954 51.8609 127.815 53 126.418 53H2.53609C1.13909 53 0 51.8609 0 50.4639V2.53609C0 1.13909 1.13909 0 2.53609 0H126.418C127.815 0 128.954 1.13909 128.954 2.53609V50.4639V50.4639Z" fill="#1D1916"/>
<path d="M58.0712 12.5513H59.5327V23.9852H58.1786V15.2163L55.664 20.9763H54.31L51.7954 15.2163V23.9852H50.4414V12.5513H51.8814L54.9763 19.5793L58.0712 12.5513Z" fill="#FCFAF8"/>
<path d="M68.1958 23.9856H66.9707L66.8847 23.2764C66.4119 23.6632 65.2298 24.1576 64.1767 24.1576C62.3499 24.1576 61.6406 23.083 61.6406 21.4925C61.6406 19.8161 62.4788 18.9349 64.2842 18.9349C65.3588 18.9349 66.3045 19.2143 66.7558 19.4078V18.0967C66.7558 17.0006 66.4119 16.5278 65.1439 16.5278C64.3916 16.5278 63.6394 16.6353 62.8657 16.8502L62.6508 15.6681C63.3815 15.4317 64.4131 15.2812 65.2943 15.2812C67.2716 15.2812 68.1958 16.1409 68.1958 18.0108V23.9856ZM66.7558 20.3964C66.283 20.246 65.3373 20.031 64.4776 20.031C63.317 20.031 63.0376 20.5898 63.0376 21.5355C63.0376 22.5886 63.3815 23.083 64.3701 23.083C65.4018 23.083 66.2615 22.6961 66.7343 22.3522V20.3964H66.7558Z" fill="#FCFAF8"/>
<path d="M74.7085 16.6782C73.7414 16.8717 72.7742 17.194 72.0435 17.5809V24.0071H70.6035V15.4747H71.7856L71.936 16.4633C72.4518 15.9475 73.3975 15.4532 74.5151 15.3457L74.7085 16.6782Z" fill="#FCFAF8"/>
<path d="M76.2129 23.9854V11.8638H77.6529V19.4076L80.6188 15.4745H82.3167L79.0499 19.687L82.4457 23.9854H80.7478L77.6529 19.9449V23.9854H76.2129Z" fill="#FCFAF8"/>
<path d="M84.7447 20.3744C84.8306 22.1798 85.282 23.0395 87.0229 23.0395C87.9255 23.0395 88.8712 22.8246 89.5375 22.5666L89.7524 23.6628C89.0431 23.9636 87.9255 24.1786 87.0014 24.1786C83.928 24.1786 83.3047 22.0723 83.3047 19.6867C83.3047 17.2366 84.1214 15.3022 86.722 15.3022C89.0431 15.3022 90.0103 16.9357 90.0103 18.9774V20.3744H84.7447V20.3744ZM84.7447 19.2353H88.6133V18.9344C88.6133 17.344 88.119 16.3984 86.7005 16.3984C85.11 16.3769 84.7662 17.5374 84.7447 19.2353Z" fill="#FCFAF8"/>
<path d="M96.4375 23.8995C96.0721 24.0284 95.2339 24.1574 94.6751 24.1574C93.2137 24.1574 92.5904 23.3407 92.5904 22.0296V16.6351H91.1074V15.4745H92.5904V13.3897L94.0304 13.1748V15.453H96.459L96.33 16.6136H94.0304V21.9437C94.0304 22.7389 94.2238 22.9753 95.019 22.9753C95.3629 22.9753 95.8572 22.9108 96.3086 22.8034L96.4375 23.8995Z" fill="#FCFAF8"/>
<path d="M98.9066 12.0142C99.4654 12.0142 99.8738 12.4225 99.8738 12.9813C99.8738 13.5401 99.4869 13.9485 98.9066 13.9485C98.3478 13.9485 97.9395 13.5401 97.9395 12.9813C97.9609 12.4225 98.3478 12.0142 98.9066 12.0142ZM98.1974 15.4744H99.6373V24.0069H98.1974V15.4744Z" fill="#FCFAF8"/>
<path d="M107.246 23.9856V17.7744C107.246 17.0006 106.924 16.6138 106.085 16.6138C105.183 16.6138 104.302 16.9147 103.678 17.1726V23.9856H102.238V15.4532H103.399L103.528 16.2054C104.216 15.7326 105.29 15.2812 106.451 15.2812C107.912 15.2812 108.707 16.098 108.707 17.6239V23.9856H107.246V23.9856Z" fill="#FCFAF8"/>
<path d="M115.115 15.4742H117.823V16.4628L116.684 16.6778C116.899 17.0646 117.006 17.5804 117.006 18.1177C117.006 19.8801 115.781 20.9332 113.826 20.9332C113.503 20.9332 113.181 20.9117 112.923 20.8473C112.729 21.0192 112.536 21.2556 112.536 21.6425C112.536 22.0508 112.751 22.2443 113.31 22.2443H115.244C116.748 22.2443 117.673 23.1899 117.673 24.5224C117.673 26.3493 116.061 27.252 113.761 27.252C111.526 27.252 110.322 26.5642 110.322 24.9523C110.322 23.9207 111.01 23.4478 111.676 23.1254C111.311 22.8675 111.117 22.4807 111.117 21.9864C111.117 21.2126 111.655 20.8258 112.106 20.5679C111.182 20.1165 110.645 19.2568 110.645 18.1177C110.645 16.2909 111.698 15.3022 113.804 15.3022C114.298 15.3022 114.728 15.3667 115.115 15.4742ZM112.407 23.4263C112.02 23.7487 111.676 24.1571 111.676 24.8448C111.676 25.8335 112.514 26.1988 113.804 26.1988C115.308 26.1988 116.233 25.812 116.233 24.6729C116.233 24.0281 115.867 23.4908 114.943 23.4908H113.095C112.837 23.4908 112.514 23.4693 112.407 23.4263ZM113.826 16.3339C112.6 16.3339 112.02 16.8282 112.02 18.1177C112.02 19.4073 112.686 19.9016 113.826 19.9016C114.965 19.9016 115.652 19.3428 115.652 18.1177C115.652 16.8712 115.008 16.3339 113.826 16.3339Z" fill="#FCFAF8"/>
<path d="M51.9244 36.924V41.1795H50.4414V29.7241H53.8587C56.5022 29.7241 57.4694 31.2286 57.4694 33.3133C57.4694 35.3981 56.5022 36.9025 53.8587 36.9025H51.9244V36.924ZM51.9244 35.7205H53.8157C55.5351 35.7205 56.0079 34.7318 56.0079 33.3348C56.0079 31.9163 55.5351 30.9492 53.8157 30.9492H51.9244V35.7205Z" fill="#FCFAF8"/>
<path d="M64.7563 41.179H63.5313L63.4453 40.4697C62.9725 40.8566 61.7904 41.3509 60.7373 41.3509C58.9104 41.3509 58.2012 40.2763 58.2012 38.6859C58.2012 37.0095 59.0394 36.1283 60.8447 36.1283C61.8978 36.1283 62.865 36.4077 63.3163 36.6011V35.2901C63.3163 34.194 62.9725 33.7212 61.7044 33.7212C60.9522 33.7212 60.2 33.8286 59.4262 34.0435L59.2113 32.8615C59.9421 32.6251 60.9737 32.4746 61.8549 32.4746C63.8322 32.4746 64.7563 33.3343 64.7563 35.2041V41.179ZM63.3163 37.5898C62.8435 37.4393 61.8978 37.2244 61.0382 37.2244C59.8776 37.2244 59.5982 37.7832 59.5982 38.7289C59.5982 39.782 59.9421 40.2763 60.9307 40.2763C61.9623 40.2763 62.822 39.8895 63.2948 39.5456V37.5898H63.3163Z" fill="#FCFAF8"/>
<path d="M71.2691 33.8726C70.3019 34.066 69.3348 34.3884 68.604 34.7752V41.2014H67.1641V32.669H68.3461L68.4966 33.6576C69.0124 33.1418 69.9581 32.6475 71.0757 32.54L71.2691 33.8726Z" fill="#FCFAF8"/>
<path d="M77.1563 41.0933C76.7909 41.2223 75.9527 41.3512 75.3939 41.3512C73.9324 41.3512 73.3091 40.5345 73.3091 39.2235V33.8289H71.8477V32.6683H73.3306V30.5836L74.7706 30.3687V32.6468H77.1992L77.0703 33.8074H74.7706V39.1375C74.7706 39.9327 74.964 40.1691 75.7593 40.1691C76.1031 40.1691 76.5975 40.1047 77.0488 39.9972L77.1563 41.0933Z" fill="#FCFAF8"/>
<path d="M83.9511 41.179V34.9677C83.9511 34.194 83.6287 33.8071 82.7905 33.8071C81.8878 33.8071 81.0066 34.108 80.3833 34.3659V41.179H78.9434V32.6465H80.1039L80.2329 33.3988C80.9207 32.9259 81.9953 32.4746 83.1559 32.4746C84.6173 32.4746 85.4125 33.2913 85.4125 34.8173V41.179H83.9511V41.179Z" fill="#FCFAF8"/>
<path d="M88.7623 37.5683C88.8482 39.3736 89.2996 40.2333 91.0404 40.2333C91.9431 40.2333 92.8888 40.0184 93.555 39.7605L93.77 40.8566C93.0607 41.1575 91.9431 41.3724 91.0189 41.3724C87.9455 41.3724 87.3223 39.2662 87.3223 36.8805C87.3223 34.4304 88.139 32.4961 90.7395 32.4961C93.0607 32.4961 94.0279 34.1295 94.0279 36.1713V37.5683H88.7623V37.5683ZM88.7623 36.4292H92.6309V36.1283C92.6309 34.5379 92.1365 33.5922 90.718 33.5922C89.1061 33.5707 88.7623 34.7313 88.7623 36.4292Z" fill="#FCFAF8"/>
<path d="M100.156 33.8726C99.1887 34.066 98.2215 34.3884 97.4908 34.7752V41.2014H96.0508V32.669H97.2329L97.3833 33.6576C97.8991 33.1418 98.8448 32.6475 99.9624 32.54L100.156 33.8726Z" fill="#FCFAF8"/>
<path d="M40.5344 10.7461H12.487C11.5198 10.7461 10.7461 11.5198 10.7461 12.487V40.5344C10.7461 41.5016 11.5198 42.2753 12.487 42.2753H27.5746V30.0677H23.4695V25.3179H27.5746V21.8146C27.5746 17.7526 30.0677 15.5174 33.6999 15.5174C35.4407 15.5174 36.9452 15.6463 37.375 15.7108V19.9663H34.8604C32.8832 19.9663 32.4963 20.9119 32.4963 22.2875V25.3179H37.2031L36.5798 30.0677H32.4748V42.2753H40.5129C41.4801 42.2753 42.2538 41.5016 42.2538 40.5344V12.487C42.2538 11.5198 41.4801 10.7461 40.5344 10.7461Z" fill="#FCFAF8"/>
</svg>
