<svg width="91" height="48" viewBox="0 0 91 48" fill="none" xmlns="http://www.w3.org/2000/svg">
<path fill-rule="evenodd" clip-rule="evenodd" d="M0 -3.8147e-06H12.5851L12.5851 48H0L0 -3.8147e-06ZM3.51636 40.965L3.51636 42.7843H8.85615V42.0983H6.69338V40.965C6.69338 40.4977 6.54174 40.105 6.23846 39.7869C5.93517 39.4588 5.55731 39.2948 5.10487 39.2948C4.66237 39.2948 4.287 39.4588 3.97874 39.7869C3.69851 40.0806 3.54565 40.4319 3.52018 40.8406L3.51636 40.965ZM3.51636 35.3616L3.51636 37.1809H8.85615V36.4949H6.69338L6.69338 35.7344L8.85615 34.2953L8.85615 33.4826H8.82632L6.6561 34.9813L6.63372 34.9664C6.55417 34.5985 6.37146 34.2941 6.08557 34.053C5.79969 33.8119 5.47279 33.6913 5.10487 33.6913C4.6574 33.6913 4.28078 33.8541 3.97501 34.1797C3.69704 34.4757 3.54542 34.8282 3.52015 35.2372L3.51636 35.3616ZM3.51636 28.3563L3.51636 31.4731H8.85615V28.3563H8.19986V30.7871H6.50694V28.5949H5.86557V30.7871H4.17264V28.3563H3.51636ZM3.51636 25.3477V26.0337H8.85615V25.3477H5.68658L4.79164 25.3776V25.3477L7.72256 23.6775V23.2749L4.79164 21.6047V21.5748L5.68658 21.6047H8.85615V20.9187H3.51636V21.6047L6.76796 23.4613V23.4911L3.51636 25.3477ZM3.51636 17.7609L3.51636 18.4469H8.85615V17.7609H3.51636ZM3.51636 12.1724L3.51636 15.2892H8.85615L8.85615 12.1724H8.19986L8.19986 14.6032H6.50694V12.411H5.86557V14.6032H4.17264V12.1724H3.51636ZM3.51636 8.03045L3.51636 9.84978H8.85615V9.1638H6.69338V8.40326L8.85615 6.96419V6.15145H8.82632L6.6561 7.65017L6.63372 7.63526C6.55417 7.26742 6.37146 6.96295 6.08557 6.72186C5.79969 6.48077 5.47279 6.36023 5.10487 6.36023C4.6574 6.36023 4.28078 6.52303 3.97501 6.84862C3.69704 7.14462 3.54542 7.49709 3.52015 7.90606L3.51636 8.03045ZM4.17264 35.3466C4.17264 35.0732 4.26587 34.8458 4.45231 34.6644C4.63876 34.483 4.85628 34.3922 5.10487 34.3922C5.37335 34.3922 5.59833 34.4892 5.7798 34.683C5.96128 34.8769 6.05201 35.113 6.05201 35.3914L6.05201 36.4949H4.17264L4.17264 35.3466ZM4.17264 8.01553C4.17264 7.74213 4.26587 7.51472 4.45231 7.33328C4.63876 7.15184 4.85628 7.06113 5.10487 7.06113C5.37335 7.06113 5.59833 7.15805 5.7798 7.35192C5.96128 7.54578 6.05201 7.7819 6.05201 8.06027V9.1638H4.17264V8.01553ZM4.17264 40.9501C4.17264 40.6767 4.26711 40.4505 4.45604 40.2715C4.64 40.0876 4.85628 39.9957 5.10487 39.9957C5.35844 39.9957 5.5772 40.0876 5.76116 40.2715C5.94512 40.4505 6.0371 40.6767 6.0371 40.9501V42.0983H4.17264V40.9501Z" fill="#FCFAF8"/>
<path fill-rule="evenodd" clip-rule="evenodd" d="M20.5437 26.0314V31.8177H24.3056C25.2007 31.8177 25.9415 31.5321 26.5283 30.962C27.1311 30.3907 27.4325 29.7116 27.4325 28.9256C27.4325 28.1539 27.1311 27.4824 26.5283 26.9111C25.9415 26.3247 25.2007 26.0314 24.3056 26.0314H20.5437ZM20.5437 33.8551V40.5668H18.2969V23.9951H24.2573C25.7713 23.9951 27.0575 24.4737 28.1159 25.4308C29.1915 26.3868 29.7276 27.5521 29.7276 28.9256C29.7276 30.3297 29.1915 31.5016 28.1159 32.4423C27.0736 33.3842 25.7874 33.8551 24.2573 33.8551H20.5437Z" fill="#FCFAF8"/>
<path fill-rule="evenodd" clip-rule="evenodd" d="M33.248 36.7508C33.248 37.303 33.5025 37.7622 34.0116 38.1304C34.5195 38.4985 35.1158 38.6826 35.8005 38.6826C36.768 38.6826 37.6306 38.3523 38.3895 37.694C39.1484 37.0345 39.5279 36.2613 39.5279 35.3712C38.8102 34.8503 37.8097 34.5904 36.5264 34.5904C35.5907 34.5904 34.8118 34.7962 34.186 35.2109C33.5603 35.6246 33.248 36.1379 33.248 36.7508ZM36.2259 28.5664C37.9264 28.5664 39.2698 28.9844 40.2538 29.8182C41.2378 30.6553 41.7304 31.801 41.7304 33.2563V40.1997H39.5279V38.6361H39.4277C38.4767 39.9247 37.2099 40.5668 35.6249 40.5668C34.2744 40.5668 33.1431 40.1997 32.2345 39.4645C31.3248 38.7281 30.8711 37.8077 30.8711 36.7053C30.8711 35.5412 31.3507 34.6121 32.31 33.9234C33.2692 33.2336 34.549 32.8882 36.1505 32.8882C37.5175 32.8882 38.6441 33.1177 39.5279 33.5779V33.095C39.5279 32.3597 39.2109 31.7349 38.5781 31.2216C37.9441 30.7083 37.2017 30.4506 36.3497 30.4506C35.0663 30.4506 34.0482 30.9487 33.2987 31.945L31.2718 30.7733C32.3889 29.3017 34.0399 28.5664 36.2259 28.5664Z" fill="#FCFAF8"/>
<path fill-rule="evenodd" clip-rule="evenodd" d="M56.3361 40.5673C55.3983 40.5673 54.6207 40.2746 54.0033 39.687C53.3859 39.1005 53.0678 38.2818 53.0534 37.2355V30.7108H51.0365V28.7101H53.0534V25.1382H55.2106V28.7101H58.025V30.7108H55.2106V36.5211C55.2106 37.2983 55.3597 37.8265 55.6557 38.1035C55.9539 38.3816 56.2886 38.5207 56.6642 38.5207C56.8376 38.5207 57.0055 38.5016 57.1689 38.4601C57.3335 38.4208 57.4848 38.3693 57.6273 38.3065L58.3066 40.2589C57.7433 40.4653 57.0872 40.5673 56.3361 40.5673ZM42.875 28.7101H44.9394V30.6154H45.0333C45.6739 29.1228 46.9961 28.377 48.9964 28.377L49.4415 28.4241V30.7108L48.4806 30.6154C47.4799 30.6154 46.6548 30.9294 46.0064 31.5563C45.358 32.1832 45.0333 32.9806 45.0333 33.9484V40.3778H42.875V28.7101Z" fill="#FCFAF8"/>
<path fill-rule="evenodd" clip-rule="evenodd" d="M59.4473 28.9451H61.65V30.5581H61.7502C62.099 29.9895 62.6376 29.5148 63.3636 29.135C64.0896 28.7552 64.8439 28.5664 65.6288 28.5664C67.1291 28.5664 68.2853 28.973 69.0938 29.7873C69.9023 30.6017 70.3065 31.76 70.3065 33.2613V40.5668H68.0048V33.4043C67.9553 31.5065 66.9464 30.5581 64.9782 30.5581C64.059 30.5581 63.2917 30.91 62.6753 31.6137C62.0578 32.3174 61.7502 33.1597 61.7502 34.1393V40.5668H59.4473V28.9451Z" fill="#FCFAF8"/>
<path fill-rule="evenodd" clip-rule="evenodd" d="M73.8521 33.2098H80.545C80.4811 32.429 80.1513 31.7815 79.5557 31.2671C78.9612 30.7549 78.1637 30.4972 77.1621 30.4972C76.3377 30.4972 75.6265 30.743 75.0321 31.2324C74.4365 31.7241 74.0428 32.3835 73.8521 33.2098ZM77.3528 40.5668C75.6389 40.5668 74.2256 40.0005 73.1152 38.8656C72.0036 37.7319 71.4473 36.2992 71.4473 34.5666C71.4473 32.8503 71.9868 31.4209 73.0669 30.2784C74.1471 29.1382 75.5267 28.5664 77.2103 28.5664C78.941 28.5664 80.3184 29.1057 81.3425 30.1864C82.3666 31.2671 82.878 32.782 82.878 34.728L82.8545 34.9586H73.6861C73.7175 36.061 74.0989 36.95 74.829 37.6246C75.5592 38.3004 76.433 38.6361 77.4481 38.6361C78.8457 38.6361 79.9415 37.9625 80.7357 36.6132L82.6874 37.5337C82.1635 38.4823 81.4378 39.2262 80.5091 39.7622C79.5793 40.2993 78.5283 40.5668 77.3528 40.5668Z" fill="#FCFAF8"/>
<path fill-rule="evenodd" clip-rule="evenodd" d="M85.9347 40.5668H84.0254V28.8995H85.8517V30.8048H85.9347C86.1272 30.1858 86.5259 29.6587 87.1278 29.2213C87.7288 28.7851 88.3209 28.5664 88.9013 28.5664C89.4544 28.5664 89.9244 28.6617 90.3123 28.8524L89.7309 30.9719C89.4964 30.8608 89.1222 30.8048 88.6101 30.8048C87.891 30.8048 87.2656 31.1378 86.734 31.8051C86.2015 32.4723 85.9347 33.2495 85.9347 34.1377V40.5668Z" fill="#FCFAF8"/>
<path fill-rule="evenodd" clip-rule="evenodd" d="M23.3767 13.5056V14.9884H27.0187C26.9004 15.9232 26.5022 16.6523 25.8227 17.1734C25.1615 17.6855 24.3454 17.9405 23.3767 17.9405C22.253 17.9405 21.3061 17.5569 20.5359 16.7887C19.7657 16.0294 19.3812 15.0991 19.3812 13.9954C19.3812 12.8917 19.7657 11.9613 20.5359 11.2009C21.3061 10.4327 22.253 10.0492 23.3767 10.0492C24.4281 10.0492 25.3429 10.4025 26.1222 11.1081L27.1954 10.0626C26.1176 9.06513 24.8447 8.56641 23.3767 8.56641C22.3793 8.56641 21.4381 8.81353 20.5497 9.30779C19.6705 9.7931 18.9772 10.4596 18.4699 11.3072C17.9717 12.1369 17.7227 13.0337 17.7227 13.9954C17.7227 14.966 17.9717 15.8662 18.4699 16.6959C18.968 17.5346 19.6613 18.1966 20.5497 18.6819C21.4381 19.1772 22.3793 19.4232 23.3767 19.4232C24.8803 19.4232 26.1268 18.9648 27.1139 18.0467C28.093 17.1376 28.582 15.9333 28.582 14.4326C28.582 14.0793 28.5544 13.7695 28.5005 13.5056H23.3767Z" fill="#FCFAF8"/>
<path fill-rule="evenodd" clip-rule="evenodd" d="M33.5478 17.6397C33.2072 18.0046 32.7925 18.1866 32.3027 18.1866C31.8038 18.1866 31.3851 18.0046 31.0445 17.6397C30.7049 17.2737 30.5346 16.8223 30.5346 16.2814C30.5346 15.7265 30.7049 15.2741 31.0445 14.9252C31.3851 14.5603 31.8038 14.3773 32.3027 14.3773C32.8005 14.3773 33.2193 14.5603 33.5599 14.9252C33.8994 15.2741 34.0697 15.7265 34.0697 16.2814C34.0697 16.8133 33.8954 17.2657 33.5478 17.6397ZM32.3027 13.1387C31.4081 13.1387 30.6608 13.4413 30.0598 14.0435C29.4587 14.6397 29.1582 15.3857 29.1582 16.2814C29.1582 17.1631 29.4627 17.9091 30.0718 18.5194C30.6728 19.1236 31.4161 19.4242 32.3027 19.4242C33.1872 19.4242 33.9315 19.1236 34.5325 18.5194C35.1406 17.9091 35.4451 17.1631 35.4451 16.2814C35.4451 15.3857 35.1406 14.6397 34.5325 14.0435C33.9315 13.4413 33.1872 13.1387 32.3027 13.1387Z" fill="#FCFAF8"/>
<path fill-rule="evenodd" clip-rule="evenodd" d="M50.3047 19.4232H52.0193V8.56641H50.3047V19.4232Z" fill="#FCFAF8"/>
<path fill-rule="evenodd" clip-rule="evenodd" d="M40.4049 17.6397C40.0643 18.0046 39.6495 18.1866 39.1586 18.1866C38.6606 18.1866 38.2408 18.0046 37.9012 17.6397C37.5616 17.2737 37.3912 16.8223 37.3912 16.2814C37.3912 15.7265 37.5616 15.2741 37.9012 14.9252C38.2408 14.5603 38.6606 14.3773 39.1586 14.3773C39.6565 14.3773 40.0763 14.5603 40.416 14.9252C40.7566 15.2741 40.9269 15.7265 40.9269 16.2814C40.9269 16.8133 40.7526 17.2657 40.4049 17.6397ZM39.1586 13.1387C38.2649 13.1387 37.5175 13.4413 36.9173 14.0435C36.3152 14.6397 36.0156 15.3857 36.0156 16.2814C36.0156 17.1631 36.3192 17.9091 36.9284 18.5194C37.5295 19.1236 38.2729 19.4242 39.1586 19.4242C40.0443 19.4242 40.7877 19.1236 41.3888 18.5194C41.998 17.9091 42.3025 17.1631 42.3025 16.2814C42.3025 15.3857 41.998 14.6397 41.3888 14.0435C40.7877 13.4413 40.0443 13.1387 39.1586 13.1387Z" fill="#FCFAF8"/>
<path fill-rule="evenodd" clip-rule="evenodd" d="M55.1629 14.8769C55.5412 14.5281 55.9632 14.3531 56.4288 14.3531C56.7199 14.3531 56.9838 14.4145 57.216 14.5381C57.4482 14.6608 57.6074 14.8216 57.6936 15.0207L54.6472 16.1869C54.6286 15.6551 54.802 15.2188 55.1629 14.8769ZM56.5444 18.1866C55.7964 18.1866 55.2447 17.8699 54.8914 17.2345L59.449 15.4962L59.2953 15.1393C59.1732 14.8458 59.0173 14.5763 58.8232 14.33C58.6291 14.0837 58.4078 13.8716 58.1592 13.6926C57.9084 13.5137 57.6325 13.3769 57.3327 13.2824C57.0307 13.1869 56.7123 13.1387 56.3764 13.1387C55.4649 13.1387 54.6984 13.4363 54.078 14.0324C53.4674 14.6357 53.1621 15.3857 53.1621 16.2814C53.1621 17.1712 53.4849 17.9172 54.1303 18.5194C54.7758 19.1236 55.5805 19.4242 56.5444 19.4242C57.7503 19.4242 58.6967 18.9607 59.3858 18.0318L58.2224 17.318C57.8015 17.897 57.2422 18.1866 56.5444 18.1866Z" fill="#FCFAF8"/>
<path fill-rule="evenodd" clip-rule="evenodd" d="M47.3854 17.9511C47.0453 18.3318 46.6308 18.5227 46.1418 18.5227C45.6286 18.5227 45.1942 18.3286 44.8384 17.9393C44.49 17.549 44.3158 17.0708 44.3158 16.5035C44.3158 15.9288 44.4942 15.4463 44.85 15.057C45.2152 14.6581 45.6454 14.4597 46.1418 14.4597C46.6392 14.4597 47.0527 14.6549 47.3854 15.0441C47.7243 15.442 47.8943 15.9288 47.8943 16.5035C47.8943 17.0708 47.7243 17.5533 47.3854 17.9511ZM47.7946 13.8882H47.7453C47.3308 13.3885 46.7557 13.1387 46.018 13.1387C45.1732 13.1387 44.4355 13.47 43.8069 14.1295C43.1846 14.79 42.875 15.5814 42.875 16.5035C42.875 17.4182 43.1846 18.2053 43.8069 18.8658C44.4449 19.5178 45.1816 19.8427 46.018 19.8427C46.7557 19.8427 47.3308 19.5896 47.7453 19.0813H47.7946V19.4245C47.7946 20.8292 47.2112 21.5315 46.0421 21.5315C45.6706 21.5315 45.339 21.4222 45.0494 21.2013C44.7587 20.9814 44.5394 20.6941 44.3903 20.3381L43.1353 20.871C43.2601 21.168 43.4175 21.4372 43.6075 21.6774C43.7985 21.9186 44.0199 22.1267 44.2718 22.3004C44.5247 22.4741 44.8007 22.6081 45.0987 22.7068C45.3967 22.8033 45.7116 22.8526 46.0421 22.8526C47.0202 22.8526 47.7852 22.5491 48.3351 21.9444C48.8871 21.3396 49.162 20.4785 49.162 19.3612V13.3424H47.7946V13.8882Z" fill="#FCFAF8"/>
</svg>
