<svg xmlns="http://www.w3.org/2000/svg" width="118" height="24" fill="none"><path fill="#FC5811" d="M20.984 5.94C19.72 2.398 16.35 0 12.59 0H0a17.788 17.788 0 0 0 4.584 11.848L4.72 12l-.135.152A17.872 17.872 0 0 0 0 24h12.59c3.76 0 7.13-2.38 8.394-5.94l1.635-4.608a4.44 4.44 0 0 0 0-2.954L20.984 5.94Zm-17.916.22a15.493 15.493 0 0 1-1.113-4.067l-.034-.27h10.67c1.466 0 2.882.455 4.095 1.3a7.083 7.083 0 0 1 2.343 2.835l.152.337h-1.366a17.84 17.84 0 0 0-11.63 4.321l-.168.152-.152-.169A16.723 16.723 0 0 1 3.068 6.16Zm15.961 11.933a7.223 7.223 0 0 1-2.343 2.835 7.074 7.074 0 0 1-4.095 1.3H1.92l.034-.27c.186-1.401.556-2.768 1.113-4.068a15.966 15.966 0 0 1 2.797-4.422l.152-.168.169.151a17.807 17.807 0 0 0 11.63 4.321h1.365l-.152.32Zm1.635-4.54-.843 2.396h-2.006c-2.157 0-4.264-.422-6.236-1.265a16.196 16.196 0 0 1-4.062-2.481l-.219-.186.22-.186a15.623 15.623 0 0 1 4.061-2.48 16.026 16.026 0 0 1 6.236-1.267h2.006l.843 2.397a4.576 4.576 0 0 1 0 3.072Z"/><path fill="#1D1916" d="M48.306 7.562c-3.556 0-6.455 2.902-6.455 6.464 0 3.56 2.899 6.464 6.455 6.464s6.455-2.903 6.455-6.464c0-3.562-2.899-6.464-6.455-6.464Zm0 10.599a4.139 4.139 0 0 1-4.13-4.135 4.139 4.139 0 0 1 4.13-4.135 4.139 4.139 0 0 1 4.13 4.135 4.139 4.139 0 0 1-4.13 4.135ZM66.964 13.232l-2.73-.523c-.439-.085-1.77-.304-1.77-1.485 0-.524.286-.996.792-1.317.455-.287 1.045-.439 1.685-.439 1.113 0 2.225.44 3.32 1.3l.034.034 1.315-1.62-.034-.034c-1.584-1.097-3.033-1.57-4.702-1.57-2.36 0-4.753 1.35-4.753 3.933 0 1.57.741 2.75 4.382 3.426l1.534.287c1.163.22 1.77.776 1.77 1.62 0 .844-1.062 1.755-2.663 1.755-1.315 0-2.849-.675-3.91-1.738l-.034-.034-1.585 1.62.034.034c1.685 1.384 3.388 2.025 5.36 2.025 1.668 0 3.05-.472 3.978-1.384.741-.725 1.18-1.704 1.18-2.683-.018-1.79-1.029-2.802-3.203-3.207ZM88.925 17.502a3.494 3.494 0 0 1-1.432-1.57c-.658-1.4-.59-2.92.202-4.135a4.083 4.083 0 0 1 3.472-1.907c1.365 0 2.646.675 3.405 1.823l.033.034 1.922-1.3-.034-.033a6.42 6.42 0 0 0-5.326-2.836 6.397 6.397 0 0 0-5.31 2.819c-1.23 1.806-1.449 4.05-.606 6.177a5.965 5.965 0 0 0 2.848 3.14c.978.489 2.023.742 3.085.742a6.399 6.399 0 0 0 5.377-2.92l.033-.034-1.938-1.266-.034.034c-1.247 1.857-3.691 2.397-5.697 1.232ZM39.861 3.562h-2.376l.084.084c.489.506.759 1.164.759 1.873v14.616h2.36V4.372c0-.44-.372-.81-.827-.81ZM31.232 3.562h-2.377l.085.084c.488.506.758 1.164.758 1.873v14.616h2.36V4.372c0-.44-.37-.81-.826-.81ZM35.614 7.898h-2.377l.085.085c.488.506.758 1.164.758 1.873v10.279h2.36V8.725a.828.828 0 0 0-.826-.827ZM99.14 3.562c-.826 0-1.5.675-1.5 1.502s.674 1.502 1.5 1.502 1.5-.675 1.5-1.502-.674-1.502-1.5-1.502ZM99.493 7.916h-2.376L97.2 8c.489.507.758 1.165.758 1.874v10.278h2.36V8.743c-.017-.473-.37-.827-.826-.827ZM117.174 3.562h-2.377l.085.084c.488.506.758 1.164.758 1.873v14.616H118V4.372c-.017-.44-.388-.81-.826-.81ZM111.797 7.916v1.417l-.084-.118c-.758-1.03-2.157-1.637-3.742-1.637-3.876 0-6.472 3.342-6.472 6.464 0 1.62.607 3.224 1.669 4.422.826.928 2.309 2.042 4.685 2.042 1.551 0 3.034-.641 3.877-1.67l.084-.102v1.418h2.36V7.916h-2.377Zm0 7.966c-.674 1.485-2.056 2.397-3.624 2.397-2.292 0-4.163-1.908-4.163-4.254 0-2.346 1.871-4.253 4.163-4.253 1.568 0 2.95.912 3.624 2.397v3.713ZM35.26 3.562c-.826 0-1.5.675-1.5 1.502s.674 1.502 1.5 1.502 1.5-.675 1.5-1.502-.674-1.502-1.5-1.502ZM77.279 7.562c-3.557 0-6.456 2.902-6.456 6.464 0 3.56 2.9 6.464 6.456 6.464 3.556 0 6.455-2.903 6.455-6.464 0-3.562-2.9-6.464-6.455-6.464Zm0 10.599a4.139 4.139 0 0 1-4.13-4.135 4.139 4.139 0 0 1 4.13-4.135 4.139 4.139 0 0 1 4.129 4.135c.017 2.278-1.837 4.135-4.13 4.135Z"/></svg>