<svg width="169" height="28" viewBox="0 0 169 28" fill="none" xmlns="http://www.w3.org/2000/svg">
<g clip-path="url(#clip0_923_8)">
<path d="M107.581 10.7786C106.021 10.7786 104.561 11.7752 103.515 13.3897H103.465L103.828 11.0227H102.832C102.682 12.0941 102.463 13.5143 102.174 15.0441L99.832 27.5018H100.878L101.815 22.454H101.865C102.592 22.8143 103.397 22.9856 104.207 22.9523C107.935 22.9523 110.64 18.5173 110.64 14.5657C110.625 12.6572 109.788 10.7786 107.581 10.7786ZM104.292 22.0404C103.485 22.0736 102.689 21.8427 102.025 21.3826L102.782 17.3612C103.44 13.8282 105.607 11.7054 107.267 11.7054C108.926 11.7054 109.534 13.2651 109.534 14.6554C109.534 17.6453 107.386 22.0404 104.307 22.0404H104.292ZM111.727 19.4342C111.727 21.5271 112.798 22.9921 114.577 22.9921C116.112 22.9921 117.602 22.1849 118.942 19.6036H118.987C118.821 20.6441 118.724 21.6946 118.698 22.748H119.72C119.698 20.9647 119.865 19.1842 120.218 17.436L121.459 11.1473C120.694 10.9086 119.897 10.7925 119.097 10.8035C114.577 10.7786 111.727 15.4079 111.727 19.4342ZM119.426 16.1902C118.867 19.2149 116.72 22.0653 114.821 22.0653C113.237 22.0653 112.798 20.6999 112.828 19.1651C112.853 15.4826 115.484 11.7303 118.848 11.7303C119.325 11.7067 119.804 11.7639 120.263 11.8998L119.426 16.1902ZM125.201 13.584H125.156C125.301 12.5575 125.4 11.7802 125.47 11.0227H124.518C124.397 12.307 124.211 13.5844 123.96 14.8498L122.465 22.723H123.512L124.633 16.7732C125.131 14.2169 126.825 11.8998 128.36 11.8998C128.49 11.8907 128.621 11.899 128.749 11.9247L128.968 10.8035C128.849 10.8035 128.679 10.7786 128.53 10.7786C127.07 10.7786 125.909 12.0243 125.201 13.584ZM132.212 22.0154C131.48 22.0154 131.166 21.6018 131.166 20.9192C131.18 20.2387 131.26 19.5611 131.405 18.896L132.701 11.9197H135.451L135.646 11.0178H132.895L133.393 8.46143L132.227 8.91987L131.833 11.0178H130.129L129.96 11.9197H131.639L130.324 18.896C130.154 19.598 130.064 20.3167 130.054 21.0388C130.023 21.5025 130.175 21.9602 130.478 22.3126C130.781 22.6651 131.211 22.8842 131.674 22.9224C131.777 22.9323 131.88 22.9323 131.983 22.9224C132.371 22.9185 132.757 22.8615 133.129 22.7529L133.049 21.9257C132.777 21.9997 132.494 22.03 132.212 22.0154ZM142.263 10.7786C140.654 10.7786 139.193 11.7054 138.167 13.4096H138.117L138.461 11.0227H137.464C137.37 11.9247 137.22 13.0708 136.966 14.4611L135.406 22.723H136.453L137.599 16.5091C138.097 13.6787 140.33 11.7303 141.889 11.7303C143.324 11.7303 143.813 12.6074 143.813 13.8282C143.806 14.4002 143.75 14.9704 143.643 15.5324L142.278 22.723H143.324L144.67 15.5324C144.8 14.9395 144.874 14.3355 144.889 13.7286C144.869 11.5111 143.409 10.7786 142.263 10.7786ZM152.279 10.7786C148.94 10.7786 146.573 15.1886 146.573 18.5522C146.573 20.7946 147.525 22.9423 150.256 22.9423C151.383 22.9626 152.492 22.6582 153.45 22.0653L153.131 21.2331C152.321 21.7426 151.383 22.0137 150.425 22.0154C149.834 22.0328 149.255 21.8432 148.788 21.4793C148.321 21.1154 147.996 20.6001 147.869 20.0222C147.659 19.0612 147.625 18.0702 147.769 17.0971C151.596 17.0971 155.01 16.2899 155.01 13.3199C155.01 12.0243 154.203 10.7786 152.279 10.7786ZM153.914 13.3897C153.914 15.7019 150.988 16.2151 147.934 16.1902C148.666 13.6538 150.276 11.7054 152.08 11.7054C153.176 11.7054 153.909 12.2884 153.909 13.3648L153.914 13.3897ZM161.882 11.9247L162.101 10.8035C161.976 10.8035 161.807 10.7786 161.662 10.7786C160.197 10.7786 159.031 12.0243 158.324 13.584H158.274C158.418 12.5575 158.518 11.7802 158.593 11.0227H157.626C157.526 12.0493 157.357 13.3648 157.063 14.8498L155.568 22.723H156.629L157.751 16.7732C158.249 14.2169 159.943 11.8998 161.483 11.8998C161.616 11.8905 161.75 11.8989 161.882 11.9247ZM166.292 11.7054C166.879 11.7214 167.452 11.8934 167.951 12.2037L168.34 11.3018C167.76 10.9527 167.092 10.7796 166.416 10.8035C164.343 10.8035 162.853 12.2984 162.853 14.1172C162.883 14.7139 163.065 15.2932 163.38 15.8005C163.696 16.3079 164.135 16.7266 164.657 17.0174C165.753 17.725 166.242 18.4326 166.242 19.6036C166.239 20.2521 165.98 20.8732 165.52 21.3308C165.061 21.7884 164.439 22.0453 163.79 22.0453H163.66C162.927 22.0404 162.212 21.8108 161.612 21.3876L161.199 22.2646C161.895 22.7366 162.72 22.9836 163.561 22.9722C165.584 22.9722 167.313 21.6816 167.313 19.3146C167.289 18.7012 167.111 18.1036 166.797 17.5762C166.483 17.0489 166.042 16.6084 165.514 16.2948C164.562 15.6371 163.93 15.0242 163.93 13.9279C163.93 13.6354 163.988 13.3458 164.101 13.0759C164.214 12.8059 164.378 12.5607 164.585 12.3543C164.793 12.1479 165.039 11.9844 165.309 11.8731C165.58 11.7617 165.869 11.7048 166.162 11.7054H166.292Z" fill="#F9F4F0"/>
<path d="M21.0885 5.27224C21.0789 5.21373 21.0502 5.16003 21.007 5.11948C20.9637 5.07893 20.9083 5.0538 20.8493 5.048L18.8062 5.00813C18.8062 5.00813 17.1817 3.43348 17.0222 3.26903C16.9378 3.21369 16.8419 3.17821 16.7418 3.16526C16.6417 3.15232 16.5399 3.16224 16.4442 3.19429L15.627 3.44843C15.521 3.11742 15.3842 2.79709 15.2184 2.49167C14.6353 1.38044 13.7882 0.797419 12.7667 0.797419H12.5574L12.4577 0.692774C12.2439 0.458135 11.9804 0.27419 11.6864 0.15436C11.3924 0.0345294 11.0754 -0.0181639 10.7585 0.000124204C9.43798 0.0350059 8.11746 0.996743 7.05108 2.68601C6.30395 3.86081 5.79594 5.17148 5.55615 6.54293L2.98986 7.36514C2.22246 7.60433 2.19754 7.62924 2.09788 8.36176C1.99324 8.9099 0 24.4173 0 24.4173L16.813 27.2925L24.0783 25.5036L21.0885 5.27224ZM14.7649 3.70755L13.4544 4.11118C13.4598 3.29203 13.325 2.47798 13.0557 1.70434C14.0772 1.88373 14.5506 3.02985 14.7799 3.69758L14.7649 3.70755ZM12.6172 4.37528L9.80673 5.24234C10.0588 4.22712 10.5452 3.28507 11.2269 2.49167C11.4913 2.19574 11.8158 1.9596 12.1787 1.79902C12.5029 2.61779 12.6523 3.49534 12.6172 4.37528ZM10.8133 0.887115C11.0943 0.873398 11.3726 0.946468 11.6106 1.0964C11.2199 1.29562 10.8673 1.56214 10.5691 1.88373C9.67156 2.92144 9.06921 4.18121 8.82506 5.53136L6.52287 6.26886C6.97633 4.14108 8.7553 0.951895 10.7984 0.887115H10.8133Z" fill="#F9F4F0"/>
<path d="M20.8687 5.04767L18.8257 5.00781C18.8257 5.00781 17.2012 3.43315 17.0417 3.26871C16.9784 3.21026 16.8981 3.17359 16.8125 3.16406V27.2972L24.0778 25.5083L21.088 5.27191C21.0795 5.21631 21.0537 5.16477 21.0144 5.12455C20.9751 5.08433 20.9241 5.05744 20.8687 5.04767Z" fill="#F9F4F0"/>
<path d="M12.7762 8.79522L11.9291 11.9595C11.2763 11.6892 10.5718 11.5666 9.86611 11.6007C8.22668 11.7053 8.20674 12.7418 8.22668 13.0009C8.31139 14.4161 12.0387 14.7251 12.248 18.0389C12.4125 20.65 10.8627 22.4339 8.63031 22.5735C7.87922 22.639 7.1227 22.5475 6.40892 22.3047C5.69514 22.0619 5.03972 21.6732 4.48438 21.1633L5.05245 18.7514C5.05245 18.7514 6.54738 19.8677 7.72338 19.7929C8.00096 19.7864 8.2648 19.6708 8.45783 19.4713C8.65087 19.2717 8.75758 19.0042 8.75488 18.7265V18.6667C8.63529 16.823 5.60557 16.9326 5.41123 13.8979C5.25177 11.3515 6.93107 8.75535 10.6335 8.52115C11.3594 8.43876 12.0945 8.53278 12.7762 8.79522Z" fill="#1D1916"/>
<path d="M33.974 15.5524C33.1269 15.094 32.6933 14.7053 32.6933 14.1771C32.6933 13.4994 33.2963 13.0658 34.2381 13.0658C34.9526 13.0802 35.6572 13.236 36.3111 13.5243L37.0834 11.1573C37.0834 11.1573 36.3758 10.6042 34.2879 10.6042C31.3778 10.6042 29.3646 12.2686 29.3646 14.5907C29.3646 15.9162 30.3064 16.9277 31.5572 17.6553C32.5538 18.2333 32.9325 18.6519 32.9325 19.2449C32.9325 19.8379 32.4342 20.381 31.4874 20.381C30.5373 20.3399 29.6074 20.0934 28.7617 19.6585L27.9395 22.0205C28.9385 22.5891 30.0742 22.8734 31.2233 22.8427C34.2132 22.8427 36.3609 21.3477 36.3609 18.7167C36.3758 17.3314 35.2746 16.2999 33.974 15.5524ZM45.8935 10.5793C45.2086 10.5829 44.5337 10.7433 43.9204 11.0482C43.3071 11.3531 42.7718 11.7944 42.3555 12.3383H42.3057L43.6013 5.651H40.2726L37.0336 22.6434H40.3623L41.4785 16.8331C41.912 14.6405 43.0482 13.2851 44.1096 13.2851C44.8571 13.2851 45.1461 13.7834 45.1461 14.5159C45.1451 15.0177 45.0967 15.5182 45.0016 16.0109L43.7458 22.6683H47.0745L48.3801 15.7916C48.5242 15.0759 48.6043 14.3488 48.6193 13.619C48.6193 11.7154 47.6326 10.5793 45.8935 10.5793ZM56.1488 10.5793C52.1623 10.5793 49.4913 14.197 49.4913 18.2283C49.4913 20.8096 51.0809 22.8875 54.0758 22.8875C58.0074 22.8875 60.6634 19.3645 60.6634 15.2385C60.6634 12.8466 59.2632 10.5793 56.1488 10.5793ZM54.5093 20.3212C53.3732 20.3212 52.8898 19.3595 52.8898 18.1536C52.8898 16.2451 53.8864 13.1306 55.6903 13.1306C56.8713 13.1306 57.26 14.1272 57.26 15.1239C57.26 17.1918 56.2683 20.3212 54.5093 20.3212ZM69.1795 10.5793C66.9322 10.5793 65.6565 12.5725 65.6565 12.5725H65.6067L65.801 10.7886H62.856C62.7115 11.9945 62.4474 13.8283 62.1833 15.2036L59.8661 27.4072H63.1948L64.1117 22.4889H64.1865C64.7881 22.8027 65.4619 22.9522 66.1399 22.9224C70.0516 22.9224 72.6179 18.9359 72.6179 14.8598C72.6079 12.5825 71.6163 10.5793 69.1795 10.5793ZM65.9953 20.376C65.492 20.3799 65.004 20.2031 64.62 19.8777L65.1731 16.7683C65.5618 14.6903 66.6681 13.315 67.8042 13.315C68.8008 13.315 69.1347 14.2568 69.1347 15.1488C69.1347 17.3314 67.854 20.376 65.9953 20.376ZM77.3618 5.8005C77.1118 5.79984 76.8641 5.84843 76.6329 5.94349C76.4017 6.03854 76.1915 6.17821 76.0143 6.3545C75.8371 6.5308 75.6963 6.74028 75.6001 6.97098C75.5038 7.20168 75.4539 7.44908 75.4533 7.69905V7.73394C75.4201 8.1394 75.5488 8.54151 75.8111 8.85243C76.0735 9.16334 76.4482 9.3578 76.8535 9.39331H77.0728C77.3202 9.40264 77.567 9.36311 77.7991 9.27697C78.0312 9.19084 78.244 9.0598 78.4255 8.89133C78.6069 8.72287 78.7533 8.52029 78.8564 8.29519C78.9595 8.07009 79.0171 7.82687 79.0261 7.57946V7.47481C79.0479 7.05605 78.9027 6.64574 78.6225 6.33378C78.3423 6.02181 77.9499 5.83363 77.5312 5.81046L77.3618 5.8005ZM72.7026 22.6434H76.0363L78.3036 10.8434H74.95L72.7026 22.6434ZM86.7748 10.8185H84.4577L84.5773 10.2653C84.7716 9.1292 85.4444 8.11763 86.5705 8.11763C86.9311 8.11668 87.2896 8.17389 87.6319 8.28706L88.2847 5.6809C87.7094 5.45622 87.0925 5.35766 86.4759 5.39188C85.2909 5.35616 84.1332 5.75093 83.2169 6.50311C82.1593 7.49782 81.4766 8.82638 81.2835 10.2653L81.1888 10.8185H79.644L79.1457 13.31H80.6905L78.9315 22.6234H82.2602L84.0192 13.3449H86.3164L86.7748 10.8185ZM94.7827 10.8534C94.7827 10.8534 92.7047 16.1005 91.7928 18.9608H91.743C91.6782 18.039 90.9258 10.8534 90.9258 10.8534H87.4376L89.4308 21.6916C89.4579 21.7836 89.4656 21.8802 89.4536 21.9754C89.4416 22.0706 89.4101 22.1623 89.3611 22.2447C88.9232 23.0421 88.3035 23.725 87.5522 24.2379C86.9724 24.64 86.3381 24.9571 85.6686 25.1797L86.5855 28.0002C87.805 27.6767 88.9249 27.0551 89.8444 26.1913C91.3394 24.7661 92.7645 22.5736 94.2096 19.5787L98.2609 10.8534H94.7827Z" fill="#F9F4F0"/>
</g>
<defs>
<clipPath id="clip0_923_8">
<rect width="168.339" height="28" fill="white"/>
</clipPath>
</defs>
</svg>
