<svg width="112" height="100" viewBox="0 0 112 100" fill="none" xmlns="http://www.w3.org/2000/svg">
<g clip-path="url(#clip0_690:3)">
<path d="M15.2098 0.410034C18.1198 1.23003 19.3398 3.60003 20.4698 6.08003C21.1898 7.65003 22.0098 9.18003 22.8498 10.85C24.3998 10.48 25.8498 10.08 27.3998 9.76003C31.2987 8.91624 35.3364 8.94984 39.2208 9.85841C43.1051 10.767 46.7388 12.5278 49.859 15.0134C52.9792 17.499 55.5077 20.6472 57.2615 24.2301C59.0154 27.8131 59.9507 31.7412 59.9998 35.73C60.1098 42.6 59.9998 49.47 59.9998 56.34C60.0677 57.1141 60.2049 57.8805 60.4098 58.63L60.0798 71.91C60.0131 80.09 59.9464 88.2667 59.8798 96.44H58.8198C58.6737 95.5561 58.5769 94.6647 58.5298 93.77C58.5298 74.79 58.5298 55.81 58.5298 36.83C58.5298 18.55 41.9798 6.45003 24.5298 12.02C22.6998 12.6 21.7398 12.17 20.9998 10.52C20.0798 8.52003 19.0798 6.52003 18.0598 4.52003C16.9498 2.37003 15.1198 1.57003 13.4298 2.42003C11.7398 3.27003 11.2398 5.05003 12.3398 7.33003C13.5598 9.87003 14.8698 12.33 15.9798 14.94C16.2398 15.53 15.8598 16.39 15.7798 17.13C15.0864 17.0834 14.408 16.907 13.7798 16.61C12.0698 15.32 10.4598 13.88 8.77976 12.5C8.39976 12.18 8.02976 11.84 7.63976 11.5C6.95214 10.8756 6.04506 10.5492 5.11724 10.5924C4.18943 10.6355 3.31652 11.0446 2.68976 11.73C1.10976 13.32 1.87976 15.06 3.20976 16.37C4.74741 17.8595 6.38451 19.2427 8.10976 20.51C10.5598 22.37 10.7898 23.13 9.38976 25.75C7.56976 29.15 7.24976 32.83 7.25976 36.62C7.30976 53.11 7.25976 69.62 7.25976 86.1C7.25976 87.03 7.15976 87.97 7.10976 88.9L6.38976 89.05C6.10611 88.6032 5.90619 88.1085 5.79976 87.59C5.93976 69 5.99976 50.36 6.27976 31.73C6.27976 28.84 7.83976 25.97 8.73976 22.89C6.80976 21.22 4.59976 19.4 2.49976 17.46C0.399763 15.52 0.0797633 12.93 1.74976 10.88C3.41976 8.83003 6.24976 8.64003 8.62976 10.45C10.0798 11.54 11.4898 12.69 12.9098 13.82L13.6498 14.38L13.3998 13.17C12.8498 11.97 12.3298 10.76 11.7298 9.58003C9.35976 4.93003 9.46976 4.18003 13.2198 0.410034H15.2098Z" fill="#1A1919"/>
<path d="M60.0698 71.91L60.3998 58.63C61.2298 54.43 61.3998 49.97 63.0098 46.07C67.6298 34.67 80.2498 29.76 91.6798 34.42L93.7498 35.27C94.8798 33.6 95.9998 31.88 97.1698 30.21C98.7698 27.94 100.99 27.33 102.93 28.58C104.87 29.83 105.18 32.18 103.75 34.47C102.945 35.6617 102.236 36.9157 101.63 38.22C104.86 36.67 107.96 34.02 111.28 37.73V41.73C109.1 43.16 106.91 44.56 104.78 46.06C104.34 46.37 103.78 47.18 103.91 47.55C106.1 53.82 104.41 60.04 103.69 66.24C102.86 73.32 101.82 80.36 100.85 87.42C100.706 88.1261 100.512 88.8212 100.27 89.5L99.4598 89.4C99.3934 88.4011 99.3934 87.3989 99.4598 86.4C100.66 77.21 102.11 68.04 103.05 58.81C103.41 55.28 102.78 51.62 102.31 48.05C102.12 46.59 102.31 45.71 103.54 44.96C105.312 44.0296 106.987 42.9241 108.54 41.66C108.926 41.2497 109.21 40.7546 109.37 40.2145C109.53 39.6743 109.56 39.1042 109.46 38.55C108.95 37.19 107.46 36.89 106.1 37.71C104.33 38.77 102.62 39.97 100.8 40.95C100.089 41.1533 99.3453 41.2178 98.6098 41.14C98.5805 40.461 98.6789 39.7826 98.8998 39.14C99.9998 37.3 101.25 35.53 102.46 33.75C103.35 32.45 103.71 31.09 102.27 30.03C100.83 28.97 99.4698 29.62 98.4998 31.03C97.6048 32.224 96.7705 33.4622 95.9998 34.74C94.9198 36.74 93.7298 37.05 91.5798 36.08C84.2298 32.79 77.1798 33.6 70.7098 38.4C68.592 39.9437 66.8103 41.9019 65.4728 44.1556C64.1354 46.4093 63.2702 48.9115 62.9298 51.51C61.9198 58.3 60.9998 65.11 60.0698 71.91Z" fill="#FB6A2D"/>
<path d="M56.1199 42.9301C54.1196 45.0028 51.7249 46.6545 49.0767 47.7879C46.4285 48.9214 43.5804 49.5137 40.6999 49.5301C33.9805 49.7728 27.3975 47.5939 22.1499 43.3901L22.5199 42.5001C23.3399 42.8801 24.1899 43.2101 24.9699 43.6601C33.4699 48.5301 42.1499 50.0001 51.1299 45.0001C52.6799 44.1401 54.1299 43.0601 55.5799 42.0701L56.1199 42.9301Z" fill="#1E1E1E"/>
<path d="M64 57C72.06 64.9 81.15 64.81 90.9 60.88C86.96 64.32 82.3 65.1 77.48 64.8C71.84 64.48 67.14 62.13 64 57Z" fill="#FB6C2F"/>
<path d="M26.8199 34.24C27.5199 37.14 28.3699 39.43 31.1599 39.51C34.1599 39.59 34.9499 37.17 35.9199 34.84C37.0499 36.45 36.3699 37.84 35.3899 39.05C34.5282 40.0711 33.3197 40.738 31.9964 40.9226C30.673 41.1071 29.3282 40.7964 28.2199 40.05C26.2299 38.74 25.6099 36.88 26.8199 34.24Z" fill="#1F1F1F"/>
<path d="M42.4198 34.1901C43.2398 37.1901 44.0398 39.5801 47.0098 39.5101C49.8198 39.4401 50.7298 37.2301 51.4698 34.8001C52.7898 36.4301 52.0298 37.8001 51.0798 39.0301C50.2603 40.0311 49.1071 40.7026 47.832 40.9213C46.557 41.1399 45.2459 40.8909 44.1398 40.2201C42.0498 39.0001 41.2798 37.0001 42.4198 34.1901Z" fill="#1F1F1F"/>
<path d="M80.4796 53.61C81.8296 54.88 82.9995 56.82 84.3395 57C85.6795 57.18 87.0796 55.4 88.7496 54.31C89.1696 55.86 88.3296 57.01 87.0696 57.97C86.1854 58.5927 85.1075 58.8785 84.031 58.7758C82.9544 58.6731 81.9501 58.1886 81.1995 57.41C79.8695 56 79.7296 54.64 80.4796 53.61Z" fill="#FC6F34"/>
<path d="M67.9996 51.3401C71.8596 56.4501 71.8596 56.4501 75.9396 52.4701C76.7796 54.3501 75.7196 55.4701 74.4796 56.3601C73.6844 56.9907 72.683 57.3032 71.6702 57.2366C70.6574 57.1701 69.7056 56.7294 68.9996 56.0001C68.297 55.476 67.8084 54.7149 67.6245 53.8579C67.4406 53.0009 67.5739 52.1063 67.9996 51.3401Z" fill="#FC6D30"/>
<path d="M97.8096 99.58C98.0896 97.46 98.3762 95.34 98.6696 93.22L99.9696 93.38L99.1896 99.7L97.8096 99.58Z" fill="#FB6D30"/>
<path d="M13.3997 13.17L13.6497 14.38L12.9097 13.82L13.3997 13.17Z" fill="#FCFBFB"/>
<path d="M10 82C10.5523 82 11 81.5523 11 81C11 80.4477 10.5523 80 10 80C9.44771 80 9 80.4477 9 81C9 81.5523 9.44771 82 10 82Z" fill="black"/>
<path d="M15 77C15.5523 77 16 76.5523 16 76C16 75.4477 15.5523 75 15 75C14.4477 75 14 75.4477 14 76C14 76.5523 14.4477 77 15 77Z" fill="black"/>
<path d="M15 72C15.5523 72 16 71.5523 16 71C16 70.4477 15.5523 70 15 70C14.4477 70 14 70.4477 14 71C14 71.5523 14.4477 72 15 72Z" fill="black"/>
<path d="M15 67C15.5523 67 16 66.5523 16 66C16 65.4477 15.5523 65 15 65C14.4477 65 14 65.4477 14 66C14 66.5523 14.4477 67 15 67Z" fill="black"/>
<path d="M10 92C10.5523 92 11 91.5523 11 91C11 90.4477 10.5523 90 10 90C9.44771 90 9 90.4477 9 91C9 91.5523 9.44771 92 10 92Z" fill="black"/>
<path d="M10 87C10.5523 87 11 86.5523 11 86C11 85.4477 10.5523 85 10 85C9.44771 85 9 85.4477 9 86C9 86.5523 9.44771 87 10 87Z" fill="black"/>
<path d="M10 77C10.5523 77 11 76.5523 11 76C11 75.4477 10.5523 75 10 75C9.44771 75 9 75.4477 9 76C9 76.5523 9.44771 77 10 77Z" fill="black"/>
<path d="M10 72C10.5523 72 11 71.5523 11 71C11 70.4477 10.5523 70 10 70C9.44771 70 9 70.4477 9 71C9 71.5523 9.44771 72 10 72Z" fill="black"/>
<path d="M10 67C10.5523 67 11 66.5523 11 66C11 65.4477 10.5523 65 10 65C9.44771 65 9 65.4477 9 66C9 66.5523 9.44771 67 10 67Z" fill="black"/>
<path d="M20 77C20.5523 77 21 76.5523 21 76C21 75.4477 20.5523 75 20 75C19.4477 75 19 75.4477 19 76C19 76.5523 19.4477 77 20 77Z" fill="black"/>
<path d="M20 87C20.5523 87 21 86.5523 21 86C21 85.4477 20.5523 85 20 85C19.4477 85 19 85.4477 19 86C19 86.5523 19.4477 87 20 87Z" fill="black"/>
<path d="M20 82C20.5523 82 21 81.5523 21 81C21 80.4477 20.5523 80 20 80C19.4477 80 19 80.4477 19 81C19 81.5523 19.4477 82 20 82Z" fill="black"/>
<path d="M15 92C15.5523 92 16 91.5523 16 91C16 90.4477 15.5523 90 15 90C14.4477 90 14 90.4477 14 91C14 91.5523 14.4477 92 15 92Z" fill="black"/>
<path d="M15 87C15.5523 87 16 86.5523 16 86C16 85.4477 15.5523 85 15 85C14.4477 85 14 85.4477 14 86C14 86.5523 14.4477 87 15 87Z" fill="black"/>
<path d="M15 82C15.5523 82 16 81.5523 16 81C16 80.4477 15.5523 80 15 80C14.4477 80 14 80.4477 14 81C14 81.5523 14.4477 82 15 82Z" fill="black"/>
<path d="M20 72C20.5523 72 21 71.5523 21 71C21 70.4477 20.5523 70 20 70C19.4477 70 19 70.4477 19 71C19 71.5523 19.4477 72 20 72Z" fill="black"/>
<path d="M25 77C25.5523 77 26 76.5523 26 76C26 75.4477 25.5523 75 25 75C24.4477 75 24 75.4477 24 76C24 76.5523 24.4477 77 25 77Z" fill="black"/>
<path d="M10 57C10.5523 57 11 56.5523 11 56C11 55.4477 10.5523 55 10 55C9.44771 55 9 55.4477 9 56C9 56.5523 9.44771 57 10 57Z" fill="black"/>
<path d="M25 92C25.5523 92 26 91.5523 26 91C26 90.4477 25.5523 90 25 90C24.4477 90 24 90.4477 24 91C24 91.5523 24.4477 92 25 92Z" fill="black"/>
<path d="M15 62C15.5523 62 16 61.5523 16 61C16 60.4477 15.5523 60 15 60C14.4477 60 14 60.4477 14 61C14 61.5523 14.4477 62 15 62Z" fill="black"/>
<path d="M25 87C25.5523 87 26 86.5523 26 86C26 85.4477 25.5523 85 25 85C24.4477 85 24 85.4477 24 86C24 86.5523 24.4477 87 25 87Z" fill="black"/>
<path d="M25 82C25.5523 82 26 81.5523 26 81C26 80.4477 25.5523 80 25 80C24.4477 80 24 80.4477 24 81C24 81.5523 24.4477 82 25 82Z" fill="black"/>
<path d="M30 92C30.5523 92 31 91.5523 31 91C31 90.4477 30.5523 90 30 90C29.4477 90 29 90.4477 29 91C29 91.5523 29.4477 92 30 92Z" fill="black"/>
<path d="M30 87C30.5523 87 31 86.5523 31 86C31 85.4477 30.5523 85 30 85C29.4477 85 29 85.4477 29 86C29 86.5523 29.4477 87 30 87Z" fill="black"/>
<path d="M30 82C30.5523 82 31 81.5523 31 81C31 80.4477 30.5523 80 30 80C29.4477 80 29 80.4477 29 81C29 81.5523 29.4477 82 30 82Z" fill="black"/>
<path d="M45 92C45.5523 92 46 91.5523 46 91C46 90.4477 45.5523 90 45 90C44.4477 90 44 90.4477 44 91C44 91.5523 44.4477 92 45 92Z" fill="black"/>
<path d="M40 92C40.5523 92 41 91.5523 41 91C41 90.4477 40.5523 90 40 90C39.4477 90 39 90.4477 39 91C39 91.5523 39.4477 92 40 92Z" fill="black"/>
<path d="M50 92C50.5523 92 51 91.5523 51 91C51 90.4477 50.5523 90 50 90C49.4477 90 49 90.4477 49 91C49 91.5523 49.4477 92 50 92Z" fill="black"/>
<path d="M10 62C10.5523 62 11 61.5523 11 61C11 60.4477 10.5523 60 10 60C9.44771 60 9 60.4477 9 61C9 61.5523 9.44771 62 10 62Z" fill="black"/>
<path d="M20 92C20.5523 92 21 91.5523 21 91C21 90.4477 20.5523 90 20 90C19.4477 90 19 90.4477 19 91C19 91.5523 19.4477 92 20 92Z" fill="black"/>
<path d="M35 87C35.5523 87 36 86.5523 36 86C36 85.4477 35.5523 85 35 85C34.4477 85 34 85.4477 34 86C34 86.5523 34.4477 87 35 87Z" fill="black"/>
<path d="M35 92C35.5523 92 36 91.5523 36 91C36 90.4477 35.5523 90 35 90C34.4477 90 34 90.4477 34 91C34 91.5523 34.4477 92 35 92Z" fill="black"/>
<path d="M20 67C20.5523 67 21 66.5523 21 66C21 65.4477 20.5523 65 20 65C19.4477 65 19 65.4477 19 66C19 66.5523 19.4477 67 20 67Z" fill="black"/>
<path d="M55 92C55.5523 92 56 91.5523 56 91C56 90.4477 55.5523 90 55 90C54.4477 90 54 90.4477 54 91C54 91.5523 54.4477 92 55 92Z" fill="black"/>
<path d="M50 87C50.5523 87 51 86.5523 51 86C51 85.4477 50.5523 85 50 85C49.4477 85 49 85.4477 49 86C49 86.5523 49.4477 87 50 87Z" fill="black"/>
<path d="M35 82C35.5523 82 36 81.5523 36 81C36 80.4477 35.5523 80 35 80C34.4477 80 34 80.4477 34 81C34 81.5523 34.4477 82 35 82Z" fill="black"/>
<path d="M40 82C40.5523 82 41 81.5523 41 81C41 80.4477 40.5523 80 40 80C39.4477 80 39 80.4477 39 81C39 81.5523 39.4477 82 40 82Z" fill="black"/>
<path d="M35 77C35.5523 77 36 76.5523 36 76C36 75.4477 35.5523 75 35 75C34.4477 75 34 75.4477 34 76C34 76.5523 34.4477 77 35 77Z" fill="black"/>
<path d="M40 77C40.5523 77 41 76.5523 41 76C41 75.4477 40.5523 75 40 75C39.4477 75 39 75.4477 39 76C39 76.5523 39.4477 77 40 77Z" fill="black"/>
<path d="M45 82C45.5523 82 46 81.5523 46 81C46 80.4477 45.5523 80 45 80C44.4477 80 44 80.4477 44 81C44 81.5523 44.4477 82 45 82Z" fill="black"/>
<path d="M30 77C30.5523 77 31 76.5523 31 76C31 75.4477 30.5523 75 30 75C29.4477 75 29 75.4477 29 76C29 76.5523 29.4477 77 30 77Z" fill="black"/>
<path d="M25 72C25.5523 72 26 71.5523 26 71C26 70.4477 25.5523 70 25 70C24.4477 70 24 70.4477 24 71C24 71.5523 24.4477 72 25 72Z" fill="black"/>
<path d="M35 72C35.5523 72 36 71.5523 36 71C36 70.4477 35.5523 70 35 70C34.4477 70 34 70.4477 34 71C34 71.5523 34.4477 72 35 72Z" fill="black"/>
<path d="M30 72C30.5523 72 31 71.5523 31 71C31 70.4477 30.5523 70 30 70C29.4477 70 29 70.4477 29 71C29 71.5523 29.4477 72 30 72Z" fill="black"/>
<path d="M25 67C25.5523 67 26 66.5523 26 66C26 65.4477 25.5523 65 25 65C24.4477 65 24 65.4477 24 66C24 66.5523 24.4477 67 25 67Z" fill="black"/>
<path d="M20 62C20.5523 62 21 61.5523 21 61C21 60.4477 20.5523 60 20 60C19.4477 60 19 60.4477 19 61C19 61.5523 19.4477 62 20 62Z" fill="black"/>
<path d="M15 57C15.5523 57 16 56.5523 16 56C16 55.4477 15.5523 55 15 55C14.4477 55 14 55.4477 14 56C14 56.5523 14.4477 57 15 57Z" fill="black"/>
<path d="M10 52C10.5523 52 11 51.5523 11 51C11 50.4477 10.5523 50 10 50C9.44771 50 9 50.4477 9 51C9 51.5523 9.44771 52 10 52Z" fill="black"/>
<path d="M10 48C10.5523 48 11 47.5523 11 47C11 46.4477 10.5523 46 10 46C9.44771 46 9 46.4477 9 47C9 47.5523 9.44771 48 10 48Z" fill="black"/>
<path d="M15 52C15.5523 52 16 51.5523 16 51C16 50.4477 15.5523 50 15 50C14.4477 50 14 50.4477 14 51C14 51.5523 14.4477 52 15 52Z" fill="black"/>
<path d="M20 57C20.5523 57 21 56.5523 21 56C21 55.4477 20.5523 55 20 55C19.4477 55 19 55.4477 19 56C19 56.5523 19.4477 57 20 57Z" fill="black"/>
<path d="M25 62C25.5523 62 26 61.5523 26 61C26 60.4477 25.5523 60 25 60C24.4477 60 24 60.4477 24 61C24 61.5523 24.4477 62 25 62Z" fill="black"/>
<path d="M30 67C30.5523 67 31 66.5523 31 66C31 65.4477 30.5523 65 30 65C29.4477 65 29 65.4477 29 66C29 66.5523 29.4477 67 30 67Z" fill="black"/>
<path d="M45 87C45.5523 87 46 86.5523 46 86C46 85.4477 45.5523 85 45 85C44.4477 85 44 85.4477 44 86C44 86.5523 44.4477 87 45 87Z" fill="black"/>
<path d="M40 87C40.5523 87 41 86.5523 41 86C41 85.4477 40.5523 85 40 85C39.4477 85 39 85.4477 39 86C39 86.5523 39.4477 87 40 87Z" fill="black"/>
</g>
<defs>
<clipPath id="clip0_690:3">
<rect width="111.28" height="100" fill="white"/>
</clipPath>
</defs>
</svg>
