<svg xmlns="http://www.w3.org/2000/svg" xmlns:xlink="http://www.w3.org/1999/xlink" id="Layer_1"
                        data-name="Layer 1" viewBox="0 0 150 150">
                        <style>
                            .cls-1,
.cls-2,
.cls-3 {
    fill: none;
}

.cls-2 {
    stroke: #000;
}

.cls-2,
.cls-3 {
    stroke-linecap: round;
    stroke-linejoin: round;
    stroke-width: 1.5px;
}

.cls-3 {
    stroke: #ff4600;
}

.cls-4 {
    fill: url(#_10_dpi_10_);
}
                        </style>
                        <defs>
                            <pattern id="_10_dpi_10_" data-name="10 dpi 10%" width="28.8" height="28.8"
                                patternUnits="userSpaceOnUse" viewBox="0 0 28.8 28.8">
                                <rect class="cls-1" width="28.8" height="28.8"></rect>
                                <path d="M9.36,28a.72.72,0,1,0-.72-.72A.72.72,0,0,0,9.36,28Z"></path>
                                <path d="M9.36,13.64a.72.72,0,1,0-.72-.72A.72.72,0,0,0,9.36,13.64Z"></path>
                                <path d="M3.43,20.84a.72.72,0,1,0-.72-.72A.72.72,0,0,0,3.43,20.84Z"></path>
                                <path d="M15.22,20.84a.72.72,0,1,0-.72-.72A.72.72,0,0,0,15.22,20.84Z"></path>
                                <path d="M3.43,5.72A.72.72,0,1,0,2.71,5,.72.72,0,0,0,3.43,5.72Z"></path>
                                <path d="M9.36,5.72A.72.72,0,1,0,8.64,5,.72.72,0,0,0,9.36,5.72Z"></path>
                                <path d="M9.36,20.84a.72.72,0,1,0-.72-.72A.72.72,0,0,0,9.36,20.84Z"></path>
                                <path d="M15.22,13.64a.72.72,0,1,0-.72-.72A.72.72,0,0,0,15.22,13.64Z"></path>
                                <path d="M3.43,13.64a.72.72,0,1,0-.72-.72A.72.72,0,0,0,3.43,13.64Z"></path>
                                <path d="M3.43,28a.72.72,0,1,0-.72-.72A.72.72,0,0,0,3.43,28Z"></path>
                                <path d="M15.22,28a.72.72,0,1,0-.72-.72A.72.72,0,0,0,15.22,28Z"></path>
                                <path d="M26.8,5.72A.72.72,0,1,0,26.08,5,.72.72,0,0,0,26.8,5.72Z"></path>
                                <path d="M26.8,13.64a.72.72,0,1,0-.72-.72A.72.72,0,0,0,26.8,13.64Z"></path>
                                <path d="M26.8,20.84a.72.72,0,1,0-.72-.72A.72.72,0,0,0,26.8,20.84Z"></path>
                                <path d="M26.8,28a.72.72,0,1,0-.72-.72A.72.72,0,0,0,26.8,28Z"></path>
                                <path d="M15.22,5.72A.72.72,0,1,0,14.5,5,.72.72,0,0,0,15.22,5.72Z"></path>
                                <circle cx="21.03" cy="27.32" r="0.72"></circle>
                                <path d="M21,13.64a.72.72,0,0,0,0-1.44.72.72,0,0,0,0,1.44Z"></path>
                                <path d="M9.36,9.83a.72.72,0,1,0-.72-.72A.72.72,0,0,0,9.36,9.83Z"></path>
                                <path d="M15.22,9.83a.72.72,0,1,0-.72-.72A.72.72,0,0,0,15.22,9.83Z"></path>
                                <path d="M3.43,9.83a.72.72,0,1,0-.72-.72A.72.72,0,0,0,3.43,9.83Z"></path>
                                <path d="M26.8,9.83a.72.72,0,1,0-.72-.72A.72.72,0,0,0,26.8,9.83Z"></path>
                                <path d="M21,9.83a.72.72,0,0,0,0-1.44.72.72,0,0,0,0,1.44Z"></path>
                                <path d="M9.36,17a.72.72,0,1,0-.72-.72A.72.72,0,0,0,9.36,17Z"></path>
                                <path d="M15.22,17a.72.72,0,1,0-.72-.72A.72.72,0,0,0,15.22,17Z"></path>
                                <path d="M3.43,17a.72.72,0,1,0-.72-.72A.72.72,0,0,0,3.43,17Z"></path>
                                <path d="M26.8,17a.72.72,0,1,0-.72-.72A.72.72,0,0,0,26.8,17Z"></path>
                                <path d="M21,17a.72.72,0,1,0-.71-.72A.72.72,0,0,0,21,17Z"></path>
                                <path d="M21,20.84a.72.72,0,0,0,0-1.44.72.72,0,0,0,0,1.44Z"></path>
                                <path d="M3.43,24.38a.72.72,0,1,0-.72-.72A.72.72,0,0,0,3.43,24.38Z"></path>
                                <path d="M15.22,24.38a.72.72,0,1,0-.72-.72A.72.72,0,0,0,15.22,24.38Z"></path>
                                <path d="M9.36,24.38a.72.72,0,1,0-.72-.72A.72.72,0,0,0,9.36,24.38Z"></path>
                                <path d="M26.8,24.38a.72.72,0,1,0-.72-.72A.72.72,0,0,0,26.8,24.38Z"></path>
                                <path d="M21,24.38a.72.72,0,1,0-.72-.72A.72.72,0,0,0,21,24.38Z"></path>
                                <path d="M21,5.72A.72.72,0,1,0,20.32,5,.72.72,0,0,0,21,5.72Z"></path>
                                <path d="M3.43,2.2a.72.72,0,1,0-.72-.72A.72.72,0,0,0,3.43,2.2Z"></path>
                                <path d="M9.36,2.2a.72.72,0,1,0-.72-.72A.72.72,0,0,0,9.36,2.2Z"></path>
                                <path d="M26.8,2.2a.72.72,0,1,0-.72-.72A.72.72,0,0,0,26.8,2.2Z"></path>
                                <path d="M15.22,2.2a.72.72,0,1,0-.72-.72A.72.72,0,0,0,15.22,2.2Z"></path>
                                <path d="M21,2.2a.72.72,0,1,0-.71-.72A.72.72,0,0,0,21,2.2Z"></path>
                            </pattern>
                        </defs>
                        <rect class="cls-2" x="15" y="35.96" width="81.76" height="56.01" rx="6.08"></rect>
                        <line class="cls-2" x1="86.31" y1="35.96" x2="86.31" y2="91.97"></line>
                        <path class="cls-3"
                            d="M49.92,64h0a6,6,0,0,1,6,6V114a0,0,0,0,1,0,0H44a0,0,0,0,1,0,0V69.93a6,6,0,0,1,6-6Z">
                        </path>
                        <rect class="cls-3" x="34.13" y="107.69" width="9.83" height="6.34"></rect>
                        <polyline class="cls-3" points="62.78 107.69 96.76 107.69 96.76 114.03 62.78 114.03"></polyline>
                        <rect class="cls-3" x="111.91" y="91.97" width="19.14" height="22.06"></rect>
                        <path class="cls-3"
                            d="M114.89,110.86h-5.51a5.34,5.34,0,0,1-5.34-5.34V102a5.34,5.34,0,0,1,5.34-5.34h5.51">
                        </path>
                        <path class="cls-2" d="M115.62,51.63s3.76,5.51,2.75,11.45S114,67,115.62,79.46"></path>
                        <path class="cls-2" d="M125.24,60.73S129,66.24,128,72.18s-4.35,3.87-2.76,16.38"></path>
                        <line class="cls-2" x1="15" y1="114.04" x2="135" y2="114.04"></line>
                        <path class="cls-4"
                            d="M21.93,36h9.45a0,0,0,0,1,0,0V92a0,0,0,0,1,0,0h-10a6.4,6.4,0,0,1-6.4-6.4V42.9A6.93,6.93,0,0,1,21.93,36Z">
                        </path>
                    </svg>