<svg xmlns="http://www.w3.org/2000/svg" xmlns:xlink="http://www.w3.org/1999/xlink" id="Layer_1" data-name="Layer 1" viewBox="0 0 739.55 533.47">
    <style>
        .cls-1,
        .cls-4,
        .cls-5,
        .cls-7 {
        fill: none;
        }

        .cls-2 {
        fill: #ff4600;
        }

        .cls-3 {
        fill: #fc5710;
        }

        .cls-4 {
        stroke: #000;
        stroke-miterlimit: 10;
        }

        .cls-4,
        .cls-5,
        .cls-7 {
        stroke-linecap: round;
        }

        .cls-5 {
        stroke: #ff4600;
        }

        .cls-5,
        .cls-7 {
        stroke-linejoin: round;
        }

        .cls-6 {
        fill: url(#_10_dpi_10_);
        }

        .cls-7 {
        stroke: #f3eae1;
        }

        .cls-8 {
        fill: #f6bea3;
        }

        .cls-9 {
        fill: url(#_6_dpi_70_);
        }
    </style>  
    <defs>
      <pattern id="_10_dpi_10_" data-name="10 dpi 10%" width="28.8" height="28.8" patternUnits="userSpaceOnUse"
        viewBox="0 0 28.8 28.8">
        <rect class="cls-1" width="28.8" height="28.8"></rect>
        <path d="M9.36,28a.72.72,0,1,0-.72-.72A.72.72,0,0,0,9.36,28Z"></path>
        <path d="M9.36,13.64a.72.72,0,1,0-.72-.72A.72.72,0,0,0,9.36,13.64Z"></path>
        <path d="M3.43,20.84a.72.72,0,1,0-.72-.72A.72.72,0,0,0,3.43,20.84Z"></path>
        <path d="M15.22,20.84a.72.72,0,1,0-.72-.72A.72.72,0,0,0,15.22,20.84Z"></path>
        <path d="M3.43,5.72A.72.72,0,1,0,2.71,5,.72.72,0,0,0,3.43,5.72Z"></path>
        <path d="M9.36,5.72A.72.72,0,1,0,8.64,5,.72.72,0,0,0,9.36,5.72Z"></path>
        <path d="M9.36,20.84a.72.72,0,1,0-.72-.72A.72.72,0,0,0,9.36,20.84Z"></path>
        <path d="M15.22,13.64a.72.72,0,1,0-.72-.72A.72.72,0,0,0,15.22,13.64Z"></path>
        <path d="M3.43,13.64a.72.72,0,1,0-.72-.72A.72.72,0,0,0,3.43,13.64Z"></path>
        <path d="M3.43,28a.72.72,0,1,0-.72-.72A.72.72,0,0,0,3.43,28Z"></path>
        <path d="M15.22,28a.72.72,0,1,0-.72-.72A.72.72,0,0,0,15.22,28Z"></path>
        <path d="M26.8,5.72A.72.72,0,1,0,26.08,5,.72.72,0,0,0,26.8,5.72Z"></path>
        <path d="M26.8,13.64a.72.72,0,1,0-.72-.72A.72.72,0,0,0,26.8,13.64Z"></path>
        <path d="M26.8,20.84a.72.72,0,1,0-.72-.72A.72.72,0,0,0,26.8,20.84Z"></path>
        <path d="M26.8,28a.72.72,0,1,0-.72-.72A.72.72,0,0,0,26.8,28Z"></path>
        <path d="M15.22,5.72A.72.72,0,1,0,14.5,5,.72.72,0,0,0,15.22,5.72Z"></path>
        <circle cx="21.03" cy="27.32" r="0.72"></circle>
        <path d="M21,13.64a.72.72,0,0,0,0-1.44.72.72,0,0,0,0,1.44Z"></path>
        <path d="M9.36,9.83a.72.72,0,1,0-.72-.72A.72.72,0,0,0,9.36,9.83Z"></path>
        <path d="M15.22,9.83a.72.72,0,1,0-.72-.72A.72.72,0,0,0,15.22,9.83Z"></path>
        <path d="M3.43,9.83a.72.72,0,1,0-.72-.72A.72.72,0,0,0,3.43,9.83Z"></path>
        <path d="M26.8,9.83a.72.72,0,1,0-.72-.72A.72.72,0,0,0,26.8,9.83Z"></path>
        <path d="M21,9.83a.72.72,0,0,0,0-1.44.72.72,0,0,0,0,1.44Z"></path>
        <path d="M9.36,17a.72.72,0,1,0-.72-.72A.72.72,0,0,0,9.36,17Z"></path>
        <path d="M15.22,17a.72.72,0,1,0-.72-.72A.72.72,0,0,0,15.22,17Z"></path>
        <path d="M3.43,17a.72.72,0,1,0-.72-.72A.72.72,0,0,0,3.43,17Z"></path>
        <path d="M26.8,17a.72.72,0,1,0-.72-.72A.72.72,0,0,0,26.8,17Z"></path>
        <path d="M21,17a.72.72,0,1,0-.71-.72A.72.72,0,0,0,21,17Z"></path>
        <path d="M21,20.84a.72.72,0,0,0,0-1.44.72.72,0,0,0,0,1.44Z"></path>
        <path d="M3.43,24.38a.72.72,0,1,0-.72-.72A.72.72,0,0,0,3.43,24.38Z"></path>
        <path d="M15.22,24.38a.72.72,0,1,0-.72-.72A.72.72,0,0,0,15.22,24.38Z"></path>
        <path d="M9.36,24.38a.72.72,0,1,0-.72-.72A.72.72,0,0,0,9.36,24.38Z"></path>
        <path d="M26.8,24.38a.72.72,0,1,0-.72-.72A.72.72,0,0,0,26.8,24.38Z"></path>
        <path d="M21,24.38a.72.72,0,1,0-.72-.72A.72.72,0,0,0,21,24.38Z"></path>
        <path d="M21,5.72A.72.72,0,1,0,20.32,5,.72.72,0,0,0,21,5.72Z"></path>
        <path d="M3.43,2.2a.72.72,0,1,0-.72-.72A.72.72,0,0,0,3.43,2.2Z"></path>
        <path d="M9.36,2.2a.72.72,0,1,0-.72-.72A.72.72,0,0,0,9.36,2.2Z"></path>
        <path d="M26.8,2.2a.72.72,0,1,0-.72-.72A.72.72,0,0,0,26.8,2.2Z"></path>
        <path d="M15.22,2.2a.72.72,0,1,0-.72-.72A.72.72,0,0,0,15.22,2.2Z"></path>
        <path d="M21,2.2a.72.72,0,1,0-.71-.72A.72.72,0,0,0,21,2.2Z"></path>
    </pattern>
    <pattern id="_6_dpi_70_" data-name="6 dpi 70%" width="28.8" height="28.8" patternUnits="userSpaceOnUse"
        viewBox="0 0 28.8 28.8">
        <rect class="cls-1" width="28.8" height="28.8"></rect>
        <path class="cls-2" d="M28.8,5.72A.72.72,0,1,0,28.08,5,.72.72,0,0,0,28.8,5.72Z"></path>
        <path class="cls-2" d="M28.8,20.84a.72.72,0,1,0-.72-.72A.72.72,0,0,0,28.8,20.84Z"></path>
        <path class="cls-2" d="M28.8,24.38a.72.72,0,1,0-.72-.72A.72.72,0,0,0,28.8,24.38Z"></path>
        <circle class="cls-2" cx="20.08" cy="27.32" r="0.72"></circle>
        <path class="cls-2" d="M9.9,28a.72.72,0,0,0,0-1.44A.72.72,0,0,0,9.9,28Z"></path>
        <path class="cls-2" d="M20.08,13.64a.72.72,0,1,0-.72-.72A.72.72,0,0,0,20.08,13.64Z"></path>
        <path class="cls-2" d="M9.9,13.64a.72.72,0,1,0,0-1.44.72.72,0,0,0,0,1.44Z"></path>
        <path class="cls-2" d="M3.43,20.84a.72.72,0,1,0-.72-.72A.72.72,0,0,0,3.43,20.84Z"></path>
        <path class="cls-2" d="M16.94,20.84a.72.72,0,1,0-.72-.72A.72.72,0,0,0,16.94,20.84Z"></path>
        <path class="cls-2" d="M3.43,5.72A.72.72,0,1,0,2.71,5,.72.72,0,0,0,3.43,5.72Z"></path>
        <path class="cls-2" d="M9.9,5.72A.72.72,0,1,0,9.18,5,.72.72,0,0,0,9.9,5.72Z"></path>
        <path class="cls-2" d="M0,5.72A.72.72,0,1,0,0,4.28.72.72,0,0,0-.72,5,.72.72,0,0,0,0,5.72Z"></path>
        <path class="cls-2" d="M0,20.84A.72.72,0,0,0,0,19.4a.72.72,0,0,0-.72.72A.72.72,0,0,0,0,20.84Z"></path>
        <path class="cls-2" d="M9.9,20.84a.72.72,0,1,0-.72-.72A.72.72,0,0,0,9.9,20.84Z"></path>
        <path class="cls-2" d="M13.32,28a.72.72,0,1,0-.72-.72A.72.72,0,0,0,13.32,28Z"></path>
        <path class="cls-2" d="M13.32,13.64a.72.72,0,1,0-.72-.72A.72.72,0,0,0,13.32,13.64Z"></path>
        <path class="cls-2" d="M13.32,5.72A.72.72,0,1,0,12.6,5,.72.72,0,0,0,13.32,5.72Z"></path>
        <path class="cls-2" d="M13.32,20.84a.72.72,0,1,0-.72-.72A.72.72,0,0,0,13.32,20.84Z"></path>
        <path class="cls-2" d="M20.08,20.84a.72.72,0,1,0-.72-.72A.72.72,0,0,0,20.08,20.84Z"></path>
        <path class="cls-2" d="M16.94,13.64a.72.72,0,1,0-.72-.72A.72.72,0,0,0,16.94,13.64Z"></path>
        <path class="cls-2" d="M3.43,13.64a.72.72,0,1,0-.72-.72A.72.72,0,0,0,3.43,13.64Z"></path>
        <path class="cls-2" d="M3.43,28a.72.72,0,1,0-.72-.72A.72.72,0,0,0,3.43,28Z"></path>
        <path class="cls-2" d="M6.73,20.84A.72.72,0,1,0,6,20.12.72.72,0,0,0,6.73,20.84Z"></path>
        <path class="cls-2" d="M6.73,5.72A.72.72,0,1,0,6,5,.72.72,0,0,0,6.73,5.72Z"></path>
        <path class="cls-2" d="M6.73,13.64A.72.72,0,1,0,6,12.92.72.72,0,0,0,6.73,13.64Z"></path>
        <path class="cls-2" d="M6.73,28A.72.72,0,1,0,6,27.32.72.72,0,0,0,6.73,28Z"></path>
        <path class="cls-2" d="M16.94,28a.72.72,0,1,0-.72-.72A.72.72,0,0,0,16.94,28Z"></path>
        <path class="cls-2" d="M25.78,5.72A.72.72,0,1,0,25.06,5,.72.72,0,0,0,25.78,5.72Z"></path>
        <path class="cls-2" d="M25.78,13.64a.72.72,0,1,0-.72-.72A.72.72,0,0,0,25.78,13.64Z"></path>
        <path class="cls-2" d="M25.78,20.84a.72.72,0,1,0-.72-.72A.72.72,0,0,0,25.78,20.84Z"></path>
        <path class="cls-2" d="M25.78,28a.72.72,0,1,0-.72-.72A.72.72,0,0,0,25.78,28Z"></path>
        <path class="cls-2" d="M28.8,5.72A.72.72,0,1,0,28.08,5,.72.72,0,0,0,28.8,5.72Z"></path>
        <path class="cls-2" d="M28.8,13.64a.72.72,0,1,0-.72-.72A.72.72,0,0,0,28.8,13.64Z"></path>
        <path class="cls-2" d="M28.8,20.84a.72.72,0,1,0-.72-.72A.72.72,0,0,0,28.8,20.84Z"></path>
        <path class="cls-2" d="M28.8,28a.72.72,0,1,0-.72-.72A.72.72,0,0,0,28.8,28Z"></path>
        <path class="cls-2" d="M16.94,5.72A.72.72,0,1,0,16.22,5,.72.72,0,0,0,16.94,5.72Z"></path>
        <path class="cls-2" d="M20.08,5.72A.72.72,0,1,0,19.36,5,.72.72,0,0,0,20.08,5.72Z"></path>
        <circle class="cls-2" cx="22.97" cy="27.32" r="0.72"></circle>
        <path class="cls-2" d="M23,13.64a.72.72,0,1,0,0-1.44.72.72,0,1,0,0,1.44Z"></path>
        <path class="cls-2" d="M20.08,9.83a.72.72,0,1,0-.72-.72A.72.72,0,0,0,20.08,9.83Z"></path>
        <path class="cls-2" d="M9.9,9.83a.72.72,0,0,0,0-1.44.72.72,0,1,0,0,1.44Z"></path>
        <path class="cls-2" d="M13.32,9.83a.72.72,0,1,0-.72-.72A.72.72,0,0,0,13.32,9.83Z"></path>
        <path class="cls-2" d="M16.94,9.83a.72.72,0,1,0-.72-.72A.72.72,0,0,0,16.94,9.83Z"></path>
        <path class="cls-2" d="M3.43,9.83a.72.72,0,1,0-.72-.72A.72.72,0,0,0,3.43,9.83Z"></path>
        <path class="cls-2" d="M6.73,9.83A.72.72,0,1,0,6,9.11.72.72,0,0,0,6.73,9.83Z"></path>
        <path class="cls-2" d="M25.78,9.83a.72.72,0,1,0-.72-.72A.72.72,0,0,0,25.78,9.83Z"></path>
        <path class="cls-2" d="M28.8,9.83a.72.72,0,1,0-.72-.72A.72.72,0,0,0,28.8,9.83Z"></path>
        <path class="cls-2" d="M23,9.83a.72.72,0,1,0,0-1.44.72.72,0,0,0,0,1.44Z"></path>
        <path class="cls-2" d="M20.08,17a.72.72,0,1,0-.72-.72A.72.72,0,0,0,20.08,17Z"></path>
        <path class="cls-2" d="M9.9,17a.72.72,0,1,0-.72-.72A.72.72,0,0,0,9.9,17Z"></path>
        <path class="cls-2" d="M13.32,17a.72.72,0,1,0-.72-.72A.72.72,0,0,0,13.32,17Z"></path>
        <path class="cls-2" d="M16.94,17a.72.72,0,1,0-.72-.72A.72.72,0,0,0,16.94,17Z"></path>
        <path class="cls-2" d="M3.43,17a.72.72,0,1,0-.72-.72A.72.72,0,0,0,3.43,17Z"></path>
        <path class="cls-2" d="M6.73,17A.72.72,0,1,0,6,16.26.72.72,0,0,0,6.73,17Z"></path>
        <path class="cls-2" d="M25.78,17a.72.72,0,1,0,0-1.44.72.72,0,1,0,0,1.44Z"></path>
        <path class="cls-2" d="M28.8,17a.72.72,0,1,0-.72-.72A.72.72,0,0,0,28.8,17Z"></path>
        <path class="cls-2" d="M23,17a.72.72,0,1,0-.72-.72A.72.72,0,0,0,23,17Z"></path>
        <path class="cls-2" d="M23,20.84a.72.72,0,1,0-.72-.72A.72.72,0,0,0,23,20.84Z"></path>
        <path class="cls-2" d="M3.43,24.38a.72.72,0,1,0-.72-.72A.72.72,0,0,0,3.43,24.38Z"></path>
        <path class="cls-2" d="M16.94,24.38a.72.72,0,1,0-.72-.72A.72.72,0,0,0,16.94,24.38Z"></path>
        <path class="cls-2" d="M0,24.38a.72.72,0,0,0,0-1.44.72.72,0,0,0-.72.72A.72.72,0,0,0,0,24.38Z"></path>
        <path class="cls-2" d="M9.9,24.38a.72.72,0,1,0-.72-.72A.72.72,0,0,0,9.9,24.38Z"></path>
        <path class="cls-2" d="M13.32,24.38a.72.72,0,1,0-.72-.72A.72.72,0,0,0,13.32,24.38Z"></path>
        <path class="cls-2" d="M20.08,24.38a.72.72,0,1,0-.72-.72A.72.72,0,0,0,20.08,24.38Z"></path>
        <path class="cls-2" d="M6.73,24.38A.72.72,0,1,0,6,23.66.72.72,0,0,0,6.73,24.38Z"></path>
        <path class="cls-2" d="M25.78,24.38a.72.72,0,1,0-.72-.72A.72.72,0,0,0,25.78,24.38Z"></path>
        <path class="cls-2" d="M28.8,24.38a.72.72,0,1,0-.72-.72A.72.72,0,0,0,28.8,24.38Z"></path>
        <path class="cls-2" d="M23,24.38a.72.72,0,1,0-.72-.72A.72.72,0,0,0,23,24.38Z"></path>
        <path class="cls-2" d="M23,5.72A.72.72,0,1,0,22.25,5,.72.72,0,0,0,23,5.72Z"></path>
        <path class="cls-2" d="M3.43,2.2a.72.72,0,1,0-.72-.72A.72.72,0,0,0,3.43,2.2Z"></path>
        <path class="cls-2" d="M9.9,2.2a.72.72,0,1,0-.72-.72A.72.72,0,0,0,9.9,2.2Z"></path>
        <path class="cls-2" d="M13.32,2.2a.72.72,0,1,0-.72-.72A.72.72,0,0,0,13.32,2.2Z"></path>
        <path class="cls-2" d="M6.73,2.2A.72.72,0,1,0,6,1.48.72.72,0,0,0,6.73,2.2Z"></path>
        <path class="cls-2" d="M25.78,2.2a.72.72,0,1,0-.72-.72A.72.72,0,0,0,25.78,2.2Z"></path>
        <path class="cls-2" d="M28.8,2.2a.72.72,0,1,0-.72-.72A.72.72,0,0,0,28.8,2.2Z"></path>
        <path class="cls-2" d="M16.94,2.2a.72.72,0,1,0-.72-.72A.72.72,0,0,0,16.94,2.2Z"></path>
        <path class="cls-2" d="M20.08,2.2a.72.72,0,1,0-.72-.72A.72.72,0,0,0,20.08,2.2Z"></path>
        <path class="cls-2" d="M23,2.2a.72.72,0,1,0-.72-.72A.72.72,0,0,0,23,2.2Z"></path>
        <path class="cls-2" d="M0,5.72A.72.72,0,1,0,0,4.28.72.72,0,0,0-.72,5,.72.72,0,0,0,0,5.72Z"></path>
        <path class="cls-2" d="M0,13.64A.72.72,0,0,0,0,12.2a.72.72,0,0,0-.72.72A.72.72,0,0,0,0,13.64Z"></path>
        <path class="cls-2" d="M0,20.84A.72.72,0,0,0,0,19.4a.72.72,0,0,0-.72.72A.72.72,0,0,0,0,20.84Z"></path>
        <path class="cls-2" d="M0,28A.72.72,0,0,0,0,26.6a.72.72,0,0,0-.72.72A.72.72,0,0,0,0,28Z"></path>
        <path class="cls-2" d="M0,9.83A.72.72,0,1,0,0,8.39a.72.72,0,0,0-.72.72A.72.72,0,0,0,0,9.83Z"></path>
        <path class="cls-2"
          d="M0,17a.72.72,0,0,0,.72-.72A.72.72,0,0,0,0,15.54a.72.72,0,0,0-.72.72A.72.72,0,0,0,0,17Z"></path>
          <path class="cls-2" d="M0,24.38a.72.72,0,0,0,0-1.44.72.72,0,0,0-.72.72A.72.72,0,0,0,0,24.38Z"></path>
          <path class="cls-2" d="M0,2.2A.72.72,0,0,0,0,.76a.72.72,0,0,0-.72.72A.72.72,0,0,0,0,2.2Z"></path>
      </pattern>
  </defs>
  <polygon class="cls-3"
      points="429.47 489.02 429.47 403.69 426.06 399.29 426.06 335.87 445.51 339.39 445.51 489.02 429.47 489.02">
  </polygon>
  <polyline class="cls-4" points="323.27 479.52 323.27 135.96 385.48 152.27"></polyline>
  <polyline class="cls-4"
      points="409.01 265.74 409.01 251.88 405.88 248.97 405.88 157.49 450.61 170.46 457.1 168.45 463.81 169.12">
  </polyline>
  <line class="cls-4" x1="450.61" y1="193.95" x2="450.61" y2="170.46"></line>
  <line class="cls-4" x1="450.61" y1="196.56" x2="450.61" y2="199.99"></line>
  <polyline class="cls-4"
      points="469.97 257.8 469.97 234.41 466.33 230.26 466.33 178.81 463.81 176.62 463.81 167.39 467.74 163.48 467.74 152.49 459.5 148.91 448.16 151.78 448.16 155.6">
  </polyline>
  <polyline class="cls-4" points="459.06 153.21 459.06 160.73 450.07 163.6"></polyline>
  <polyline class="cls-4"
      points="450.61 156.15 396.87 140.26 396.87 105.06 418.56 111.93 418.56 122.66 396.87 117.05"></polyline>
      <polyline class="cls-4" points="384.82 126.75 396.87 124.32 412.16 128.63 412.16 144.78"></polyline>
      <line class="cls-4" x1="323.27" y1="125.11" x2="323.27" y2="130.05"></line>
      <polyline class="cls-4" points="381.41 135.96 327.04 120.45 327.04 105.06 341.72 108.87"></polyline>
      <polyline class="cls-4" points="323.27 119.42 307.2 115.69 307.2 111.97 327.04 105.06"></polyline>
      <polyline class="cls-4" points="311.33 131.18 293.55 144.78 286.11 131.82 307.2 115.69"></polyline>
      <line class="cls-4" x1="269.08" y1="483.4" x2="269.08" y2="489.02"></line>
      <line class="cls-4" x1="281.3" y1="387.33" x2="312.32" y2="380.79"></line>
      <line class="cls-4" x1="285.93" y1="279.19" x2="316.31" y2="266.34"></line>
      <line class="cls-4" x1="323.27" y1="194.59" x2="297.01" y2="203.75"></line>
      <path class="cls-4" d="M348.08,301.4v90.1a4.33,4.33,0,0,0,.69,2.35l3.9,6.08a4.32,4.32,0,0,1,.69,2.34v94.92">
      </path>
      <line class="cls-4" x1="370.53" y1="329.04" x2="370.53" y2="459.56"></line>
      <line class="cls-4" x1="445.51" y1="469.33" x2="445.51" y2="339.39"></line>
      <line class="cls-4" x1="353.36" y1="489.02" x2="456.25" y2="489.02"></line>
      <line class="cls-5" x1="282.26" y1="330.53" x2="24.21" y2="423.88"></line>
      <line class="cls-5" x1="81.74" y1="430.01" x2="280.55" y2="377.37"></line>
      <line class="cls-5" x1="77.7" y1="431.34" x2="72.38" y2="432.72"></line>
      <path class="cls-5" d="M105.93,380.79s147.54-154.16,187.62-236"></path>
      <path class="cls-5" d="M224.51,307.26c22.8-21.83,46.28-46.25,62.44-68"></path>
      <path class="cls-5" d="M217,314.37l3.07-2.9"></path>
      <path class="cls-5" d="M153.24,370.59s28-22.87,60.2-52.87"></path>
      <path class="cls-5" d="M287,252S215.33,331.82,172.7,362.55"></path>
      <path class="cls-5" d="M335.2,115.69S635.74,50.7,736.82,12"></path>
      <path class="cls-5" d="M463.8,156.15s215.91-25.39,273-45.79"></path>
      <path class="cls-5" d="M736.82,83.9s-279.24,45.71-330.94,49.36c0,0,281.26-44.75,330.94-69.43"></path>
      <line class="cls-4" x1="385.48" y1="187.09" x2="385.48" y2="273.27"></line>
      <line class="cls-4" x1="385.48" y1="183.42" x2="385.48" y2="177.98"></line>
      <polygon class="cls-6" points="348.08 316.51 736.82 198.28 736.82 175.02 348.08 301.39 348.08 316.51">
      </polygon>
      <polyline class="cls-5" points="736.82 265.74 474.06 327.54 348.08 316.51 736.82 198.28"></polyline>
      <polygon class="cls-6" points="282.26 320.65 28.64 422.28 282.26 330.53 282.26 320.65"></polygon>
      <polygon class="cls-6" points="386.3 157.49 385.48 271.52 393.78 268.61 393.78 154.14 386.3 157.49">
      </polygon>
      <polygon class="cls-3"
          points="382.82 330.69 382.82 400.59 387.33 404.36 387.33 489.02 401.13 489.02 401.13 333.54 382.82 330.69">
      </polygon>
      <path class="cls-3"
          d="M359.63,284.16,379,276.34V203.75s-8.05-27.47-23.23-34.83c0,0-7.59,2.86-14.73,11.78,0,0,15.42,5.47,19,21.34V229l-2.51,1.16a.24.24,0,0,0-.13.22l.22,4.75a.34.34,0,0,0,.05.14l2.37,2.93Z">
      </path>
      <line class="cls-7" x1="357.9" y1="228.59" x2="365.71" y2="228.59"></line>
      <path class="cls-4"
          d="M341,290V275.22a6.09,6.09,0,0,0-1.12-3.53l-1.26-1.77a6.05,6.05,0,0,1-1.13-3.53V209.7a4.92,4.92,0,0,0-.71-2.56l-.92-1.56a5,5,0,0,1-.71-2.56v-9.9a12.89,12.89,0,0,1,1.52-6.08,43.48,43.48,0,0,1,19.06-18.12s13.75,5.39,22.28,31.73a19.28,19.28,0,0,1,.95,6v5.68">
      </path>
      <path class="cls-3"
          d="M410.93,200s14.48,11.69,15.3,21.25v24.53H424v4.51l2.26,1.92v7.87l15.15-5.44L441,208.85s-5.19-17.24-15.65-22.34C425.39,186.51,417.47,189.11,410.93,200Z">
      </path>
      <path class="cls-4"
          d="M405.88,209.34s7.47-18.41,19.51-22.83c0,0,10.81,5.73,15.43,21.56a5.7,5.7,0,0,1,.22,1.59v18.93"></path>
          <line class="cls-4" x1="441.2" y1="230.18" x2="441.2" y2="234.65"></line>
          <line class="cls-7" x1="423.46" y1="245.77" x2="431.28" y2="245.77"></line>
          <line class="cls-5" x1="172.11" y1="489.02" x2="189.29" y2="489.02"></line>
          <line class="cls-5" x1="194.81" y1="516.39" x2="222.32" y2="516.39"></line>
          <line class="cls-5" x1="452.88" y1="529.04" x2="500.13" y2="529.04"></line>
          <line class="cls-5" x1="427.4" y1="529.04" x2="443.11" y2="529.04"></line>
          <line class="cls-5" x1="520.26" y1="510.38" x2="544.71" y2="510.38"></line>
          <line class="cls-5" x1="553.01" y1="510.38" x2="619.51" y2="510.38"></line>
          <line class="cls-5" x1="632.42" y1="510.38" x2="640.06" y2="510.38"></line>
          <line class="cls-5" x1="411.22" y1="529.04" x2="420.52" y2="529.04"></line>
          <line class="cls-5" x1="196.26" y1="489.02" x2="246.07" y2="489.02"></line>
          <line class="cls-5" x1="98.06" y1="516.39" x2="185.25" y2="516.39"></line>
          <polygon class="cls-8"
              points="474.06 374.13 503.24 374.13 503.24 399.29 511.42 399.29 511.42 385.47 529.93 392.57 529.93 404.36 545.22 404.36 545.22 363.08 576.22 363.08 576.22 417.55 581.65 417.55 581.65 431.86 583.48 431.86 583.48 390.87 617.39 390.87 617.39 450.39 632.86 450.39 632.86 408.3 659.77 408.3 659.77 469.33 479.26 469.33 479.26 414.81 475.04 408.04 474.06 374.13">
          </polygon>
          <path class="cls-4" d="M474.06,329v76.22a4.41,4.41,0,0,0,1,2.78l3.23,4a4.42,4.42,0,0,1,1,2.79v79.4h35.86">
          </path>
          <line class="cls-5" x1="479.26" y1="469.33" x2="667.88" y2="469.33"></line>
          <path class="cls-8"
              d="M274.2,412.75l-16,5.89V430H243.71l-5.89-7.73L193.76,430v13.83L160,450v-2l12.74-2.56v-8l-10.78-2-10.56,1.36-5.58-5.51-17.36,3.85v34.09H269.08V446.54a6.39,6.39,0,0,1,1.1-3.48c1.14-1.64,3.46-5.15,3.46-5.15a11.18,11.18,0,0,0,.56-4.34Z">
          </path>
          <path class="cls-4"
              d="M269.08,479.52v-33a6,6,0,0,1,1.1-3.48l2.93-4.22a6.1,6.1,0,0,0,1.09-3.48V389a9,9,0,0,1,1.71-5.26l4.64-6.36a9,9,0,0,0,1.71-5.26v-89a2.45,2.45,0,0,1,1-2l2.65-1.91a2.45,2.45,0,0,0,1-2V211a4,4,0,0,1,1.79-3.32l3-2a4,4,0,0,0,1.79-3.32V144.78">
          </path>
          <line class="cls-5" x1="13.82" y1="469.33" x2="269.08" y2="469.33"></line>
          <circle class="cls-9" cx="155.45" cy="135.96" r="42.02"></circle>
      </svg>