<svg xmlns="http://www.w3.org/2000/svg" xmlns:xlink="http://www.w3.org/1999/xlink" id="Layer_1" data-name="Layer 1" viewBox="0 0 150 150">

<style>
 
.cls-1,
.cls-2,
.cls-3 {
    fill: none;
}

.cls-2 {
    stroke: #ff4600;
}

.cls-2,
.cls-3 {
    stroke-linecap: round;
    stroke-linejoin: round;
}

.cls-3 {
    stroke: #000;
}

.cls-4 {
    fill: url(#_10_dpi_10_);
}
   

</style> 

            <defs>
              <pattern id="_10_dpi_10_" data-name="10 dpi 10%" width="28.8" height="28.8" patternUnits="userSpaceOnUse"
                viewBox="0 0 28.8 28.8">
                <rect class="cls-1" width="28.8" height="28.8"></rect>
                <path d="M9.36,28a.72.72,0,1,0-.72-.72A.72.72,0,0,0,9.36,28Z"></path>
                <path d="M9.36,13.64a.72.72,0,1,0-.72-.72A.72.72,0,0,0,9.36,13.64Z"></path>
                <path d="M3.43,20.84a.72.72,0,1,0-.72-.72A.72.72,0,0,0,3.43,20.84Z"></path>
                <path d="M15.22,20.84a.72.72,0,1,0-.72-.72A.72.72,0,0,0,15.22,20.84Z"></path>
                <path d="M3.43,5.72A.72.72,0,1,0,2.71,5,.72.72,0,0,0,3.43,5.72Z"></path>
                <path d="M9.36,5.72A.72.72,0,1,0,8.64,5,.72.72,0,0,0,9.36,5.72Z"></path>
                <path d="M9.36,20.84a.72.72,0,1,0-.72-.72A.72.72,0,0,0,9.36,20.84Z"></path>
                <path d="M15.22,13.64a.72.72,0,1,0-.72-.72A.72.72,0,0,0,15.22,13.64Z"></path>
                <path d="M3.43,13.64a.72.72,0,1,0-.72-.72A.72.72,0,0,0,3.43,13.64Z"></path>
                <path d="M3.43,28a.72.72,0,1,0-.72-.72A.72.72,0,0,0,3.43,28Z"></path>
                <path d="M15.22,28a.72.72,0,1,0-.72-.72A.72.72,0,0,0,15.22,28Z"></path>
                <path d="M26.8,5.72A.72.72,0,1,0,26.08,5,.72.72,0,0,0,26.8,5.72Z"></path>
                <path d="M26.8,13.64a.72.72,0,1,0-.72-.72A.72.72,0,0,0,26.8,13.64Z"></path>
                <path d="M26.8,20.84a.72.72,0,1,0-.72-.72A.72.72,0,0,0,26.8,20.84Z"></path>
                <path d="M26.8,28a.72.72,0,1,0-.72-.72A.72.72,0,0,0,26.8,28Z"></path>
                <path d="M15.22,5.72A.72.72,0,1,0,14.5,5,.72.72,0,0,0,15.22,5.72Z"></path>
                <circle cx="21.03" cy="27.32" r="0.72"></circle>
                <path d="M21,13.64a.72.72,0,0,0,0-1.44.72.72,0,0,0,0,1.44Z"></path>
                <path d="M9.36,9.83a.72.72,0,1,0-.72-.72A.72.72,0,0,0,9.36,9.83Z"></path>
                <path d="M15.22,9.83a.72.72,0,1,0-.72-.72A.72.72,0,0,0,15.22,9.83Z"></path>
                <path d="M3.43,9.83a.72.72,0,1,0-.72-.72A.72.72,0,0,0,3.43,9.83Z"></path>
                <path d="M26.8,9.83a.72.72,0,1,0-.72-.72A.72.72,0,0,0,26.8,9.83Z"></path>
                <path d="M21,9.83a.72.72,0,0,0,0-1.44.72.72,0,0,0,0,1.44Z"></path>
                <path d="M9.36,17a.72.72,0,1,0-.72-.72A.72.72,0,0,0,9.36,17Z"></path>
                <path d="M15.22,17a.72.72,0,1,0-.72-.72A.72.72,0,0,0,15.22,17Z"></path>
                <path d="M3.43,17a.72.72,0,1,0-.72-.72A.72.72,0,0,0,3.43,17Z"></path>
                <path d="M26.8,17a.72.72,0,1,0-.72-.72A.72.72,0,0,0,26.8,17Z"></path>
                <path d="M21,17a.72.72,0,1,0-.71-.72A.72.72,0,0,0,21,17Z"></path>
                <path d="M21,20.84a.72.72,0,0,0,0-1.44.72.72,0,0,0,0,1.44Z"></path>
                <path d="M3.43,24.38a.72.72,0,1,0-.72-.72A.72.72,0,0,0,3.43,24.38Z"></path>
                <path d="M15.22,24.38a.72.72,0,1,0-.72-.72A.72.72,0,0,0,15.22,24.38Z"></path>
                <path d="M9.36,24.38a.72.72,0,1,0-.72-.72A.72.72,0,0,0,9.36,24.38Z"></path>
                <path d="M26.8,24.38a.72.72,0,1,0-.72-.72A.72.72,0,0,0,26.8,24.38Z"></path>
                <path d="M21,24.38a.72.72,0,1,0-.72-.72A.72.72,0,0,0,21,24.38Z"></path>
                <path d="M21,5.72A.72.72,0,1,0,20.32,5,.72.72,0,0,0,21,5.72Z"></path>
                <path d="M3.43,2.2a.72.72,0,1,0-.72-.72A.72.72,0,0,0,3.43,2.2Z"></path>
                <path d="M9.36,2.2a.72.72,0,1,0-.72-.72A.72.72,0,0,0,9.36,2.2Z"></path>
                <path d="M26.8,2.2a.72.72,0,1,0-.72-.72A.72.72,0,0,0,26.8,2.2Z"></path>
                <path d="M15.22,2.2a.72.72,0,1,0-.72-.72A.72.72,0,0,0,15.22,2.2Z"></path>
                <path d="M21,2.2a.72.72,0,1,0-.71-.72A.72.72,0,0,0,21,2.2Z"></path>
              </pattern>
            </defs>
            <line class="cls-2" x1="113.84" y1="113.25" x2="97.14" y2="90.07"></line>
            <line class="cls-2" x1="54.04" y1="108.87" x2="76.43" y2="108.87"></line>
            <line class="cls-2" x1="54.04" y1="114.88" x2="76.43" y2="114.88"></line>
            <line class="cls-2" x1="54.04" y1="120.9" x2="76.43" y2="120.9"></line>
            <line class="cls-3" x1="58.27" y1="125.24" x2="72.2" y2="125.24"></line>
            <path class="cls-3"
              d="M54,104.41H76.43s1.49-21.26,11.63-30.16c0,0,7.39-7,6.63-20.89-.83-15.36-13-27.94-28.41-28.31-.45,0-.91,0-1.38,0-18.64.25-27,17.18-27.54,20.58s-2.07,18.57,7.91,31.84C56.15,91.92,54,104.41,54,104.41Z">
            </path>
            <path class="cls-3" d="M61.84,104.41s5.7-41.3-6.43-37.83c-7.66,2.19,1.73,19,15.09,8.66"></path>
            <circle class="cls-2" cx="88.06" cy="68.77" r="23.15"></circle>
            <path class="cls-4" d="M39.4,66.37,86,33.59s-19.3-18.26-38.52-2.28S39.4,66.37,39.4,66.37Z"></path>
          </svg>