<svg xmlns="http://www.w3.org/2000/svg" xmlns:xlink="http://www.w3.org/1999/xlink" id="Layer_1" data-name="Layer 1" viewBox="0 0 150 150">

    <style>
        .cls-1,
        .cls-2,
        .cls-3 {
        fill: none;
        }

        .cls-2 {
        stroke: #ff4600;
        }

        .cls-2,
        .cls-3 {
        stroke-linecap: round;
        stroke-linejoin: round;
        }

        .cls-3 {
        stroke: #000;
        }

        .cls-4 {
        fill: url(#_10_dpi_10_);
        }    
    </style>

    <defs>
      <pattern id="_10_dpi_10_" data-name="10 dpi 10%" width="28.8" height="28.8" patternUnits="userSpaceOnUse"
        viewBox="0 0 28.8 28.8">
        <rect class="cls-1" width="28.8" height="28.8"></rect>
        <path d="M9.36,28a.72.72,0,1,0-.72-.72A.72.72,0,0,0,9.36,28Z"></path>
        <path d="M9.36,13.64a.72.72,0,1,0-.72-.72A.72.72,0,0,0,9.36,13.64Z"></path>
        <path d="M3.43,20.84a.72.72,0,1,0-.72-.72A.72.72,0,0,0,3.43,20.84Z"></path>
        <path d="M15.22,20.84a.72.72,0,1,0-.72-.72A.72.72,0,0,0,15.22,20.84Z"></path>
        <path d="M3.43,5.72A.72.72,0,1,0,2.71,5,.72.72,0,0,0,3.43,5.72Z"></path>
        <path d="M9.36,5.72A.72.72,0,1,0,8.64,5,.72.72,0,0,0,9.36,5.72Z"></path>
        <path d="M9.36,20.84a.72.72,0,1,0-.72-.72A.72.72,0,0,0,9.36,20.84Z"></path>
        <path d="M15.22,13.64a.72.72,0,1,0-.72-.72A.72.72,0,0,0,15.22,13.64Z"></path>
        <path d="M3.43,13.64a.72.72,0,1,0-.72-.72A.72.72,0,0,0,3.43,13.64Z"></path>
        <path d="M3.43,28a.72.72,0,1,0-.72-.72A.72.72,0,0,0,3.43,28Z"></path>
        <path d="M15.22,28a.72.72,0,1,0-.72-.72A.72.72,0,0,0,15.22,28Z"></path>
        <path d="M26.8,5.72A.72.72,0,1,0,26.08,5,.72.72,0,0,0,26.8,5.72Z"></path>
        <path d="M26.8,13.64a.72.72,0,1,0-.72-.72A.72.72,0,0,0,26.8,13.64Z"></path>
        <path d="M26.8,20.84a.72.72,0,1,0-.72-.72A.72.72,0,0,0,26.8,20.84Z"></path>
        <path d="M26.8,28a.72.72,0,1,0-.72-.72A.72.72,0,0,0,26.8,28Z"></path>
        <path d="M15.22,5.72A.72.72,0,1,0,14.5,5,.72.72,0,0,0,15.22,5.72Z"></path>
        <circle cx="21.03" cy="27.32" r="0.72"></circle>
        <path d="M21,13.64a.72.72,0,0,0,0-1.44.72.72,0,0,0,0,1.44Z"></path>
        <path d="M9.36,9.83a.72.72,0,1,0-.72-.72A.72.72,0,0,0,9.36,9.83Z"></path>
        <path d="M15.22,9.83a.72.72,0,1,0-.72-.72A.72.72,0,0,0,15.22,9.83Z"></path>
        <path d="M3.43,9.83a.72.72,0,1,0-.72-.72A.72.72,0,0,0,3.43,9.83Z"></path>
        <path d="M26.8,9.83a.72.72,0,1,0-.72-.72A.72.72,0,0,0,26.8,9.83Z"></path>
        <path d="M21,9.83a.72.72,0,0,0,0-1.44.72.72,0,0,0,0,1.44Z"></path>
        <path d="M9.36,17a.72.72,0,1,0-.72-.72A.72.72,0,0,0,9.36,17Z"></path>
        <path d="M15.22,17a.72.72,0,1,0-.72-.72A.72.72,0,0,0,15.22,17Z"></path>
        <path d="M3.43,17a.72.72,0,1,0-.72-.72A.72.72,0,0,0,3.43,17Z"></path>
        <path d="M26.8,17a.72.72,0,1,0-.72-.72A.72.72,0,0,0,26.8,17Z"></path>
        <path d="M21,17a.72.72,0,1,0-.71-.72A.72.72,0,0,0,21,17Z"></path>
        <path d="M21,20.84a.72.72,0,0,0,0-1.44.72.72,0,0,0,0,1.44Z"></path>
        <path d="M3.43,24.38a.72.72,0,1,0-.72-.72A.72.72,0,0,0,3.43,24.38Z"></path>
        <path d="M15.22,24.38a.72.72,0,1,0-.72-.72A.72.72,0,0,0,15.22,24.38Z"></path>
        <path d="M9.36,24.38a.72.72,0,1,0-.72-.72A.72.72,0,0,0,9.36,24.38Z"></path>
        <path d="M26.8,24.38a.72.72,0,1,0-.72-.72A.72.72,0,0,0,26.8,24.38Z"></path>
        <path d="M21,24.38a.72.72,0,1,0-.72-.72A.72.72,0,0,0,21,24.38Z"></path>
        <path d="M21,5.72A.72.72,0,1,0,20.32,5,.72.72,0,0,0,21,5.72Z"></path>
        <path d="M3.43,2.2a.72.72,0,1,0-.72-.72A.72.72,0,0,0,3.43,2.2Z"></path>
        <path d="M9.36,2.2a.72.72,0,1,0-.72-.72A.72.72,0,0,0,9.36,2.2Z"></path>
        <path d="M26.8,2.2a.72.72,0,1,0-.72-.72A.72.72,0,0,0,26.8,2.2Z"></path>
        <path d="M15.22,2.2a.72.72,0,1,0-.72-.72A.72.72,0,0,0,15.22,2.2Z"></path>
        <path d="M21,2.2a.72.72,0,1,0-.71-.72A.72.72,0,0,0,21,2.2Z"></path>
    </pattern>
</defs>
<path class="cls-2" d="M71.66,65.74V51.34a9.43,9.43,0,0,1,5.41-8.68,6.14,6.14,0,0,1,2.92-.6"></path>
<path class="cls-2"
  d="M104.33,104.35s2.12-1.93,4.46-8.68a46.59,46.59,0,0,1,5.73-11.19l6-8.73a6,6,0,0,0-.24-7.13h0a6,6,0,0,0-9.72.5,64.92,64.92,0,0,1-6.26,8.52c-5,5.4-12.76,3.9-16.06,11">
</path>
<path class="cls-2"
  d="M93.67,57.18V37.9a5.56,5.56,0,0,1,5.57-5.56h0A5.56,5.56,0,0,1,104.8,38l-.59,23a47.92,47.92,0,0,0,1.87,14.49h0">
</path>
<path class="cls-2" d="M86.92,54l.73-23.47a5.82,5.82,0,0,1,5.82-5.65h0a5.82,5.82,0,0,1,5.82,6.05l-.05,1.46">
</path>
<path class="cls-2" d="M80,58.44V37.35a7.12,7.12,0,0,1,3.75-6.28L88,28.81"></path>
<path class="cls-3"
  d="M70.33,125.17,75.15,100a58.38,58.38,0,0,0-1.69-28.54L66.53,49.59a4.07,4.07,0,0,0-4.9-2.72h0a4.07,4.07,0,0,0-3,4.64L62,71.09">
</path>
<path class="cls-3" d="M61.63,46.87,56.17,37a4.72,4.72,0,0,0-6-2.05h0a4.71,4.71,0,0,0-2.66,5.57l7.46,27.35">
</path>
<path class="cls-3" d="M46,57.18,41,36.71a5.06,5.06,0,0,1,3.62-6.07h0a5,5,0,0,1,6,3.07l.35.91"></path>
<path class="cls-3" d="M40.89,37.35l-1.82,1.76A9,9,0,0,0,36.68,48a190.36,190.36,0,0,1,6.71,34.8"></path>
<path class="cls-3"
  d="M42.7,100.93s-4.86-14.11-13-23.75a5.26,5.26,0,0,1-.06-6.81l.07-.07A5.21,5.21,0,0,1,37.36,70,42.91,42.91,0,0,1,42.7,76.4">
</path>
<polygon class="cls-4" points="57.26 123.1 70.72 123.1 76.18 94.75 76.18 82.81 57.26 111.31 57.26 123.1">
</polygon>
</svg>