<svg xmlns="http://www.w3.org/2000/svg" xmlns:xlink="http://www.w3.org/1999/xlink" id="Layer_1"
                    data-name="Layer 1" viewBox="0 0 150 150">
					<style>
					.cls-1,
.cls-2,
.cls-3 {
    fill: none;
}

.cls-2 {
    stroke: #000;
}

.cls-2,
.cls-3 {
    stroke-linecap: round;
    stroke-linejoin: round;
    stroke-width: 2px;
}

.cls-3 {
    stroke: #ff4600;
}

.cls-4 {
    fill: url(#_10_dpi_10_);
}
					</style>
                    <defs>
                        <pattern id="_10_dpi_10_" data-name="10 dpi 10%" width="28.8" height="28.8"
                            patternUnits="userSpaceOnUse" viewBox="0 0 28.8 28.8">
                            <rect class="cls-1" width="28.8" height="28.8"></rect>
                            <path d="M9.36,28a.72.72,0,1,0-.72-.72A.72.72,0,0,0,9.36,28Z"></path>
                            <path d="M9.36,13.64a.72.72,0,1,0-.72-.72A.72.72,0,0,0,9.36,13.64Z"></path>
                            <path d="M3.43,20.84a.72.72,0,1,0-.72-.72A.72.72,0,0,0,3.43,20.84Z"></path>
                            <path d="M15.22,20.84a.72.72,0,1,0-.72-.72A.72.72,0,0,0,15.22,20.84Z"></path>
                            <path d="M3.43,5.72A.72.72,0,1,0,2.71,5,.72.72,0,0,0,3.43,5.72Z"></path>
                            <path d="M9.36,5.72A.72.72,0,1,0,8.64,5,.72.72,0,0,0,9.36,5.72Z"></path>
                            <path d="M9.36,20.84a.72.72,0,1,0-.72-.72A.72.72,0,0,0,9.36,20.84Z"></path>
                            <path d="M15.22,13.64a.72.72,0,1,0-.72-.72A.72.72,0,0,0,15.22,13.64Z"></path>
                            <path d="M3.43,13.64a.72.72,0,1,0-.72-.72A.72.72,0,0,0,3.43,13.64Z"></path>
                            <path d="M3.43,28a.72.72,0,1,0-.72-.72A.72.72,0,0,0,3.43,28Z"></path>
                            <path d="M15.22,28a.72.72,0,1,0-.72-.72A.72.72,0,0,0,15.22,28Z"></path>
                            <path d="M26.8,5.72A.72.72,0,1,0,26.08,5,.72.72,0,0,0,26.8,5.72Z"></path>
                            <path d="M26.8,13.64a.72.72,0,1,0-.72-.72A.72.72,0,0,0,26.8,13.64Z"></path>
                            <path d="M26.8,20.84a.72.72,0,1,0-.72-.72A.72.72,0,0,0,26.8,20.84Z"></path>
                            <path d="M26.8,28a.72.72,0,1,0-.72-.72A.72.72,0,0,0,26.8,28Z"></path>
                            <path d="M15.22,5.72A.72.72,0,1,0,14.5,5,.72.72,0,0,0,15.22,5.72Z"></path>
                            <circle cx="21.03" cy="27.32" r="0.72"></circle>
                            <path d="M21,13.64a.72.72,0,0,0,0-1.44.72.72,0,0,0,0,1.44Z"></path>
                            <path d="M9.36,9.83a.72.72,0,1,0-.72-.72A.72.72,0,0,0,9.36,9.83Z"></path>
                            <path d="M15.22,9.83a.72.72,0,1,0-.72-.72A.72.72,0,0,0,15.22,9.83Z"></path>
                            <path d="M3.43,9.83a.72.72,0,1,0-.72-.72A.72.72,0,0,0,3.43,9.83Z"></path>
                            <path d="M26.8,9.83a.72.72,0,1,0-.72-.72A.72.72,0,0,0,26.8,9.83Z"></path>
                            <path d="M21,9.83a.72.72,0,0,0,0-1.44.72.72,0,0,0,0,1.44Z"></path>
                            <path d="M9.36,17a.72.72,0,1,0-.72-.72A.72.72,0,0,0,9.36,17Z"></path>
                            <path d="M15.22,17a.72.72,0,1,0-.72-.72A.72.72,0,0,0,15.22,17Z"></path>
                            <path d="M3.43,17a.72.72,0,1,0-.72-.72A.72.72,0,0,0,3.43,17Z"></path>
                            <path d="M26.8,17a.72.72,0,1,0-.72-.72A.72.72,0,0,0,26.8,17Z"></path>
                            <path d="M21,17a.72.72,0,1,0-.71-.72A.72.72,0,0,0,21,17Z"></path>
                            <path d="M21,20.84a.72.72,0,0,0,0-1.44.72.72,0,0,0,0,1.44Z"></path>
                            <path d="M3.43,24.38a.72.72,0,1,0-.72-.72A.72.72,0,0,0,3.43,24.38Z"></path>
                            <path d="M15.22,24.38a.72.72,0,1,0-.72-.72A.72.72,0,0,0,15.22,24.38Z"></path>
                            <path d="M9.36,24.38a.72.72,0,1,0-.72-.72A.72.72,0,0,0,9.36,24.38Z"></path>
                            <path d="M26.8,24.38a.72.72,0,1,0-.72-.72A.72.72,0,0,0,26.8,24.38Z"></path>
                            <path d="M21,24.38a.72.72,0,1,0-.72-.72A.72.72,0,0,0,21,24.38Z"></path>
                            <path d="M21,5.72A.72.72,0,1,0,20.32,5,.72.72,0,0,0,21,5.72Z"></path>
                            <path d="M3.43,2.2a.72.72,0,1,0-.72-.72A.72.72,0,0,0,3.43,2.2Z"></path>
                            <path d="M9.36,2.2a.72.72,0,1,0-.72-.72A.72.72,0,0,0,9.36,2.2Z"></path>
                            <path d="M26.8,2.2a.72.72,0,1,0-.72-.72A.72.72,0,0,0,26.8,2.2Z"></path>
                            <path d="M15.22,2.2a.72.72,0,1,0-.72-.72A.72.72,0,0,0,15.22,2.2Z"></path>
                            <path d="M21,2.2a.72.72,0,1,0-.71-.72A.72.72,0,0,0,21,2.2Z"></path>
                        </pattern>
                    </defs>
                    <polyline class="cls-2" points="53.27 66.05 26.36 66.05 26.36 25.4 72.82 25.4 72.82 34.67">
                    </polyline>
                    <path class="cls-3"
                        d="M57.82,40.4,73.31,57.82,86.86,40.4V58.92a15.29,15.29,0,0,1-3.18,9.43,14.06,14.06,0,0,1-19.6,3.33A15.21,15.21,0,0,1,57.82,59.2Z">
                    </path>
                    <polyline class="cls-3" points="66.5 50.16 73.31 40.4 80.46 48.63"></polyline>
                    <line class="cls-3" x1="72.34" y1="74.27" x2="72.34" y2="124.6"></line>
                    <path class="cls-3" d="M91.7,89.76s-16.46,4.65-19.36,13.45"></path>
                    <line class="cls-3" x1="62.66" y1="105.25" x2="72.34" y2="114.36"></line>
                    <path class="cls-3" d="M77.72,96.49s14.94,4.88,25.59-7.7C103.31,88.79,86,77.08,77.72,96.49Z"></path>
                    <path class="cls-3" d="M51.05,98.47s6.77,19.36,21.29,16.45C72.34,114.92,74.27,96.54,51.05,98.47Z">
                    </path>
                    <line class="cls-2" x1="40.4" y1="124.6" x2="103.31" y2="124.6"></line>
                    <rect class="cls-4" x="90.73" y="61.69" width="32.91" height="30"></rect>
                </svg>