<svg xmlns="http://www.w3.org/2000/svg" xmlns:xlink="http://www.w3.org/1999/xlink" id="Layer_1"
                            data-name="Layer 1" viewBox="0 0 725.05 239.72">

<style>
    
.cls-1,
.cls-3,
.cls-4,
.cls-7,
.cls-9 {
    fill: none;
}

.cls-2,
.cls-6 {
    fill: #ff4600;
}

.cls-3,
.cls-9 {
    stroke: #ff4600;
}

.cls-3,
.cls-4,
.cls-7,
.cls-8 {
    stroke-linecap: round;
}

.cls-3,
.cls-7 {
    stroke-linejoin: round;
}

.cls-10,
.cls-4,
.cls-8 {
    stroke: #000;
}

.cls-10,
.cls-4,
.cls-8,
.cls-9 {
    stroke-miterlimit: 10;
}

.cls-5 {
    fill: url(#_10_dpi_10_);
}

.cls-6 {
    opacity: 0.3;
}

.cls-7 {
    stroke: #f9f3ee;
}

.cls-11 {
    clip-path: url(#clip-path);
}
</style>


                            <defs>
                                <pattern id="_10_dpi_10_" data-name="10 dpi 10%" width="28.8" height="28.8"
                                    patternTransform="translate(68.96 -131.4)" patternUnits="userSpaceOnUse"
                                    viewBox="0 0 28.8 28.8">
                                    <rect class="cls-1" width="28.8" height="28.8"></rect>
                                    <path d="M9.36,28a.72.72,0,1,0-.72-.72A.72.72,0,0,0,9.36,28Z"></path>
                                    <path d="M9.36,13.64a.72.72,0,1,0-.72-.72A.72.72,0,0,0,9.36,13.64Z"></path>
                                    <path d="M3.43,20.84a.72.72,0,1,0-.72-.72A.72.72,0,0,0,3.43,20.84Z"></path>
                                    <path d="M15.22,20.84a.72.72,0,1,0-.72-.72A.72.72,0,0,0,15.22,20.84Z"></path>
                                    <path d="M3.43,5.72A.72.72,0,1,0,2.71,5,.72.72,0,0,0,3.43,5.72Z"></path>
                                    <path d="M9.36,5.72A.72.72,0,1,0,8.64,5,.72.72,0,0,0,9.36,5.72Z"></path>
                                    <path d="M9.36,20.84a.72.72,0,1,0-.72-.72A.72.72,0,0,0,9.36,20.84Z"></path>
                                    <path d="M15.22,13.64a.72.72,0,1,0-.72-.72A.72.72,0,0,0,15.22,13.64Z"></path>
                                    <path d="M3.43,13.64a.72.72,0,1,0-.72-.72A.72.72,0,0,0,3.43,13.64Z"></path>
                                    <path d="M3.43,28a.72.72,0,1,0-.72-.72A.72.72,0,0,0,3.43,28Z"></path>
                                    <path d="M15.22,28a.72.72,0,1,0-.72-.72A.72.72,0,0,0,15.22,28Z"></path>
                                    <path d="M26.8,5.72A.72.72,0,1,0,26.08,5,.72.72,0,0,0,26.8,5.72Z"></path>
                                    <path d="M26.8,13.64a.72.72,0,1,0-.72-.72A.72.72,0,0,0,26.8,13.64Z"></path>
                                    <path d="M26.8,20.84a.72.72,0,1,0-.72-.72A.72.72,0,0,0,26.8,20.84Z"></path>
                                    <path d="M26.8,28a.72.72,0,1,0-.72-.72A.72.72,0,0,0,26.8,28Z"></path>
                                    <path d="M15.22,5.72A.72.72,0,1,0,14.5,5,.72.72,0,0,0,15.22,5.72Z"></path>
                                    <circle cx="21.03" cy="27.32" r="0.72"></circle>
                                    <path d="M21,13.64a.72.72,0,0,0,0-1.44.72.72,0,0,0,0,1.44Z"></path>
                                    <path d="M9.36,9.83a.72.72,0,1,0-.72-.72A.72.72,0,0,0,9.36,9.83Z"></path>
                                    <path d="M15.22,9.83a.72.72,0,1,0-.72-.72A.72.72,0,0,0,15.22,9.83Z"></path>
                                    <path d="M3.43,9.83a.72.72,0,1,0-.72-.72A.72.72,0,0,0,3.43,9.83Z"></path>
                                    <path d="M26.8,9.83a.72.72,0,1,0-.72-.72A.72.72,0,0,0,26.8,9.83Z"></path>
                                    <path d="M21,9.83a.72.72,0,0,0,0-1.44.72.72,0,0,0,0,1.44Z"></path>
                                    <path d="M9.36,17a.72.72,0,1,0-.72-.72A.72.72,0,0,0,9.36,17Z"></path>
                                    <path d="M15.22,17a.72.72,0,1,0-.72-.72A.72.72,0,0,0,15.22,17Z"></path>
                                    <path d="M3.43,17a.72.72,0,1,0-.72-.72A.72.72,0,0,0,3.43,17Z"></path>
                                    <path d="M26.8,17a.72.72,0,1,0-.72-.72A.72.72,0,0,0,26.8,17Z"></path>
                                    <path d="M21,17a.72.72,0,1,0-.71-.72A.72.72,0,0,0,21,17Z"></path>
                                    <path d="M21,20.84a.72.72,0,0,0,0-1.44.72.72,0,0,0,0,1.44Z"></path>
                                    <path d="M3.43,24.38a.72.72,0,1,0-.72-.72A.72.72,0,0,0,3.43,24.38Z"></path>
                                    <path d="M15.22,24.38a.72.72,0,1,0-.72-.72A.72.72,0,0,0,15.22,24.38Z"></path>
                                    <path d="M9.36,24.38a.72.72,0,1,0-.72-.72A.72.72,0,0,0,9.36,24.38Z"></path>
                                    <path d="M26.8,24.38a.72.72,0,1,0-.72-.72A.72.72,0,0,0,26.8,24.38Z"></path>
                                    <path d="M21,24.38a.72.72,0,1,0-.72-.72A.72.72,0,0,0,21,24.38Z"></path>
                                    <path d="M21,5.72A.72.72,0,1,0,20.32,5,.72.72,0,0,0,21,5.72Z"></path>
                                    <path d="M3.43,2.2a.72.72,0,1,0-.72-.72A.72.72,0,0,0,3.43,2.2Z"></path>
                                    <path d="M9.36,2.2a.72.72,0,1,0-.72-.72A.72.72,0,0,0,9.36,2.2Z"></path>
                                    <path d="M26.8,2.2a.72.72,0,1,0-.72-.72A.72.72,0,0,0,26.8,2.2Z"></path>
                                    <path d="M15.22,2.2a.72.72,0,1,0-.72-.72A.72.72,0,0,0,15.22,2.2Z"></path>
                                    <path d="M21,2.2a.72.72,0,1,0-.71-.72A.72.72,0,0,0,21,2.2Z"></path>
                                </pattern>
                                <clipPath id="clip-path">
                                    <path class="cls-1"
                                        d="M532.26,174.84H489.82L522,151.09l15.38-9.61a20.62,20.62,0,0,1,25,2.2,15.8,15.8,0,0,1,3.28,4.17l18.84,27H565.09">
                                    </path>
                                </clipPath>
                            </defs>
                            <path class="cls-2"
                                d="M575.28,22.4h0a7,7,0,0,0,.46,9.07L587.9,44.19l0-20.32-2.37-2.25A6.94,6.94,0,0,0,575.28,22.4Z">
                            </path>
                            <path class="cls-2"
                                d="M600.57,22.4a7,7,0,0,0-10.28-.78l-2.37,2.25,0,20.32L600.1,31.47A7,7,0,0,0,600.57,22.4Z">
                            </path>
                            <path class="cls-3"
                                d="M298.43,26.84h1.31a1.79,1.79,0,0,0,1.3-.56l.91-1a12.62,12.62,0,0,0,3-5.4l.8-3a2.16,2.16,0,0,1,2.52-1.59h0a4.6,4.6,0,0,1,3.49,5.21l-.48,3.3a2,2,0,0,0,1.88,2.3l5.16,0a3,3,0,0,1,2.13.9,2.91,2.91,0,0,1,.8,2.12c0,2.44-1.79,2.71-1.79,2.71a2.94,2.94,0,0,1,.42,2.41A2.84,2.84,0,0,1,318,36.27,3,3,0,0,1,318.5,39a2,2,0,0,1-1.69,1.56,3.6,3.6,0,0,1,.39,2.86,2.58,2.58,0,0,1-2.19,1.7L302.8,45a8.69,8.69,0,0,1-4.47-1.29h0">
                            </path>
                            <rect class="cls-3" x="290.08" y="25.43" width="8.3" height="20.88" rx="0.97"
                                transform="translate(0.21 -1.7) rotate(0.33)"></rect>
                            <line class="cls-3" x1="319.48" y1="31.95" x2="316.61" y2="31.93"></line>
                            <line class="cls-3" x1="318.02" y1="36.3" x2="315.15" y2="36.29"></line>
                            <line class="cls-3" x1="316.9" y1="40.53" x2="314.04" y2="40.51"></line>
                            <line class="cls-4" x1="46.33" y1="217.84" x2="28.39" y2="217.84"></line>
                            <line class="cls-4" x1="18.31" y1="217.84" x2="9.34" y2="217.84"></line>
                            <path class="cls-2"
                                d="M169.55,87.74c-9.46,2.69-38.05,16.63-39,87.12,0,0,31.14-17.3,44-31.7,0,0,10.89-26.46,23.74-27.24s15.13,4.28,19,2.33,4.29-15.17,2.73-17.51-31.61.53-45.72-11.89A5.05,5.05,0,0,0,169.55,87.74Z">
                            </path>
                            <path class="cls-5"
                                d="M174.5,143.16,198,128.52a11.67,11.67,0,0,1,16.57,4.56l22.76,40.36H210.47l-10-20-22.69,20h-47.3Z">
                            </path>
                            <path class="cls-6"
                                d="M346.17,89.09c5.06,4.29,23.91,6.91,23.91,6.91h0a122.14,122.14,0,0,0,19.4,2.94,28.21,28.21,0,0,0-.6,17.46c.88,3-6.58-.71-10.29-.48-12.84.78-23.74,27.24-23.74,27.24-12.84,14.4-44,31.7-44,31.7C311.73,112.07,334.52,94.15,346.17,89.09Z">
                            </path>
                            <path class="cls-7" d="M209.2,117.71s-21.15-1.7-25.92,0"></path>
                            <path class="cls-7" d="M215.23,98s1.32,9.06-.76,14"></path>
                            <path class="cls-4"
                                d="M223,102l44.28,2.93a9.92,9.92,0,0,0,2.55-.15l2.28-.43a4.56,4.56,0,0,1,5.32,3.62l.54,2.82a5.35,5.35,0,0,1-2.41,5.55L271.28,119a4,4,0,0,1-5.43-1.24h0">
                            </path>
                            <path class="cls-8"
                                d="M354.84,143.16l23.45-14.64a11.67,11.67,0,0,1,16.57,4.56l21.52,41.78H394.76L381.83,150.8l-23.66,24.06H310.86Z">
                            </path>
                            <path class="cls-7" d="M389.55,117.71s-21.16-1.7-25.93,0"></path>
                            <path class="cls-4"
                                d="M392.4,100.83l49.77,3.81a9.48,9.48,0,0,0,2.38-.15l2.14-.4a4.27,4.27,0,0,1,5,3.4l.51,2.64a5,5,0,0,1-2.26,5.2l-4,2.49a3.69,3.69,0,0,1-5.08-1.16h0">
                            </path>
                            <line class="cls-7" x1="384.21" y1="148.99" x2="368.34" y2="167.74"></line>
                            <path class="cls-6"
                                d="M532.33,174.86H489.89l32.2-23.75,15.38-9.61a20.62,20.62,0,0,1,25,2.19,16.12,16.12,0,0,1,3.28,4.17l18.84,27h-19.4">
                            </path>
                            <path class="cls-7" d="M560.49,123.58s-19-1.53-23.26,0"></path>
                            <path class="cls-2"
                                d="M550.65,122c-11.53.7-21.3,24.44-21.3,24.44-11.53,12.92-39.46,28.45-39.46,28.45.41-30.14,6.46-48.75,13.59-60.24C530,114.5,542.9,104.18,543,104.1h0a109.37,109.37,0,0,0,17.41,2.64Z">
                            </path>
                            <line class="cls-7" x1="538.54" y1="160.48" x2="541.16" y2="174.86"></line>
                            <line class="cls-9" x1="611.02" y1="118.69" x2="530.6" y2="235.34"></line>
                            <line class="cls-9" x1="443.44" y1="111.54" x2="358.94" y2="235.34"></line>
                            <line class="cls-9" x1="269.82" y1="111.54" x2="185.31" y2="235.34"></line>
                            <path class="cls-4"
                                d="M611,118.69a3.56,3.56,0,0,0-4.13,0c-2.17,1.52-2.56,4.33-5.32,4.2s-5.71-3.6-10.57-3.72-22.18,3-22.18,3">
                            </path>
                            <path class="cls-4"
                                d="M445.86,112.27a4,4,0,0,0-4.61,0c-2.41,1.68-2.85,4.82-5.92,4.68s-6.37-4-11.79-4.15-24.71,3.31-24.71,3.31">
                            </path>
                            <path class="cls-4"
                                d="M271.79,112a4.24,4.24,0,0,0-4.92,0c-2.57,1.8-3,5.14-6.32,5s-6.78-4.28-12.56-4.42-26.36,3.52-26.36,3.52">
                            </path>
                            <path class="cls-4"
                                d="M563.06,108.43l44.65,3.42a9,9,0,0,0,2.14-.13l1.92-.36a3.84,3.84,0,0,1,4.48,3l.46,2.38a4.49,4.49,0,0,1-2,4.66l-3.56,2.23a3.32,3.32,0,0,1-4.57-1h0">
                            </path>
                            <path class="cls-9" d="M695.52,209.84s5.67-2.58,6.1,2-5.06,8.1-5.06,8.1"></path>
                            <line class="cls-4" x1="548.86" y1="235.34" x2="495.12" y2="235.34"></line>
                            <line class="cls-4" x1="385.81" y1="235.34" x2="345.45" y2="235.34"></line>
                            <line class="cls-4" x1="488.5" y1="235.34" x2="478.55" y2="235.34"></line>
                            <line class="cls-4" x1="340.47" y1="235.34" x2="330.52" y2="235.34"></line>
                            <line class="cls-4" x1="212.95" y1="235.34" x2="172.59" y2="235.34"></line>
                            <line class="cls-4" x1="167.62" y1="235.34" x2="157.67" y2="235.34"></line>
                            <line class="cls-4" x1="147.94" y1="235.34" x2="128.03" y2="235.34"></line>
                            <line class="cls-4" x1="472.97" y1="235.34" x2="463.02" y2="235.34"></line>
                            <path class="cls-6"
                                d="M622.92,220c4.39-.24,11.83-1.52,15.62-3.76,2.63-1.55,5.09-4.08,8.14-3.79,2.15.21,3.88,1.82,5.82,2.78s4.86,1,5.7-1a7.22,7.22,0,0,0,.3-2.42,7.72,7.72,0,0,1,14.66-2.85,2.66,2.66,0,0,0,1.88,1.56c1.29.23,1.81-.74,2.23-1.62l2.9-6a3.3,3.3,0,0,1,1.65-1.6h0a3.25,3.25,0,0,1,3,.19c5.25,3.31,7.3,12.64,5.4,18.56">
                            </path>
                            <path class="cls-4"
                                d="M719.16,183.6c1.18-3.19-1.13-6.6-9.42-8H75.41c2.85,1.42,1.27,3.17,1.46,5.19.74,7.87,3.92,26.37,17.69,39.22H672S709.07,210.73,719.16,183.6Z">
                            </path>
                            <line class="cls-4" x1="725.05" y1="219.93" x2="59.76" y2="219.93"></line>
                            <path class="cls-4" d="M209.05,59.56s4.31,32.13-12.91,29.36a12.65,12.65,0,0,1-9.38-5.84">
                            </path>
                            <path class="cls-6"
                                d="M170.4,54.54c4.33-6.5,7.11-5.41,7.11-5.41s2.78-10.06,19-9.28,21.37,10.68,18.25,17.47c-.77,1.67-3.42,3.22-5.14,3.93l-.59-1.69c-4.44.93-10.86.35-15.92-.4l.88.4S195.63,66,191,66h-5.45c-.09,1.22-2.37,1.54-2.7,2.72-.2.74,1.62,2.35,1.32,3.07-1.94,4.59-4.79,10.22-7.09,10,0,0-4.82-12.63-6.16-16.26,0-.06,0-.12-.07-.19-.13-.35-.21-.6-.25-.71h0C169.32,60.79,168.78,57,170.4,54.54Z">
                            </path>
                            <path class="cls-7" d="M185.85,54.89a24.26,24.26,0,0,0,8.51,5.69l.55.23"></path>
                            <path class="cls-4"
                                d="M188.61,66h-2.19a3.67,3.67,0,0,0-3.64,4.09h0a3.66,3.66,0,0,0,2.75,3.14l1.47.37a2.12,2.12,0,0,1,1.61,2v2.81">
                            </path>
                            <path class="cls-4" d="M173.64,86.83s4.7-4.66,4.7-10.06"></path>
                            <path class="cls-4"
                                d="M202.2,82.23c-1.59-.72-4.28-3.21-4.49-6.08a.63.63,0,0,1,1-.55l4.8,3.58"></path>
                            <path class="cls-4"
                                d="M362.65,77.23c-1.59-.73-4.28-3.21-4.49-6.09a.63.63,0,0,1,1-.55L364,74.17"></path>
                            <path
                                d="M200.94,65l.74-.7a2.54,2.54,0,0,1,.87-.54l.64-.24a.49.49,0,0,0,.33-.51h0a.51.51,0,0,0-.53-.46l-.53,0a2.55,2.55,0,0,0-2,1.18l-.36.56a.51.51,0,0,0,.14.68l.07,0A.5.5,0,0,0,200.94,65Z">
                            </path>
                            <path
                                d="M205.72,68.71l0-.08a.26.26,0,0,0,0-.15c0-.07,0-.14,0-.2a1.94,1.94,0,0,0,0-.48h0v-.19s0-.05,0-.07a.2.2,0,0,0,0,.07l0-.07s0-.07,0-.07h0a.23.23,0,0,0,.05-.23h0s0,0,0-.08a1.13,1.13,0,0,0,0-.26l0-.14s0-.12,0-.14h0a.69.69,0,0,0,0-.13v0l0-.08c0-.08,0-.2-.08-.13s0-.11-.1-.11a.21.21,0,0,0-.17-.08.41.41,0,0,1,.11.07l-.13-.07h0L205,66v0h-.05l0,0,.1,0a.4.4,0,0,0-.19,0v0h0l-.09,0h0s0,0,0,0h0l-.12,0h0s-.09,0-.1,0l-.06,0-.1.05-.1.08c0-.07-.11,0-.1.09l-.05.06a.83.83,0,0,0-.07.13h0a.44.44,0,0,1,0,.1v0a.16.16,0,0,1,0,.09v0h0s0,0,0,.08l0,0a.34.34,0,0,0,0,.11l0,0a.08.08,0,0,0,0,.07.06.06,0,0,1,0-.05h0a.39.39,0,0,0,0,.14h0c0,.06,0,.13,0,.19v.11a0,0,0,0,0,0,0v.1h0v0h0a0,0,0,0,1,0,0v.1h0v.25h0s0,0,0,0v.13h0V68a2.72,2.72,0,0,0,0,.86,1.34,1.34,0,0,1,.05-.35v.16h0s0,.07,0,.08,0,0,0,0v0h0c-.06,0,0,0,0,.06h0v0h0s0,0,0,0h0a0,0,0,0,0,0,0l0,.06s0-.06,0-.08,0,0,0,.08h0l0,.07a.08.08,0,0,0,0,0h0l0,0,.07.09,0,0h0l0,.07h0a.71.71,0,0,0,.41.32v-.07h0v0a.52.52,0,0,0,.31.08v0h0c0,.11,0,0,.06,0h0v0a0,0,0,0,1,0,0s0,0-.05,0v0h0v0h0v0h.1s0,0,0,0h0l0,0h0a1.23,1.23,0,0,0,0-.2h0l.21,0h0a.35.35,0,0,0,.11.14s-.06,0-.05,0a.11.11,0,0,0,0,0l-.06,0a.31.31,0,0,0,0-.17c0,.07-.09.1-.15.14l.07.06a.36.36,0,0,0-.06.11h0s0,0,.06,0h-.11s0,0,0,0,.13,0,.22,0,.13-.06-.07,0h0a.34.34,0,0,0,.14,0l.1,0-.08,0v0s.07,0,.08,0h0s0,0,0,0,0,0,0,0h0s0,0,0,0h0a.1.1,0,0,0,0,0h0a.11.11,0,0,0,0-.08.31.31,0,0,0,.11-.08l.07,0h0c.06,0,.16-.12.14-.21h0l0,0h0s0,0,0,0l0-.06a.16.16,0,0,0-.05.1l0,0a1,1,0,0,0,.12-.17c0,.06-.11.11-.17.15l-.06,0,0,0h0l0,0s0,0,0,0l0,0s0,0,0,0h.07s0,0,0,0l.08-.06a1.44,1.44,0,0,1,0,.24,1.33,1.33,0,0,0,0-.24C205.77,68.7,205.79,68.68,205.72,68.71Zm-.51.49.08-.06h0s0,.15-.06.1S205.24,69.22,205.21,69.2Zm.2-.1a.16.16,0,0,1-.12,0h0s.08,0,.1-.09A.14.14,0,0,1,205.41,69.1Zm-.56.28v0h0S204.86,69.36,204.85,69.38Zm.57-.69v0s.05,0,.05,0Z">
                            </path>
                            <path d="M205.66,68.86s0-.07,0-.07l-.11.17S205.66,68.92,205.66,68.86Z"></path>
                            <path d="M205.33,69.43a1,1,0,0,0,.17-.1.16.16,0,0,1-.13,0S205.33,69.41,205.33,69.43Z">
                            </path>
                            <path d="M205.32,69.52l.06,0Z"></path>
                            <path d="M205,66a.49.49,0,0,1,.17.06C205.14,65.94,205.05,66,205,66Z"></path>
                            <path d="M204.85,69.68a0,0,0,0,0,0,0S204.86,69.67,204.85,69.68Z"></path>
                            <path d="M214.26,68.43s.05-.07,0-.07l-.11.16S214.27,68.49,214.26,68.43Z"></path>
                            <path d="M213.94,69l.17-.1a.18.18,0,0,1-.13,0S213.94,69,213.94,69Z"></path>
                            <path d="M213.92,69.09l.07,0Z"></path>
                            <path d="M213.59,65.56l.16.07C213.74,65.51,213.66,65.53,213.59,65.56Z"></path>
                            <path d="M213.45,69.25h0A0,0,0,0,0,213.45,69.25Z"></path>
                            <path class="cls-4" d="M515.32,77.19l.11.6a.84.84,0,0,0,1,.67l1.07-.27"></path>
                            <path class="cls-3"
                                d="M518.65,84.12c1.29-.31,4.24-1.2,4.78-3.4a.55.55,0,0,0-.65-.68l-5.13,1.2"></path>
                            <path
                                d="M520.14,74.39a1,1,0,0,0,0,.18,1,1,0,0,1,0-.18l.07,0,0,0h.06s0,0,0,0l0,0s0,0,0,0l0,0h0s0,0,0,0l-.05,0a.4.4,0,0,1-.14-.11.64.64,0,0,0,.1.13h0a.16.16,0,0,0,0-.07l0,0s0,0,0,0h0s0,0,0,0h0c0,.07.06.14.11.15h0l0,0a.17.17,0,0,0,.08.06.13.13,0,0,0,0,.06h0l0,0h0s0,0,0,0h0s0,0,0,0,0,0,0,0h0l.07,0v0h-.06l.08,0a.19.19,0,0,0,.1,0h0c-.15,0-.12,0,0,0s.18,0,.17,0v0h-.09s0,0,0,0h0a.15.15,0,0,0,0-.09l.06,0a.26.26,0,0,1-.13-.1.37.37,0,0,0,0,.13l0,0s0,0,0,0h0a.38.38,0,0,0,.08-.11h0a.42.42,0,0,0,.16,0h0a.75.75,0,0,0,0,.15h0a.05.05,0,0,1,0,0h0s0,0,0,0h.08v0h0v0h0v0s0,0,0,0,0,0,0,0h0s0,.08,0,0h0v0a.38.38,0,0,0,.23-.08h0v0a.56.56,0,0,0,.3-.26h0s0,0,0,0h0l0,0a.18.18,0,0,1,0-.07l0,0h0l0,0a.17.17,0,0,1,0,0h0a.13.13,0,0,1,0-.06s0,0,0,.06l0,0h0s0,0,0,0h0s0,0,0,0h0s0,0,0,0,0,0,0-.07h0v-.12a1.09,1.09,0,0,1,0,.26,2.39,2.39,0,0,0-.06-.66v.06h0v-.1s0,0,0,0h0v-.19h0v-.1h0v0s0,0,0,0v-.07h0v-.08a.27.27,0,0,0,0-.15h0a.2.2,0,0,0,0-.1h0s0,0,0,0,0,0,0,0a0,0,0,0,0,0,0v-.09l0,0v-.06h0a.26.26,0,0,1,0-.08h0a.29.29,0,0,1,0-.09h0a.61.61,0,0,0-.07-.1l0,0c0-.08-.06-.13-.08-.07l-.08,0-.08,0h0c0-.05-.05-.05-.09,0h0l-.09,0h0s0,0,0,0h-.07v0l-.15,0s0,0,.08,0l0,0h0v0l-.09,0h0l-.11.07.09-.06a.16.16,0,0,0-.13.06s-.08,0-.07.09-.07.05-.06.11l0,.06h0l0,.1h0s0,.07,0,.11V73a1.23,1.23,0,0,0,0,.19.25.25,0,0,1,0,.07h0a.18.18,0,0,0,.05.18h0s0,0,0,0v.06a.14.14,0,0,0,0-.06.11.11,0,0,0,0,0v.15h0a1.45,1.45,0,0,0,0,.36v.15a.17.17,0,0,0,0,.12v.06C520.08,74.36,520.1,74.37,520.14,74.39Zm.39.37s0-.08,0-.07h0s0,0,.06,0S520.52,74.76,520.53,74.76Zm-.13-.15a.27.27,0,0,0,.08.07h0a.15.15,0,0,1-.1,0A.11.11,0,0,1,520.4,74.61Zm.41.21h0v0Zm-.48-.47,0,0v0Z">
                            </path>
                            <path d="M520.19,74.49s0-.06,0-.06l.08.13S520.19,74.54,520.19,74.49Z"></path>
                            <path d="M520.46,74.91l-.13-.07a.13.13,0,0,0,.1,0S520.46,74.89,520.46,74.91Z"></path>
                            <path d="M520.48,75l-.05,0Z"></path>
                            <path d="M520.6,72.27a.23.23,0,0,0-.12.06C520.48,72.23,520.54,72.24,520.6,72.27Z"></path>
                            <path d="M520.85,75.09h0S520.84,75.08,520.85,75.09Z"></path>
                            <path
                                d="M513.53,74.39a1,1,0,0,0,0,.18,1,1,0,0,1,0-.18l.07,0,0,0h.06s0,0,0,0l0,0s0,0,0,0l0,0h0v0l0,0a.4.4,0,0,1-.14-.11s.07.09.09.13h0a.16.16,0,0,0,0-.07l0,0s0,0,0,0h0s0,0,0,0h0a.17.17,0,0,0,.11.15h0l.06,0a.17.17,0,0,0,.08.06v.06h0l0,0h0s0,0,0,0h0s0,0,0,0h0l.07,0v0h0l.08,0a.15.15,0,0,0,.1,0h0c-.15,0-.12,0,0,0s.18,0,.17,0v0h-.09s0,0,0,0h0a.24.24,0,0,0,0-.09l.06,0a.22.22,0,0,1-.13-.1.23.23,0,0,0,0,.13l0,0,0,0h0a.37.37,0,0,0,.09-.11h0a.42.42,0,0,0,.16,0h0a.75.75,0,0,0,0,.15h0a.05.05,0,0,1,0,0h0s0,0,0,0h.08v0h0v0h0v0s0,0,0,0l0,0h0s0,.08,0,0h0v0a.4.4,0,0,0,.23-.08h0v0a.59.59,0,0,0,.3-.26h0s0,0,0,0h0v0l.06-.07,0,0h0l0,0,0,0h0a.13.13,0,0,0,0-.06.06.06,0,0,0,0,.06l0,0h0s0,0,0,0h0s0,0,0,0h0s0,0,0,0,0,0,0-.07h0v-.12a.76.76,0,0,1,.06.26,2.39,2.39,0,0,0-.06-.66v.06h0v-.1s0,0,0,0h0v-.19h0v-.08s0,0,0,0h0v0h0v-.07h0v-.08a.27.27,0,0,0,0-.15h0a.2.2,0,0,0,0-.1h0s0,0,0,0a.08.08,0,0,0,0,0,0,0,0,0,0,0,0,.31.31,0,0,0,0-.09s0,0,0,0a.13.13,0,0,0,0-.06h0a.26.26,0,0,1,0-.08h0a.15.15,0,0,1,0-.09h0a.61.61,0,0,0-.07-.1l0,0c0-.08,0-.13-.07-.07l-.09,0-.08,0h0c0-.05,0-.05-.08,0h0l-.1,0h0s0,0,0,0h-.07v0l-.15,0a.32.32,0,0,0,.09,0l0,0h0v0l-.08,0h0l-.1.07.09-.06a.15.15,0,0,0-.13.06.09.09,0,0,0-.08.09c-.06,0-.06.05,0,.11l0,.06h0l0,.1h0s0,.07,0,.11V73a1.23,1.23,0,0,0,0,.19.64.64,0,0,0,0,.07h0a.2.2,0,0,0,0,.18h0s0,0,0,0v.06s0,0,0-.06,0,0,0,0v.15h0a2.17,2.17,0,0,0,0,.36.76.76,0,0,1,0,.15.17.17,0,0,0,0,.12v.06C513.48,74.36,513.5,74.37,513.53,74.39Zm.4.37s0-.08,0-.07h0l.07,0S513.91,74.76,513.93,74.76Zm-.13-.15a.27.27,0,0,0,.08.07h0a.14.14,0,0,1-.09,0A.11.11,0,0,1,513.8,74.61Zm.41.21h0v0Zm-.48-.47,0,0v0Z">
                            </path>
                            <path d="M513.59,74.49s0-.06,0-.06l.08.13S513.59,74.54,513.59,74.49Z"></path>
                            <path d="M513.86,74.91l-.13-.07a.13.13,0,0,0,.1,0S513.86,74.89,513.86,74.91Z"></path>
                            <path d="M513.88,75l-.06,0Z"></path>
                            <path d="M514,72.27a.34.34,0,0,0-.12.06C513.88,72.23,513.94,72.24,514,72.27Z"></path>
                            <path d="M514.24,75.09h0S514.23,75.08,514.24,75.09Z"></path>
                            <path class="cls-10"
                                d="M521.6,70.57l-.6-.18a1.68,1.68,0,0,0-.63,0l-.42.05a.32.32,0,0,1-.33-.19h0a.32.32,0,0,1,.16-.4l.3-.13a1.57,1.57,0,0,1,1.43.07l.35.21a.3.3,0,0,1,.12.41l0,0A.32.32,0,0,1,521.6,70.57Z">
                            </path>
                            <path class="cls-10"
                                d="M514.36,69.26l-.63,0a1.47,1.47,0,0,0-.62.1l-.4.14a.3.3,0,0,1-.36-.12h0a.31.31,0,0,1,.07-.42l.27-.2a1.54,1.54,0,0,1,1.41-.23l.39.12a.31.31,0,0,1,.2.37v0A.31.31,0,0,1,514.36,69.26Z">
                            </path>
                            <path class="cls-2"
                                d="M526.9,51.11A19.1,19.1,0,0,1,534,52.55a19.81,19.81,0,0,1,4.82,3A10.62,10.62,0,0,1,545.46,52a7.65,7.65,0,0,1,6.79,2.81,6,6,0,0,1,.07,7.14,7,7,0,0,1-4.63,2.38,13.47,13.47,0,0,1-2.54.09c1.28,3.77,1.52,8.42-.2,14-3.14,10.21-13,12-13,12L533,77.79s.65-2.46,2.79-2.66.54-4.55.54-4.55c-18.75,1.79-25.13-7.83-25.13-7.83l-.5,19.33C491.76,54.48,518.06,51,526.9,51.11Z">
                            </path>
                            <path class="cls-4"
                                d="M510.71,79.82a10.45,10.45,0,0,0,.61,4c1.53,4,3.45,6.39,7.93,6.64h0c4.27.23,6.68-2.37,9.48-5.61">
                            </path>
                            <path class="cls-4"
                                d="M519.83,90.53a.68.68,0,0,0-.05.24,12.39,12.39,0,0,1-3.86,7.54s-9.53,5.35-11.92,12.45">
                            </path>
                            <path class="cls-7" d="M531.92,50.64s8,3.68,10.87,8.11"></path>
                            <path class="cls-7" d="M509.58,61.55a22.2,22.2,0,0,0,6.34,6.39"></path>
                            <path class="cls-4"
                                d="M534.76,70.58a2.4,2.4,0,0,1,2.4,2.39h0a2.4,2.4,0,0,1-2,2.36l-.14,0A2.53,2.53,0,0,0,533,77.79l-1.08,19.52">
                            </path>
                            <line class="cls-4" x1="515.92" y1="98.31" x2="539.85" y2="103.42"></line>
                            <g class="cls-11">
                                <circle class="cls-4" cx="568.82" cy="152.29" r="5.77"></circle>
                                <circle class="cls-4" cx="559.23" cy="173.44" r="5.77"></circle>
                                <circle class="cls-4" cx="539.85" cy="142.03" r="5.77"></circle>
                                <circle class="cls-4" cx="528.73" cy="166.32" r="5.77"></circle>
                                <circle class="cls-4" cx="507.07" cy="164.3" r="5.77"></circle>
                            </g>
                            <line class="cls-4" x1="204.39" y1="150.09" x2="177.82" y2="173.44"></line>
                            <path class="cls-2"
                                d="M369.92,44c-15-6.65-25.7-.7-30,2.52-1.3.8-2.71,1.95-2.5,3.44.1.67.53,1.39.19,2a2.06,2.06,0,0,1-1,.71c-2.93,1.45-5.23,6.41-4.56,9.6S339.45,81.92,346,83.1l-2.25-8.16-1.58-2-2-.56-1-2.08.23-2.4L341,66.48l3.87-1,1.46,2.8a1.19,1.19,0,0,0,1.34.61l.92-.23a1.17,1.17,0,0,0,.78-.61l2.95-5.75a2.15,2.15,0,0,0-.09-2.11L349,55c2.76,1.9,6.46-.16,9.77-.92,3.49-.81,7.29-.07,10.67-1.1l.7,4.06s2.32-3.14,2.37-5.85a4.1,4.1,0,0,0,1.29-3.76C373.41,45.65,371.72,44.65,369.92,44Z">
                            </path>
                            <path class="cls-7" d="M347,54.14l.62.52a9.85,9.85,0,0,0,5.63,2.3h0"></path>
                            <path class="cls-4"
                                d="M344.86,65.5l-3.05.57a3.45,3.45,0,0,0-2.7,4.28h0a3.45,3.45,0,0,0,2.27,2.39l.76.25c1.66.53,3.29,6.55,3.55,8.27l1.11,7.31">
                            </path>
                            <path class="cls-4"
                                d="M363.13,83.37a11,11,0,0,0,8.95-8.06,10.05,10.05,0,0,0,.2-4l-2.71-19.84"></path>
                            <path class="cls-4" d="M350.92,79.17l.67.63a13.66,13.66,0,0,0,11.54,3.57"></path>
                            <path class="cls-4" d="M366.82,67.45l.19.65a.93.93,0,0,1-.66,1.16l-1.2.25"></path>
                            <ellipse class="cls-9" cx="361.07" cy="63.6" rx="3.3" ry="4.92"
                                transform="translate(-1.31 7.96) rotate(-1.26)"></ellipse>
                            <ellipse class="cls-9" cx="370.9" cy="62.82" rx="3" ry="4.92"
                                transform="matrix(1, -0.02, 0.02, 1, -1.29, 8.17)"></ellipse>
                            <path class="cls-9" d="M364.37,63.53s2.39-1.53,3.54-.3"></path>
                            <line class="cls-9" x1="357.76" y1="63.67" x2="344.81" y2="65.23"></line>
                            <path class="cls-4" d="M363.58,91.39a12.7,12.7,0,0,1-3.15-7.85"></path>
                            <path class="cls-4"
                                d="M609,53.87H580.63a.34.34,0,0,0-.25.11l-6.61,7.29a.45.45,0,0,1-.87-.2l-.11-6.86a.34.34,0,0,0-.34-.34H567a2,2,0,0,1-2-2v-42a2,2,0,0,1,2-2h42a2,2,0,0,1,2,2v42A2,2,0,0,1,609,53.87Z">
                            </path>
                            <path class="cls-4"
                                d="M322.64,63.72a.39.39,0,0,0,.56-.42l-1.68-9.47h0a27.2,27.2,0,1,0-12.14,5.45,25.72,25.72,0,0,0,2.66-.62,1.14,1.14,0,0,1,.81.08Z">
                            </path>
                        </svg>