<svg width="24" height="24" viewBox="0 0 24 24" fill="none" xmlns="http://www.w3.org/2000/svg">
              <path fill-rule="evenodd" clip-rule="evenodd"
                d="M19.7234 17.7627L16.8364 15.8267C16.5879 15.6511 16.2642 15.6222 15.9885 15.751L14.88 16.3126C14.5959 16.4524 14.2559 16.4105 14.0142 16.2058C11.9419 14.4911 10.5548 12.0887 10.106 9.43667C10.0496 9.12505 10.1833 8.80964 10.4465 8.63348L11.4555 7.89956C11.7093 7.73099 11.8531 7.43918 11.8322 7.13521L11.599 3.66694L11.5457 2.77863C11.5359 2.65092 11.4974 2.52707 11.433 2.4163C11.3301 2.23639 11.1636 2.1014 10.9663 2.03779C9.86163 1.66936 8.647 1.85716 7.70513 2.542L7.47833 2.7143L7.36076 2.80516C7.30637 2.84468 7.25416 2.88709 7.20434 2.93223L7.05934 3.07109C5.14936 4.93668 5.50938 9.62762 7.9697 14.287C8.07516 14.4697 8.18063 14.6523 8.28808 14.8385C8.30599 14.8695 8.32589 14.9039 8.3438 14.935C8.36171 14.966 8.38161 15.0004 8.39952 15.0315C8.50697 15.2176 8.61244 15.4003 8.7179 15.5829C11.5189 20.0364 15.4014 22.6937 17.985 22.0108L18.1778 21.9547C18.2418 21.9341 18.3046 21.9101 18.366 21.8828L18.5035 21.8264L18.7661 21.7161C19.8301 21.2428 20.6001 20.2848 20.8334 19.1439C20.8769 18.9412 20.8433 18.7296 20.7389 18.5505C20.6752 18.4394 20.5872 18.3441 20.4815 18.2717C20.4815 18.2717 20.2288 18.1021 19.7234 17.7627Z"
                stroke="#FC5811" stroke-width="1.2"></path>
            </svg>