<svg width="108" height="102" viewBox="0 0 108 102" fill="none" xmlns="http://www.w3.org/2000/svg">
                  <path d="M48.6217 54.0822C47.3771 61.4247 45.5579 68.7237 43.0953 75.7554C41.6933 79.7588 39.7625 83.0435 37.4572 86.6144C35.9101 89.0111 34.0986 91.5078 31.9429 93.4159C31.0731 94.1858 28.4313 96.4512 29.3672 95.7632" stroke="#1D1916" stroke-width="1.2" stroke-linecap="round" stroke-linejoin="round"></path>
                  <path d="M38.0361 96.8727C36.4358 96.6514 36.0083 96.7064 34.4028 96.6511C33.3918 96.6164 31.8 96.2298 30.7695 96.4296C30.4255 96.4963 28.2319 96.3412 28.6011 96.0698C28.8734 94.8003 27.6137 88.488 27.6361 86.8807" stroke="#1D1916" stroke-width="1.2" stroke-linecap="round" stroke-linejoin="round"></path>
                  <path d="M6.98245 18.1962C6.83936 17.937 6.2492 17.7645 5.21198 17.6786L5.03088 17.6768C4.7794 17.6462 4.56825 17.5601 4.39744 17.4184C4.22663 17.2767 4.16993 17.1355 4.22734 16.9948C4.29567 16.6538 4.86669 16.542 5.9404 16.6591L6.99506 16.7673L7.24189 16.3943C7.3848 16.1028 7.59657 15.6316 7.87721 14.9807C7.97397 14.7373 8.16446 14.3306 8.44867 13.7608C9.01352 12.54 9.31562 11.8783 9.35497 11.7757C9.44047 11.6249 9.58499 11.3201 9.78853 10.8613C9.99208 10.4025 10.1521 10.0258 10.2685 9.73099C11.124 7.88746 11.4938 6.94522 11.3779 6.90426C11.2472 6.87492 10.88 6.85713 10.2763 6.85086C9.68748 6.83298 9.35757 6.83986 9.28656 6.87152C9.24041 6.91964 9.17102 6.93806 9.07837 6.92679C8.99895 6.91713 8.91614 6.8802 8.82993 6.81599C8.74532 6.73854 8.69462 6.6585 8.6778 6.57586C8.67101 6.52131 8.67324 6.44771 8.68451 6.35506C8.69578 6.26241 8.74434 6.19444 8.83019 6.15115C8.99028 6.04974 9.32403 5.95602 9.83147 5.86998C10.3537 5.77233 10.8497 5.7252 11.3194 5.7286C11.5476 5.72949 11.7783 5.71053 12.0113 5.67172C12.2593 5.62128 12.4492 5.55036 12.5812 5.45896C12.8704 5.40012 13.1069 5.38858 13.2906 5.42435C13.3752 5.5018 13.5962 5.56226 13.9535 5.60572C14.2579 5.64274 14.4904 5.6643 14.6508 5.67038C15.1337 5.67539 15.5407 5.69801 15.8716 5.73826C16.123 5.76884 16.2985 5.81705 16.3979 5.88287C16.5106 5.9503 16.5928 6.0476 16.6445 6.17477C16.6717 6.39298 16.6813 6.53518 16.6732 6.60136C16.6426 6.85284 16.4825 6.95425 16.193 6.9056C15.9615 6.93118 15.414 6.90489 14.5505 6.82672C13.6011 6.79184 13.0868 6.82332 13.0078 6.92116C12.9336 6.97929 12.8734 7.03241 12.8272 7.08053C12.7943 7.13025 12.7548 7.17917 12.7086 7.22728C12.7154 7.28184 12.6614 7.44988 12.5466 7.73141C12.4466 8.00131 12.326 8.27541 12.1847 8.55372L11.6993 9.56251C11.1887 10.6689 10.8643 11.3481 10.7262 11.5999C10.6062 11.8137 10.5119 12.0372 10.4432 12.2707C10.1232 13.0242 9.86222 13.6238 9.66029 14.0693C9.45996 14.5016 9.30319 14.8519 9.18997 15.1202C8.84834 15.8308 8.58076 16.4296 8.38723 16.9164L9.53097 16.9548C10.3215 16.9704 10.8359 16.9926 11.0742 17.0216C11.2595 17.0441 11.3828 17.0793 11.4442 17.127C11.5187 17.1764 11.5687 17.2631 11.5939 17.387C11.7286 17.6049 11.7878 17.78 11.7717 17.9123C11.7524 18.0712 11.613 18.1684 11.3535 18.204C11.094 18.2396 10.7003 18.2185 10.1725 18.1409C9.56039 18.0933 9.04839 18.0512 8.63647 18.0145C8.23618 17.9927 7.96082 17.9928 7.8104 18.0148C7.67321 18.0384 7.58575 18.0949 7.54801 18.1844C7.53513 18.2903 7.46913 18.336 7.35001 18.3215C7.21765 18.3054 7.09513 18.2636 6.98245 18.1962ZM14.7607 18.3766C14.5537 18.3111 14.3523 18.1456 14.1562 17.88C13.975 17.6027 13.8642 17.3542 13.8238 17.1344C13.827 17.1079 13.817 17.0798 13.7938 17.0501C13.7721 17.0072 13.7555 16.9783 13.7439 16.9635C13.6957 16.9173 13.6958 16.6957 13.7441 16.2987C13.7828 15.981 13.8362 15.6517 13.9046 15.3108C13.9861 14.9715 14.0663 14.6992 14.145 14.4938L14.6303 13.4851L15.0048 12.7247L15.6809 11.6384L14.9134 11.3234C14.8223 11.2989 14.7485 11.2429 14.692 11.1555C14.6487 11.0696 14.6311 10.9936 14.6392 10.9274C14.652 10.8215 14.7203 10.7022 14.8439 10.5695C14.9823 10.4252 15.0846 10.357 15.1508 10.3651C15.1889 10.3832 15.294 10.4026 15.466 10.4236C15.8631 10.4719 16.1633 10.4882 16.3667 10.4727C16.5055 10.4358 16.611 10.3412 16.6833 10.1888C16.7491 10.0894 16.8248 9.96426 16.9103 9.81348C17.009 9.66431 17.0995 9.52757 17.1818 9.40326C17.2311 9.32867 17.3052 9.21679 17.4039 9.06762C17.5175 8.90682 17.6533 8.72859 17.8115 8.53291C17.8428 8.49643 17.9136 8.41102 18.0239 8.27669C18.1359 8.12913 18.2645 8.01046 18.4098 7.92067C18.5137 7.83929 18.6318 7.80664 18.7642 7.82274C18.8965 7.83884 19.0581 7.9458 19.249 8.14362C19.2706 8.18655 19.2973 8.24352 19.3289 8.31452C19.3738 8.38714 19.393 8.44992 19.3866 8.50287C19.3802 8.55581 19.3135 8.66187 19.1867 8.82106C19.088 8.97023 18.9909 9.10617 18.8954 9.22887C18.8147 9.33994 18.7423 9.43858 18.678 9.52479C18.487 9.77019 18.3504 9.95505 18.2681 10.0794C18.1148 10.2353 18.0325 10.3596 18.0213 10.4523C18.01 10.5449 18.0904 10.6017 18.2625 10.6227C18.4478 10.6452 18.7636 10.6433 19.2101 10.617C19.3986 10.6131 19.5259 10.6151 19.5921 10.6232C20.0554 10.6795 20.2835 10.902 20.2765 11.2907C20.2801 11.3717 20.2755 11.4652 20.2626 11.5711C20.24 11.7564 20.1602 11.8608 20.023 11.8844C19.899 11.9097 19.6187 11.8957 19.1819 11.8426C18.7503 11.8572 18.3095 11.8372 17.8595 11.7825C17.7801 11.7728 17.6866 11.7682 17.5791 11.7685C17.4865 11.7573 17.3856 11.7584 17.2765 11.772C17.1674 11.7856 17.0831 11.8157 17.0237 11.8622C16.9776 11.9103 16.9208 11.9907 16.8534 12.1034C16.8088 12.1382 16.6977 12.2792 16.5199 12.5262C16.2879 12.8875 16.1406 13.1046 16.078 13.1776C15.5919 14.193 15.1951 15.2461 14.8879 16.337C14.8356 16.5456 14.8063 16.6763 14.7999 16.7293C14.7757 16.9278 14.825 17.0748 14.9477 17.1703C15.0704 17.2659 15.2906 17.3329 15.6082 17.3716C16.0582 17.4263 16.4543 17.4275 16.7965 17.3751C17.2145 17.2513 17.53 17.1419 17.743 17.0469C17.8702 16.9952 17.9833 16.9486 18.0824 16.9069C18.1964 16.8536 18.2748 16.8161 18.3177 16.7945C18.3671 16.7199 18.4182 16.6858 18.4712 16.6922C18.5771 16.7051 18.6568 16.8223 18.7105 17.0437C18.6847 17.2555 18.6159 17.4352 18.5039 17.5827C18.3919 17.7303 18.1378 17.8874 17.7414 18.0541C16.9142 18.4505 16.1167 18.602 15.3491 18.5086C15.1373 18.4828 14.9412 18.4388 14.7607 18.3766ZM25.7669 19.695C25.3168 19.6403 24.9377 19.5002 24.6293 19.2746C24.3209 19.0491 24.1331 18.771 24.0659 18.4405C24.0022 18.191 23.972 18.053 23.9752 18.0265C23.9849 17.9471 24.0384 17.8932 24.1359 17.8647C24.2286 17.876 24.3296 17.9286 24.4391 18.0225C24.5618 18.118 24.6612 18.1838 24.7374 18.22C24.9134 18.4294 25.1735 18.5551 25.5176 18.5969C25.7823 18.6291 26.027 18.6051 26.2517 18.525C26.4896 18.4465 26.6306 18.3361 26.6748 18.1937C26.6828 18.1275 26.6448 17.8878 26.5607 17.4746C26.2878 16.9579 26.0885 16.4434 25.9627 15.9312C25.8518 15.4073 25.8173 14.9733 25.8592 14.6291C25.8897 14.3776 25.9939 14.1284 26.1717 13.8814C26.3495 13.6344 26.5754 13.4335 26.8494 13.2788C27.2222 12.9749 27.6571 12.7122 28.1541 12.4906C28.6644 12.2706 29.1179 12.131 29.5147 12.0718C29.6735 12.0911 29.863 12.1343 30.0832 12.2013C30.3166 12.27 30.4764 12.3365 30.5626 12.4007C30.7018 12.4713 30.823 12.6338 30.9264 12.8882C31.0298 13.1425 31.0686 13.3756 31.0429 13.5874C31.0171 13.7991 30.8692 14.0766 30.5991 14.4199C30.5614 14.5093 30.4931 14.6286 30.3944 14.7778C30.2957 14.9269 30.2439 15.0214 30.239 15.0611C30.17 15.187 30.0759 15.2427 29.9568 15.2282C29.8377 15.2137 29.725 15.1463 29.6188 15.0259C29.5274 14.8939 29.4582 14.7445 29.4114 14.5776C29.391 14.414 29.388 14.2726 29.4025 14.1535C29.4218 13.9946 29.4941 13.8422 29.6193 13.6963C29.7826 13.5684 29.8675 13.478 29.8739 13.425C29.8803 13.3721 29.8108 13.3368 29.6652 13.3191C29.5063 13.2997 29.1866 13.3885 28.706 13.5852C28.2254 13.782 27.8359 14.0032 27.5373 14.249C27.2717 14.445 27.1052 14.5994 27.0378 14.712C26.9719 14.8115 26.9254 14.9737 26.898 15.1987C26.8738 15.3973 26.8846 15.6403 26.9302 15.9279C26.9906 16.2039 27.0616 16.3939 27.1429 16.4978C27.163 16.554 27.2022 16.6729 27.2607 16.8546C27.3324 17.038 27.4182 17.2163 27.518 17.3896C27.7103 18.0174 27.7863 18.4968 27.7461 18.8277C27.6994 19.2115 27.5134 19.4709 27.188 19.606C26.8759 19.7426 26.4022 19.7723 25.7669 19.695ZM32.1334 20.3283C31.9746 20.309 31.852 20.2672 31.7658 20.203C31.6796 20.1388 31.5593 20.0235 31.405 19.8569C31.0245 19.3406 30.8576 18.8905 30.9043 18.5066C30.9156 18.414 30.9303 18.3486 30.9483 18.3105C30.9993 18.2227 31.0238 18.1316 31.0218 18.0374C31.0331 17.9447 31.0404 17.8852 31.0436 17.8587C30.9971 17.7993 30.9746 17.763 30.9762 17.7498C30.9795 17.7233 30.9951 17.705 31.0232 17.695C31.0529 17.6718 31.0759 17.6477 31.0924 17.6229C31.1718 17.6325 31.2071 17.5629 31.1984 17.4141C31.1848 17.305 31.2659 17.0798 31.4417 16.7386C31.6192 16.3841 31.8257 16.0667 32.0612 15.7864C32.2358 15.5659 32.4838 15.2938 32.8052 14.9702C33.1398 14.6483 33.4309 14.4083 33.6785 14.2504C34.03 14.0111 34.3395 13.8405 34.6071 13.7388C34.8746 13.637 35.1647 13.5715 35.4771 13.5424C35.7499 13.5084 35.9326 13.497 36.0252 13.5083C36.1179 13.5196 36.1941 13.5557 36.2538 13.6167C36.3284 13.6661 36.418 13.7576 36.5227 13.8912C36.8607 14.0935 37.0806 14.3284 37.1824 14.596C37.299 14.8519 37.3259 15.238 37.2632 15.7542C37.1585 16.6145 36.6943 17.505 35.8704 18.4256C35.5129 18.8254 35.1873 19.1283 34.8936 19.3343C34.6015 19.5271 34.221 19.7293 33.752 19.9409C33.4499 20.1056 33.1741 20.2198 32.9246 20.2835C32.6899 20.3356 32.4262 20.3505 32.1334 20.3283ZM34.2953 18.4556C34.6564 18.1369 34.9489 17.83 35.1729 17.5349C35.41 17.2413 35.6444 16.8602 35.8761 16.3914C35.9696 16.1744 36.0357 15.9071 36.0743 15.5895C36.1226 15.1924 36.0971 14.9609 35.9976 14.8951C35.8733 14.8128 35.745 14.7637 35.6126 14.7476C35.3214 14.7121 35.0009 14.8075 34.6511 15.0336C34.227 15.3178 33.8329 15.6862 33.4689 16.1389C33.1066 16.5784 32.7231 17.1362 32.3185 17.8123C32.1523 18.0741 32.0532 18.3374 32.021 18.6021C31.9968 18.8007 32.0238 18.9651 32.102 19.0955C32.1934 19.2275 32.3251 19.304 32.4972 19.3249C32.934 19.378 33.5333 19.0883 34.2953 18.4556ZM42.1984 21.8144C42.0993 21.856 41.976 21.8209 41.8284 21.7089C41.6941 21.5986 41.5654 21.4419 41.4423 21.2389C41.3574 21.0539 41.3129 20.8672 41.309 20.6787C41.3183 20.4918 41.3583 20.1071 41.4292 19.5248C41.4453 19.3924 41.4269 19.323 41.3739 19.3166C41.3342 19.3117 41.2335 19.3666 41.0718 19.4813C40.9117 19.5827 40.7129 19.7264 40.4754 19.9124C40.091 20.2015 39.742 20.4209 39.4282 20.5708C39.1145 20.7207 38.8658 20.7778 38.6821 20.742C38.5365 20.7243 38.3898 20.6057 38.2419 20.3862C38.1072 20.1684 38.0096 19.9215 37.9491 19.6455C37.9288 19.4818 37.9314 19.2941 37.9572 19.0823C38.0248 18.5264 38.2194 17.8651 38.541 17.0983C38.8758 16.3331 39.2301 15.6845 39.6037 15.1524C39.9922 14.6086 40.3056 14.3513 40.5438 14.3802C40.7424 14.4044 40.9011 14.6453 41.02 15.103C41.0501 15.1873 41.0619 15.2559 41.0554 15.3088C41.0442 15.4014 40.98 15.4877 40.8628 15.5674C40.6337 15.7948 40.3473 16.2166 40.0037 16.833C39.6601 17.4493 39.3751 18.0258 39.1487 18.5624C38.9355 19.1006 38.8752 19.3753 38.9679 19.3866C39.1532 19.4091 39.3804 19.3629 39.6496 19.2479C39.9188 19.1329 40.1936 18.9715 40.4741 18.7639C40.7561 18.543 41.0133 18.3056 41.2457 18.0518C41.4796 17.7848 41.772 17.4241 42.1227 16.9698C42.7865 16.1506 43.1537 15.6714 43.2243 15.5323C43.4679 15.1858 43.6359 14.9645 43.7282 14.8683C43.8353 14.7604 43.9575 14.6947 44.0947 14.6711L44.3726 14.7049C44.4504 14.7278 44.5358 14.7986 44.6288 14.9174C44.7167 14.9683 44.764 15.0211 44.7708 15.0757C44.7924 15.1186 44.7984 15.1798 44.7888 15.2592L44.3817 15.9551L44.1524 16.3503C44.1327 16.4016 44.0414 16.545 43.8784 16.7804C43.4919 17.4184 43.1943 17.9329 42.9855 18.3239C42.7768 18.7149 42.6062 19.1239 42.4736 19.5511C42.4524 19.6156 42.4321 19.7273 42.4127 19.8862C42.3644 20.2832 42.3703 20.566 42.4304 20.7345C42.5206 20.9872 42.6188 21.1738 42.725 21.2942C42.7848 21.3551 42.8114 21.4121 42.805 21.4651C42.7937 21.5577 42.703 21.6407 42.5329 21.714C42.3761 21.789 42.2645 21.8224 42.1984 21.8144ZM45.7368 21.3985C45.6971 21.3937 45.6283 21.3518 45.5305 21.2727C45.4459 21.1953 45.3745 21.1194 45.3164 21.0452C45.235 20.9413 45.1875 20.8348 45.1739 20.7257C45.1736 20.6182 45.1967 20.3725 45.2434 19.9887C45.2933 19.5783 45.4275 19.138 45.6459 18.6676C45.8775 18.1988 46.2614 17.5269 46.7976 16.6519L47.6218 15.3418C47.6728 15.254 47.7816 15.1329 47.9481 14.9785L48.1466 15.0027C48.2393 15.014 48.3313 15.0856 48.4227 15.2176C48.5273 15.3512 48.5965 15.5006 48.6301 15.6659C48.6043 15.8777 48.5471 16.0722 48.4584 16.2495C48.3829 16.4283 48.1993 16.6679 47.9076 16.9682C47.7824 17.1142 47.626 17.3504 47.4386 17.6768C47.2511 18.0032 47.1165 18.2823 47.0345 18.5141C46.9868 18.5755 46.9202 18.6815 46.8347 18.8323C46.7624 18.9847 46.6761 19.1421 46.5758 19.3045L46.4234 19.7292L47.9202 18.5211C48.5734 18.0095 49.0948 17.6432 49.4843 17.4219C49.8871 17.2023 50.2076 17.1069 50.4459 17.1359C50.7238 17.1697 50.9271 17.3758 51.0557 17.754C51.1507 17.9671 51.2108 18.1356 51.236 18.2595C51.2628 18.3702 51.2618 18.5447 51.2328 18.783C51.2231 18.8624 51.1825 19.0858 51.111 19.4531L50.9613 20.6841C51.1514 20.6669 51.3233 20.6341 51.4769 20.5856C51.6438 20.5388 51.7686 20.5069 51.8512 20.4901C52.1717 20.3948 52.5189 20.3564 52.8927 20.375C52.8389 20.5968 52.7098 20.8296 52.5056 21.0734C52.3013 21.3172 52.0622 21.5164 51.7882 21.6711C51.5158 21.8126 51.2604 21.8689 51.0222 21.8399C50.8369 21.8173 50.6488 21.7072 50.458 21.5093C50.2803 21.3131 50.1581 21.1035 50.0912 20.8805C50.056 20.7284 50.0446 20.5457 50.0571 20.3323C50.0829 20.1206 50.1191 19.8228 50.1658 19.4389L50.2551 18.7043C50.2712 18.572 50.2396 18.501 50.1602 18.4913C50.1072 18.4849 49.9718 18.549 49.754 18.6837C49.4603 18.8897 48.9778 19.2676 48.3065 19.8172C47.6649 20.3436 47.1123 20.7465 46.6485 21.0259C46.1995 21.2936 45.8956 21.4179 45.7368 21.3985ZM58.5729 24.229C58.2323 24.2682 58.025 24.0952 57.951 23.7101C57.8285 23.1714 57.8018 22.6174 57.871 22.0483C57.8903 21.8895 57.9106 21.7778 57.9319 21.7132L58.0223 21.3011L57.1732 21.8224C56.7046 22.1415 56.2472 22.3679 55.8011 22.5017C55.3683 22.6371 54.9798 22.6839 54.6357 22.642C54.4155 22.5749 54.2084 22.4557 54.0143 22.2844C53.8351 22.1014 53.712 21.8984 53.6451 21.6754C53.6051 21.563 53.5979 21.401 53.6237 21.1892C53.6832 20.6995 53.8856 20.1398 54.2308 19.5102C54.5776 18.8674 54.9761 18.3517 55.4263 17.9633C56.1001 17.1721 56.7877 16.8193 57.4892 16.9046C57.8201 16.9448 58.139 17.0843 58.4457 17.3231C58.7605 17.4957 58.9444 17.5852 58.9973 17.5917C59.0767 17.6013 59.1403 17.5755 59.1881 17.5141C59.2358 17.4528 59.29 17.3385 59.3507 17.1713C59.5703 16.5801 59.7713 16.0874 59.9535 15.6932C60.351 14.8551 60.6878 14.1842 60.9639 13.6805C61.2401 13.1768 61.569 12.6258 61.9507 12.0275C62.1169 11.7657 62.2511 11.6007 62.3534 11.5325C62.4706 11.4528 62.5879 11.4267 62.7054 11.4545C62.9966 11.4899 63.1975 11.7158 63.308 12.1322C63.3364 12.2297 63.345 12.3247 63.3338 12.4174C63.3225 12.51 63.2675 12.6309 63.1688 12.7801C62.7522 13.3339 62.2103 14.2552 61.5432 15.5441C60.876 16.8329 60.3431 17.9568 59.9444 18.9157C59.7722 19.338 59.5898 19.9538 59.3973 20.7632C59.2181 21.5741 59.0955 22.2509 59.0295 22.7936C59.0005 23.0319 58.9928 23.2055 59.0064 23.3146C59.0453 23.5477 59.0542 23.7503 59.0333 23.9223C59.0172 24.0547 58.9736 24.1367 58.9026 24.1683C58.83 24.2132 58.7201 24.2335 58.5729 24.229ZM55.4856 21.6171C55.7981 21.588 56.1928 21.4345 56.6699 21.1568C56.7557 21.1135 56.9646 20.9978 57.2963 20.8098C57.6281 20.6219 57.8887 20.4118 58.0781 20.1796C58.2676 19.9475 58.4147 19.6766 58.5195 19.367C58.5617 19.1303 58.5586 18.9352 58.5101 18.7816C58.4765 18.6163 58.3825 18.4504 58.2281 18.2839C58.107 18.1751 57.9472 18.1087 57.7487 18.0845C57.3913 18.0411 57.0427 18.1464 56.7029 18.4006C56.3069 18.6748 55.9393 19.0464 55.6002 19.5156C55.2611 19.9848 54.9785 20.5414 54.7524 21.1855C54.6821 21.4321 54.7992 21.5739 55.1036 21.611C55.2624 21.6303 55.3898 21.6323 55.4856 21.6171ZM62.6203 24.1773C62.1703 24.1225 61.7911 23.9824 61.4827 23.7568C61.1744 23.5313 60.9866 23.2533 60.9193 22.9227C60.8556 22.6732 60.8254 22.5352 60.8286 22.5087C60.8383 22.4293 60.8919 22.3754 60.9893 22.347C61.082 22.3582 61.183 22.4108 61.2925 22.5047C61.4152 22.6002 61.5147 22.6661 61.5909 22.7022C61.7669 22.9116 62.0269 23.0373 62.371 23.0791C62.6358 23.1113 62.8804 23.0874 63.1051 23.0072C63.343 22.9287 63.484 22.8183 63.5282 22.6759C63.5362 22.6097 63.4982 22.37 63.4142 21.9569C63.1412 21.4401 62.9419 20.9256 62.8162 20.4134C62.7053 19.8895 62.6707 19.4555 62.7126 19.1113C62.7432 18.8599 62.8474 18.6106 63.0252 18.3636C63.2029 18.1166 63.4288 17.9157 63.7029 17.761C64.0756 17.4571 64.5105 17.1944 65.0076 16.9728C65.5179 16.7528 65.9714 16.6132 66.3681 16.554C66.5269 16.5733 66.7164 16.6165 66.9366 16.6836C67.17 16.7522 67.3298 16.8187 67.416 16.8829C67.5552 16.9536 67.6765 17.1161 67.7798 17.3704C67.8832 17.6247 67.922 17.8578 67.8963 18.0696C67.8705 18.2813 67.7226 18.5588 67.4525 18.9021C67.4148 18.9915 67.3466 19.1108 67.2478 19.26C67.1491 19.4092 67.0973 19.5036 67.0925 19.5433C67.0234 19.6692 66.9294 19.7249 66.8102 19.7104C66.6911 19.696 66.5784 19.6285 66.4722 19.5082C66.3808 19.3762 66.3117 19.2267 66.2648 19.0598C66.2444 18.8962 66.2415 18.7548 66.2559 18.6357C66.2753 18.4768 66.3475 18.3244 66.4727 18.1785C66.636 18.0506 66.7209 17.9602 66.7273 17.9072C66.7338 17.8543 66.6642 17.819 66.5186 17.8013C66.3598 17.782 66.0401 17.8707 65.5595 18.0674C65.0788 18.2642 64.6893 18.4854 64.3908 18.7312C64.1252 18.9272 63.9586 19.0816 63.8912 19.1942C63.8254 19.2937 63.7788 19.4559 63.7514 19.6809C63.7273 19.8795 63.738 20.1225 63.7836 20.4102C63.8441 20.6861 63.915 20.8761 63.9964 20.98C64.0164 21.0362 64.0557 21.1551 64.1142 21.3368C64.1859 21.5202 64.2716 21.6985 64.3714 21.8718C64.5637 22.4996 64.6397 22.979 64.5995 23.3099C64.5528 23.6937 64.3668 23.9531 64.0414 24.0882C63.7293 24.2248 63.2556 24.2545 62.6203 24.1773ZM74.1713 29.5914C73.9631 29.6467 73.7465 29.6607 73.5215 29.6333C73.2038 29.5947 72.8884 29.4824 72.5752 29.2966C72.2752 29.1124 72.0148 28.8792 71.7939 28.5972C71.6644 28.4471 71.5544 28.1919 71.4639 27.8317C71.3718 27.4847 71.3679 27.2962 71.4521 27.2661C71.5083 27.2461 71.5628 27.2393 71.6158 27.2458C71.7217 27.2586 71.8185 27.2906 71.9063 27.3415C72.0074 27.3941 72.0547 27.4469 72.0483 27.4998C72.1429 27.6054 72.2748 27.7356 72.444 27.8905C72.6264 28.047 72.7632 28.1375 72.8542 28.162C73.0828 28.2704 73.2633 28.3326 73.3956 28.3487C73.5412 28.3664 73.6858 28.337 73.8295 28.2604C74.0489 28.1125 74.2343 27.9135 74.3856 27.6632C74.5486 27.4278 74.726 27.0733 74.9179 26.5997L75.0089 26.3489C75.5414 24.8421 75.8897 23.9107 76.0539 23.5546C76.1326 23.3493 76.18 23.1804 76.1961 23.048C76.209 22.9422 76.1956 22.8868 76.1558 22.882C76.1294 22.8788 76.0782 22.9128 76.0024 22.9842C75.8784 23.0094 75.7041 23.0621 75.4795 23.1422C75.0021 23.3125 74.6956 23.4028 74.56 23.4132L74.1208 23.3799C74.0647 23.4 74.0035 23.4059 73.9373 23.3979C73.7917 23.3802 73.6179 23.3188 73.4158 23.2136C73.2153 23.0952 73.037 22.9593 72.8811 22.806C72.7247 22.5453 72.6323 22.3661 72.6039 22.2687C72.5887 22.1728 72.6004 21.966 72.6391 21.6484C72.6516 21.435 72.7879 21.1426 73.0479 20.7713C73.3228 20.3884 73.6409 20.0375 74.002 19.7188C74.4622 19.3584 75.0449 19.0397 75.7502 18.7629C76.4554 18.486 76.9992 18.3775 77.3814 18.4374C77.4327 18.4571 77.5304 18.4824 77.6744 18.5134C77.8316 18.5459 77.9824 18.6314 78.1267 18.7698C78.2875 18.8834 78.4012 18.998 78.4677 19.1135C78.5343 19.2291 78.6218 19.4479 78.7304 19.77C78.8393 20.1997 78.8696 20.613 78.8213 21.0101C78.7714 21.4204 78.6351 21.7128 78.4125 21.8871C78.3728 21.8823 78.3116 21.8883 78.2289 21.9051C78.1463 21.9219 78.0785 21.9271 78.0256 21.9207C77.9859 21.9159 77.9273 21.9557 77.8498 22.0403C77.7856 22.1266 77.7397 22.2284 77.7119 22.3459C77.6645 22.5148 77.6063 22.6622 77.5373 22.7881C77.4518 22.9389 77.4074 23.0275 77.4042 23.054C77.3994 23.0937 77.3813 23.1318 77.35 23.1682C77.3336 23.1931 77.3171 23.218 77.3007 23.2428C77.1722 23.4153 77.0967 23.5941 77.0742 23.7794L76.9682 23.9881C76.8205 24.3194 76.745 24.4983 76.7418 24.5247L76.6141 24.9121C76.5796 24.9751 76.5262 25.0828 76.4539 25.2352C76.3833 25.3743 76.2941 25.6657 76.1864 26.1093C75.4424 28.141 74.7706 29.3017 74.1713 29.5914ZM73.6779 22.2179C73.8668 22.3215 74.0605 22.3854 74.259 22.4095C74.762 22.4707 75.3765 22.2768 76.1027 21.8278C76.7811 21.4403 77.2541 20.9202 77.5215 20.2677C77.5889 20.155 77.629 20.0458 77.6419 19.9399C77.6596 19.7943 77.5766 19.7036 77.3929 19.6678C77.3549 19.6498 77.2895 19.6351 77.1968 19.6238C76.7336 19.5675 76.1379 19.7166 75.4097 20.0713C75.3158 20.1808 75.1896 20.2796 75.0312 20.3678C74.8875 20.4443 74.7943 20.4934 74.7513 20.5151C74.7152 20.5913 74.6542 20.651 74.5684 20.6943C74.3357 20.8406 74.1083 21.1085 73.8864 21.4978C73.6644 21.8872 73.5949 22.1273 73.6779 22.2179ZM79.511 25.6876C79.4148 25.5953 79.3509 25.5136 79.3192 25.4426C79.2875 25.3716 79.2798 25.2699 79.2959 25.1376C79.3104 25.0185 79.329 24.92 79.3519 24.8422C79.4464 24.397 79.6092 23.8863 79.8405 23.31L79.9881 22.925C80.068 22.5989 80.3842 21.9322 80.9365 20.9248C81.4888 19.9175 81.9207 19.238 82.2321 18.8863C82.346 18.833 82.4625 18.8136 82.5817 18.8281C82.7537 18.8491 82.8921 18.9263 82.9967 19.0599C83.0697 19.1225 83.0973 19.2266 83.0796 19.3722C83.0635 19.5046 82.9864 19.6967 82.8483 19.9485C82.7251 20.1887 82.5138 20.5458 82.2144 21.0198C82.1485 21.1193 82.0317 21.3065 81.864 21.5816C81.7094 21.8583 81.6289 22.0231 81.6225 22.0761C81.6193 22.1026 81.6243 22.1166 81.6375 22.1182C81.664 22.1214 81.6913 22.118 81.7194 22.108C81.7491 22.0848 81.7779 22.0681 81.806 22.0581C81.9822 21.8243 82.3748 21.5229 82.9838 21.1537C83.6061 20.7861 84.0295 20.5623 84.2542 20.4822C84.3533 20.4405 84.4788 20.402 84.6309 20.3668C84.7829 20.3316 84.887 20.3039 84.9432 20.2839C85.1678 20.2038 85.4257 20.1814 85.7169 20.2168C85.9022 20.2394 86.057 20.2918 86.1813 20.374C86.3205 20.4447 86.4093 20.5428 86.4478 20.6684C86.4497 20.7626 86.474 20.8394 86.5205 20.8988C86.5802 20.9598 86.6225 20.9985 86.6474 21.015C86.6871 21.0198 86.7111 21.0429 86.7195 21.0842C86.7296 21.1123 86.7338 21.133 86.7322 21.1462C86.7209 21.2388 86.6607 21.292 86.5516 21.3056C86.4441 21.3059 86.2506 21.2958 85.971 21.2752C85.8238 21.2708 85.6676 21.2853 85.5023 21.319C85.337 21.3526 85.1702 21.3995 85.0017 21.4596C84.2089 21.7929 83.6128 22.0562 83.2132 22.2494C82.8269 22.4442 82.4235 22.7242 82.0029 23.0894C81.838 23.2306 81.6115 23.4918 81.3234 23.8731C81.2194 23.9545 81.0904 24.1873 80.9362 24.5715C80.7969 24.944 80.7216 25.1767 80.7103 25.2693C80.6922 25.3074 80.6561 25.3836 80.6019 25.4979C80.5493 25.599 80.4769 25.6976 80.3846 25.7938C80.2 25.9863 80.0548 26.0761 79.9489 26.0632C79.8298 26.0487 79.6838 25.9235 79.511 25.6876ZM89.5838 26.9127C89.2175 27.1636 88.8027 27.2609 88.3395 27.2046C88.0086 27.1643 87.7006 27.0463 87.4155 26.8504C87.1436 26.6562 86.9253 26.408 86.7606 26.1059C86.6143 25.8732 86.5175 25.6197 86.4703 25.3453C86.4231 25.0709 86.4228 24.7418 86.4695 24.358C86.4856 24.2256 86.531 23.9625 86.6058 23.5686C86.7051 23.0838 86.9259 22.5935 87.2682 22.0979C87.6238 21.6038 88.0383 21.1774 88.5117 20.8186C88.9868 20.4466 89.4391 20.2061 89.8688 20.0972C90.0966 19.9906 90.2966 19.9478 90.4687 19.9687C90.5613 19.98 90.6532 19.9978 90.7442 20.0224C90.8353 20.0469 90.9329 20.0722 91.0372 20.0983C91.3235 20.1734 91.5347 20.2595 91.6706 20.3566C91.8214 20.4421 91.9409 20.5641 92.0291 20.7226C92.3197 21.0937 92.4385 21.4977 92.3854 21.9345C92.2938 22.2457 92.0444 22.5847 91.6371 22.9516C91.2298 23.3184 90.7594 23.597 90.2259 23.7873C89.978 23.8378 89.7018 23.8445 89.3974 23.8074C88.9871 23.7575 88.6666 23.6313 88.4361 23.4286C88.3218 23.3744 88.2316 23.3433 88.1654 23.3352C88.0463 23.3207 87.9439 23.3889 87.8584 23.5397C87.7862 23.6921 87.6978 23.9768 87.5934 24.3939C87.5689 24.485 87.5462 24.6165 87.5252 24.7886C87.4431 25.4636 87.6231 25.8616 88.065 25.9825C88.3614 26.0857 88.5758 26.1453 88.7081 26.1614C88.867 26.1808 89.0521 26.1495 89.2635 26.0678L89.6673 25.8953C89.7515 25.8652 89.8308 25.8212 89.905 25.763C89.9792 25.7049 90.046 25.6526 90.1054 25.6061C90.1351 25.5828 90.1796 25.5479 90.239 25.5014C90.3 25.4417 90.3512 25.4076 90.3925 25.3992C90.4486 25.3792 90.4966 25.3716 90.5363 25.3764C90.5892 25.3829 90.6448 25.4232 90.7029 25.4974C90.7626 25.5584 90.8107 25.6046 90.8472 25.6359C90.9664 25.6503 90.9824 25.7396 90.8953 25.9036C90.8098 26.0544 90.6408 26.2286 90.3884 26.4262C90.1509 26.6123 89.8827 26.7744 89.5838 26.9127ZM90.0759 22.7013C90.3122 22.636 90.5573 22.4979 90.8113 22.287C91.0785 22.0777 91.2218 21.8937 91.2411 21.7349C91.2604 21.576 91.2169 21.4364 91.1107 21.3161C91.0045 21.1957 90.8454 21.1226 90.6337 21.0969C90.4748 21.0776 90.3541 21.0763 90.2715 21.0931C90.0797 21.1235 89.8436 21.2426 89.5632 21.4502C89.2843 21.6446 89.0378 21.8497 88.8235 22.0654C88.6092 22.2811 88.5195 22.4112 88.5544 22.4558C88.6061 22.5829 88.8569 22.6739 89.307 22.7286C89.6114 22.7657 89.8677 22.7565 90.0759 22.7013ZM94.0205 27.5731C93.8849 27.5835 93.7641 27.5823 93.6583 27.5694C93.4862 27.5485 93.329 27.5159 93.1866 27.4717C93.0458 27.4143 92.9787 27.3591 92.9851 27.3062C92.9899 27.2665 92.9865 27.2392 92.9749 27.2244C92.9633 27.2095 92.9376 27.1997 92.8979 27.1948C92.8863 27.18 92.8506 27.1421 92.7909 27.0811C92.7311 27.0201 92.6574 26.9641 92.5695 26.9131C92.4729 26.7133 92.4375 26.5076 92.4633 26.2958C92.4907 26.0708 92.5929 25.7273 92.7699 25.2653C92.8612 24.8466 93.1241 24.3413 93.5587 23.7494C93.9934 23.1576 94.4835 22.606 95.0292 22.0949C95.5882 21.5853 96.0733 21.2413 96.4845 21.063C96.7072 20.8886 96.9707 20.8199 97.2751 20.857C97.5134 20.8859 97.7311 20.9729 97.9284 21.1177C98.1008 21.2462 98.271 21.4482 98.439 21.7238C98.6202 22.001 98.7542 22.2793 98.8412 22.5585C98.87 22.7634 98.8731 22.9586 98.8505 23.1439C98.8264 23.3424 98.7621 23.6502 98.6576 24.0674C98.5625 24.2976 98.4675 24.5815 98.3727 24.9192C98.2912 25.2585 98.2351 25.5539 98.2045 25.8054C98.1555 25.9874 98.1502 26.1413 98.1887 26.2668C98.2287 26.3791 98.2951 26.4409 98.3877 26.4522C98.4539 26.4603 98.5291 26.4493 98.6134 26.4192C98.7538 26.3691 98.9034 26.3538 99.0622 26.3731C99.2078 26.3908 99.3221 26.445 99.4051 26.5357C99.4881 26.6263 99.5199 26.7511 99.5006 26.9099C99.4716 27.1482 99.2772 27.3663 98.9173 27.5643C98.5707 27.7639 98.2518 27.846 97.9606 27.8106C97.7621 27.7864 97.5953 27.6117 97.4602 27.2863C97.3401 26.9494 97.2303 26.5264 97.1311 26.0173L97.0675 25.5462L96.1148 26.2564L95.6026 26.6575C95.3651 26.8435 95.2306 26.9547 95.1993 26.9912C95.0232 27.225 94.6302 27.419 94.0205 27.5731ZM94.2225 26.409C94.5627 26.2623 94.9926 25.9856 95.5122 25.5786C96.0318 25.1717 96.4695 24.775 96.8255 24.3885C97.3018 23.8957 97.6251 23.3911 97.7954 22.8745C97.7617 22.7093 97.695 22.54 97.5952 22.3666C97.4954 22.1933 97.4 22.0944 97.3089 22.0699C97.0442 22.0377 96.7478 22.1561 96.4195 22.4251C96.0913 22.6941 95.6957 23.0758 95.2326 23.5702L94.4591 24.4634C94.3668 24.5596 94.1932 24.8272 93.9384 25.2664C93.6851 25.6922 93.5528 25.9515 93.5416 26.0441C93.5061 26.3353 93.5745 26.4914 93.7465 26.5123C93.8789 26.5284 94.0375 26.494 94.2225 26.409ZM102.519 29.1508C102.341 29.0753 102.196 28.9972 102.085 28.9166C101.974 28.8359 101.83 28.6908 101.654 28.4814C101.454 28.1348 101.331 27.8243 101.284 27.5499C101.251 27.2639 101.271 26.8231 101.344 26.2275C101.382 25.9098 101.667 25.058 102.199 23.672C102.161 23.7614 102.231 23.5751 102.408 23.1131C102.465 22.9724 102.423 22.8733 102.283 22.8159C102.142 22.7584 101.939 22.7136 101.674 22.6814C101.449 22.6541 101.319 22.6247 101.282 22.5934C101.244 22.5754 101.22 22.5523 101.21 22.5242C101.213 22.4977 101.216 22.4779 101.217 22.4647C101.225 22.3985 101.208 22.3158 101.167 22.2168C101.155 22.2019 101.151 22.1812 101.154 22.1548C101.162 22.0886 101.204 22.0198 101.28 21.9485C101.369 21.8787 101.467 21.8436 101.575 21.8433C101.643 21.8381 101.797 21.8368 102.039 21.8393C102.28 21.8418 102.512 21.8162 102.733 21.7625C102.954 21.7089 103.134 21.6165 103.27 21.4854C103.496 21.0695 103.774 20.6064 104.104 20.0959C104.437 19.5722 104.656 19.263 104.761 19.1684C104.986 19.0883 105.138 19.053 105.217 19.0627C105.297 19.0724 105.36 19.1069 105.406 19.1663C105.453 19.2256 105.514 19.3271 105.591 19.4708C105.601 19.4989 105.628 19.5492 105.673 19.6218C105.718 19.6944 105.736 19.7638 105.728 19.83C105.715 19.9359 105.643 20.0883 105.512 20.2872C105.393 20.4877 105.156 20.835 104.801 21.329L104.482 21.7939C104.52 21.812 104.612 21.8299 104.758 21.8476C104.903 21.8653 105.023 21.8732 105.117 21.8712C105.415 21.8537 105.69 21.8602 105.941 21.8908C106.073 21.9069 106.165 21.9248 106.217 21.9444C106.521 21.9815 106.732 22.0676 106.85 22.2028C106.983 22.3264 107.046 22.5222 107.041 22.7901C107.049 22.9389 107.012 23.0217 106.93 23.0385C106.847 23.0554 106.62 23.0412 106.25 22.9961C104.706 22.8756 103.925 22.841 103.905 22.8923C103.847 22.9256 103.72 23.1451 103.523 23.551C103.326 23.9568 103.151 24.3452 102.998 24.7162C102.73 25.4894 102.558 26.1804 102.484 26.7893C102.417 27.3452 102.451 27.7254 102.587 27.9301C102.646 28.0043 102.767 28.0527 102.953 28.0752C103.138 28.0977 103.34 28.0888 103.56 28.0484C103.795 27.9963 103.992 27.9196 104.152 27.8182C104.415 27.6486 104.625 27.5735 104.784 27.5928C104.864 27.6025 104.92 27.6362 104.953 27.694C105.001 27.7401 105.021 27.7963 105.013 27.8625C104.996 28.008 104.894 28.1837 104.707 28.3894C104.472 28.6697 104.177 28.8889 103.822 29.0472C103.466 29.2055 103.137 29.2662 102.832 29.2291C102.687 29.2114 102.582 29.1853 102.519 29.1508ZM5.06091 37.1428C4.79941 37.0841 4.63799 37.0309 4.57664 36.9831C4.52853 36.937 4.47522 36.8231 4.41674 36.6413C4.32373 36.5226 4.26801 36.4285 4.24959 36.3591C4.2444 36.2913 4.25245 36.2251 4.27374 36.1606C4.43257 36.1799 4.52844 36.1647 4.56135 36.1149C4.56618 36.0752 4.58925 36.0512 4.63057 36.0428C4.68512 36.036 4.73806 36.0424 4.7894 36.0621C5.14354 36.132 5.68228 36.0095 6.4056 35.6945C7.12892 35.3796 7.86592 34.9521 8.6166 34.4121C9.06 33.9691 9.3714 33.6174 9.5508 33.3572C9.74344 33.0985 9.85022 32.8832 9.87114 32.7111C9.88402 32.6052 9.87624 32.5035 9.8478 32.4061C9.81936 32.3086 9.68602 32.2454 9.44778 32.2164C9.03747 32.1665 8.59621 32.2606 8.12402 32.4986C7.51141 32.7868 7.01454 33.0621 6.63338 33.3247C6.25383 33.574 5.89432 33.8795 5.55484 34.2412C5.40155 34.3972 5.24264 34.5995 5.07808 34.8481C4.91514 35.0835 4.80898 35.2384 4.75962 35.313C4.75318 35.366 4.66571 35.4225 4.49723 35.4826C4.34197 35.5443 4.2114 35.5687 4.10552 35.5558C4.04256 35.5213 3.96958 35.4587 3.88659 35.368C3.81683 35.2789 3.78178 35.1807 3.78142 35.0732C3.75817 35.0435 3.71587 35.0048 3.65452 34.957C3.6064 34.9108 3.57153 34.8663 3.54988 34.8234C3.54148 34.7821 3.54049 34.7349 3.54693 34.682C3.55659 34.6026 3.61061 34.4345 3.70898 34.1779C3.8222 33.9096 3.90671 33.7117 3.96252 33.5841C4.12958 33.0941 4.32552 32.5873 4.55035 32.064C4.78842 31.5422 4.94376 31.2589 5.01638 31.214C5.03283 31.1892 5.06816 31.1196 5.12235 31.0053C5.18979 30.8926 5.23155 30.7701 5.24765 30.6377C5.28861 30.5218 5.34441 30.3943 5.41506 30.2552C5.50056 30.1044 5.54492 30.0157 5.54814 29.9893C5.62075 29.9444 5.89611 29.4473 6.37421 28.4981C6.38065 28.4452 6.56891 28.1121 6.93897 27.499C7.49649 26.5594 7.83847 25.9563 7.96493 25.6896C8.10498 25.532 8.2326 25.3662 8.34778 25.1922C8.52557 24.9452 8.64917 24.8125 8.71856 24.7941C8.82767 24.7805 8.95761 24.8164 9.10839 24.9019C9.27241 24.989 9.3927 25.1044 9.46925 25.248C9.52416 25.3487 9.5492 25.4189 9.54437 25.4586C9.53632 25.5248 9.48132 25.6457 9.37937 25.8213C9.29226 25.9854 9.19112 26.1544 9.07593 26.3284C8.96074 26.5025 8.87766 26.6334 8.82668 26.7212L8.20478 27.6932C7.75566 28.4042 7.38237 29.0438 7.08492 29.6121C6.78908 30.1671 6.46954 30.8065 6.12631 31.5304L5.65062 32.4597L5.49823 32.8844L6.05253 32.4683C6.22584 32.3685 6.54681 32.1591 7.01543 31.84C7.11774 31.7718 7.2052 31.7153 7.27782 31.6704C7.36529 31.6139 7.43129 31.5682 7.47582 31.5333C7.64753 31.4467 7.89364 31.3558 8.21417 31.2605C8.53469 31.1651 8.75612 31.1115 8.87846 31.0995C9.15122 31.0655 9.44644 31.0678 9.7641 31.1065C10.042 31.1403 10.2656 31.2346 10.4348 31.3895C10.604 31.5444 10.757 31.7779 10.8936 32.09C10.9838 32.3428 11.0119 32.6081 10.9781 32.886C10.9282 33.2964 10.7756 33.6673 10.5204 33.9989C10.4478 34.0438 10.3728 34.1086 10.2953 34.1932C10.2195 34.2645 10.1783 34.3267 10.1719 34.3796C10.149 34.4574 10.0148 34.6224 9.76919 34.8746C9.52361 35.1268 9.25818 35.3766 8.97289 35.624C8.5853 35.9395 8.0852 36.2413 7.4726 36.5295C6.87323 36.8192 6.3802 37.0077 5.9935 37.095C5.91247 37.0986 5.75704 37.1066 5.5272 37.1189C5.31221 37.1196 5.15678 37.1276 5.06091 37.1428ZM15.8014 38.7513C15.5207 38.4082 15.3372 37.9292 15.2508 37.3143C15.234 37.2317 15.2377 37.0911 15.2618 36.8925C15.286 36.694 15.3029 36.555 15.3125 36.4756C15.209 36.6645 15.0417 36.8255 14.8106 36.9585C14.4691 37.2259 14.1373 37.4139 13.8152 37.5225C13.3149 37.7706 12.9192 37.8769 12.628 37.8415C12.3633 37.8093 12.1295 37.6331 11.9267 37.313C11.7723 37.1464 11.6577 36.9847 11.5827 36.8279C11.521 36.6726 11.503 36.4891 11.5288 36.2773C11.5465 36.1317 11.5857 35.9753 11.6463 35.8081C11.7323 35.3216 11.8557 34.8598 12.0163 34.4226C12.1901 33.9871 12.4786 33.4379 12.8815 32.775C13.4065 31.9927 13.7785 31.4738 13.9976 31.2184C14.067 31.2 14.1547 31.1972 14.2606 31.2101C14.3929 31.2262 14.494 31.2788 14.5637 31.3678C14.6467 31.4585 14.6868 31.5709 14.6839 31.7048C14.7172 31.7626 14.7282 31.8378 14.7169 31.9305C14.6767 32.2613 14.4122 32.7799 13.9233 33.486C13.2558 34.6674 12.8931 35.4963 12.8351 35.9728C12.8013 36.2508 12.8606 36.4259 13.013 36.4981C13.0744 36.5459 13.1447 36.5746 13.2241 36.5843C13.555 36.6245 13.9795 36.4478 14.4975 36.0541C15.0155 35.6604 15.5466 34.993 16.0909 34.0519C16.3309 33.6244 16.4997 33.1748 16.5974 32.7031C16.589 32.6618 16.5896 32.6015 16.5993 32.522C16.6283 32.2838 16.7707 32.1064 17.0267 31.9897C17.0893 31.9168 17.1693 31.8661 17.2668 31.8376C17.3659 31.796 17.4254 31.8032 17.4455 31.8594L17.7656 31.8781C17.8069 31.8697 17.8417 31.9143 17.8702 32.0118C17.9002 32.096 17.9335 32.1538 17.97 32.1851C18.053 32.2758 18.0816 32.427 18.0558 32.6388C18.0027 33.0755 17.7295 33.7206 17.2362 34.574C16.9203 35.0728 16.6984 35.4622 16.5703 35.7421C16.4571 36.0104 16.3778 36.2761 16.3323 36.5392C16.2712 37.0422 16.4124 37.4824 16.756 37.86C16.877 37.9688 16.9444 38.0777 16.958 38.1868C16.9716 38.2959 16.9605 38.4423 16.9247 38.626C16.8838 38.7419 16.7923 38.8315 16.6503 38.8948C16.5231 38.9465 16.3867 38.9635 16.2411 38.9458C16.069 38.9249 15.9225 38.86 15.8014 38.7513ZM20.6877 39.3456C20.5088 39.2701 20.3639 39.192 20.2528 39.1113C20.1417 39.0307 19.9982 38.8856 19.8222 38.6762C19.6226 38.3295 19.4992 38.019 19.452 37.7447C19.4196 37.4587 19.4396 37.0179 19.512 36.4222C19.5507 36.1046 19.8356 35.2528 20.3668 33.8667C20.3291 33.9562 20.3988 33.7699 20.5758 33.3079C20.6333 33.1671 20.5916 33.068 20.4508 33.0106C20.31 32.9532 20.1073 32.9084 19.8426 32.8762C19.6176 32.8488 19.4868 32.8195 19.4503 32.7882C19.4122 32.7701 19.3882 32.7471 19.3782 32.719C19.3814 32.6925 19.3838 32.6727 19.3854 32.6594C19.3935 32.5932 19.3767 32.5106 19.335 32.4115C19.3234 32.3967 19.3192 32.376 19.3224 32.3495C19.3304 32.2834 19.3724 32.2146 19.4482 32.1432C19.5373 32.0735 19.6356 32.0384 19.7431 32.0381C19.8108 32.0329 19.9655 32.0315 20.2069 32.034C20.4484 32.0365 20.6798 32.011 20.9013 31.9573C21.1227 31.9036 21.3018 31.8113 21.4387 31.6802C21.6639 31.2643 21.9418 30.8011 22.2725 30.2907C22.6049 29.767 22.8238 29.4578 22.9293 29.3632C23.154 29.283 23.306 29.2478 23.3854 29.2575C23.4648 29.2671 23.5278 29.3017 23.5743 29.361C23.6208 29.4204 23.6823 29.5219 23.7589 29.6655C23.7689 29.6936 23.7963 29.744 23.8412 29.8166C23.8861 29.8892 23.9046 29.9586 23.8965 30.0248C23.8836 30.1307 23.8114 30.2831 23.6797 30.482C23.5613 30.6825 23.3243 31.0297 22.9687 31.5237L22.6503 31.9887C22.6884 32.0068 22.7802 32.0246 22.9258 32.0424C23.0714 32.0601 23.1913 32.0679 23.2856 32.066C23.5832 32.0484 23.8578 32.055 24.1093 32.0856C24.2416 32.1017 24.3335 32.1195 24.3848 32.1392C24.6892 32.1762 24.9004 32.2624 25.0182 32.3976C25.151 32.5212 25.2144 32.7169 25.2087 32.9849C25.2175 33.1337 25.1806 33.2165 25.0979 33.2333C25.0153 33.2501 24.7887 33.236 24.4181 33.1909C22.8747 33.0704 22.0931 33.0358 22.0734 33.0871C22.0157 33.1204 21.8882 33.3399 21.6911 33.7457C21.494 34.1516 21.3192 34.54 21.1666 34.9109C20.898 35.6842 20.7266 36.3752 20.6526 36.984C20.585 37.54 20.6193 37.9202 20.7556 38.1248C20.8137 38.1991 20.9354 38.2474 21.1207 38.27C21.306 38.2925 21.5086 38.2836 21.7284 38.2432C21.9631 38.1911 22.1605 38.1144 22.3205 38.013C22.5829 37.8434 22.7935 37.7683 22.9524 37.7876C23.0318 37.7972 23.0881 37.831 23.1214 37.8887C23.1695 37.9349 23.1895 37.991 23.1815 38.0572C23.1638 38.2028 23.0618 38.3785 22.8756 38.5842C22.6401 38.8644 22.3448 39.0837 21.9897 39.242C21.6347 39.4003 21.305 39.4609 21.0005 39.4239C20.8549 39.4062 20.7507 39.3801 20.6877 39.3456ZM35.0127 40.5438C34.8241 40.5478 34.5455 40.299 34.1767 39.7974C34.0785 39.6109 34.0146 39.3076 33.9851 38.8877C33.9704 38.4561 33.9788 38.0004 34.0103 37.5207C32.7715 38.9818 31.815 39.7788 31.1407 39.9117C31.0993 39.9201 31.0456 39.9203 30.9794 39.9123C30.8338 39.8946 30.731 39.8015 30.6709 39.633C30.6192 39.5058 30.5789 39.3397 30.5501 39.1347C30.523 38.9165 30.5281 38.709 30.5654 38.512C30.5858 37.6818 30.6395 36.9093 30.7264 36.1945C30.8005 35.5857 30.8827 35.186 30.973 34.9955C30.9662 34.941 30.9652 34.8938 30.97 34.8541C30.9765 34.8012 30.9805 34.7681 30.9821 34.7549C30.9605 34.7119 30.9609 34.5978 30.9834 34.4125C31.0108 34.1875 31.0538 33.9443 31.1125 33.6828C31.1844 33.4229 31.2434 33.2689 31.2896 33.2208C31.3257 33.1446 31.4256 33.0963 31.5893 33.0759C31.783 33.1397 31.8792 33.232 31.8779 33.3528C31.9028 33.3692 31.9319 33.4063 31.9651 33.4641C32.0116 33.5235 32.0622 33.5498 32.1167 33.543C32.1897 33.6056 32.1851 33.9744 32.103 34.6494C32.0801 34.7272 32.0614 34.8257 32.047 34.9448C32.0473 35.0523 32.0443 35.1325 32.0378 35.1855C32.0282 35.2649 32.0151 35.317 31.9987 35.3419C31.9665 35.6066 31.9421 35.973 31.9254 36.4411C31.8916 36.719 31.8576 36.9432 31.8235 37.1137L31.7167 37.826C31.7226 38.1088 31.7348 38.2849 31.7532 38.3543C31.7848 38.4253 31.8436 38.4392 31.9294 38.3959C32.0682 38.359 32.5213 37.8366 33.2886 36.8285C33.8685 36.1469 34.2351 35.7281 34.3884 35.5721C34.4896 35.1814 34.6187 34.727 34.7758 34.2089C35.0017 34.008 35.194 33.9173 35.3529 33.9366C35.4852 33.9527 35.5815 34.045 35.6416 34.2134C35.8156 34.3286 35.8905 34.4855 35.8664 34.684C35.8551 34.7767 35.8404 34.8421 35.8224 34.8802L35.3942 35.916C35.2597 36.2489 35.1482 36.7793 35.0596 37.5073C34.9791 38.1691 34.9617 38.6438 35.0073 38.9314C34.9944 39.0373 35.0475 39.0975 35.1667 39.1119C35.299 39.128 35.4816 39.0629 35.7143 38.9166C36.0425 38.6476 36.4241 38.2709 36.8591 37.7866C37.3089 37.2906 37.5403 36.9897 37.5531 36.8838C37.566 36.7779 37.6062 36.6686 37.6736 36.5559C37.7426 36.43 37.8209 36.3388 37.9084 36.2823C37.9694 36.2225 38.0195 36.1413 38.0589 36.0386C38.0982 35.936 38.1352 35.8532 38.1697 35.7902C38.1861 35.7653 38.2034 35.7339 38.2215 35.6958C38.2544 35.646 38.2881 35.5897 38.3226 35.5267L38.31 35.4648C38.318 35.3986 38.3732 35.3314 38.4755 35.2633C38.5795 35.1819 38.6404 35.1222 38.6585 35.0841C38.724 34.8771 38.8494 34.7849 39.0347 34.8075C39.1405 34.8203 39.2342 34.8787 39.3156 34.9826C39.4118 35.0749 39.4577 35.1947 39.4532 35.3419C39.4226 35.5934 39.2618 35.9768 38.9708 36.4921C38.6814 36.9941 38.3728 37.4334 38.0449 37.8099C38.012 37.8596 37.961 37.9475 37.892 38.0734C37.8246 38.1861 37.7126 38.3336 37.5561 38.5161C37.4144 38.6869 37.206 38.91 36.9307 39.1855C36.7 39.426 36.4823 39.6145 36.2777 39.7508C35.9876 40.0378 35.7476 40.2437 35.5578 40.3684C35.3681 40.493 35.1863 40.5515 35.0127 40.5438ZM39.969 40.6429C39.7705 40.6188 39.6239 40.554 39.5293 40.4484C39.4346 40.3429 39.3707 40.2613 39.3374 40.2035C39.3174 40.1473 39.3122 40.0795 39.3219 40.0001C39.3283 39.9472 39.4044 39.7079 39.5502 39.2824L39.8086 38.649C40.0069 38.1224 40.1808 37.6869 40.3301 37.3424C40.4233 37.0179 40.5652 36.6793 40.7559 36.3264C40.9598 35.9751 41.0798 35.7613 41.1159 35.6852C41.2685 35.3142 41.5461 34.7435 41.9487 33.9732L42.7399 32.4375C43.3561 31.2364 43.7274 30.5025 43.8539 30.2359L44.2778 29.4009C44.3035 29.1892 44.4223 29.0961 44.6341 29.1219C44.8194 29.1444 44.9587 29.2688 45.0521 29.4951C45.1603 29.7097 45.1983 29.9494 45.1661 30.2141C45.142 30.4127 45.0789 30.5997 44.977 30.7754C44.7434 31.1499 44.477 31.6279 44.178 32.2094C43.8938 32.7793 43.7073 33.1528 43.6186 33.3301C43.014 34.546 42.5867 35.3536 42.3367 35.753C42.3302 35.806 42.2991 35.8962 42.2433 36.0237C42.1875 36.1513 42.1267 36.2648 42.0609 36.3642L41.7894 36.7744C41.7845 36.8141 41.6779 37.0832 41.4696 37.5817C41.215 38.1283 41.0518 38.5316 40.9799 38.7915C41.0606 38.6804 41.2213 38.5186 41.462 38.3061C41.7044 38.0804 41.9279 37.8994 42.1325 37.7631C42.9361 37.2295 43.4312 36.9137 43.6178 36.8155C43.7879 36.7421 43.9307 36.6722 44.0462 36.6057C44.1618 36.5391 44.241 36.495 44.284 36.4734C44.292 36.4072 44.3688 36.383 44.5144 36.4007C44.5674 36.4071 44.5946 36.4037 44.5962 36.3905C44.6111 36.3789 44.6217 36.3466 44.6282 36.2936C44.6394 36.201 44.8013 36.1401 45.1138 36.1109C45.4279 36.0685 45.704 36.0618 45.9423 36.0908C46.1011 36.1101 46.2228 36.1585 46.3074 36.236C46.392 36.3134 46.4934 36.4735 46.6117 36.7162C46.798 37.0612 46.8687 37.4191 46.8236 37.7897C46.7979 38.0014 46.7316 38.215 46.6248 38.4303C46.6119 38.5362 46.572 38.6993 46.5049 38.9194C46.4527 39.128 46.4169 39.3117 46.3976 39.4705L46.2012 40.0913L46.5188 40.13C46.6115 40.1412 46.6959 40.1649 46.7721 40.2011C46.8615 40.2388 46.9187 40.2659 46.9435 40.2824C47.045 40.4424 47.142 40.5281 47.2346 40.5394C47.3538 40.5539 47.4077 40.6074 47.3964 40.7001C47.39 40.753 47.3555 40.816 47.2929 40.889C47.2303 40.962 47.1494 41.0193 47.0503 41.061C46.6804 41.2309 46.3764 41.3013 46.1381 41.2724C45.9131 41.245 45.6944 41.1109 45.4819 40.8702C45.2261 40.5436 45.1232 40.1751 45.1731 39.7648C45.1988 39.5531 45.2691 39.3064 45.384 39.0249L45.5208 38.3968C45.5859 38.0824 45.6233 37.8854 45.6329 37.806C45.67 37.5016 45.6157 37.3405 45.4701 37.3228C45.2848 37.3003 44.9073 37.4223 44.3376 37.6888C43.7828 37.9436 43.1976 38.2821 42.5822 38.7043C41.9683 39.1131 41.4662 39.5423 41.0757 39.9918C40.8466 40.2191 40.6512 40.3901 40.4895 40.5048C40.3426 40.6078 40.2088 40.6587 40.0881 40.6574L39.969 40.6429ZM50.0115 42.368C49.8759 42.3784 49.7552 42.3772 49.6493 42.3643C49.4773 42.3433 49.32 42.3108 49.1777 42.2666C49.0369 42.2092 48.9697 42.154 48.9762 42.1011C48.981 42.0614 48.9776 42.0341 48.966 42.0192C48.9544 42.0044 48.9287 41.9946 48.889 41.9897C48.8774 41.9749 48.8417 41.937 48.7819 41.876C48.7222 41.815 48.6484 41.759 48.5606 41.708C48.464 41.5082 48.4286 41.3025 48.4543 41.0907C48.4817 40.8657 48.5839 40.5222 48.761 40.0602C48.8522 39.6415 49.1152 39.1362 49.5498 38.5443C49.9844 37.9525 50.4746 37.4009 51.0203 36.8897C51.5793 36.3802 52.0643 36.0362 52.4755 35.8579C52.6982 35.6835 52.9618 35.6148 53.2662 35.6518C53.5044 35.6808 53.7222 35.7677 53.9195 35.9126C54.0919 36.0411 54.2621 36.2431 54.43 36.5187C54.6112 36.7959 54.7453 37.0742 54.8322 37.3534C54.861 37.5583 54.8641 37.7535 54.8416 37.9388C54.8175 38.1373 54.7532 38.4451 54.6487 38.8622C54.5535 39.0924 54.4586 39.3764 54.3638 39.7141C54.2822 40.0534 54.2261 40.3488 54.1956 40.6002C54.1465 40.7823 54.1413 40.9362 54.1797 41.0617C54.2198 41.174 54.2861 41.2358 54.3788 41.2471C54.445 41.2552 54.5202 41.2442 54.6044 41.2141C54.7448 41.164 54.8945 41.1486 55.0533 41.168C55.1989 41.1857 55.3132 41.2399 55.3962 41.3305C55.4792 41.4212 55.511 41.546 55.4917 41.7048C55.4627 41.9431 55.2683 42.1612 54.9084 42.3592C54.5618 42.5588 54.2429 42.6409 53.9517 42.6055C53.7531 42.5813 53.5863 42.4066 53.4513 42.0812C53.3311 41.7443 53.2214 41.3212 53.1221 40.8122L53.0585 40.3411L52.1058 41.0512L51.5936 41.4523C51.3561 41.6384 51.2217 41.7496 51.1904 41.7861C51.0142 42.0199 50.6213 42.2139 50.0115 42.368ZM50.2135 41.2039C50.5537 41.0572 50.9836 40.7804 51.5032 40.3735C52.0228 39.9666 52.4606 39.5699 52.8165 39.1834C53.2928 38.6906 53.6161 38.186 53.7864 37.6694C53.7528 37.5041 53.6861 37.3349 53.5863 37.1615C53.4865 36.9882 53.391 36.8893 53.3 36.8648C53.0353 36.8326 52.7388 36.951 52.4106 37.22C52.0824 37.489 51.6867 37.8707 51.2237 38.3651L50.4502 39.2582C50.3579 39.3545 50.1843 39.6221 49.9294 40.0612C49.6762 40.4871 49.5439 40.7464 49.5326 40.839C49.4972 41.1302 49.5655 41.2863 49.7376 41.3072C49.8699 41.3233 50.0286 41.2889 50.2135 41.2039ZM58.5106 43.9457C58.3317 43.8702 58.1867 43.7921 58.0757 43.7115C57.9646 43.6308 57.821 43.4857 57.645 43.2763C57.4454 42.9297 57.322 42.6192 57.2748 42.3448C57.2424 42.0588 57.2625 41.618 57.3349 41.0224C57.3735 40.7047 57.6585 39.8529 58.1897 38.4669C58.1519 38.5563 58.2216 38.37 58.3987 37.908C58.4561 37.7672 58.4144 37.6682 58.2737 37.6107C58.1329 37.5533 57.9302 37.5085 57.6654 37.4763C57.4404 37.449 57.3097 37.4196 57.2732 37.3883C57.2351 37.3703 57.211 37.3472 57.201 37.3191C57.2042 37.2926 57.2067 37.2728 57.2083 37.2595C57.2163 37.1934 57.1995 37.1107 57.1578 37.0116C57.1462 36.9968 57.142 36.9761 57.1452 36.9497C57.1533 36.8835 57.1952 36.8147 57.271 36.7433C57.3601 36.6736 57.4584 36.6385 57.5659 36.6382C57.6337 36.633 57.7883 36.6317 58.0298 36.6342C58.2712 36.6367 58.5027 36.6111 58.7241 36.5574C58.9456 36.5038 59.1247 36.4114 59.2615 36.2803C59.4867 35.8644 59.7647 35.4013 60.0954 34.8908C60.4277 34.3671 60.6466 34.0579 60.7522 33.9633C60.9768 33.8832 61.1288 33.8479 61.2083 33.8576C61.2877 33.8672 61.3506 33.9018 61.3971 33.9612C61.4436 34.0205 61.5052 34.122 61.5817 34.2657C61.5917 34.2937 61.6192 34.3441 61.6641 34.4167C61.709 34.4893 61.7274 34.5587 61.7194 34.6249C61.7065 34.7308 61.6342 34.8832 61.5026 35.0821C61.3842 35.2826 61.1472 35.6298 60.7916 36.1239L60.4731 36.5888C60.5112 36.6069 60.6031 36.6248 60.7487 36.6425C60.8943 36.6602 61.0142 36.6681 61.1084 36.6661C61.4061 36.6486 61.6806 36.6551 61.9321 36.6857C62.0645 36.7018 62.1563 36.7197 62.2076 36.7393C62.5121 36.7764 62.7232 36.8625 62.8411 36.9977C62.9738 37.1213 63.0373 37.3171 63.0316 37.585C63.0403 37.7338 63.0034 37.8166 62.9208 37.8334C62.8381 37.8502 62.6115 37.8361 62.2409 37.791C60.6975 37.6705 59.916 37.6359 59.8963 37.6872C59.8385 37.7205 59.7111 37.94 59.514 38.3459C59.3169 38.7517 59.142 39.1401 58.9895 39.5111C58.7208 40.2843 58.5495 40.9753 58.4754 41.5842C58.4078 42.1401 58.4421 42.5203 58.5784 42.725C58.6366 42.7992 58.7583 42.8476 58.9436 42.8701C59.1289 42.8926 59.3314 42.8837 59.5513 42.8433C59.7859 42.7912 59.9833 42.7145 60.1434 42.6131C60.4058 42.4435 60.6164 42.3684 60.7752 42.3877C60.8546 42.3974 60.911 42.4311 60.9442 42.4889C60.9924 42.535 61.0124 42.5912 61.0043 42.6573C60.9866 42.8029 60.8847 42.9786 60.6985 43.1843C60.4629 43.4645 60.1676 43.6838 59.8126 43.8421C59.4575 44.0004 59.1278 44.0611 58.8234 44.024C58.6778 44.0063 58.5735 43.9802 58.5106 43.9457ZM71.3371 36.9229C71.0856 36.8923 70.8436 36.7286 70.6111 36.4317C70.3934 36.1231 70.3023 35.8233 70.3377 35.5321C70.3458 35.4659 70.4437 35.3233 70.6315 35.1044C70.8193 34.8855 70.9148 34.7628 70.918 34.7363C71.0107 34.7476 71.0893 34.7639 71.1539 34.7851C71.2184 34.8064 71.2946 34.8426 71.3825 34.8935C71.4694 35.1727 71.6217 35.4666 71.8394 35.7751C71.9059 35.8907 71.9666 35.9988 72.0215 36.0995C72.0764 36.2002 72.0999 36.2836 72.0918 36.3498C72.0644 36.5748 72.0327 36.7254 71.9966 36.8016C71.9737 36.8794 71.9143 36.9259 71.8184 36.9411C71.7358 36.958 71.5754 36.9519 71.3371 36.9229ZM67.5035 44.0925C67.4637 44.0877 67.4124 44.068 67.3495 44.0335C67.2865 43.999 67.2426 43.9735 67.2177 43.957C67.2226 43.9173 67.2107 43.8487 67.1823 43.7512C67.1687 43.6421 67.1635 43.5743 67.1667 43.5479C67.0673 43.482 67.0224 43.4094 67.0321 43.33C67.0401 43.2638 67.0712 43.1736 67.1254 43.0593C67.3345 42.7758 67.7227 42.1246 68.2898 41.1056C68.8586 40.0734 69.1815 39.4612 69.2586 39.2691C69.2651 39.2162 69.293 39.1524 69.3423 39.0778C69.3917 39.0032 69.4461 38.9427 69.5055 38.8962C69.5648 38.8497 69.6276 38.8305 69.6938 38.8385C69.8394 38.8562 69.9597 38.9716 70.0547 39.1846C70.1629 39.3992 70.2025 39.6257 70.1735 39.8639C70.1542 40.0228 69.9464 40.4609 69.5503 41.1783C69.1689 41.8841 68.7471 42.5917 68.2847 43.301C68.2189 43.4005 68.121 43.543 67.9909 43.7287C67.8741 43.916 67.7869 44.0262 67.7291 44.0595C67.6713 44.0928 67.5961 44.1038 67.5035 44.0925ZM72.3729 45.3899C71.7111 45.3094 71.257 45.0124 71.0105 44.4989C70.9307 44.3817 70.9005 44.2437 70.9198 44.0849C70.9295 44.0055 70.9508 43.9409 70.9837 43.8912C71.0314 43.8299 71.0818 43.8024 71.1347 43.8088C71.2009 43.8169 71.2681 43.8721 71.3362 43.9744C71.5086 44.1028 71.7669 44.1879 72.1111 44.2298C72.4817 44.2749 72.8537 44.253 73.2272 44.1641C73.6732 44.0303 73.8101 43.8992 73.6376 43.7707L73.6575 43.7732C73.1574 43.578 72.6718 43.2638 72.2007 42.8304C71.7444 42.3854 71.5083 42.0074 71.4924 41.6966C71.472 41.5329 71.4723 41.365 71.4932 41.193C71.5334 40.8621 71.6465 40.54 71.8323 40.2269C72.0181 39.9137 72.2537 39.6334 72.539 39.386C72.9666 39.1828 73.2416 39.0753 73.364 39.0633L73.3616 39.0831C73.614 38.8855 73.9086 38.7266 74.2456 38.6064C74.5958 38.4878 75.0395 38.3738 75.5766 38.2646L75.8792 38.2611L76.2811 38.2697C76.2928 38.2845 76.3243 38.3018 76.3756 38.3214C76.4269 38.3411 76.4783 38.3608 76.5296 38.3805C76.6042 38.4298 76.6679 38.4577 76.7209 38.4642C76.9675 38.5345 77.1674 38.7132 77.3205 39.0005C77.4869 39.2894 77.5423 39.5513 77.4869 39.7863C77.4282 40.0478 77.3206 40.2698 77.1641 40.4522C77.0224 40.623 76.864 40.7112 76.6887 40.7168C76.7035 40.7051 76.6803 40.6754 76.6189 40.6277C76.5576 40.5799 76.5087 40.5404 76.4722 40.5091L76.4078 40.5416C76.4094 40.5283 76.4052 40.5077 76.3952 40.4796C76.4 40.4399 76.3916 40.3986 76.3699 40.3556C76.3399 40.2714 76.3321 40.1697 76.3466 40.0506L76.4027 39.7552L76.4665 39.5615C76.4714 39.5218 76.4481 39.4921 76.3968 39.4724C76.3471 39.4395 76.2759 39.4174 76.1832 39.4062L76.0268 39.367C75.815 39.3412 75.5505 39.3628 75.2332 39.4316C74.9159 39.5005 74.6483 39.6023 74.4305 39.737C73.945 39.9734 73.5761 40.1905 73.3237 40.3881C73.0862 40.5741 72.8836 40.8047 72.7158 41.0798C72.5296 41.2855 72.4301 41.4412 72.4172 41.5471C72.3995 41.6927 72.481 41.8504 72.6619 42.0201C72.8559 42.1915 73.1717 42.4112 73.6092 42.6793C73.9605 42.8832 74.2382 43.0849 74.4423 43.2843C74.6596 43.4854 74.7951 43.6966 74.8487 43.918C74.8587 43.9461 74.8589 43.9999 74.8493 44.0793C74.838 44.1719 74.8175 44.2299 74.7878 44.2531C74.8111 44.2828 74.8219 44.3043 74.8203 44.3175L74.8227 44.2977C74.8628 44.41 74.8788 44.4993 74.8707 44.5654C74.845 44.7772 74.6885 44.9596 74.4012 45.1127C74.1156 45.2526 73.7628 45.3373 73.3428 45.3668L73.3626 45.3692C73.0337 45.4233 72.7038 45.4301 72.3729 45.3899ZM84.8922 38.37C84.8108 38.2661 84.7507 38.0976 84.7119 37.8646C84.6731 37.6315 84.6867 37.519 84.7529 37.5271C84.8604 37.5267 84.9932 37.4287 85.1513 37.233C85.3243 37.0257 85.413 36.8485 85.4175 36.7012C85.4239 36.6483 85.4494 36.6044 85.494 36.5695C85.5401 36.5214 85.5905 36.4939 85.645 36.4872C85.7589 36.4338 85.8556 36.412 85.935 36.4217C86.16 36.4491 86.3459 36.6328 86.4925 36.973C86.551 37.1548 86.5722 37.3118 86.5561 37.4442C86.5416 37.5633 86.4933 37.685 86.411 37.8093C86.3303 37.9204 86.1919 38.0647 85.9957 38.2423C85.7336 38.5194 85.5033 38.6458 85.3048 38.6217C85.1724 38.6056 85.0349 38.5217 84.8922 38.37ZM81.986 46.1964C81.8232 45.9886 81.7628 45.7126 81.8046 45.3685C81.8272 45.1832 81.8796 45.0284 81.9619 44.904C81.9699 44.8379 81.9928 44.7601 82.0305 44.6706C82.0683 44.5812 82.0888 44.5232 82.092 44.4968C82.0884 44.4157 82.1679 44.2038 82.3305 43.8609C82.6331 43.3605 83.0643 42.466 83.6239 41.1775C83.632 41.1113 83.6649 41.0615 83.7227 41.0283C83.7821 40.9818 83.8655 40.9583 83.973 40.958C84.0821 40.9444 84.1565 40.94 84.1962 40.9448C84.2756 40.9545 84.3378 40.9956 84.3827 41.0683C84.4424 41.1292 84.5156 41.2456 84.6021 41.4173C84.6719 41.5064 84.6971 41.6303 84.6778 41.7892C84.6472 42.0406 84.5242 42.3346 84.3086 42.671C84.0899 43.034 83.9371 43.3512 83.8504 43.6227C83.6481 43.9607 83.4821 44.2763 83.3524 44.5695C83.3163 44.6457 83.2573 44.7997 83.1754 45.0315C83.0934 45.2633 82.9973 45.4464 82.8869 45.5807C82.7625 45.9416 82.6583 46.1909 82.5744 46.3284C82.4905 46.466 82.4088 46.5299 82.3294 46.5202C82.2368 46.509 82.1223 46.401 81.986 46.1964ZM86.7803 47.2832C86.5734 47.2177 86.3719 47.0522 86.1759 46.7866C85.9947 46.5093 85.8839 46.2608 85.8435 46.041C85.8467 46.0145 85.8367 45.9864 85.8134 45.9568C85.7918 45.9138 85.7751 45.8849 85.7635 45.8701C85.7154 45.8239 85.7155 45.6023 85.7638 45.2053C85.8024 44.8876 85.8559 44.5583 85.9242 44.2174C86.0058 43.8781 86.0859 43.6058 86.1646 43.4005L86.65 42.3917L87.0245 41.6313L87.7006 40.545L86.933 40.23C86.842 40.2055 86.7682 40.1495 86.7117 40.0621C86.6684 39.9762 86.6508 39.9002 86.6588 39.834C86.6717 39.7281 86.7399 39.6088 86.8635 39.4761C87.002 39.3318 87.1043 39.2636 87.1704 39.2717C87.2085 39.2898 87.3136 39.3093 87.4857 39.3302C87.8828 39.3785 88.183 39.3948 88.3864 39.3793C88.5252 39.3424 88.6307 39.2478 88.7029 39.0954C88.7688 38.996 88.8444 38.8709 88.9299 38.7201C89.0286 38.5709 89.1192 38.4342 89.2014 38.3099C89.2508 38.2353 89.3248 38.1234 89.4236 37.9742C89.5372 37.8134 89.673 37.6352 89.8311 37.4395C89.8624 37.403 89.9332 37.3176 90.0436 37.1833C90.1556 37.0357 90.2842 36.9171 90.4294 36.8273C90.5333 36.7459 90.6515 36.7132 90.7838 36.7293C90.9162 36.7454 91.0778 36.8524 91.2686 37.0502C91.2903 37.0932 91.3169 37.1501 91.3486 37.2211C91.3935 37.2937 91.4127 37.3565 91.4063 37.4095C91.3998 37.4624 91.3332 37.5685 91.2064 37.7277C91.1077 37.8768 91.0105 38.0128 90.915 38.1355C90.8344 38.2465 90.7619 38.3452 90.6977 38.4314C90.5067 38.6768 90.37 38.8617 90.2877 38.986C90.1345 39.1419 90.0522 39.2662 90.0409 39.3589C90.0297 39.4515 90.11 39.5083 90.2821 39.5293C90.4674 39.5518 90.7833 39.5499 91.2297 39.5236C91.4182 39.5197 91.5456 39.5217 91.6118 39.5298C92.075 39.5861 92.3032 39.8086 92.2962 40.1973C92.2998 40.2783 92.2951 40.3718 92.2822 40.4777C92.2597 40.663 92.1798 40.7674 92.0427 40.791C91.9187 40.8163 91.6383 40.8023 91.2016 40.7492C90.77 40.7639 90.3292 40.7438 89.8791 40.6891C89.7997 40.6794 89.7063 40.6748 89.5988 40.6751C89.5061 40.6639 89.4052 40.665 89.2961 40.6786C89.187 40.6922 89.1028 40.7223 89.0434 40.7688C88.9973 40.8169 88.9405 40.8973 88.873 41.01C88.8285 41.0448 88.7173 41.1858 88.5395 41.4328C88.3076 41.7941 88.1603 42.0112 88.0977 42.0842C87.6115 43.0996 87.2148 44.1528 86.9075 45.2436C86.8553 45.4522 86.826 45.5829 86.8195 45.6359C86.7954 45.8344 86.8446 45.9814 86.9673 46.0769C87.09 46.1725 87.3102 46.2395 87.6279 46.2782C88.0779 46.3329 88.474 46.3341 88.8162 46.2817C89.2342 46.1579 89.5497 46.0485 89.7627 45.9535C89.8899 45.9018 90.003 45.8552 90.1021 45.8135C90.216 45.7602 90.2944 45.7227 90.3374 45.7011C90.3867 45.6265 90.4379 45.5924 90.4908 45.5989C90.5967 45.6117 90.6765 45.7289 90.7302 45.9503C90.7044 46.1621 90.6355 46.3418 90.5236 46.4893C90.4116 46.6369 90.1574 46.794 89.7611 46.9607C88.9338 47.3571 88.1364 47.5086 87.3687 47.4152C87.1569 47.3894 86.9608 47.3454 86.7803 47.2832ZM95.0084 44.5768C94.8114 44.5394 94.6689 44.4415 94.5807 44.283C94.5058 44.1262 94.4796 43.9551 94.5021 43.7698C94.5198 43.6242 94.5574 43.481 94.6148 43.3402C94.6228 43.2741 94.7025 43.1158 94.8538 42.8656C94.9887 42.6403 95.075 42.4829 95.1127 42.3934C95.2889 42.1597 95.5427 41.895 95.8742 41.5995C96.2204 41.2924 96.5157 41.0732 96.7601 40.9417L97.1266 40.7445C97.133 40.6916 97.2377 40.6036 97.4407 40.4805C97.6437 40.3574 97.8154 40.2709 97.9558 40.2208C98.0136 40.1875 98.1143 40.1326 98.2579 40.0561C98.4016 39.9795 98.5394 39.8955 98.6714 39.8041C98.998 39.5484 99.2494 39.3036 99.4256 39.0698C99.6033 38.8228 99.7414 38.571 99.8398 38.3143C99.9382 38.0576 100.092 37.6197 100.302 37.0005L100.409 36.2881C100.43 36.1161 100.426 35.9813 100.397 35.8838C100.382 35.788 100.326 35.6939 100.23 35.6016C100.081 35.5029 99.9138 35.4422 99.7285 35.4197C99.2784 35.3649 98.7802 35.4857 98.2338 35.7819C97.689 36.0648 97.2653 36.4565 96.9626 36.957C96.841 37.184 96.7737 37.3504 96.7609 37.4563C96.7528 37.5225 96.7622 37.6109 96.789 37.7216C96.7794 37.801 96.7805 37.9019 96.7925 38.0243C96.8177 38.1482 96.8279 38.23 96.8231 38.2698C96.7818 38.2782 96.6685 38.2711 96.4832 38.2486C96.1258 38.2051 95.885 38.1422 95.7607 38.06C95.7507 38.0319 95.729 37.9889 95.6957 37.9312C95.6641 37.8602 95.6324 37.7892 95.6008 37.7181C95.5575 37.6323 95.5341 37.5489 95.5305 37.4678C95.5269 37.3868 95.5299 37.3066 95.5396 37.2272C95.5641 37.1361 95.582 37.0443 95.5933 36.9516C95.81 36.4945 96.098 36.0594 96.4572 35.6464C96.8296 35.235 97.2619 34.9384 97.7541 34.7565C98.0333 34.6695 98.2638 34.5968 98.4455 34.5383C98.6288 34.4666 98.7486 34.4207 98.8047 34.4007C98.8312 34.4039 98.8974 34.412 99.0033 34.4248C99.1108 34.4245 99.2654 34.4231 99.4671 34.4208L99.5664 34.4329L99.6855 34.4474C99.8179 34.4635 99.8809 34.498 99.8744 34.5509L100.45 34.621C100.694 34.7177 100.932 34.8542 101.166 35.0304C101.413 35.2082 101.593 35.3845 101.706 35.5595C101.755 35.8206 101.758 36.1299 101.714 36.4872C101.634 37.149 101.42 37.8551 101.074 38.6054C100.729 39.3425 100.331 39.9053 99.8811 40.2938L99.396 40.6377C98.6767 41.1412 98.2189 41.4818 98.0226 41.6594C97.5701 41.8461 97.1354 42.1626 96.7185 42.6089C96.3164 43.0435 95.9905 43.5143 95.7408 44.0212C95.6389 44.1968 95.5484 44.3335 95.4693 44.4314C95.4051 44.5176 95.3449 44.5707 95.2887 44.5907C95.2342 44.5975 95.1407 44.5929 95.0084 44.5768ZM94.0154 48.1027C93.7527 48.1648 93.5551 48.1878 93.4228 48.1717C93.2507 48.1507 93.0618 48.0472 92.8561 47.861C92.6934 47.6531 92.6232 47.4566 92.6458 47.2713C92.6812 46.9801 92.9424 46.7096 93.4295 46.4599C93.7135 46.3333 93.9151 46.2772 94.0342 46.2917C94.1004 46.2998 94.2536 46.3654 94.4938 46.4887C94.8254 46.7439 94.9743 47.0105 94.9405 47.2884C94.9212 47.4473 94.8291 47.5972 94.6641 47.7384C94.5125 47.8811 94.2962 48.0025 94.0154 48.1027Z" fill="#1D1916"></path>
                </svg>