<svg xmlns="http://www.w3.org/2000/svg" xmlns:xlink="http://www.w3.org/1999/xlink" id="Layer_1" data-name="Layer 1" viewBox="0 0 150 150">

    <style>
        .cls-1,
        .cls-2,
        .cls-4 {
        fill: none;
        }

        .cls-2 {
        stroke: #000;
        }

        .cls-2,
        .cls-4 {
        stroke-linecap: round;
        stroke-linejoin: round;
        }

        .cls-3 {
        fill: url(#_10_dpi_10_);
        }

        .cls-4 {
        stroke: #ff4600;
        }    
    </style> 
    <defs>
      <pattern id="_10_dpi_10_" data-name="10 dpi 10%" width="28.8" height="28.8" patternUnits="userSpaceOnUse"
        viewBox="0 0 28.8 28.8">
        <rect class="cls-1" width="28.8" height="28.8"></rect>
        <path d="M9.36,28a.72.72,0,1,0-.72-.72A.72.72,0,0,0,9.36,28Z"></path>
        <path d="M9.36,13.64a.72.72,0,1,0-.72-.72A.72.72,0,0,0,9.36,13.64Z"></path>
        <path d="M3.43,20.84a.72.72,0,1,0-.72-.72A.72.72,0,0,0,3.43,20.84Z"></path>
        <path d="M15.22,20.84a.72.72,0,1,0-.72-.72A.72.72,0,0,0,15.22,20.84Z"></path>
        <path d="M3.43,5.72A.72.72,0,1,0,2.71,5,.72.72,0,0,0,3.43,5.72Z"></path>
        <path d="M9.36,5.72A.72.72,0,1,0,8.64,5,.72.72,0,0,0,9.36,5.72Z"></path>
        <path d="M9.36,20.84a.72.72,0,1,0-.72-.72A.72.72,0,0,0,9.36,20.84Z"></path>
        <path d="M15.22,13.64a.72.72,0,1,0-.72-.72A.72.72,0,0,0,15.22,13.64Z"></path>
        <path d="M3.43,13.64a.72.72,0,1,0-.72-.72A.72.72,0,0,0,3.43,13.64Z"></path>
        <path d="M3.43,28a.72.72,0,1,0-.72-.72A.72.72,0,0,0,3.43,28Z"></path>
        <path d="M15.22,28a.72.72,0,1,0-.72-.72A.72.72,0,0,0,15.22,28Z"></path>
        <path d="M26.8,5.72A.72.72,0,1,0,26.08,5,.72.72,0,0,0,26.8,5.72Z"></path>
        <path d="M26.8,13.64a.72.72,0,1,0-.72-.72A.72.72,0,0,0,26.8,13.64Z"></path>
        <path d="M26.8,20.84a.72.72,0,1,0-.72-.72A.72.72,0,0,0,26.8,20.84Z"></path>
        <path d="M26.8,28a.72.72,0,1,0-.72-.72A.72.72,0,0,0,26.8,28Z"></path>
        <path d="M15.22,5.72A.72.72,0,1,0,14.5,5,.72.72,0,0,0,15.22,5.72Z"></path>
        <circle cx="21.03" cy="27.32" r="0.72"></circle>
        <path d="M21,13.64a.72.72,0,0,0,0-1.44.72.72,0,0,0,0,1.44Z"></path>
        <path d="M9.36,9.83a.72.72,0,1,0-.72-.72A.72.72,0,0,0,9.36,9.83Z"></path>
        <path d="M15.22,9.83a.72.72,0,1,0-.72-.72A.72.72,0,0,0,15.22,9.83Z"></path>
        <path d="M3.43,9.83a.72.72,0,1,0-.72-.72A.72.72,0,0,0,3.43,9.83Z"></path>
        <path d="M26.8,9.83a.72.72,0,1,0-.72-.72A.72.72,0,0,0,26.8,9.83Z"></path>
        <path d="M21,9.83a.72.72,0,0,0,0-1.44.72.72,0,0,0,0,1.44Z"></path>
        <path d="M9.36,17a.72.72,0,1,0-.72-.72A.72.72,0,0,0,9.36,17Z"></path>
        <path d="M15.22,17a.72.72,0,1,0-.72-.72A.72.72,0,0,0,15.22,17Z"></path>
        <path d="M3.43,17a.72.72,0,1,0-.72-.72A.72.72,0,0,0,3.43,17Z"></path>
        <path d="M26.8,17a.72.72,0,1,0-.72-.72A.72.72,0,0,0,26.8,17Z"></path>
        <path d="M21,17a.72.72,0,1,0-.71-.72A.72.72,0,0,0,21,17Z"></path>
        <path d="M21,20.84a.72.72,0,0,0,0-1.44.72.72,0,0,0,0,1.44Z"></path>
        <path d="M3.43,24.38a.72.72,0,1,0-.72-.72A.72.72,0,0,0,3.43,24.38Z"></path>
        <path d="M15.22,24.38a.72.72,0,1,0-.72-.72A.72.72,0,0,0,15.22,24.38Z"></path>
        <path d="M9.36,24.38a.72.72,0,1,0-.72-.72A.72.72,0,0,0,9.36,24.38Z"></path>
        <path d="M26.8,24.38a.72.72,0,1,0-.72-.72A.72.72,0,0,0,26.8,24.38Z"></path>
        <path d="M21,24.38a.72.72,0,1,0-.72-.72A.72.72,0,0,0,21,24.38Z"></path>
        <path d="M21,5.72A.72.72,0,1,0,20.32,5,.72.72,0,0,0,21,5.72Z"></path>
        <path d="M3.43,2.2a.72.72,0,1,0-.72-.72A.72.72,0,0,0,3.43,2.2Z"></path>
        <path d="M9.36,2.2a.72.72,0,1,0-.72-.72A.72.72,0,0,0,9.36,2.2Z"></path>
        <path d="M26.8,2.2a.72.72,0,1,0-.72-.72A.72.72,0,0,0,26.8,2.2Z"></path>
        <path d="M15.22,2.2a.72.72,0,1,0-.72-.72A.72.72,0,0,0,15.22,2.2Z"></path>
        <path d="M21,2.2a.72.72,0,1,0-.71-.72A.72.72,0,0,0,21,2.2Z"></path>
    </pattern>
</defs>
<line class="cls-2" x1="20.77" y1="36.36" x2="20.77" y2="113.64"></line>
<line class="cls-2" x1="129.23" y1="36.36" x2="129.23" y2="113.64"></line>
<line class="cls-2" x1="20.77" y1="68.84" x2="117.52" y2="68.84"></line>
<line class="cls-2" x1="129.23" y1="41.1" x2="20.77" y2="41.1"></line>
<line class="cls-2" x1="129.23" y1="54.97" x2="20.77" y2="54.97"></line>
<line class="cls-2" x1="37.09" y1="68.84" x2="37.09" y2="41.1"></line>
<line class="cls-2" x1="51.88" y1="68.84" x2="51.88" y2="41.1"></line>
<line class="cls-2" x1="66.68" y1="68.84" x2="66.68" y2="41.1"></line>
<line class="cls-2" x1="81.47" y1="68.84" x2="81.47" y2="41.1"></line>
<line class="cls-2" x1="96.26" y1="68.84" x2="96.26" y2="41.1"></line>
<line class="cls-2" x1="111.05" y1="68.84" x2="111.05" y2="41.1"></line>
<rect x="37.09" y="41.1" width="14.79" height="13.87"></rect>
<rect x="66.68" y="41.1" width="14.79" height="13.87"></rect>
<rect x="81.47" y="55.43" width="14.79" height="13.87"></rect>
<rect x="51.88" y="54.97" width="14.79" height="13.87"></rect>
<polygon class="cls-3" points="116.86 56.07 115.05 69.3 129.23 69.3 129.23 54.97 116.86 56.07"></polygon>
<rect class="cls-2" x="77.76" y="75.39" width="9.25" height="9.25"
  transform="translate(64.35 -33.41) rotate(36.8)"></rect>
  <polygon class="cls-4" points="92.53 99.93 99.85 106.81 102 97.34 92.53 99.93"></polygon>
  <circle class="cls-2" cx="56.45" cy="102.08" r="6.08"></circle>
  <line class="cls-2" x1="57.78" y1="80.86" x2="59.28" y2="86.1"></line>
  <line class="cls-2" x1="112.32" y1="102.68" x2="114.16" y2="108.16"></line>
  <line class="cls-4" x1="106.23" y1="83.48" x2="111.05" y2="86.81"></line>
  <line class="cls-4" x1="71.81" y1="93.19" x2="76.62" y2="91.06"></line>
  <line class="cls-4" x1="34.97" y1="102.68" x2="39.08" y2="99.56"></line>
</svg>