 <svg xmlns="http://www.w3.org/2000/svg" xmlns:xlink="http://www.w3.org/1999/xlink" id="Layer_1" data-name="Layer 1" viewBox="0 0 150 150">
    <style>
        .cls-1,
.cls-3,
.cls-4 {
    fill: none;
}

.cls-2 {
    fill: #faf3ed;
}

.cls-3 {
    stroke: #fff;
}

.cls-3,
.cls-4 {
    stroke-linecap: round;
    stroke-linejoin: round;
    stroke-width: 1.5px;
}

.cls-4 {
    stroke: #ff4600;
}

.cls-5 {
    fill: url(#_6_dpi_70_2);
}
    </style>
                <defs>
                  <pattern id="_6_dpi_70_2" data-name="6 dpi 70% 2" width="28.8" height="28.8"
                    patternUnits="userSpaceOnUse" viewBox="0 0 28.8 28.8">
                    <rect class="cls-1" width="28.8" height="28.8"></rect>
                    <path class="cls-2" d="M28.8,5.72A.72.72,0,1,0,28.08,5,.72.72,0,0,0,28.8,5.72Z"></path>
                    <path class="cls-2" d="M28.8,20.84a.72.72,0,1,0-.72-.72A.72.72,0,0,0,28.8,20.84Z"></path>
                    <path class="cls-2" d="M28.8,24.38a.72.72,0,1,0-.72-.72A.72.72,0,0,0,28.8,24.38Z"></path>
                    <circle class="cls-2" cx="20.08" cy="27.32" r="0.72"></circle>
                    <path class="cls-2" d="M9.9,28a.72.72,0,0,0,0-1.44A.72.72,0,0,0,9.9,28Z"></path>
                    <path class="cls-2" d="M20.08,13.64a.72.72,0,1,0-.72-.72A.72.72,0,0,0,20.08,13.64Z"></path>
                    <path class="cls-2" d="M9.9,13.64a.72.72,0,1,0,0-1.44.72.72,0,0,0,0,1.44Z"></path>
                    <path class="cls-2" d="M3.43,20.84a.72.72,0,1,0-.72-.72A.72.72,0,0,0,3.43,20.84Z"></path>
                    <path class="cls-2" d="M16.94,20.84a.72.72,0,1,0-.72-.72A.72.72,0,0,0,16.94,20.84Z"></path>
                    <path class="cls-2" d="M3.43,5.72A.72.72,0,1,0,2.71,5,.72.72,0,0,0,3.43,5.72Z"></path>
                    <path class="cls-2" d="M9.9,5.72a.72.72,0,1,0,0-1.44.72.72,0,1,0,0,1.44Z"></path>
                    <path class="cls-2"
                      d="M0,5.72A.72.72,0,0,0,.72,5,.72.72,0,0,0,0,4.28.72.72,0,0,0-.72,5,.72.72,0,0,0,0,5.72Z"></path>
                    <path class="cls-2"
                      d="M0,20.84a.72.72,0,0,0,.72-.72A.72.72,0,0,0,0,19.4a.72.72,0,0,0-.72.72A.72.72,0,0,0,0,20.84Z">
                    </path>
                    <path class="cls-2" d="M9.9,20.84a.72.72,0,0,0,0-1.44.72.72,0,1,0,0,1.44Z"></path>
                    <path class="cls-2" d="M13.32,28a.72.72,0,1,0-.72-.72A.72.72,0,0,0,13.32,28Z"></path>
                    <path class="cls-2" d="M13.32,13.64a.72.72,0,1,0-.72-.72A.72.72,0,0,0,13.32,13.64Z"></path>
                    <path class="cls-2" d="M13.32,5.72A.72.72,0,1,0,12.6,5,.72.72,0,0,0,13.32,5.72Z"></path>
                    <path class="cls-2" d="M13.32,20.84a.72.72,0,1,0-.72-.72A.72.72,0,0,0,13.32,20.84Z"></path>
                    <path class="cls-2" d="M20.08,20.84a.72.72,0,1,0-.72-.72A.72.72,0,0,0,20.08,20.84Z"></path>
                    <path class="cls-2" d="M16.94,13.64a.72.72,0,1,0-.72-.72A.72.72,0,0,0,16.94,13.64Z"></path>
                    <path class="cls-2" d="M3.43,13.64a.72.72,0,1,0-.72-.72A.72.72,0,0,0,3.43,13.64Z"></path>
                    <path class="cls-2" d="M3.43,28a.72.72,0,1,0-.72-.72A.72.72,0,0,0,3.43,28Z"></path>
                    <path class="cls-2" d="M6.73,20.84A.72.72,0,1,0,6,20.12.72.72,0,0,0,6.73,20.84Z"></path>
                    <path class="cls-2" d="M6.73,5.72A.72.72,0,1,0,6,5,.72.72,0,0,0,6.73,5.72Z"></path>
                    <path class="cls-2" d="M6.73,13.64A.72.72,0,1,0,6,12.92.72.72,0,0,0,6.73,13.64Z"></path>
                    <path class="cls-2" d="M6.73,28A.72.72,0,1,0,6,27.32.72.72,0,0,0,6.73,28Z"></path>
                    <path class="cls-2" d="M16.94,28a.72.72,0,1,0-.72-.72A.72.72,0,0,0,16.94,28Z"></path>
                    <path class="cls-2" d="M25.79,5.72A.72.72,0,1,0,25.06,5,.73.73,0,0,0,25.79,5.72Z"></path>
                    <path class="cls-2" d="M25.79,13.64a.72.72,0,1,0-.73-.72A.73.73,0,0,0,25.79,13.64Z"></path>
                    <path class="cls-2" d="M25.79,20.84a.72.72,0,1,0-.73-.72A.73.73,0,0,0,25.79,20.84Z"></path>
                    <path class="cls-2" d="M25.79,28a.72.72,0,0,0,0-1.44.72.72,0,1,0,0,1.44Z"></path>
                    <path class="cls-2" d="M28.8,5.72A.72.72,0,1,0,28.08,5,.72.72,0,0,0,28.8,5.72Z"></path>
                    <path class="cls-2" d="M28.8,13.64a.72.72,0,1,0-.72-.72A.72.72,0,0,0,28.8,13.64Z"></path>
                    <path class="cls-2" d="M28.8,20.84a.72.72,0,1,0-.72-.72A.72.72,0,0,0,28.8,20.84Z"></path>
                    <path class="cls-2" d="M28.8,28a.72.72,0,1,0-.72-.72A.72.72,0,0,0,28.8,28Z"></path>
                    <path class="cls-2" d="M16.94,5.72A.72.72,0,1,0,16.22,5,.72.72,0,0,0,16.94,5.72Z"></path>
                    <path class="cls-2" d="M20.08,5.72A.72.72,0,1,0,19.36,5,.72.72,0,0,0,20.08,5.72Z"></path>
                    <circle class="cls-2" cx="22.97" cy="27.32" r="0.72"></circle>
                    <path class="cls-2" d="M23,13.64a.72.72,0,1,0,0-1.44.72.72,0,1,0,0,1.44Z"></path>
                    <path class="cls-2" d="M20.08,9.83a.72.72,0,1,0-.72-.72A.72.72,0,0,0,20.08,9.83Z"></path>
                    <path class="cls-2" d="M9.9,9.83a.72.72,0,0,0,0-1.44.72.72,0,1,0,0,1.44Z"></path>
                    <path class="cls-2" d="M13.32,9.83a.72.72,0,1,0-.72-.72A.72.72,0,0,0,13.32,9.83Z"></path>
                    <path class="cls-2" d="M16.94,9.83a.72.72,0,1,0-.72-.72A.72.72,0,0,0,16.94,9.83Z"></path>
                    <path class="cls-2" d="M3.43,9.83a.72.72,0,1,0-.72-.72A.72.72,0,0,0,3.43,9.83Z"></path>
                    <path class="cls-2" d="M6.73,9.83A.72.72,0,1,0,6,9.11.72.72,0,0,0,6.73,9.83Z"></path>
                    <path class="cls-2" d="M25.79,9.83a.72.72,0,1,0-.73-.72A.73.73,0,0,0,25.79,9.83Z"></path>
                    <path class="cls-2" d="M28.8,9.83a.72.72,0,1,0-.72-.72A.72.72,0,0,0,28.8,9.83Z"></path>
                    <path class="cls-2" d="M23,9.83a.72.72,0,1,0,0-1.44.72.72,0,0,0,0,1.44Z"></path>
                    <path class="cls-2" d="M20.08,17a.72.72,0,1,0-.72-.72A.72.72,0,0,0,20.08,17Z"></path>
                    <path class="cls-2" d="M9.9,17a.72.72,0,1,0-.72-.72A.72.72,0,0,0,9.9,17Z"></path>
                    <path class="cls-2" d="M13.32,17a.72.72,0,1,0-.72-.72A.72.72,0,0,0,13.32,17Z"></path>
                    <path class="cls-2" d="M16.94,17a.72.72,0,1,0-.72-.72A.72.72,0,0,0,16.94,17Z"></path>
                    <path class="cls-2" d="M3.43,17a.72.72,0,0,0,0-1.44.72.72,0,0,0,0,1.44Z"></path>
                    <path class="cls-2" d="M6.73,17A.72.72,0,1,0,6,16.26.72.72,0,0,0,6.73,17Z"></path>
                    <path class="cls-2" d="M25.79,17a.72.72,0,0,0,0-1.44.72.72,0,1,0,0,1.44Z"></path>
                    <path class="cls-2" d="M28.8,17a.72.72,0,1,0-.72-.72A.72.72,0,0,0,28.8,17Z"></path>
                    <path class="cls-2" d="M23,17a.72.72,0,1,0-.72-.72A.72.72,0,0,0,23,17Z"></path>
                    <path class="cls-2" d="M23,20.84a.72.72,0,0,0,0-1.44.72.72,0,0,0,0,1.44Z"></path>
                    <path class="cls-2" d="M3.43,24.38a.72.72,0,1,0-.72-.72A.72.72,0,0,0,3.43,24.38Z"></path>
                    <path class="cls-2" d="M16.94,24.38a.72.72,0,1,0-.72-.72A.72.72,0,0,0,16.94,24.38Z"></path>
                    <path class="cls-2" d="M0,24.38a.72.72,0,0,0,0-1.44.72.72,0,0,0-.72.72A.72.72,0,0,0,0,24.38Z">
                    </path>
                    <path class="cls-2" d="M9.9,24.38a.72.72,0,1,0-.72-.72A.72.72,0,0,0,9.9,24.38Z"></path>
                    <path class="cls-2" d="M13.32,24.38a.72.72,0,1,0-.72-.72A.72.72,0,0,0,13.32,24.38Z"></path>
                    <path class="cls-2" d="M20.08,24.38a.72.72,0,1,0-.72-.72A.72.72,0,0,0,20.08,24.38Z"></path>
                    <path class="cls-2" d="M6.73,24.38A.72.72,0,1,0,6,23.66.72.72,0,0,0,6.73,24.38Z"></path>
                    <path class="cls-2" d="M25.79,24.38a.72.72,0,0,0,0-1.44.72.72,0,1,0,0,1.44Z"></path>
                    <path class="cls-2" d="M28.8,24.38a.72.72,0,1,0-.72-.72A.72.72,0,0,0,28.8,24.38Z"></path>
                    <path class="cls-2" d="M23,24.38a.72.72,0,1,0-.72-.72A.72.72,0,0,0,23,24.38Z"></path>
                    <path class="cls-2" d="M23,5.72a.72.72,0,1,0,0-1.44.72.72,0,1,0,0,1.44Z"></path>
                    <path class="cls-2" d="M3.43,2.2a.72.72,0,1,0-.72-.72A.72.72,0,0,0,3.43,2.2Z"></path>
                    <path class="cls-2" d="M9.9,2.2a.72.72,0,1,0-.72-.72A.72.72,0,0,0,9.9,2.2Z"></path>
                    <path class="cls-2" d="M13.32,2.2a.72.72,0,1,0-.72-.72A.72.72,0,0,0,13.32,2.2Z"></path>
                    <path class="cls-2" d="M6.73,2.2A.72.72,0,1,0,6,1.48.72.72,0,0,0,6.73,2.2Z"></path>
                    <path class="cls-2" d="M25.79,2.2a.72.72,0,0,0,0-1.44.72.72,0,1,0,0,1.44Z"></path>
                    <path class="cls-2" d="M28.8,2.2a.72.72,0,1,0-.72-.72A.72.72,0,0,0,28.8,2.2Z"></path>
                    <path class="cls-2" d="M16.94,2.2a.72.72,0,1,0-.72-.72A.72.72,0,0,0,16.94,2.2Z"></path>
                    <path class="cls-2" d="M20.08,2.2a.72.72,0,1,0-.72-.72A.72.72,0,0,0,20.08,2.2Z"></path>
                    <path class="cls-2" d="M23,2.2a.72.72,0,1,0-.72-.72A.72.72,0,0,0,23,2.2Z"></path>
                    <path class="cls-2"
                      d="M0,5.72A.72.72,0,0,0,.72,5,.72.72,0,0,0,0,4.28.72.72,0,0,0-.72,5,.72.72,0,0,0,0,5.72Z"></path>
                    <path class="cls-2"
                      d="M0,13.64a.72.72,0,0,0,.72-.72A.72.72,0,0,0,0,12.2a.72.72,0,0,0-.72.72A.72.72,0,0,0,0,13.64Z">
                    </path>
                    <path class="cls-2"
                      d="M0,20.84a.72.72,0,0,0,.72-.72A.72.72,0,0,0,0,19.4a.72.72,0,0,0-.72.72A.72.72,0,0,0,0,20.84Z">
                    </path>
                    <path class="cls-2" d="M0,28A.72.72,0,0,0,0,26.6a.72.72,0,0,0-.72.72A.72.72,0,0,0,0,28Z"></path>
                    <path class="cls-2"
                      d="M0,9.83a.72.72,0,0,0,.72-.72A.72.72,0,0,0,0,8.39a.72.72,0,0,0-.72.72A.72.72,0,0,0,0,9.83Z">
                    </path>
                    <path class="cls-2"
                      d="M0,17a.72.72,0,0,0,.72-.72A.72.72,0,0,0,0,15.54a.72.72,0,0,0-.72.72A.72.72,0,0,0,0,17Z"></path>
                    <path class="cls-2" d="M0,24.38a.72.72,0,0,0,0-1.44.72.72,0,0,0-.72.72A.72.72,0,0,0,0,24.38Z">
                    </path>
                    <path class="cls-2" d="M0,2.2A.72.72,0,0,0,0,.76a.72.72,0,0,0-.72.72A.72.72,0,0,0,0,2.2Z"></path>
                  </pattern>
                </defs>
                <polygon class="cls-3"
                  points="81.52 56.44 95.66 58.41 85.49 68.44 87.99 82.5 75.31 75.93 62.71 82.64 65.04 68.56 54.76 58.65 68.88 56.52 75.12 43.68 81.52 56.44">
                </polygon>
                <polyline class="cls-3" points="48.34 68.11 48.34 37.33 100.72 37.33 100.72 90.38 78.26 90.38">
                </polyline>
                <circle class="cls-4" cx="59.68" cy="84.11" r="19.62"></circle>
                <line class="cls-4" x1="37.42" y1="121.98" x2="51.88" y2="102.11"></line>
                <polygon class="cls-5"
                  points="59.68 37.33 59.68 28.02 112.58 28.02 112.58 84.11 100.72 84.11 100.72 37.33 59.68 37.33">
                </polygon>
              </svg>