<svg xmlns="http://www.w3.org/2000/svg" xmlns:xlink="http://www.w3.org/1999/xlink" id="Layer_1" data-name="Layer 1" viewBox="0 0 569.82 418.67">
  <style>
    .cls-1,
    .cls-11,
    .cls-3,
    .cls-4,
    .cls-6 {
    fill: none;
    }

    .cls-2,
    .cls-9 {
    fill: #ff4600;
    }

    .cls-3 {
    stroke: #fff;
    }

    .cls-11,
    .cls-3,
    .cls-4,
    .cls-6 {
    stroke-linecap: round;
    }

    .cls-3,
    .cls-4,
    .cls-6 {
    stroke-linejoin: round;
    }

    .cls-11,
    .cls-4 {
    stroke: #ff4600;
    }

    .cls-5,
    .cls-7 {
    fill: #fd4600;
    }

    .cls-6 {
    stroke: #1d1917;
    }

    .cls-7,
    .cls-9 {
    opacity: 0.3;
    }

    .cls-8 {
    fill: #fff;
    }

    .cls-10 {
    fill: url(#_6_dpi_70_);
    }

    .cls-11 {
    stroke-miterlimit: 10;
    } 
  </style>
  <defs>
    <pattern id="_6_dpi_70_" data-name="6 dpi 70%" width="28.8" height="28.8" patternUnits="userSpaceOnUse"
      viewBox="0 0 28.8 28.8">
      <rect class="cls-1" width="28.8" height="28.8"></rect>
      <path class="cls-2" d="M28.8,5.72A.72.72,0,1,0,28.08,5,.72.72,0,0,0,28.8,5.72Z"></path>
      <path class="cls-2" d="M28.8,20.84a.72.72,0,1,0-.72-.72A.72.72,0,0,0,28.8,20.84Z"></path>
      <path class="cls-2" d="M28.8,24.38a.72.72,0,1,0-.72-.72A.72.72,0,0,0,28.8,24.38Z"></path>
      <circle class="cls-2" cx="20.08" cy="27.32" r="0.72"></circle>
      <path class="cls-2" d="M9.9,28a.72.72,0,0,0,0-1.44A.72.72,0,0,0,9.9,28Z"></path>
      <path class="cls-2" d="M20.08,13.64a.72.72,0,1,0-.72-.72A.72.72,0,0,0,20.08,13.64Z"></path>
      <path class="cls-2" d="M9.9,13.64a.72.72,0,1,0,0-1.44.72.72,0,0,0,0,1.44Z"></path>
      <path class="cls-2" d="M3.43,20.84a.72.72,0,1,0-.72-.72A.72.72,0,0,0,3.43,20.84Z"></path>
      <path class="cls-2" d="M16.94,20.84a.72.72,0,1,0-.72-.72A.72.72,0,0,0,16.94,20.84Z"></path>
      <path class="cls-2" d="M3.43,5.72A.72.72,0,1,0,2.71,5,.72.72,0,0,0,3.43,5.72Z"></path>
      <path class="cls-2" d="M9.9,5.72A.72.72,0,1,0,9.18,5,.72.72,0,0,0,9.9,5.72Z"></path>
      <path class="cls-2" d="M0,5.72A.72.72,0,1,0,0,4.28.72.72,0,0,0-.72,5,.72.72,0,0,0,0,5.72Z"></path>
      <path class="cls-2" d="M0,20.84A.72.72,0,0,0,0,19.4a.72.72,0,0,0-.72.72A.72.72,0,0,0,0,20.84Z"></path>
      <path class="cls-2" d="M9.9,20.84a.72.72,0,1,0-.72-.72A.72.72,0,0,0,9.9,20.84Z"></path>
      <path class="cls-2" d="M13.32,28a.72.72,0,1,0-.72-.72A.72.72,0,0,0,13.32,28Z"></path>
      <path class="cls-2" d="M13.32,13.64a.72.72,0,1,0-.72-.72A.72.72,0,0,0,13.32,13.64Z"></path>
      <path class="cls-2" d="M13.32,5.72A.72.72,0,1,0,12.6,5,.72.72,0,0,0,13.32,5.72Z"></path>
      <path class="cls-2" d="M13.32,20.84a.72.72,0,1,0-.72-.72A.72.72,0,0,0,13.32,20.84Z"></path>
      <path class="cls-2" d="M20.08,20.84a.72.72,0,1,0-.72-.72A.72.72,0,0,0,20.08,20.84Z"></path>
      <path class="cls-2" d="M16.94,13.64a.72.72,0,1,0-.72-.72A.72.72,0,0,0,16.94,13.64Z"></path>
      <path class="cls-2" d="M3.43,13.64a.72.72,0,1,0-.72-.72A.72.72,0,0,0,3.43,13.64Z"></path>
      <path class="cls-2" d="M3.43,28a.72.72,0,1,0-.72-.72A.72.72,0,0,0,3.43,28Z"></path>
      <path class="cls-2" d="M6.73,20.84A.72.72,0,1,0,6,20.12.72.72,0,0,0,6.73,20.84Z"></path>
      <path class="cls-2" d="M6.73,5.72A.72.72,0,1,0,6,5,.72.72,0,0,0,6.73,5.72Z"></path>
      <path class="cls-2" d="M6.73,13.64A.72.72,0,1,0,6,12.92.72.72,0,0,0,6.73,13.64Z"></path>
      <path class="cls-2" d="M6.73,28A.72.72,0,1,0,6,27.32.72.72,0,0,0,6.73,28Z"></path>
      <path class="cls-2" d="M16.94,28a.72.72,0,1,0-.72-.72A.72.72,0,0,0,16.94,28Z"></path>
      <path class="cls-2" d="M25.78,5.72A.72.72,0,1,0,25.06,5,.72.72,0,0,0,25.78,5.72Z"></path>
      <path class="cls-2" d="M25.78,13.64a.72.72,0,1,0-.72-.72A.72.72,0,0,0,25.78,13.64Z"></path>
      <path class="cls-2" d="M25.78,20.84a.72.72,0,1,0-.72-.72A.72.72,0,0,0,25.78,20.84Z"></path>
      <path class="cls-2" d="M25.78,28a.72.72,0,1,0-.72-.72A.72.72,0,0,0,25.78,28Z"></path>
      <path class="cls-2" d="M28.8,5.72A.72.72,0,1,0,28.08,5,.72.72,0,0,0,28.8,5.72Z"></path>
      <path class="cls-2" d="M28.8,13.64a.72.72,0,1,0-.72-.72A.72.72,0,0,0,28.8,13.64Z"></path>
      <path class="cls-2" d="M28.8,20.84a.72.72,0,1,0-.72-.72A.72.72,0,0,0,28.8,20.84Z"></path>
      <path class="cls-2" d="M28.8,28a.72.72,0,1,0-.72-.72A.72.72,0,0,0,28.8,28Z"></path>
      <path class="cls-2" d="M16.94,5.72A.72.72,0,1,0,16.22,5,.72.72,0,0,0,16.94,5.72Z"></path>
      <path class="cls-2" d="M20.08,5.72A.72.72,0,1,0,19.36,5,.72.72,0,0,0,20.08,5.72Z"></path>
      <circle class="cls-2" cx="22.97" cy="27.32" r="0.72"></circle>
      <path class="cls-2" d="M23,13.64a.72.72,0,1,0,0-1.44.72.72,0,1,0,0,1.44Z"></path>
      <path class="cls-2" d="M20.08,9.83a.72.72,0,1,0-.72-.72A.72.72,0,0,0,20.08,9.83Z"></path>
      <path class="cls-2" d="M9.9,9.83a.72.72,0,0,0,0-1.44.72.72,0,1,0,0,1.44Z"></path>
      <path class="cls-2" d="M13.32,9.83a.72.72,0,1,0-.72-.72A.72.72,0,0,0,13.32,9.83Z"></path>
      <path class="cls-2" d="M16.94,9.83a.72.72,0,1,0-.72-.72A.72.72,0,0,0,16.94,9.83Z"></path>
      <path class="cls-2" d="M3.43,9.83a.72.72,0,1,0-.72-.72A.72.72,0,0,0,3.43,9.83Z"></path>
      <path class="cls-2" d="M6.73,9.83A.72.72,0,1,0,6,9.11.72.72,0,0,0,6.73,9.83Z"></path>
      <path class="cls-2" d="M25.78,9.83a.72.72,0,1,0-.72-.72A.72.72,0,0,0,25.78,9.83Z"></path>
      <path class="cls-2" d="M28.8,9.83a.72.72,0,1,0-.72-.72A.72.72,0,0,0,28.8,9.83Z"></path>
      <path class="cls-2" d="M23,9.83a.72.72,0,1,0,0-1.44.72.72,0,0,0,0,1.44Z"></path>
      <path class="cls-2" d="M20.08,17a.72.72,0,1,0-.72-.72A.72.72,0,0,0,20.08,17Z"></path>
      <path class="cls-2" d="M9.9,17a.72.72,0,1,0-.72-.72A.72.72,0,0,0,9.9,17Z"></path>
      <path class="cls-2" d="M13.32,17a.72.72,0,1,0-.72-.72A.72.72,0,0,0,13.32,17Z"></path>
      <path class="cls-2" d="M16.94,17a.72.72,0,1,0-.72-.72A.72.72,0,0,0,16.94,17Z"></path>
      <path class="cls-2" d="M3.43,17a.72.72,0,1,0-.72-.72A.72.72,0,0,0,3.43,17Z"></path>
      <path class="cls-2" d="M6.73,17A.72.72,0,1,0,6,16.26.72.72,0,0,0,6.73,17Z"></path>
      <path class="cls-2" d="M25.78,17a.72.72,0,1,0,0-1.44.72.72,0,1,0,0,1.44Z"></path>
      <path class="cls-2" d="M28.8,17a.72.72,0,1,0-.72-.72A.72.72,0,0,0,28.8,17Z"></path>
      <path class="cls-2" d="M23,17a.72.72,0,1,0-.72-.72A.72.72,0,0,0,23,17Z"></path>
      <path class="cls-2" d="M23,20.84a.72.72,0,1,0-.72-.72A.72.72,0,0,0,23,20.84Z"></path>
      <path class="cls-2" d="M3.43,24.38a.72.72,0,1,0-.72-.72A.72.72,0,0,0,3.43,24.38Z"></path>
      <path class="cls-2" d="M16.94,24.38a.72.72,0,1,0-.72-.72A.72.72,0,0,0,16.94,24.38Z"></path>
      <path class="cls-2" d="M0,24.38a.72.72,0,0,0,0-1.44.72.72,0,0,0-.72.72A.72.72,0,0,0,0,24.38Z"></path>
      <path class="cls-2" d="M9.9,24.38a.72.72,0,1,0-.72-.72A.72.72,0,0,0,9.9,24.38Z"></path>
      <path class="cls-2" d="M13.32,24.38a.72.72,0,1,0-.72-.72A.72.72,0,0,0,13.32,24.38Z"></path>
      <path class="cls-2" d="M20.08,24.38a.72.72,0,1,0-.72-.72A.72.72,0,0,0,20.08,24.38Z"></path>
      <path class="cls-2" d="M6.73,24.38A.72.72,0,1,0,6,23.66.72.72,0,0,0,6.73,24.38Z"></path>
      <path class="cls-2" d="M25.78,24.38a.72.72,0,1,0-.72-.72A.72.72,0,0,0,25.78,24.38Z"></path>
      <path class="cls-2" d="M28.8,24.38a.72.72,0,1,0-.72-.72A.72.72,0,0,0,28.8,24.38Z"></path>
      <path class="cls-2" d="M23,24.38a.72.72,0,1,0-.72-.72A.72.72,0,0,0,23,24.38Z"></path>
      <path class="cls-2" d="M23,5.72A.72.72,0,1,0,22.25,5,.72.72,0,0,0,23,5.72Z"></path>
      <path class="cls-2" d="M3.43,2.2a.72.72,0,1,0-.72-.72A.72.72,0,0,0,3.43,2.2Z"></path>
      <path class="cls-2" d="M9.9,2.2a.72.72,0,1,0-.72-.72A.72.72,0,0,0,9.9,2.2Z"></path>
      <path class="cls-2" d="M13.32,2.2a.72.72,0,1,0-.72-.72A.72.72,0,0,0,13.32,2.2Z"></path>
      <path class="cls-2" d="M6.73,2.2A.72.72,0,1,0,6,1.48.72.72,0,0,0,6.73,2.2Z"></path>
      <path class="cls-2" d="M25.78,2.2a.72.72,0,1,0-.72-.72A.72.72,0,0,0,25.78,2.2Z"></path>
      <path class="cls-2" d="M28.8,2.2a.72.72,0,1,0-.72-.72A.72.72,0,0,0,28.8,2.2Z"></path>
      <path class="cls-2" d="M16.94,2.2a.72.72,0,1,0-.72-.72A.72.72,0,0,0,16.94,2.2Z"></path>
      <path class="cls-2" d="M20.08,2.2a.72.72,0,1,0-.72-.72A.72.72,0,0,0,20.08,2.2Z"></path>
      <path class="cls-2" d="M23,2.2a.72.72,0,1,0-.72-.72A.72.72,0,0,0,23,2.2Z"></path>
      <path class="cls-2" d="M0,5.72A.72.72,0,1,0,0,4.28.72.72,0,0,0-.72,5,.72.72,0,0,0,0,5.72Z"></path>
      <path class="cls-2" d="M0,13.64A.72.72,0,0,0,0,12.2a.72.72,0,0,0-.72.72A.72.72,0,0,0,0,13.64Z"></path>
      <path class="cls-2" d="M0,20.84A.72.72,0,0,0,0,19.4a.72.72,0,0,0-.72.72A.72.72,0,0,0,0,20.84Z"></path>
      <path class="cls-2" d="M0,28A.72.72,0,0,0,0,26.6a.72.72,0,0,0-.72.72A.72.72,0,0,0,0,28Z"></path>
      <path class="cls-2" d="M0,9.83A.72.72,0,1,0,0,8.39a.72.72,0,0,0-.72.72A.72.72,0,0,0,0,9.83Z"></path>
      <path class="cls-2"
        d="M0,17a.72.72,0,0,0,.72-.72A.72.72,0,0,0,0,15.54a.72.72,0,0,0-.72.72A.72.72,0,0,0,0,17Z"></path>
        <path class="cls-2" d="M0,24.38a.72.72,0,0,0,0-1.44.72.72,0,0,0-.72.72A.72.72,0,0,0,0,24.38Z"></path>
        <path class="cls-2" d="M0,2.2A.72.72,0,0,0,0,.76a.72.72,0,0,0-.72.72A.72.72,0,0,0,0,2.2Z"></path>
      </pattern>
    </defs>
    <rect class="cls-3" x="4" y="276.32" width="161.23" height="93.34"></rect>
    <polyline class="cls-3" points="165.23 276.32 84.61 322.99 4 276.32"></polyline>
    <rect class="cls-3" x="404.98" y="48.48" width="161.23" height="93.34"></rect>
    <polyline class="cls-3" points="566.21 48.48 485.6 95.15 404.98 48.48"></polyline>
    <polyline class="cls-3" points="404.98 226.24 460.98 226.24 460.98 301.95 440.81 301.95"></polyline>
    <line class="cls-3" x1="549.59" y1="276.16" x2="566.21" y2="276.16"></line>
    <polyline class="cls-3" points="494.7 175.45 494.7 276.16 498.34 276.16"></polyline>
    <path class="cls-4" d="M512.89,225.81s5.62-20.07,19.18-20.07,12.08,19.83,34.14,14.54"></path>
    <line class="cls-3" x1="423.77" y1="237.46" x2="450.17" y2="237.46"></line>
    <line class="cls-3" x1="423.77" y1="244.77" x2="450.17" y2="244.77"></line>
    <line class="cls-3" x1="423.77" y1="253.15" x2="443.17" y2="253.15"></line>
    <path class="cls-5"
      d="M450.29,312.87a4.39,4.39,0,0,0-6.49-.92c-4.46,3.69-17.17,14.37-17.17,16,0,2,5.23,8.64,9.35,9.44,0,0,16.79,19.1,20.41,25.33s14.27,13.07,15.47,16.09L469.65,414h95.69s-7.64-31.36-17.49-42.62a180,180,0,0,0-20.1-19.5s-43.82,9.25-41.41-7.44l-35-28.14A7.68,7.68,0,0,0,450.29,312.87Z">
    </path>
    <line class="cls-6" x1="473.54" y1="367.3" x2="469.21" y2="393.89"></line>
    <line class="cls-6" x1="536.28" y1="393.73" x2="535.38" y2="414.56"></line>
    <path class="cls-3"
      d="M508.87,283.24,495,308.36s-4.48,9.4.85,17.25a15,15,0,0,0,11.19,6.31c3.82.32,9.13.07,13.66-2.71">
    </path>
    <path class="cls-3" d="M489.66,342.45A20.35,20.35,0,0,0,501.1,330.2"></path>
    <path class="cls-3"
      d="M524.53,349.92s-6.29-7.34-.92-15.21,8.79-11,8.79-11l4,1.12a3.49,3.49,0,0,0,3.93-1.58h0a3.47,3.47,0,0,0-1-4.64l-2.93-2">
    </path>
    <path class="cls-7"
      d="M533.69,295s-8.28,10.78-2.57,19.38c0,0-3.93,3.43-2,5.62s2.86,4.38,14.9-5.78,9.06-19.69,4.06-24.23c0,0,2.25-17.87-24.92-25a18.91,18.91,0,0,0-12.71,1,15.3,15.3,0,0,0-8.6,9.54,8.6,8.6,0,0,0,2.54,9.1l.08.08s-5.9,7.17-2.32,10.78l4.49-8.16A49.72,49.72,0,0,0,533.69,295Z">
    </path>
    <path class="cls-6" d="M529.61,296.56A25.57,25.57,0,0,0,540.79,292"></path>
    <polyline class="cls-3" points="508.44 299.56 502.32 310.36 505.38 312.65"></polyline>
    <path class="cls-3"
      d="M507.6,315.49a42.24,42.24,0,0,0,9.18-.9.62.62,0,0,1,.75.79c-.62,1.83-2.75,5.28-9.93,5.62"></path>
      <rect class="cls-8" x="514.42" y="302.25" width="2.38" height="5.48" rx="1.19"
        transform="translate(177.35 -189.43) rotate(25.02)"></rect>
        <rect class="cls-8" x="502.35" y="297.29" width="2.38" height="5.48" rx="1.19"
          transform="translate(174.11 -184.79) rotate(25.02)"></rect>
          <path class="cls-8"
            d="M518,297.06a10.61,10.61,0,0,1,2.37,3.3,1,1,0,0,0,1.25.58l.07,0a1,1,0,0,0,.6-1,4.85,4.85,0,0,0-3.26-4.52.94.94,0,0,0-.8.11l-.07.05A1,1,0,0,0,518,297.06Z">
          </path>
          <path class="cls-8"
            d="M505.35,291.25a10.68,10.68,0,0,1,4,.91,1,1,0,0,0,1.32-.39l0-.06a1,1,0,0,0-.19-1.13,4.85,4.85,0,0,0-5.43-1.24,1,1,0,0,0-.53.61l0,.09A1,1,0,0,0,505.35,291.25Z">
          </path>
          <line class="cls-3" x1="405.02" y1="290.62" x2="427.37" y2="321.79"></line>
          <path class="cls-3"
            d="M442.36,307.63,407.65,275s-9.58-11.74-10.15-22.74a2,2,0,0,0-1.79-1.89h0a2,2,0,0,0-2.18,1.94,25,25,0,0,0,.81,6.94s-4.83-6-6.68-10.12a1.68,1.68,0,0,0-2.25-.87h0a1.66,1.66,0,0,0-.92,1.87c.57,2.54,2.06,8.17,4.62,11.41l-7.66-7.81a1.88,1.88,0,0,0-2.69,0h0a1.88,1.88,0,0,0-.09,2.52L386,265,380.86,261a1.64,1.64,0,0,0-2.32.32h0a1.64,1.64,0,0,0,.3,2.28c2.25,1.74,6.77,5.38,7.73,7.3,0,0,1.41,7,6.87,8.34a9.2,9.2,0,0,1,6.81,5.51">
          </path>
          <path class="cls-3"
            d="M395.44,275l-3.52-2.83a2.41,2.41,0,0,1-.3-3.46h0a2.42,2.42,0,0,1,3.19-.39l4.61,3.23">
          </path>
          <polyline class="cls-3"
            points="404.98 237.93 404.98 175.45 566.21 175.45 566.21 415.19 404.98 415.19 404.98 311.84"></polyline>
            <rect class="cls-3" x="204.74" y="48.48" width="162.16" height="134.77"></rect>
            <rect class="cls-4" x="204.74" y="219.17" width="162.16" height="93.48"></rect>
            <polyline class="cls-3" points="225.96 291.82 268.58 260.21 296.52 282.51 340.55 244.77 340.55 260.77">
            </polyline>
            <line class="cls-3" x1="325.03" y1="244.77" x2="340.55" y2="244.77"></line>
            <path class="cls-9"
              d="M304.12,124.42h-7.71c-27.93,0-40.2,35.64-17.9,52.45.4.31.82.62,1.24.92H314.6l.76-.32C342.78,165.44,334.07,124.42,304.12,124.42Z">
            </path>
            <path class="cls-3"
              d="M263.41,112.89,261,114.27a36.38,36.38,0,0,0-18.18,31.5h0a36.39,36.39,0,0,0,19.14,32l6.81,3.66">
            </path>
            <path class="cls-3"
              d="M309,112.89l2.38,1.38a36.38,36.38,0,0,1,18.18,31.5h0a36.4,36.4,0,0,1-19.13,32l-6.82,3.66"></path>
              <line class="cls-3" x1="326.6" y1="131.3" x2="245.85" y2="131.3"></line>
              <path class="cls-2"
                d="M291.58,155.47a2.78,2.78,0,0,1,2.69-1.6,4.27,4.27,0,0,1,3.49,1.91c1.95,2.94,4.43,4.94,13.28,1.18a45.67,45.67,0,0,0,5-2.83c.46-.54,0-.65,0-.65a2.08,2.08,0,0,0-.69-2.53c-1.18-1.12-7.28-5.42-12.37-6a7.55,7.55,0,0,0-3.81.6,15.07,15.07,0,0,0-3.22,1.77,14.66,14.66,0,0,1-2.55,1.78,2.19,2.19,0,0,1-2.31-.21c-2.14-1.62-4.27-4.68-14.8-3.1,0,0,.71,6.83,11.18,6.83,0,0-5.73-2.3-11.18,7.38C276.3,160,287.81,163.86,291.58,155.47Z">
              </path>
              <path class="cls-2" d="M301.08,154.28s-4.86.28-7.18,2.1-2.58,4.81,0,5.36,6.57-1.72,8.9-4.14"></path>
              <path class="cls-2" d="M305.36,158.61s.17,2.08,2,1.18a6.35,6.35,0,0,0,2.61-2.46"></path>
              <path class="cls-2"
                d="M302.68,145.48s-3.21-5.34-7.3-5.09h-1.72a1,1,0,0,0-1,1h0a1,1,0,0,0,1,1l.75,0a.22.22,0,0,1,.11.4l-.42.27a1,1,0,0,0-.36,1.17h0a.94.94,0,0,0,1,.55l.53-.06a.21.21,0,0,1,.17.37l-.06.06a.71.71,0,0,0,0,1h0a.74.74,0,0,0,.42.19l1.87.3">
              </path>
              <line class="cls-3" x1="261.3" y1="109.73" x2="311.15" y2="109.73"></line>
              <path class="cls-10" d="M4,83S23.67,72.09,42.1,41.37,108.26,4.15,108.26,4.15H4Z"></path>
              <path class="cls-10" d="M165.23,168.57s-24.23,23.67-41.71,47.2-54,29-54,29l95.76-.41Z"></path>
              <rect class="cls-3" x="4" y="4.15" width="161.23" height="240.21"></rect>
              <path class="cls-11"
                d="M59.24,194.11h7.88A5.86,5.86,0,0,1,73,200h0a5.86,5.86,0,0,1-5.86,5.85h-2A5.85,5.85,0,0,1,59.24,200V162.05a1.83,1.83,0,0,0-1.84-1.83H28.31a1.84,1.84,0,0,0-1.84,1.83V200a5.86,5.86,0,0,0,5.86,5.85h2A5.85,5.85,0,0,0,40.21,200h0a5.85,5.85,0,0,0-5.85-5.86H26.47">
              </path>
              <line class="cls-11" x1="26.47" y1="167.81" x2="59.24" y2="167.81"></line>
              <path class="cls-11"
                d="M138,66.34h7.88a5.86,5.86,0,0,1,5.86,5.86h0a5.85,5.85,0,0,1-5.86,5.85h-2A5.85,5.85,0,0,1,138,72.2V34.28a1.83,1.83,0,0,0-1.84-1.83H107.1a1.83,1.83,0,0,0-1.83,1.83V72.2a5.85,5.85,0,0,0,5.85,5.85h2A5.85,5.85,0,0,0,119,72.2h0a5.85,5.85,0,0,0-5.85-5.86h-7.88">
              </path>
              <line class="cls-11" x1="105.27" y1="40.04" x2="138.03" y2="40.04"></line>
              <circle class="cls-3" cx="62.25" cy="94.05" r="17.05"></circle>
              <path class="cls-3"
                d="M63.07,111.12,103.37,145a5.07,5.07,0,0,0,6.84-.29l3-3a5.06,5.06,0,0,0,.26-6.87L79.28,94.83"></path>
                <path class="cls-11" d="M74,114.81s6.6-2.56,9.23-9.23"></path>
                <path class="cls-3" d="M111.48,143.41s21.18,6.11,16,20.68c-6.74,19-34,9.61-32.1,46"></path>
              </svg>