<svg width="254" height="71" viewBox="0 0 254 71" fill="none" xmlns="http://www.w3.org/2000/svg">
                  <path d="M67.4247 3.26479C53.5196 3.10369 39.7481 2.48112 26.3487 5.81231C19.1666 7.59785 15.8646 10.3856 10.3545 14.5007C7.35584 16.7402 4.7517 19.5007 3.2066 24.5007C3.18128 26.686 1.29305 30.9373 1.49988 34.5007C1.47981 36.2332 2.80099 45.1673 3.75177 46.7805C5.27632 49.3672 6.37021 51.6602 9.35456 53.5251C12.1293 55.2589 14.714 57.1923 17.6923 58.7193C23.2629 61.5754 25.5956 59.6398 31.8943 61.2583C43.0517 64.1252 54.1871 62.806 65.74 64.4638C77.4758 66.1478 89.1498 65.95 101 67.0007C119.182 68.6129 137.677 67.6762 155.954 67.8879C167.465 68.0213 179.085 67.251 190.59 66.9533C199.287 66.7282 208.511 65.9751 216.959 64.3408C221.955 63.3743 226.78 62.1416 231.486 60.5189C235.051 59.2895 238.191 57.4055 241.51 55.8363C245.743 53.8346 248.928 51.2835 250.408 47.5898C253.484 39.9088 253.373 30.8833 246.77 24.3622C239.759 17.4389 229.706 13.3607 218.762 11.4166C201.095 8.27826 183.013 5.23683 164.811 5.02594C153.215 4.89159 141.657 3.5172 130.075 3.05903C118.11 2.58573 105.968 2.5426 94.0548 3.32724C91.1987 3.51535 87.6824 3.67917 84.9706 4.4173C82.6327 5.05363 79.2965 5.16556 77.4911 6.54547" stroke="#FC5811" stroke-width="1.2" stroke-linecap="round" stroke-linejoin="round"></path>
                </svg>