<svg width="1440" height="638" viewBox="0 0 1440 638" fill="none" xmlns="http://www.w3.org/2000/svg">
<path d="M314.182 90.3297L314.181 90.3301C247.263 138.732 176.98 150.546 112.445 134.671C48.5938 118.965 -9.56265 76.1709 -53.25 15.0367V490.011C-25.522 447.833 0.430592 421.35 39.7437 416.27C79.6155 411.118 133.035 428.019 215.732 472.25C298.199 516.358 376.175 507.369 431.483 475.772C486.854 444.139 519.375 389.958 511.261 343.724C503.047 296.918 513.633 249.223 560.325 229.439C583.611 219.572 615.784 216.703 658.894 224.271C702.007 231.84 756.111 249.857 823.303 281.823C926.642 330.986 990.914 340.895 1042.15 341.201C1059.29 341.303 1074.96 340.332 1090.17 339.389C1097.73 338.921 1105.18 338.459 1112.65 338.139C1135.1 337.177 1157.59 337.51 1183.35 342.86C1242.75 355.197 1287.62 348.927 1319.29 332.678C1350.95 316.432 1369.47 290.182 1376.14 262.414C1382.82 234.633 1377.63 205.335 1361.86 182.994C1346.11 160.671 1319.76 145.25 1284 145.25C1240.93 145.25 1203.51 155.307 1168.35 167.584C1156.56 171.701 1145.01 176.074 1133.58 180.401C1110.97 188.959 1088.84 197.336 1066.28 203.195C1032.26 212.03 997.135 215.178 957.581 204.703C918.038 194.23 874.128 170.159 822.485 124.662C719.41 33.8536 627.886 -0.441132 544.412 0.781433C460.922 2.00424 385.348 38.7594 314.182 90.3297Z" stroke="#1D1916" stroke-width="1.5"/>
<path d="M1446.78 625.803L1446.77 625.803C1440.66 618.999 1432.14 611.193 1420.17 608.421C1408.18 605.642 1392.88 607.956 1373.28 621.053C1363.14 627.818 1348.59 626.474 1341.31 618.754C1337.7 614.929 1335.83 609.496 1337.2 602.565C1338.58 595.603 1343.24 587.098 1352.79 577.248L1352.79 577.247C1364.45 565.181 1382.7 554.791 1402.65 548.026C1422.6 541.261 1444.18 538.149 1462.47 540.56L1462.47 540.56C1489 544.042 1503.76 554.127 1510.45 566.373C1517.15 578.633 1515.89 593.263 1509.94 606.066C1504 618.873 1493.43 629.721 1481.74 634.393C1475.91 636.726 1469.81 637.514 1463.87 636.264C1457.93 635.016 1452.09 631.722 1446.78 625.803Z" stroke="#1D1916" stroke-width="1.5"/>
</svg>
