<svg width="1440" height="509" viewBox="0 0 1440 509" fill="none" xmlns="http://www.w3.org/2000/svg">
<path d="M314.182 90.3297L314.181 90.3301C247.263 138.732 176.98 150.546 112.445 134.671C48.5938 118.965 -9.56265 76.1708 -53.25 15.0367V490.011C-25.522 447.833 0.430592 421.35 39.7437 416.27C79.6155 411.118 133.035 428.019 215.732 472.25C298.294 516.409 362.275 514.677 403.524 490.488C444.777 466.297 463.498 419.535 455.357 373.149C451.239 349.683 454.009 326.678 464.75 307.383C475.497 288.079 494.187 272.557 521.779 264.007C576.914 246.924 667.617 257.667 801.973 321.587C936.243 385.465 1018.79 402.179 1074.06 397.281C1127.95 392.505 1155.98 367.175 1180.89 344.673C1181.49 344.126 1182.1 343.581 1182.7 343.038C1208.06 320.152 1229.76 302.014 1253.64 294.375C1277.59 286.712 1303.61 289.638 1337.54 308.563L1337.17 309.218L1337.54 308.563C1354.17 317.853 1369.37 315.823 1380.74 308.054C1392.15 300.258 1399.77 286.647 1401.06 272.725C1402.34 258.83 1397.33 244.68 1383.57 235.686C1369.78 226.67 1347.06 222.746 1312.75 229.678C1302.52 231.745 1292.25 233.931 1281.9 236.133C1222.71 248.723 1161.22 261.802 1093.51 255.865C1013.91 248.886 925.756 215.643 822.485 124.662C719.41 33.8536 627.886 -0.441132 544.412 0.781433C460.922 2.00424 385.348 38.7594 314.182 90.3297Z" stroke="#1D1916" stroke-width="1.5"/>
<path d="M1446.78 487.803L1446.77 487.803C1440.66 480.999 1432.14 473.193 1420.17 470.421C1408.18 467.642 1392.88 469.956 1373.28 483.053C1363.14 489.818 1348.59 488.474 1341.31 480.754C1337.7 476.929 1335.83 471.496 1337.2 464.565C1338.58 457.603 1343.24 449.098 1352.79 439.248L1352.79 439.247C1364.45 427.181 1382.7 416.791 1402.65 410.026C1422.6 403.261 1444.18 400.149 1462.47 402.56L1462.47 402.56C1489 406.042 1503.76 416.127 1510.45 428.373C1517.15 440.633 1515.89 455.263 1509.94 468.066C1504 480.873 1493.43 491.721 1481.74 496.393C1475.91 498.726 1469.81 499.514 1463.87 498.264C1457.93 497.016 1452.09 493.722 1446.78 487.803Z" stroke="#1D1916" stroke-width="1.5"/>
</svg>
