<svg width="1440" height="810" viewBox="0 0 1440 810" fill="none" xmlns="http://www.w3.org/2000/svg">
<path d="M237.304 245.263L237.303 245.264C164.347 283.97 93.1065 285.974 31.3787 261.347C-29.6946 236.981 -81.3906 186.573 -116.226 119.996L-181.758 590.428C-148.475 552.479 -119.117 529.83 -79.4791 530.223C-39.2778 530.621 11.2995 554.73 87.103 609.948C162.782 665.076 226.391 672.188 270.582 653.922C314.779 635.654 339.772 591.921 338.109 544.856C337.268 521.046 343.185 498.643 356.486 481.015C369.793 463.378 390.446 450.583 418.953 445.922C475.919 436.609 564.272 459.764 688.524 541.609C812.697 623.402 892.152 651.346 947.564 654.119C1001.6 656.823 1032.86 635.604 1060.63 616.753C1061.3 616.295 1061.98 615.838 1062.65 615.383C1090.92 596.215 1114.92 581.245 1139.62 576.973C1164.4 572.688 1189.77 579.176 1220.76 602.601L1220.31 603.2L1220.76 602.602C1235.95 614.097 1251.29 614.184 1263.62 608.058C1276 601.911 1285.42 589.48 1288.62 575.87C1291.81 562.285 1288.8 547.579 1276.41 536.773C1264 525.94 1242.03 518.918 1207.1 521.051C1196.68 521.687 1186.2 522.435 1175.65 523.187C1115.29 527.491 1052.58 531.962 986.338 516.739C908.464 498.844 825.74 453.757 736.009 349.397C646.449 245.236 560.532 198.642 477.688 188.336C394.827 178.028 314.905 204.005 237.304 245.263Z" stroke="#1D1916" stroke-width="1.5"/>
<path d="M1396.5 84.4869L1396.5 84.4877C1402.19 102.976 1411.55 125.38 1431.89 141.219C1452.25 157.076 1483.48 166.254 1532.68 158.567C1558.57 154.544 1585.8 170.288 1593.07 192.065C1596.69 202.907 1595.39 215.304 1586.42 227.617C1577.43 239.955 1560.72 252.234 1533.48 262.69L1533.48 262.691C1500.14 275.56 1455.64 279.271 1411.14 274.479C1366.65 269.688 1322.24 256.406 1289.08 235.375L1289.08 235.375C1241 204.932 1221.38 172.173 1219.4 142.295C1217.42 112.4 1233.08 85.158 1256.06 65.7216C1279.04 46.282 1309.24 34.7463 1336.14 36.197C1349.58 36.9218 1362.18 40.8863 1372.65 48.7045C1383.12 56.5199 1391.51 68.2183 1396.5 84.4869Z" stroke="#1D1916" stroke-width="1.5"/>
</svg>
