<svg width="1440" height="228" viewBox="0 0 1440 228" fill="none" xmlns="http://www.w3.org/2000/svg">
<path d="M709 212.999C765.274 126.542 812.628 105.284 977.466 193.449C1142.3 281.614 1189.36 172.717 1243.71 95.4994C1331.54 -29.2801 1416.94 -22.0924 1512.04 68.057" stroke="#1D1916" stroke-width="1.5"/>
<path d="M-26.0613 204.803L-26.0608 204.803C-19.9427 197.999 -11.4232 190.193 0.542946 187.421C12.5376 184.642 27.8338 186.956 47.4296 200.053C57.5693 206.818 72.1242 205.474 79.4067 197.754C83.0144 193.929 84.8851 188.496 83.5133 181.565C82.1352 174.603 77.4744 166.098 67.922 156.248L67.9211 156.247C56.2619 144.181 38.0182 133.791 18.0641 127.026C-1.88686 120.261 -23.4621 117.149 -41.7517 119.56L-41.7521 119.56C-68.2908 123.042 -83.046 133.127 -89.7393 145.373C-96.4404 157.633 -95.1738 172.263 -89.2308 185.066C-83.2856 197.873 -72.717 208.721 -61.0289 213.393C-55.1938 215.726 -49.0966 216.514 -43.1523 215.264C-37.2126 214.016 -31.3725 210.722 -26.0613 204.803Z" stroke="#1D1916" stroke-width="1.5"/>
</svg>
