<svg width="1440" height="509" viewBox="0 0 1440 509" fill="none" xmlns="http://www.w3.org/2000/svg">
<path d="M1509.82 90.3297L1509.82 90.3301C1576.74 138.732 1647.02 150.546 1711.56 134.671C1775.41 118.965 1833.56 76.1708 1877.25 15.0367V490.011C1849.52 447.833 1823.57 421.35 1784.26 416.27C1744.38 411.118 1690.96 428.019 1608.27 472.25C1525.71 516.409 1461.72 514.677 1420.48 490.488C1379.22 466.297 1360.5 419.535 1368.64 373.149C1372.76 349.683 1369.99 326.678 1359.25 307.383C1348.5 288.079 1329.81 272.557 1302.22 264.007C1247.09 246.924 1156.38 257.667 1022.03 321.587C887.757 385.465 805.206 402.179 749.942 397.281C696.052 392.505 668.018 367.175 643.113 344.673C642.508 344.126 641.904 343.581 641.303 343.038C615.944 320.152 594.239 302.014 570.363 294.375C546.414 286.712 520.393 289.638 486.464 308.563L486.829 309.218L486.463 308.563C469.832 317.853 454.635 315.823 443.26 308.054C431.846 300.258 424.235 286.647 422.945 272.725C421.657 258.83 426.666 244.68 440.426 235.686C454.22 226.67 476.944 222.746 511.247 229.678C521.476 231.745 531.754 233.931 542.103 236.133C601.292 248.723 662.78 261.802 730.492 255.865C810.09 248.886 898.244 215.643 1001.52 124.662C1104.59 33.8536 1196.11 -0.441132 1279.59 0.781433C1363.08 2.00424 1438.65 38.7594 1509.82 90.3297Z" stroke="#1D1916" stroke-width="1.5"/>
<path d="M4.93771 132.803L4.93823 132.803C11.0564 125.999 19.5758 118.193 31.542 115.421C43.5366 112.642 58.8328 114.956 78.4286 128.053C88.5684 134.818 103.123 133.474 110.406 125.754C114.013 121.929 115.884 116.496 114.512 109.565C113.134 102.603 108.473 94.0975 98.921 84.2477L98.9201 84.2468C87.2609 72.1808 69.0172 61.7911 49.0632 55.0256C29.1122 48.2612 7.53693 45.1491 -10.7526 47.5599L-10.7531 47.5599C-37.2917 51.0415 -52.047 61.1268 -58.7403 73.3728C-65.4414 85.6331 -64.1748 100.263 -58.2318 113.066C-52.2866 125.873 -41.718 136.721 -30.0299 141.393C-24.1948 143.726 -18.0976 144.514 -12.1532 143.264C-6.21362 142.016 -0.373444 138.722 4.93771 132.803Z" stroke="#1D1916" stroke-width="1.5"/>
</svg>
