<svg width="1380" height="504" viewBox="0 0 1380 504" fill="none" xmlns="http://www.w3.org/2000/svg">
<path d="M314.182 90.33L314.181 90.3304C247.263 138.732 176.98 150.546 112.445 134.672C48.2893 118.89 -10.1172 75.7623 -53.8741 14.161L-206.774 334.174C-58.5171 325.375 43.5964 380.064 198.89 463.234C204.435 466.204 210.047 469.21 215.732 472.25C298.199 516.359 376.175 507.369 431.483 475.772C486.854 444.139 519.375 389.958 511.261 343.725C503.047 296.919 513.633 249.223 560.325 229.439C583.611 219.572 615.784 216.703 658.894 224.272C702.007 231.84 756.111 249.857 823.303 281.823C926.642 330.986 990.914 340.896 1042.15 341.201C1059.29 341.304 1074.96 340.333 1090.17 339.389C1097.73 338.921 1105.18 338.459 1112.65 338.139C1135.1 337.177 1157.59 337.511 1183.35 342.861C1242.75 355.197 1287.62 348.928 1319.29 332.678C1350.95 316.432 1369.47 290.182 1376.14 262.414C1382.82 234.634 1377.63 205.335 1361.86 182.994C1346.11 160.671 1319.76 145.25 1284 145.25C1240.93 145.25 1203.51 155.307 1168.35 167.584C1156.56 171.702 1145.01 176.075 1133.58 180.401C1110.97 188.96 1088.84 197.337 1066.28 203.196C1032.26 212.03 997.135 215.178 957.581 204.703C918.038 194.231 874.128 170.159 822.485 124.662C719.41 33.8538 627.886 -0.440887 544.412 0.781677C460.922 2.00449 385.348 38.7597 314.182 90.33Z" stroke="#1D1916" stroke-width="1.5"/>
</svg>
