<svg width="1440" height="739" viewBox="0 0 1440 739" fill="none" xmlns="http://www.w3.org/2000/svg">
<path d="M238.304 174.264L238.303 174.264C165.347 212.97 94.1065 214.975 32.3787 190.348C-28.6946 165.982 -80.3906 115.574 -115.226 48.9965L-180.758 519.429C-147.475 481.479 -118.117 458.83 -78.4791 459.223C-38.2778 459.621 12.2995 483.731 88.103 538.949C163.782 594.076 227.391 601.188 271.582 582.922C315.779 564.654 340.772 520.922 339.109 473.856C338.268 450.047 344.185 427.643 357.486 410.015C370.793 392.379 391.446 379.583 419.953 374.923C476.919 365.609 565.272 388.764 689.524 470.61C813.697 552.402 893.152 580.346 948.564 583.119C1002.6 585.824 1033.86 564.604 1061.63 545.753C1062.3 545.295 1062.98 544.839 1063.65 544.384C1091.92 525.215 1115.92 510.245 1140.62 505.973C1165.4 501.688 1190.77 508.177 1221.76 531.602L1221.31 532.2L1221.76 531.602C1236.95 543.097 1252.29 543.184 1264.62 537.059C1277 530.912 1286.42 518.481 1289.62 504.87C1292.81 491.285 1289.8 476.58 1277.41 465.773C1265 454.94 1243.03 447.918 1208.1 450.052C1197.68 450.688 1187.2 451.435 1176.65 452.187C1116.29 456.491 1053.58 460.962 987.338 445.739C909.464 427.844 826.74 382.757 737.009 278.398C647.449 174.237 561.532 127.643 478.688 117.337C395.827 107.029 315.905 133.006 238.304 174.264Z" stroke="#1D1916" stroke-width="1.5"/>
<path d="M1447.22 184.548L1447.22 184.548C1434.29 170.166 1416.37 153.777 1391.26 147.961C1366.11 142.139 1333.92 146.947 1292.51 174.616C1270.72 189.153 1239.4 186.32 1223.64 169.621C1215.8 161.307 1211.76 149.512 1214.72 134.57C1217.69 119.595 1227.68 101.427 1248 80.4849L1248 80.484C1272.84 54.7839 1311.64 32.7032 1354.03 18.3354C1396.41 3.96855 1442.29 -2.65734 1481.22 2.47382L1481.22 2.47388C1537.64 9.87407 1569.22 31.3427 1583.58 57.6165C1597.96 83.9045 1595.21 115.207 1582.53 142.506C1569.85 169.809 1547.3 192.978 1522.29 202.974C1509.79 207.969 1496.7 209.67 1483.91 206.982C1471.12 204.295 1458.59 197.211 1447.22 184.548Z" stroke="#1D1916" stroke-width="1.5"/>
</svg>
