<svg width="202" height="24" viewBox="0 0 202 24" fill="none" xmlns="http://www.w3.org/2000/svg">
<path d="M124.458 0.000652313L114.552 20.6641C113.508 22.8051 111.472 24 108.75 24H84.7041C81.948 24 81.1017 21.8944 82.1437 19.6738L91.554 0.000652313H99.8969L91.2193 18.0835C90.9944 18.5686 91.2142 18.8604 91.6955 18.8604H106.089C106.935 18.8604 107.241 18.5623 107.511 17.9888L116.146 0.000652313H124.458Z" fill="#1D1916"/>
<path d="M153.277 5.69291L151.79 8.77493C151.54 9.29913 151.164 9.53912 150.469 9.53912H134.86L136.699 5.72449C136.961 5.16871 137.335 4.9123 138.058 4.9123H152.753C153.328 4.9123 153.443 5.3645 153.277 5.69291ZM158.258 1.14441e-05H135.161C132.197 1.14441e-05 130.546 1.22272 129.342 3.76917L121.853 19.3422C120.555 21.9935 121.822 23.9994 124.631 23.9994H148.054C150.756 23.9994 152.817 22.8625 153.95 20.4651L154.682 19.0062L131.146 19.0075C130.65 19.0075 130.468 18.6778 130.689 18.2105L132.055 15.352C132.38 14.6674 132.817 14.4792 133.431 14.4792H152.74C155.779 14.4792 157.528 13.0797 158.355 11.3353L161.367 5.06893C161.806 4.10643 161.961 3.4155 161.961 2.74099C161.961 0.975143 160.491 1.14441e-05 158.258 1.14441e-05Z" fill="#1D1916"/>
<path d="M200.626 5.06932C201.063 4.10682 201.218 3.4159 201.218 2.74139C201.218 0.97554 199.748 0.000408173 197.516 0.000408173H173.987C171.025 0.000408173 169.373 1.22311 168.169 3.76957L158.424 23.9998H166.672L170.742 15.5103C171.061 14.8345 171.476 14.6274 172.122 14.6274H182.38C183.028 14.6274 183.365 14.8206 183.624 15.4471L186.957 23.9934H194.905L191.111 14.4771L191.702 14.4341C194.841 14.2105 196.87 12.883 197.953 10.6296L200.626 5.06932ZM192.404 5.69331L190.858 8.89785C190.57 9.49152 190.172 9.68351 189.498 9.68351H173.551L175.446 5.75646C175.735 5.14511 176.128 4.91143 176.884 4.91143H191.881C192.456 4.91143 192.571 5.36363 192.404 5.69331Z" fill="#1D1916"/>
<path d="M67.9206 18.2146C67.6995 18.6882 67.3547 19.0154 66.5918 19.0154H51.4116C51.0541 19.0154 50.7345 18.7375 50.9884 18.2272L52.5837 14.8862C52.873 14.2622 53.2747 14.0576 53.9466 14.0576H69.9125L67.9206 18.2146ZM79.4213 0.00031662H55.5622C52.9526 0.00031662 51.1412 1.0765 50.06 3.43728L49.3034 4.99597L73.3381 4.99092C73.9394 4.99092 74.0846 5.37238 73.88 5.8069L72.627 8.41651C72.315 9.0746 71.9259 9.27291 71.2641 9.27291H50.756C48.5708 9.27291 46.6268 10.3832 45.6656 12.4168L42.2817 19.4512C41.0817 21.99 42.2602 23.9997 44.9936 23.9997H69.2658C71.9158 23.9997 73.9962 22.8363 75.056 20.6587L82.5311 5.06292C82.9682 4.10042 83.1235 3.40949 83.1235 2.73498C83.1235 0.969135 81.6532 0.00031662 79.4213 0.00031662Z" fill="#1D1916"/>
<path d="M34.9216 5.61019L33.594 8.38021C33.3048 8.95746 32.9663 9.18609 32.2324 9.18609H15.3848L17.1014 5.59629C17.3629 5.04304 17.7823 4.78915 18.4429 4.78915H34.3873C35.015 4.78915 35.1148 5.20725 34.9216 5.61019ZM28.8548 18.2187C28.5845 18.7934 28.2043 19.0157 27.4969 19.0157H11.5071C10.9866 19.0157 10.854 18.6267 11.0384 18.2439L12.6754 14.8512C12.9344 14.3131 13.3499 14.039 14.0207 14.039H30.8568L28.8548 18.2187ZM40.1307 0.000652313H15.3293C13.1377 0.000652313 11.0334 0.944206 9.97362 3.19004L0 24H30.2291C33.1999 24 34.9961 22.752 35.9813 20.731L38.0364 16.4642C38.38 15.7455 38.6288 15.0849 38.6288 14.4142C38.6288 12.8845 37.5034 11.9776 35.9535 11.677C35.9535 11.677 36.8908 11.5923 37.6802 11.3966C39.6229 10.9128 40.8595 9.97554 41.7386 8.1819L43.2392 5.06957C43.6763 4.10707 43.8316 3.41488 43.8316 2.74163C43.8316 0.975784 42.3614 0.000652313 40.1307 0.000652313Z" fill="#1D1916"/>
</svg>
