<svg width="148" height="41" viewBox="0 0 148 41" fill="none" xmlns="http://www.w3.org/2000/svg">
<path d="M39.3667 12.8496C33.5415 12.8496 29.2583 16.9615 29.2583 22.701C29.2583 28.5262 33.5415 32.5524 39.538 32.5524C43.2216 32.5524 46.2198 31.0105 48.0188 28.2692L48.1901 27.9266L44.7635 26.0419L44.5922 26.2989C43.6499 27.8409 41.7653 28.7832 39.538 28.7832C36.2828 28.7832 33.9698 27.1556 33.2845 24.4143H48.7041L48.7898 24.1573C48.8754 23.6433 48.8754 23.215 48.8754 22.701C49.0468 17.1329 44.8492 12.8496 39.3667 12.8496ZM33.4559 21.0734C34.0555 18.2465 36.3684 16.5332 39.4524 16.5332C41.6796 16.5332 44.3352 17.7325 45.0205 21.0734H33.4559Z" fill="#1D1916"/>
<path d="M83.3127 12.8496H82.9701C80.6571 12.8496 78.8582 13.7063 77.7445 15.2482V13.1923H73.8896V32.5524H77.7445V22.0157C77.7445 20.3024 78.1729 19.0175 79.1152 18.1608C80.0575 17.3042 81.4281 16.7902 82.9701 16.8759H83.3127V12.8496Z" fill="#1D1916"/>
<path d="M67.2935 15.6766C65.6658 13.7919 63.3529 12.8496 60.6116 12.8496C55.2148 12.8496 50.7603 17.3042 50.7603 22.701C50.7603 28.0979 55.2148 32.5524 60.6116 32.5524C63.3529 32.5524 65.6658 31.5245 67.2935 29.7255V32.5524H71.3197V12.9353H67.2935V15.6766ZM60.9543 28.7832C57.3564 28.7832 54.7008 26.1276 54.7008 22.701C54.7008 19.1888 57.3564 16.6189 60.9543 16.6189C64.5522 16.6189 67.2935 19.2745 67.2935 22.701C67.2935 26.2133 64.5522 28.7832 60.9543 28.7832Z" fill="#1D1916"/>
<path d="M142.678 12.8496L137.624 27.0699L131.713 12.8496H127.001L135.397 32.0385L135.225 32.4668C134.112 35.1224 132.655 36.493 129.914 36.3217V40.2622C134.454 40.5192 137.71 38.1206 139.594 33.0664L147.218 12.9353H142.678V12.8496Z" fill="#1D1916"/>
<path d="M22.0627 14.4773C23.4333 12.9353 24.2899 10.965 24.2899 8.73776C24.2899 3.94056 20.1781 0 15.1239 0C12.4683 0 9.984 1.11364 8.27071 2.99825L7.24274 4.19755C6.81441 3.68357 6.38609 3.25524 5.95777 2.82692C5.10113 1.88462 3.90183 1.11364 2.61686 0.59965C1.84588 0.171328 1.3319 0.0856642 1.3319 0.0856642L0.218262 4.02622C0.560919 4.11189 3.38784 5.31119 4.84414 7.70979C0.817913 14.6486 0.903577 24.1573 2.61686 29.9825C2.70253 30.1538 2.70253 30.3252 2.78819 30.4965C3.04518 31.0962 4.33015 34.2657 6.72875 34.2657C7.41407 34.2657 9.29868 33.9231 10.5836 30.6678C10.755 30.1538 10.9263 29.7255 11.012 29.2115C11.1833 28.5262 11.3546 27.8409 11.4403 27.1556C11.526 26.4703 11.6116 25.6993 11.6973 24.9283C11.9543 22.1014 11.6973 18.8462 11.0976 15.4196C10.755 13.535 10.3267 11.6503 9.81267 9.68007C9.64134 9.08042 9.47001 8.48077 9.29868 7.88112C9.29868 7.88112 10.0697 6.59615 11.012 5.65385C12.0399 4.54021 13.4962 3.94056 15.1239 3.94056C18.0364 3.94056 20.435 6.08217 20.435 8.73776C20.435 11.3934 18.0364 13.535 15.1239 13.535L13.7532 13.6206L14.0102 17.6469L17.4368 17.4755C21.3773 17.4755 24.6326 20.3024 24.6326 23.729C24.6326 27.1556 21.3773 29.9825 17.4368 29.9825C16.2375 29.9825 14.6099 29.6399 13.4962 29.1259L12.1256 32.8951C13.6676 33.6661 15.6378 34.0087 17.3511 34.0087C23.4333 34.0087 28.4018 29.3829 28.4018 23.729C28.4875 19.7028 25.8319 16.1906 22.0627 14.4773ZM7.3284 28.7832L6.98574 30.1538C6.98574 30.3252 6.81442 30.4108 6.72875 30.4108C6.55742 30.4108 6.47176 30.3252 6.47176 30.1538L6.04344 28.7832C5.35812 25.6993 4.9298 20.3024 6.04344 15.5909L6.72875 12.3357C6.72875 12.4213 6.81441 12.507 6.81441 12.6783L7.3284 15.5909C8.27071 20.4738 8.27071 25.528 7.3284 28.7832Z" fill="#1D1916"/>
<path d="M119.292 12.9353C118.178 12.9353 117.15 13.1066 116.293 13.4493C116.293 12.6783 116.293 11.9073 116.293 11.3077C116.293 8.73776 116.122 7.4528 115.694 5.13986C115.608 4.62587 115.523 4.02622 115.351 3.51224C114.923 1.45629 113.381 0 111.582 0C110.211 0 109.012 0.856643 108.241 2.14161C108.241 2.22727 108.155 2.31294 108.155 2.3986C108.07 2.56993 107.984 2.82692 107.898 3.08392C107.127 5.48252 106.956 9.33741 106.956 9.33741C106.956 9.93706 106.87 10.6224 106.87 11.3934C106.87 11.993 106.87 12.5927 106.87 13.278C106.956 15.5909 107.127 18.3322 107.384 20.2168C107.556 21.5017 107.898 22.701 108.155 23.9003C108.327 24.5 108.498 25.1853 108.755 25.785C108.841 26.042 108.926 26.2989 109.098 26.6416C109.269 26.9843 109.44 27.3269 109.612 27.6696C108.926 28.7832 107.813 29.4685 106.528 29.4685C104.472 29.4685 102.844 27.4982 102.844 25.3566V24.3287V13.021H99.075V15.9336C97.533 14.049 95.3057 13.021 92.6501 13.021C87.5103 13.021 83.2271 17.5612 83.2271 23.1294C83.2271 28.6975 87.4246 33.2378 92.6501 33.2378C93.9351 33.2378 95.0487 32.9808 96.0767 32.5524C96.0767 32.5524 98.304 31.8671 100.274 29.1259C101.474 31.5245 103.872 33.4091 106.613 33.4091C108.755 33.4091 110.64 32.3811 112.01 30.8392L112.096 30.7535C113.552 32.0385 115.865 33.2378 119.12 33.2378C119.634 33.2378 120.148 33.2378 120.748 33.1521C122.718 32.8094 124.603 31.7815 126.059 30.2395C127.858 28.3549 128.8 25.785 128.8 23.0437C128.8 20.3024 127.858 17.7325 126.059 15.8479C124.175 13.9633 121.776 12.9353 119.292 12.9353ZM93.0784 29.3829C89.6519 29.3829 87.0819 26.7273 87.0819 23.1294C87.0819 19.5315 89.6519 16.8759 93.0784 16.8759C96.505 16.8759 99.075 19.5315 99.075 23.1294C99.075 26.7273 96.505 29.3829 93.0784 29.3829ZM111.582 22.3584C110.126 14.3059 110.811 8.13811 111.154 5.65385C111.239 5.22552 111.325 4.88287 111.411 4.45455C111.496 4.28322 111.496 4.11189 111.582 4.02622C111.582 4.02622 113.638 10.1941 111.582 22.3584ZM118.863 29.3829C116.807 29.3829 115.009 28.3549 113.895 26.8129C114.066 26.4703 114.152 26.1276 114.323 25.785C114.495 25.1853 114.752 24.5857 114.923 23.9003C115.266 22.701 115.523 21.4161 115.694 20.2168C115.779 19.4458 115.951 18.5035 116.036 17.5612C116.893 17.1329 117.835 16.8759 118.863 16.8759C122.29 16.8759 124.86 19.6171 124.86 23.1294C124.86 26.6416 122.29 29.3829 118.863 29.3829Z" fill="#1D1916"/>
</svg>
