<svg width="127" height="36" viewBox="0 0 127 36" fill="none" xmlns="http://www.w3.org/2000/svg">
<path d="M89.8358 16.8835C89.7961 16.8427 89.7564 16.8427 89.7168 16.8018C89.5184 16.6791 89.32 16.5156 89.0422 16.5156C88.6057 16.5156 87.8915 16.8427 86.9392 18.4369V17.8237C86.9392 17.415 86.9789 16.7609 86.9789 16.7609V16.72C86.9789 16.6383 86.9789 16.5974 86.9392 16.5565C86.8995 16.5156 86.8201 16.5565 86.7011 16.5974C86.1059 16.8835 84.6378 17.1697 83.7648 17.1697C83.6458 17.1697 83.6061 17.2514 83.5664 17.3332C83.5664 17.415 83.6061 17.4967 83.7251 17.4967C84.5584 17.5785 84.9552 17.6602 84.9552 19.8677V22.811C84.9552 23.0154 84.9552 23.1789 84.9552 23.3833C84.9552 24.16 84.9552 24.5688 84.7568 24.8549C84.5584 25.0593 84.1219 25.1819 83.8838 25.1819C83.7251 25.1819 83.6458 25.2637 83.6458 25.3455C83.6458 25.3863 83.6854 25.4272 83.7251 25.4681C83.7648 25.509 83.8045 25.509 83.8838 25.509H88.1296C88.2883 25.509 88.3676 25.4272 88.3676 25.3455C88.3676 25.2637 88.2883 25.1819 88.1296 25.1819C87.8915 25.1819 87.455 25.0184 87.2566 24.8549C86.9392 24.5279 86.9392 24.0373 86.9392 23.138V19.1319C87.6931 18.1508 88.2089 17.7011 89.7564 18.9275L89.7961 18.9684L90.55 17.1697H90.4707C90.2326 17.1288 90.0342 17.0471 89.8358 16.8835Z" fill="#1D1916"/>
<path d="M48.0919 10.2202C48.0125 10.2202 47.9332 10.2611 47.9332 10.3837C47.7348 10.956 47.0602 11.4875 45.8302 11.0787C42.6161 10.0158 40.2353 10.5472 38.0133 12.8365C35.9896 14.8804 35.4738 18.1916 36.0293 20.2355C36.8229 23.2197 38.6085 24.9775 41.4654 25.5498C42.1399 25.6724 42.7748 25.7542 43.37 25.7542C45.235 25.7542 46.7031 25.1001 47.8538 23.7511V23.7102V23.6694C47.8141 23.5058 47.8141 23.3015 47.8141 23.1379V23.0153L47.7348 23.0971C46.3857 24.2417 44.9969 24.7322 43.251 24.6505C41.3464 24.5687 39.9972 23.6285 38.9656 21.7072C37.8545 19.5815 37.8545 16.3112 38.9259 14.1855C39.8385 12.4277 41.2273 11.4466 43.0129 11.3239C43.9255 11.2422 45.9095 11.4875 47.1396 13.0817C47.338 13.3679 47.7745 14.0628 47.8935 14.2263C47.9332 14.3081 48.0125 14.349 48.0919 14.349C48.1316 14.349 48.1713 14.2672 48.1713 14.2263V10.3837C48.2109 10.302 48.1713 10.2611 48.0919 10.2202Z" fill="#1D1916"/>
<path fill-rule="evenodd" clip-rule="evenodd" d="M56.7021 24.1191C56.7418 24.0373 56.8608 23.9965 56.9005 24.0373C56.9798 24.0373 57.0195 24.1191 56.9798 24.2009C56.7814 24.9367 56.4243 25.6725 55.4323 25.6725C54.5991 25.6725 53.9642 25.2228 53.6467 24.4461C52.5357 25.3455 51.8612 25.8769 50.7105 25.6316C49.8375 25.4681 49.2026 25.0593 48.8455 24.3644C48.6074 23.8329 48.4884 23.0562 48.7662 22.3613C49.1233 21.4211 50.1549 21.1349 50.9089 20.9305C51.0676 20.8897 51.2263 20.8488 51.3453 20.8079L53.4483 20.113C53.4483 19.1728 53.2103 18.4778 52.7341 18.1099C52.0992 17.6602 51.1072 17.6602 50.4327 18.1099C49.9387 18.4231 49.6994 18.8113 49.4361 19.2386C49.4244 19.2574 49.4128 19.2764 49.401 19.2954C49.3812 19.3363 49.3514 19.3771 49.3217 19.418C49.2919 19.4589 49.2621 19.4998 49.2423 19.5407C49.1747 19.6799 49.1071 19.6709 49.0641 19.6652C49.0566 19.6642 49.0498 19.6633 49.0439 19.6633C48.9645 19.6633 48.9645 19.5815 48.9645 19.4589C49.0439 18.6004 49.7185 17.1697 51.0676 16.6791C52.0992 16.3521 53.2896 16.5156 54.1229 17.1697C55.353 18.069 55.353 19.3363 55.353 20.5626V23.2198V23.465C55.353 24.0373 55.353 24.487 55.7101 24.6505C55.8688 24.7323 56.0275 24.7323 56.1862 24.6505C56.464 24.5279 56.6624 24.2417 56.7021 24.1191ZM50.5518 23.2197C50.5915 23.7511 50.9089 24.2825 51.3454 24.5278C51.7819 24.7731 52.8135 24.7322 53.4484 23.7102V20.8896C53.3497 20.9277 53.151 20.9857 52.9099 21.056C52.376 21.2118 51.6337 21.4283 51.3057 21.6254C50.5915 22.0751 50.5121 22.6474 50.5518 23.2197Z" fill="#1D1916"/>
<path d="M73.5671 25.182C73.329 25.182 72.8925 25.0185 72.6544 24.8549C72.3767 24.6097 72.3767 24.2418 72.3767 23.5877C72.3767 23.3833 72.3767 23.138 72.337 22.8519V20.9714C72.337 19.3772 72.0989 17.415 70.3133 16.7609C68.9246 16.2295 66.9803 16.72 66.0279 18.5596C65.6708 17.8238 65.274 17.1288 64.4011 16.8018C62.8536 16.1886 61.0283 16.8018 60.195 18.1917V17.8647C60.195 17.4559 60.2347 16.8018 60.2347 16.8018V16.7609C60.2347 16.6792 60.2347 16.6383 60.195 16.5974C60.1554 16.5565 60.076 16.5974 59.957 16.6383C59.4014 16.9244 57.8936 17.2106 57.0207 17.2106C56.9016 17.2106 56.8619 17.2923 56.8223 17.3741C56.8223 17.4559 56.8619 17.5376 56.981 17.5376C57.8143 17.6194 58.2111 17.7011 58.2111 19.9086V22.8519C58.2111 23.0563 58.2111 23.2198 58.2111 23.3833C58.2111 24.2009 58.2111 24.6097 57.973 24.8549C57.7746 25.0593 57.3381 25.182 57.1 25.182C56.9413 25.182 56.8619 25.2637 56.8619 25.3455C56.8619 25.4272 56.9413 25.509 57.1 25.509H61.3457C61.4251 25.509 61.4648 25.509 61.5045 25.4681C61.5441 25.4272 61.5838 25.3864 61.5838 25.3455C61.5838 25.2637 61.5045 25.182 61.3457 25.182C61.1077 25.182 60.6712 25.0185 60.4728 24.8549C60.1554 24.5688 60.1554 24.1191 60.1554 23.2607C60.1554 23.138 60.1554 23.0154 60.1554 22.8519V19.1319C60.7505 18.1099 61.9013 17.2106 63.2504 17.9464C64.282 18.5187 64.2424 19.9495 64.2424 21.0941C64.2424 21.2167 64.2424 21.3394 64.2424 21.462V22.8519C64.2424 23.0971 64.2424 23.3015 64.2424 23.4651C64.2424 24.2009 64.2424 24.6097 64.0043 24.8549C63.8059 25.0593 63.3694 25.182 63.1313 25.182C62.9726 25.182 62.8933 25.2637 62.8933 25.3455C62.8933 25.3864 62.9329 25.4272 62.9726 25.4681C63.0123 25.509 63.052 25.509 63.1313 25.509H67.377C67.4564 25.509 67.4961 25.509 67.5358 25.4681C67.5754 25.4272 67.6151 25.3864 67.6151 25.3455C67.6151 25.2637 67.5358 25.182 67.377 25.182C67.139 25.182 66.7025 25.0185 66.5041 24.8549C66.1867 24.5688 66.1867 24.1191 66.1867 23.2607C66.1867 23.138 66.1867 23.0154 66.1867 22.8519V19.091C66.4247 18.6822 67.4961 17.0062 69.2817 17.9464C70.2737 18.5187 70.2737 19.9495 70.2737 21.0941C70.2737 21.2167 70.2737 21.3394 70.2737 21.462V22.8519C70.2737 23.0971 70.2737 23.3424 70.2737 23.5468C70.2737 24.2418 70.2737 24.6097 70.0356 24.8549C69.8372 25.0593 69.4007 25.182 69.1626 25.182C69.0436 25.182 68.9642 25.2637 68.9642 25.3455C68.9642 25.3864 69.0039 25.4272 69.0436 25.4681C69.0833 25.509 69.123 25.509 69.2023 25.509H73.4877C73.5671 25.509 73.6068 25.509 73.6464 25.4681C73.6861 25.4272 73.7258 25.3864 73.7258 25.3455C73.8051 25.2637 73.7258 25.182 73.5671 25.182Z" fill="#1D1916"/>
<path fill-rule="evenodd" clip-rule="evenodd" d="M76.6218 17.7825C77.6535 16.7197 78.8439 16.3109 80.0739 16.597C81.423 16.8832 82.5341 17.946 83.0499 19.295C83.526 20.6032 83.2483 22.5245 82.4944 23.5873C81.2643 25.3042 79.32 25.713 77.7328 25.713H77.1773H76.8202C76.7459 25.7071 76.6717 25.7021 76.5955 25.6969C76.1427 25.6662 75.6229 25.631 74.6378 25.386H74.5981V25.3451C74.5981 25.3451 74.6378 24.364 74.6378 23.8735V13.2041C74.6378 11.0059 74.2837 10.9561 73.4187 10.8347C73.415 10.8341 73.4114 10.8336 73.4077 10.8331C73.3613 10.8331 73.342 10.8191 73.326 10.8075C73.3148 10.7993 73.3051 10.7922 73.2887 10.7922C73.249 10.7514 73.249 10.7105 73.249 10.6696C73.249 10.5878 73.3284 10.5061 73.4474 10.5061C74.3204 10.5061 75.8282 10.2199 76.3837 9.93379C76.4048 9.92655 76.4246 9.91931 76.4432 9.91252C76.5296 9.88099 76.5891 9.85927 76.6218 9.89291C76.6615 9.93379 76.6615 10.0155 76.6615 10.0973V10.1382C76.6615 10.1471 76.6596 10.1752 76.6567 10.2193C76.6461 10.3782 76.6218 10.7441 76.6218 11.1602V17.7825ZM79.7567 17.9056C79.0425 17.4559 77.614 17.2924 76.622 18.7641H76.5823V23.6695C76.5823 24.2418 76.7807 24.6506 77.1775 24.8959C77.8521 25.2638 78.8044 25.0594 79.2806 24.8141C80.5106 24.1192 81.1852 22.9746 81.2645 21.3803C81.3042 20.1948 80.9471 18.6414 79.7567 17.9056Z" fill="#1D1916"/>
<path d="M93.0891 15.1259C93.8033 15.1259 94.3985 14.5536 94.3985 13.8178C94.3985 13.0819 93.843 12.4688 93.1288 12.4688C92.4145 12.4688 91.8193 13.0411 91.8193 13.7769C91.8193 14.5127 92.4145 15.1259 93.0891 15.1259Z" fill="#1D1916"/>
<path d="M95.5085 25.1814C95.2704 25.1814 94.8339 25.0179 94.6355 24.8544C94.3181 24.5683 94.3181 24.1186 94.3181 23.2601C94.3181 23.1375 94.3181 23.0149 94.3181 22.8513V17.8232C94.3181 17.4145 94.3578 16.7604 94.3578 16.7604V16.7195C94.3578 16.6378 94.3578 16.5969 94.3181 16.556C94.2784 16.5151 94.199 16.556 94.08 16.5969C93.5245 16.883 92.0167 17.1692 91.1437 17.1692C91.0247 17.1692 90.9453 17.2509 90.9453 17.3327C90.9453 17.4145 90.985 17.4962 91.104 17.5371C91.9373 17.6188 92.3341 17.7006 92.3341 19.9081V22.8513C92.3341 23.0557 92.3341 23.2193 92.3341 23.3828C92.3341 24.2003 92.3341 24.6091 92.096 24.8544C91.8976 25.0588 91.4611 25.1814 91.2231 25.1814C91.0644 25.1814 90.985 25.2632 90.985 25.345C90.985 25.3858 91.0247 25.4267 91.0644 25.4676C91.104 25.5085 91.1437 25.5085 91.2231 25.5085H95.4688C95.5481 25.5085 95.5878 25.5085 95.6275 25.4676C95.6672 25.4267 95.7069 25.3858 95.7069 25.345C95.7465 25.2632 95.6672 25.1814 95.5085 25.1814Z" fill="#1D1916"/>
<path fill-rule="evenodd" clip-rule="evenodd" d="M106.024 25.1816C106.183 25.1816 106.262 25.2634 106.262 25.3451C106.262 25.4269 106.183 25.5086 106.024 25.4678H101.937C100.429 25.4678 98.0882 25.4678 96.6994 23.4238C95.9455 22.361 95.7471 20.6849 96.263 19.295C96.7788 17.9052 98.2469 16.8014 99.358 16.5562C100.35 16.3518 102.096 16.597 102.85 18.0278V13.2041C102.85 11.0059 102.496 10.9561 101.631 10.8347L101.62 10.8331C101.573 10.8331 101.554 10.8191 101.538 10.8075C101.527 10.7993 101.517 10.7922 101.501 10.7922C101.461 10.7514 101.461 10.7105 101.461 10.6696C101.461 10.5878 101.54 10.5061 101.659 10.5061C102.532 10.5061 104 10.2199 104.596 9.93379C104.617 9.92655 104.637 9.91931 104.655 9.91252C104.742 9.88099 104.801 9.85927 104.834 9.89291C104.873 9.93379 104.873 10.0155 104.873 10.0973V10.1382C104.873 10.1471 104.872 10.1752 104.869 10.2193C104.858 10.3782 104.834 10.7441 104.834 11.1602V23.1377C104.834 24.037 104.834 24.5275 105.151 24.8546C105.35 25.0181 105.786 25.1816 106.024 25.1816ZM99.8741 17.1698C98.6044 17.5377 98.0885 19.0094 98.0092 20.3175C97.9695 21.1351 98.0092 23.2199 99.7551 24.528C100.43 24.9777 101.66 25.1003 102.334 24.7324C102.572 24.6098 102.85 24.3645 102.85 23.9557V19.0503C102.612 18.2327 101.541 16.6793 99.8741 17.1698Z" fill="#1D1916"/>
<path fill-rule="evenodd" clip-rule="evenodd" d="M112.095 16.8014C110.548 16.27 108.881 16.6379 107.651 17.7417C106.818 18.5184 106.461 19.4586 106.659 20.4805C106.858 21.8295 108.604 23.015 109.04 23.3012C108.762 23.4238 108.127 23.71 107.889 23.8326C107.135 24.2823 106.818 24.7319 106.818 25.3451C106.818 26.2006 107.967 26.9821 108.386 27.2674L108.445 27.3073L108.399 27.3259C107.954 27.5086 106.684 28.0296 106.262 28.7789C105.945 29.2695 105.905 29.8418 106.104 30.3732C106.778 31.804 108.405 32.131 109.318 32.2128C109.556 32.2536 109.834 32.2536 110.111 32.2536C111.579 32.2536 113.683 31.8857 114.794 30.4141C115.23 29.8418 115.428 28.8607 115.23 28.2475C114.873 27.2255 113.603 26.4897 111.619 26.0809L110.627 25.8765H110.587C109.159 25.5495 108.723 25.2225 108.604 24.9772C108.524 24.8137 108.524 24.6911 108.643 24.4458C109.04 23.71 110.23 23.5056 111.262 23.3421C112.254 23.1785 113.603 22.7289 114.198 21.1755C114.635 20.0309 114.238 18.5184 113.444 17.946H115.468V17.0467H113.841C113.127 17.0467 112.691 17.0058 112.095 16.8014ZM107.969 28.2882C108.127 28.0838 108.365 27.9203 108.643 27.7977C109.556 27.348 112.254 28.0838 113.127 28.6561C113.643 28.9832 113.921 29.3102 113.921 29.7599C113.96 30.1278 113.722 30.4957 113.325 30.7818C112.413 31.4359 110.31 31.4359 109.397 31.1089C109.04 30.9862 107.85 30.4548 107.651 29.5146C107.572 29.024 107.651 28.6152 107.969 28.2882ZM110.072 22.8106C110.627 22.9741 111.143 22.8106 111.619 22.3201C112.452 21.5025 112.413 19.8673 112.333 19.0906C112.214 18.4775 111.937 17.4146 111.064 17.0058C110.905 16.9241 110.746 16.8832 110.548 16.8832C110.23 16.8832 109.913 17.0058 109.715 17.1285C109.476 17.2511 109.238 17.5372 109.04 17.8234C108.365 18.7636 108.445 20.5623 108.802 21.4616C109.04 22.1566 109.556 22.688 110.072 22.8106Z" fill="#1D1916"/>
<path fill-rule="evenodd" clip-rule="evenodd" d="M122.927 23.8736C123.483 23.4239 123.761 22.8925 123.761 22.8925V24.0371C122.808 25.2635 121.301 25.7949 119.912 25.7949C119.277 25.7949 118.642 25.6723 118.126 25.4679C116.777 24.9365 115.864 23.8327 115.547 22.402C115.309 21.3391 115.507 19.2543 116.579 18.0279C117.69 16.8016 119.317 16.4337 120.467 16.5972C120.983 16.6789 122.61 17.006 123.404 18.682C123.681 19.2543 123.721 19.5813 123.721 20.3989V20.4398H117.333C117.333 22.2385 117.69 23.4648 119.356 24.405C120.19 24.8956 121.777 24.8138 122.927 23.8736ZM119.237 17.2103C118.205 17.4965 117.412 18.5593 117.372 19.7448H121.895C121.895 19.009 121.578 18.2732 121.102 17.7826C120.586 17.2103 119.951 17.0468 119.237 17.2103Z" fill="#1D1916"/>
<rect width="31.5056" height="31.7629" fill="#1D1916"/>
<rect y="31.5586" width="31.5056" height="3.80173" fill="#1D1916"/>
<path d="M11.3875 22.5245C11.1891 22.7697 10.9907 22.9741 10.9114 23.0559C10.0781 23.9143 8.76866 24.2005 7.89571 23.9552C6.46724 23.5873 5.71333 22.688 5.23717 21.2981C4.84038 20.0717 4.8007 18.2322 5.83237 16.8832C6.58628 15.943 7.45923 15.6568 8.25283 15.7386C10.0384 15.943 11.3875 19.0906 11.3875 18.4366V15.1663C11.3875 15.0845 11.4272 14.8392 11.2288 15.0028C10.9114 15.3298 9.84001 15.4524 8.84802 15.248C7.45923 14.921 5.55461 15.4115 4.24518 16.8423C2.89608 18.3139 2.658 19.8673 3.09447 21.5434C3.57063 23.3012 4.8007 24.3231 6.46724 24.8137C8.17347 25.3042 9.99873 24.6502 11.7446 23.0968C11.6256 22.9741 11.5066 22.7697 11.3875 22.5245Z" fill="#FCFAF8"/>
<path fill-rule="evenodd" clip-rule="evenodd" d="M18.0145 8.46182C17.8161 8.46182 17.8161 8.66621 17.9748 8.66621C18.9668 8.82973 19.3636 8.95237 19.4033 11.3233V22.9738C19.4033 23.5052 19.3636 24.5681 19.3636 24.5681C20.6561 24.8754 21.2012 24.8975 21.7619 24.9203C21.8725 24.9247 21.9838 24.9293 22.1015 24.936C23.7681 25.0586 26.3076 24.7725 27.7757 22.6877C28.609 21.5022 28.8471 19.4582 28.3709 18.1092C27.7757 16.4741 26.5456 15.4112 25.1569 15.1251C23.9268 14.8389 22.5777 15.166 21.3873 16.4741V9.11588C21.3873 8.5027 21.427 8.01215 21.427 8.01215C21.427 7.9841 21.4277 7.95836 21.4284 7.93514C21.4326 7.78917 21.434 7.74283 21.2286 7.84864C20.5937 8.13479 18.9272 8.46182 18.0145 8.46182ZM26.5457 20.1943C26.4664 21.6659 25.9109 23.0966 24.3634 23.9551C23.4904 24.4457 21.3477 24.65 21.3874 22.6879V17.3327C22.4984 15.6158 24.165 15.902 24.8792 16.3516C26.1489 17.1692 26.5854 18.8452 26.5457 20.1943Z" fill="#FCFAF8"/>
<path d="M17.5779 21.175C17.5779 21.3794 17.4589 21.2567 17.4192 21.175C16.824 20.1121 16.5066 19.3354 15.2765 19.131C14.8797 19.0493 14.3242 19.131 13.9671 19.5398C13.6497 19.8669 13.4909 20.2756 13.5703 20.6436C13.729 21.4203 14.4829 21.7473 15.3559 22.1561L15.6733 22.3196C17.2605 23.0963 18.1731 23.6277 18.3318 25.3037C18.4112 25.9578 18.1731 27.1842 17.2605 27.8382C16.0304 28.7376 15.4352 28.4105 13.5703 28.0426C13.2529 27.9609 12.618 27.8791 12.4196 28.4514C12.3799 28.5741 12.2212 28.7376 12.2212 28.4514V25.222C12.2212 25.0585 12.3799 25.1402 12.4196 25.222C13.0148 26.7345 13.61 27.6338 14.84 27.8791C15.3162 28.0426 15.9907 27.92 16.4272 27.4703C16.824 27.0615 16.9431 26.5301 16.8637 26.1213C16.705 25.2629 15.832 24.7314 14.9194 24.2409L14.5623 24.0774C13.0148 23.3007 12.3799 22.8919 12.1815 21.4611C12.1021 20.8888 12.3402 19.7851 13.0941 19.131C14.0464 18.3543 14.9194 18.477 16.4669 18.8449C16.705 18.9266 16.9431 18.9266 17.1018 18.9266C17.2208 18.8858 17.4192 18.7223 17.4589 18.5179C17.4986 18.3543 17.6573 18.3543 17.6176 18.5587V21.175H17.5779Z" fill="#FCFAF8"/>
<path d="M37.5371 34.5027L38.0529 33.8895C38.4101 34.1756 38.7672 34.38 39.2037 34.38C39.5608 34.38 39.7592 34.2165 39.7592 34.0121C39.7592 33.8077 39.6401 33.6851 38.9656 33.5216C38.172 33.3172 37.6958 33.0719 37.6958 32.2952C37.6958 31.5594 38.2513 31.0688 39.0449 31.0688C39.6005 31.0688 40.0766 31.2324 40.4734 31.5594L40.0369 32.2135C39.6798 31.9682 39.3624 31.8047 39.0449 31.8047C38.7275 31.8047 38.5291 31.9682 38.5291 32.1726C38.5291 32.4179 38.6878 32.5405 39.3624 32.704C40.156 32.9084 40.5924 33.1945 40.5924 33.8895C40.5924 34.6662 39.9972 35.1159 39.164 35.1159C38.6085 35.1567 38.0133 34.9523 37.5371 34.5027Z" fill="#1D1916"/>
<path fill-rule="evenodd" clip-rule="evenodd" d="M45.3146 31.0679H44.521L42.8545 35.1149H43.7274L44.0846 34.2155H45.7114L46.0685 35.1149H46.9812L45.3146 31.0679ZM44.9177 32.09L45.4336 33.3981H44.4019L44.9177 32.09Z" fill="#1D1916"/>
<path d="M48.7666 31.0679H49.7189L50.7506 33.8885L51.7823 31.0679H52.6949L51.1077 35.1149H50.3538L48.7666 31.0679Z" fill="#1D1916"/>
<path d="M55.1943 31.0679H56.0673V35.074H55.1943V31.0679Z" fill="#1D1916"/>
<path d="M58.9639 31.0679H59.7575L61.5827 33.5206V31.0679H62.416V35.074H61.7018L59.8368 32.5395V35.074H59.0035V31.0679H58.9639Z" fill="#1D1916"/>
<path d="M65.1543 33.1122C65.1543 31.9676 66.0272 31.0273 67.178 31.0273C67.8922 31.0273 68.289 31.2317 68.7255 31.5588L68.1699 32.2128C67.8525 31.9676 67.6144 31.804 67.1383 31.804C66.5034 31.804 66.0272 32.3763 66.0272 33.0713C66.0272 33.8071 66.5034 34.3385 67.2176 34.3385C67.5351 34.3385 67.8128 34.2568 68.0112 34.0933V33.521H67.1383V32.7443H68.8445V34.502C68.4477 34.87 67.8922 35.1561 67.178 35.1561C65.9876 35.1561 65.1543 34.2977 65.1543 33.1122Z" fill="#1D1916"/>
<path d="M71.3438 34.5017L71.8596 33.8885C72.2167 34.1747 72.5738 34.3791 73.0103 34.3791C73.3674 34.3791 73.5658 34.2155 73.5658 34.0112C73.5658 33.8068 73.4468 33.6841 72.7722 33.5206C71.9786 33.3162 71.5025 33.0709 71.5025 32.2942C71.5025 31.5584 72.058 31.0679 72.8516 31.0679C73.4071 31.0679 73.8832 31.2314 74.28 31.5584L73.8436 32.2125C73.4864 31.9672 73.169 31.8037 72.8516 31.8037C72.5341 31.8037 72.3357 31.9672 72.3357 32.1716C72.3357 32.4169 72.4945 32.5395 73.169 32.703C73.9626 32.9074 74.3991 33.1936 74.3991 33.8885C74.3991 34.6652 73.8039 35.1149 72.9706 35.1149C72.3754 35.1558 71.7802 34.9514 71.3438 34.5017Z" fill="#1D1916"/>
<path fill-rule="evenodd" clip-rule="evenodd" d="M80.6689 31.0679H82.4942C82.9307 31.0679 83.2878 31.1905 83.5259 31.4358C83.6846 31.5993 83.8036 31.8446 83.8036 32.1307C83.8036 32.5804 83.5656 32.8257 83.2878 32.9892C83.7243 33.1527 84.002 33.4388 84.002 33.9703C84.002 34.7061 83.4068 35.074 82.5339 35.074H80.6689V31.0679ZM82.2565 32.7031C82.6533 32.7031 82.8914 32.5804 82.8914 32.2943C82.8914 32.049 82.693 31.8855 82.3359 31.8855H81.5026V32.7031H82.2565ZM83.0895 33.8478C83.0895 34.1748 82.8911 34.2975 82.4943 34.2975H81.4627V33.3981H82.4547C82.8911 33.3981 83.0895 33.5616 83.0895 33.8478Z" fill="#1D1916"/>
<path fill-rule="evenodd" clip-rule="evenodd" d="M88.6437 31.0679H87.8501L86.1836 35.1149H87.0565L87.4137 34.2155H89.0405L89.3976 35.1149H90.3103L88.6437 31.0679ZM88.2468 32.09L88.7627 33.3981H87.731L88.2468 32.09Z" fill="#1D1916"/>
<path d="M92.8105 31.0679H93.6041L95.4294 33.5206V31.0679H96.2627V35.074H95.5484L93.6835 32.5395V35.074H92.8502V31.0679H92.8105Z" fill="#1D1916"/>
<path d="M99.1992 31.0679H100.072V32.8257L101.659 31.0679H102.691L101.104 32.7848L102.77 35.074H101.739L100.548 33.3571L100.112 33.8476V35.074H99.1992V31.0679Z" fill="#1D1916"/>
<path fill-rule="evenodd" clip-rule="evenodd" d="M125.399 16.3606H125.786C125.869 16.3606 125.933 16.3521 125.98 16.3346C126.026 16.3171 126.062 16.2891 126.086 16.2505C126.11 16.2119 126.122 16.17 126.122 16.1249C126.122 16.0586 126.099 16.0046 126.052 15.9619C126.005 15.9192 125.931 15.8977 125.83 15.8977H125.399V16.3606ZM125.219 17.1417V15.7432H125.822C125.944 15.7432 126.036 15.7558 126.1 15.781C126.163 15.8062 126.214 15.8505 126.251 15.9139C126.289 15.9777 126.308 16.048 126.308 16.1248C126.308 16.224 126.277 16.3077 126.214 16.376C126.151 16.4439 126.054 16.4874 125.924 16.5056C125.972 16.5292 126.008 16.5524 126.033 16.5751C126.085 16.6247 126.135 16.6869 126.182 16.7613L126.419 17.1417H126.193L126.012 16.8511C125.959 16.767 125.916 16.7028 125.882 16.6581C125.848 16.6138 125.818 16.5825 125.79 16.5646C125.764 16.5467 125.737 16.5345 125.708 16.5276C125.688 16.5231 125.655 16.5211 125.608 16.5211H125.399V17.1417H125.219Z" fill="white"/>
<path fill-rule="evenodd" clip-rule="evenodd" d="M125.725 15.3344C125.13 15.3344 124.645 15.8319 124.645 16.4428C124.645 17.0536 125.13 17.5511 125.725 17.5511C126.321 17.5511 126.805 17.0536 126.805 16.4428C126.805 15.8319 126.321 15.3344 125.725 15.3344ZM125.725 17.751C125.022 17.751 124.451 17.1641 124.451 16.4427C124.451 15.7213 125.022 15.1348 125.725 15.1348C126.428 15.1348 127 15.7213 127 16.4427C127 17.1641 126.428 17.751 125.725 17.751Z" fill="white"/>
</svg>
