<svg width="142" height="33" viewBox="0 0 142 33" fill="none" xmlns="http://www.w3.org/2000/svg">
<g clip-path="url(#clip0)">
<path d="M141.639 30.9441H141.568V30.9595C141.568 31.0057 141.562 31.0427 141.549 31.0704C141.537 31.0951 141.522 31.1105 141.5 31.1105C141.482 31.1105 141.466 31.1013 141.457 31.0858C141.448 31.0704 141.445 31.0427 141.445 31.0026C141.445 30.9132 141.42 30.8423 141.374 30.7869C141.328 30.7345 141.254 30.6975 141.158 30.6759C141.281 30.6543 141.371 30.6235 141.423 30.5834C141.479 30.5433 141.503 30.4848 141.503 30.4139C141.503 30.3399 141.466 30.2783 141.389 30.232C141.315 30.1858 141.214 30.1611 141.09 30.1611H140.579V30.232C140.628 30.2382 140.662 30.2505 140.678 30.2659C140.693 30.2813 140.702 30.3091 140.702 30.3492V31.0057C140.702 31.0427 140.693 31.0704 140.678 31.0889C140.662 31.1074 140.628 31.1136 140.579 31.1198V31.1906H141.078V31.1198C141.035 31.1136 141.004 31.1013 140.989 31.0858C140.973 31.0704 140.964 31.0458 140.964 31.0088V30.7036H140.986C141.041 30.7036 141.081 30.719 141.112 30.7499C141.14 30.7807 141.161 30.8331 141.171 30.904C141.174 30.9225 141.174 30.9502 141.177 30.9872C141.18 31.0674 141.195 31.1228 141.223 31.1537C141.238 31.1722 141.263 31.1876 141.291 31.1999C141.318 31.2122 141.355 31.2153 141.392 31.2153C141.472 31.2153 141.531 31.1968 141.571 31.1598C141.611 31.1228 141.63 31.0674 141.63 30.9903C141.63 30.9872 141.63 30.981 141.626 30.9749C141.639 30.9533 141.639 30.9471 141.639 30.9441ZM141.026 30.6266C141.013 30.6266 141.004 30.6266 140.998 30.6266C140.992 30.6266 140.986 30.6266 140.977 30.6235V30.306C140.977 30.2783 140.986 30.2598 140.998 30.2474C141.013 30.2351 141.035 30.2289 141.066 30.2289C141.115 30.2289 141.158 30.2474 141.189 30.2813C141.22 30.3153 141.238 30.3584 141.238 30.4108C141.238 30.4848 141.22 30.5372 141.186 30.5742C141.149 30.6081 141.097 30.6266 141.026 30.6266Z" fill="#1D1916"/>
<path d="M141.931 30.3405C141.885 30.2265 141.823 30.1248 141.74 30.0385C141.651 29.9491 141.549 29.8782 141.432 29.8289C141.315 29.7795 141.192 29.7549 141.066 29.7549C140.939 29.7549 140.819 29.7795 140.705 29.8258C140.591 29.872 140.489 29.9429 140.4 30.0292C140.311 30.1155 140.246 30.2172 140.197 30.3313C140.151 30.4453 140.126 30.5625 140.126 30.6858C140.126 30.843 140.163 30.9909 140.237 31.1265C140.311 31.2622 140.412 31.3762 140.548 31.4625C140.625 31.5118 140.711 31.5519 140.798 31.5766C140.884 31.6043 140.973 31.6166 141.066 31.6166C141.186 31.6166 141.3 31.5951 141.408 31.5519C141.515 31.5088 141.614 31.4471 141.7 31.3639C141.796 31.2745 141.87 31.1728 141.922 31.0556C141.974 30.9385 142.002 30.8214 142.002 30.7043C141.999 30.5779 141.977 30.4546 141.931 30.3405ZM141.793 30.9848C141.753 31.0834 141.694 31.1697 141.62 31.2468C141.546 31.3207 141.46 31.3793 141.367 31.4163C141.272 31.4564 141.17 31.4749 141.066 31.4749C140.961 31.4749 140.859 31.4564 140.764 31.4163C140.671 31.3762 140.582 31.3207 140.505 31.2437C140.428 31.1697 140.372 31.0834 140.332 30.9878C140.292 30.8923 140.274 30.7906 140.274 30.6827C140.274 30.5779 140.292 30.4762 140.332 30.3806C140.372 30.2851 140.428 30.1987 140.502 30.1248C140.573 30.0508 140.659 29.9922 140.758 29.9522C140.856 29.9121 140.958 29.8905 141.066 29.8905C141.167 29.8905 141.266 29.909 141.361 29.9522C141.457 29.9922 141.543 30.0508 141.617 30.1217C141.691 30.1926 141.749 30.2789 141.789 30.3775C141.83 30.4762 141.851 30.5779 141.851 30.6827C141.854 30.7875 141.833 30.8892 141.793 30.9848Z" fill="#1D1916"/>
<path d="M132.604 15.594L132.61 8.16858C132.619 6.99111 132.638 4.79954 131.131 3.28917C130.173 2.33055 128.778 1.84045 126.985 1.84045H122.262C119.329 1.84045 118.137 0.35474 118.094 0.299257C117.891 0.0280072 117.537 -0.0552172 117.21 0.0434191C116.883 0.142055 116.652 0.465706 116.637 0.80785C116.582 2.00381 116.711 4.24163 118.199 5.79206C119.015 6.6428 120.106 7.14215 121.443 7.28394C120.697 7.59834 119.964 7.75863 119.262 7.75863C118.359 7.75863 117.82 7.49046 117.82 7.49046C117.521 7.33017 117.161 7.39799 116.905 7.623C116.649 7.8511 116.578 8.23948 116.708 8.55388C117.173 9.6882 118.565 12.3267 121.433 12.3267C122.182 12.3267 122.971 12.1387 123.781 11.7657C127.271 10.166 127.552 10.0365 127.576 10.0242C128.627 9.54333 129.52 9.29982 130.238 9.29982C130.604 9.29982 130.845 9.36455 130.986 9.42311V15.6033C126.532 16.0102 123.029 19.7491 123.029 24.2864C123.029 29.098 126.963 33.0095 131.797 33.0095C136.627 33.0095 140.558 29.098 140.558 24.2864C140.561 19.7368 137.058 16.0009 132.604 15.594ZM126.902 8.55696C126.902 8.55696 125.602 9.15494 123.106 10.2985C122.512 10.5728 121.948 10.7115 121.437 10.7115C120.343 10.7146 119.545 10.0642 119.003 9.3553C120.038 9.39845 121.212 9.16111 122.339 8.64635C122.339 8.64635 123.396 8.16242 125.216 7.32401H126.985C128.282 7.32401 129.169 7.49354 129.773 7.71239C128.929 7.78637 127.964 8.07303 126.902 8.55696ZM126.985 5.71809H122.262C121.002 5.71809 120.029 5.3667 119.366 4.67932C118.867 4.1584 118.519 3.4063 118.353 2.51241C119.234 3.00251 120.519 3.44637 122.262 3.44637H126.985C128.334 3.44637 129.341 3.7731 129.985 4.4204C130.54 4.97523 130.792 5.72117 130.906 6.44553C130.075 6.03557 128.83 5.71809 126.985 5.71809ZM131.8 31.3943C127.857 31.3943 124.65 28.201 124.65 24.2771C124.65 20.6276 127.428 17.613 130.989 17.2092V19.8385C130.697 19.6875 130.45 19.4563 130.275 19.1573C130.05 18.772 129.557 18.6425 129.172 18.8645C128.787 19.0864 128.654 19.5796 128.879 19.9618C129.48 20.9944 130.601 21.6386 131.8 21.6386C133.001 21.6386 134.116 20.9944 134.717 19.9618C134.942 19.5765 134.806 19.0864 134.421 18.8645C134.036 18.6456 133.54 18.7751 133.318 19.1604C133.149 19.4532 132.896 19.6844 132.604 19.8385V17.2092C136.165 17.6068 138.944 20.6245 138.944 24.2771C138.944 28.201 135.74 31.3943 131.8 31.3943Z" fill="#1D1916"/>
<path d="M46.3259 21.1952C45.8176 20.7452 45.1584 20.5171 44.3482 20.5171C43.7598 20.5171 43.2268 20.6743 42.7555 20.9887C42.2842 21.3031 41.8714 21.7778 41.5171 22.4097V20.8038H36.7422V22.3234H37.4939C38.0083 22.3234 38.3533 22.4035 38.5228 22.5607C38.6922 22.7179 38.7785 23.0878 38.7785 23.6673V28.5837C38.7785 29.1632 38.6922 29.5331 38.5228 29.6964C38.3533 29.8567 38.0114 29.9399 37.4939 29.9399H36.7422V31.4472H43.9385V29.9399H42.811C42.2965 29.9399 41.9515 29.8598 41.779 29.6964C41.6064 29.5331 41.5202 29.1632 41.5202 28.5837V25.7232C41.5202 24.5488 41.7697 23.5871 42.2719 22.835C42.774 22.0829 43.3994 21.7069 44.151 21.7069C44.2835 21.7069 44.4283 21.7285 44.5885 21.7685C44.7456 21.8086 44.9119 21.8641 45.0814 21.9381C44.6316 22.0614 44.2896 22.2556 44.0524 22.5176C43.8152 22.7765 43.6982 23.094 43.6982 23.47C43.6982 23.88 43.8399 24.216 44.1295 24.4749C44.416 24.7369 44.7918 24.8663 45.257 24.8663C45.8022 24.8663 46.2427 24.6876 46.5847 24.3331C46.9236 23.9786 47.093 23.5163 47.093 22.9522C47.0899 22.2309 46.8342 21.6452 46.3259 21.1952Z" fill="#1D1916"/>
<path d="M34.7064 21.9221C33.8439 20.908 32.5932 20.3994 30.9481 20.3994C29.2476 20.3994 27.8768 20.9265 26.8417 21.9776C25.8066 23.0287 25.2891 24.4127 25.2891 26.1296C25.2891 27.868 25.8004 29.2551 26.8263 30.2939C27.849 31.3326 29.2261 31.8505 30.9481 31.8505C32.3344 31.8505 33.4711 31.4744 34.3583 30.7223C35.2455 29.9702 35.7723 28.9438 35.9325 27.6369H34.0318C33.847 28.503 33.5327 29.1195 33.086 29.4894C32.6394 29.8593 31.9832 30.0442 31.1145 30.0442C30.2673 30.0442 29.6081 29.7298 29.1429 29.0979C28.6746 28.466 28.4189 27.5505 28.3758 26.3484H36.0034C36.0003 24.4127 35.569 22.9362 34.7064 21.9221ZM28.4836 24.7548C28.6161 23.8239 28.8903 23.1181 29.3062 22.6372C29.722 22.1564 30.2611 21.9159 30.9266 21.9159C31.5766 21.9159 32.0664 22.144 32.4022 22.5972C32.7379 23.0503 32.9382 23.7715 33.006 24.7548H28.4836Z" fill="#1D1916"/>
<path d="M114.774 19.5058C115.252 19.5058 115.655 19.3424 115.985 19.0095C116.311 18.6797 116.478 18.279 116.478 17.8105C116.478 17.3419 116.314 16.9443 115.985 16.6207C115.655 16.297 115.252 16.1367 114.774 16.1367C114.303 16.1367 113.905 16.3001 113.585 16.6207C113.265 16.9443 113.104 17.3388 113.104 17.8105C113.104 18.2821 113.268 18.6797 113.591 19.0095C113.918 19.3393 114.312 19.5058 114.774 19.5058Z" fill="#1D1916"/>
<path d="M51.3904 19.5058C51.8679 19.5058 52.2745 19.3424 52.6011 19.0095C52.9276 18.6766 53.094 18.279 53.094 17.8105C53.094 17.3419 52.9307 16.9443 52.6011 16.6207C52.2745 16.297 51.871 16.1367 51.3904 16.1367C50.9191 16.1367 50.5217 16.3001 50.2013 16.6207C49.8809 16.9443 49.7207 17.3388 49.7207 17.8105C49.7207 18.2821 49.884 18.6797 50.2074 19.0095C50.5309 19.3393 50.9252 19.5058 51.3904 19.5058Z" fill="#1D1916"/>
<path d="M6.93134 24.0491C6.93134 24.5269 7.07921 24.906 7.37494 25.1896C7.67068 25.4701 8.06192 25.6119 8.55789 25.6119C9.10932 25.6119 9.54984 25.4362 9.87947 25.0879C10.2091 24.7396 10.3724 24.271 10.3724 23.6854C10.3724 22.7391 9.95648 21.9531 9.12472 21.3304C8.29296 20.7078 7.22399 20.3965 5.91782 20.3965C4.16496 20.3965 2.74173 20.9267 1.64504 21.9901C0.548346 23.0566 0 24.4344 0 26.1297C0 27.8774 0.492895 29.2614 1.4756 30.2879C2.45831 31.3143 3.79529 31.829 5.48346 31.829C6.99295 31.829 8.14817 31.4283 8.94297 30.6238C9.73776 29.8193 10.1752 28.6234 10.2584 27.0329H8.51168C8.40078 27.973 8.13277 28.6665 7.70457 29.1196C7.27636 29.5697 6.67873 29.7978 5.91474 29.7978C4.97208 29.7978 4.26354 29.4895 3.79221 28.8792C3.32088 28.2689 3.08367 27.3442 3.08367 26.1112C3.08367 24.7858 3.34244 23.7501 3.86307 23.0073C4.38369 22.2675 5.10146 21.8976 6.02256 21.8976C6.45693 21.8976 6.85124 21.9623 7.20551 22.0887C7.55978 22.2182 7.9048 22.4216 8.24367 22.699C7.85243 22.7422 7.53513 22.8901 7.29177 23.146C7.05148 23.3956 6.93134 23.6977 6.93134 24.0491Z" fill="#1D1916"/>
<path d="M53.2417 29.6871C53.0692 29.5207 52.983 29.1539 52.983 28.5806V20.8037H48.0879V22.3233H48.9258C49.4403 22.3233 49.7853 22.4004 49.9578 22.5607C50.1303 22.7179 50.2197 23.0878 50.2197 23.6672V28.5837C50.2197 29.1631 50.1334 29.533 49.9578 29.6964C49.7822 29.8598 49.4403 29.9399 48.9258 29.9399H48.0879V31.4472H54.973V29.9399H54.2891C53.7623 29.9368 53.4142 29.8536 53.2417 29.6871Z" fill="#1D1916"/>
<path d="M23.123 29.687C22.9474 29.5205 22.8581 29.1537 22.8581 28.5804V24.3884C22.8581 22.9797 22.5901 21.9749 22.0571 21.3738C21.5211 20.7727 20.6431 20.4707 19.4202 20.4707C18.7701 20.4707 18.1325 20.6556 17.5009 21.0255C16.8694 21.3954 16.2656 21.944 15.6834 22.6715V16.3218H11.0625V17.8291H11.6478C12.1715 17.8291 12.5196 17.9123 12.6983 18.0757C12.8739 18.2421 12.9632 18.6089 12.9632 19.1822V28.5773C12.9632 29.1476 12.8739 29.5175 12.6983 29.6839C12.5227 29.8504 12.1715 29.9336 11.6478 29.9336H11.0625V31.4409H17.4517V29.9336H16.9988C16.4751 29.9336 16.1239 29.8504 15.9483 29.6839C15.7727 29.5175 15.6834 29.1507 15.6834 28.5773V25.9142C15.6834 24.749 15.9298 23.8366 16.4258 23.1801C16.9187 22.5235 17.5995 22.1937 18.4713 22.1937C19.0597 22.1937 19.4879 22.3632 19.7498 22.6992C20.0116 23.0352 20.141 23.5993 20.141 24.3822V28.5743C20.141 29.1445 20.0548 29.5144 19.8822 29.6808C19.7097 29.8473 19.3616 29.9305 18.8379 29.9305H18.3851V31.4378H24.805V29.9305H24.1766C23.6467 29.9367 23.2986 29.8534 23.123 29.687Z" fill="#1D1916"/>
<path d="M62.9919 20.3964C62.1448 20.3964 61.4239 20.5628 60.8324 20.8957C60.2379 21.2286 59.7327 21.7557 59.3137 22.4739V16.3276H54.8037V17.8349H55.2781C55.8018 17.8349 56.1469 17.9151 56.3163 18.0753C56.4857 18.2387 56.5689 18.6086 56.5689 19.1881V31.5546H58.0599L58.9656 30.0689C59.4955 30.67 60.0838 31.1138 60.7339 31.4005C61.3839 31.6872 62.1109 31.8289 62.9242 31.8289C64.3381 31.8289 65.4626 31.3111 66.2943 30.2785C67.1261 29.2428 67.545 27.8465 67.545 26.0865C67.545 24.3264 67.1353 22.9394 66.319 21.9222C65.5026 20.905 64.3936 20.3964 62.9919 20.3964ZM63.8268 29.0116C63.4017 29.6435 62.7547 29.9579 61.886 29.9579C61.0912 29.9579 60.4628 29.622 60.0007 28.9469C59.5386 28.2719 59.3106 27.341 59.3106 26.1512C59.3106 24.9645 59.5386 24.0336 59.9976 23.3678C60.4535 22.6989 61.085 22.366 61.886 22.366C62.7547 22.366 63.4017 22.6773 63.8268 23.3C64.2519 23.9226 64.4614 24.872 64.4614 26.1481C64.4645 27.4273 64.2519 28.3798 63.8268 29.0116Z" fill="#1D1916"/>
<path d="M80.2923 29.6871C80.1167 29.5207 80.0273 29.1539 80.0273 28.5806V20.8037H74.9536V22.3233H75.9917C76.5216 22.3233 76.8728 22.4035 77.0484 22.5638C77.2209 22.724 77.3102 23.0908 77.3102 23.6642V26.4137C77.3102 27.5449 77.0607 28.4295 76.5586 29.0768C76.0564 29.7241 75.3787 30.0447 74.5254 30.0447C73.937 30.0447 73.5088 29.8783 73.25 29.5392C72.9882 29.2001 72.8588 28.6422 72.8588 27.8562V20.8037H68.3057V22.3233H68.8232C69.3469 22.3233 69.6981 22.4035 69.8737 22.5638C70.0493 22.724 70.1386 23.0908 70.1386 23.6642V27.8562C70.1386 29.271 70.4066 30.279 70.9396 30.8831C71.4756 31.4842 72.3536 31.7862 73.5766 31.7862C74.2266 31.7862 74.8642 31.5982 75.4958 31.2253C76.1242 30.8523 76.7311 30.3005 77.3133 29.5762V31.4472H81.9311V29.9399H81.3458C80.819 29.9368 80.4678 29.8536 80.2923 29.6871Z" fill="#1D1916"/>
<path d="M95.1721 29.6932C94.9996 29.5298 94.9133 29.1599 94.9133 28.5805V24.3884C94.9133 22.9798 94.6453 21.9749 94.1062 21.3738C93.5671 20.7728 92.683 20.4707 91.4538 20.4707C90.8131 20.4707 90.1815 20.6556 89.5593 21.0194C88.937 21.3862 88.3301 21.9379 87.7417 22.6715V20.8005H82.9668V22.3201H83.7185C84.2329 22.3201 84.5749 22.4003 84.7474 22.5575C84.9168 22.7147 85 23.0846 85 23.6641V28.5835C85 29.163 84.9168 29.5329 84.7474 29.6963C84.5779 29.8566 84.236 29.9398 83.7185 29.9398H82.9668V31.4471H89.4884V29.9398H89.0356C88.518 29.9398 88.173 29.8596 88.0005 29.6963C87.828 29.5329 87.7417 29.163 87.7417 28.5835V25.834C87.7417 24.7028 87.9882 23.8182 88.4811 23.1709C88.974 22.5267 89.6486 22.203 90.505 22.203C91.1026 22.203 91.5308 22.3725 91.7927 22.7085C92.0546 23.0445 92.187 23.6086 92.187 24.3915V28.5835C92.187 29.163 92.0977 29.5329 91.9252 29.6963C91.7526 29.8566 91.4076 29.9398 90.8932 29.9398H90.4403V31.4471H96.8726V29.9398H96.2103C95.6897 29.9367 95.3446 29.8566 95.1721 29.6932Z" fill="#1D1916"/>
<path d="M117.67 29.9368C117.146 29.9368 116.798 29.8536 116.626 29.6871C116.453 29.5207 116.367 29.1539 116.367 28.5806V20.8037H111.472V22.3233H112.313C112.827 22.3233 113.172 22.4004 113.348 22.5607C113.52 22.7179 113.607 23.0878 113.607 23.6672V28.5837C113.607 29.1631 113.517 29.533 113.348 29.6964C113.175 29.8567 112.83 29.9399 112.313 29.9399H111.472V31.4472H118.357V29.9399H117.67V29.9368Z" fill="#1D1916"/>
<path d="M108.779 29.693C108.606 29.5296 108.52 29.1598 108.52 28.5803V16.3247H103.536V17.832H104.485C104.999 17.832 105.344 17.9121 105.52 18.0724C105.692 18.2358 105.778 18.6057 105.778 19.1852V22.585C105.403 21.8391 104.919 21.2843 104.324 20.9298C103.73 20.5722 103 20.3965 102.131 20.3965C100.686 20.3965 99.5617 20.8959 98.7546 21.8915C97.9475 22.8871 97.5439 24.2865 97.5439 26.0835C97.5439 27.8806 97.9475 29.2769 98.7546 30.2694C99.5617 31.2619 100.686 31.7613 102.131 31.7613C103.009 31.7613 103.742 31.5856 104.337 31.2342C104.928 30.8828 105.409 30.3372 105.778 29.5944V31.4438H110.464V29.9365H109.814C109.296 29.9365 108.951 29.8564 108.779 29.693ZM105.085 28.944C104.623 29.619 103.998 29.955 103.2 29.955C102.331 29.955 101.684 29.6406 101.256 29.0087C100.828 28.3768 100.615 27.4244 100.615 26.1483C100.615 24.8722 100.825 23.9228 101.25 23.3001C101.672 22.6775 102.322 22.3662 103.2 22.3662C103.998 22.3662 104.623 22.6991 105.085 23.368C105.544 24.0337 105.775 24.9615 105.775 26.1513C105.778 27.3381 105.547 28.272 105.085 28.944Z" fill="#1D1916"/>
</g>
<defs>
<clipPath id="clip0">
<rect width="142" height="33" fill="white"/>
</clipPath>
</defs>
</svg>
