<svg width="157" height="39" viewBox="0 0 157 39" fill="none" xmlns="http://www.w3.org/2000/svg">
<path d="M26.257 28.1317C25.8202 28.1742 25.3798 28.1008 24.9804 27.9189C24.581 27.737 24.2365 27.453 23.9819 27.0955L14.8254 11.4875L19.3106 6.16889C21.37 3.6984 22.6592 2.69011 23.7958 2.71616L25.0497 2.73848V1.39533L17.374 1.4158L14.6338 1.40278L0.218262 1.31906V2.6622L2.12137 2.64918C2.2459 2.64241 2.37055 2.66031 2.48815 2.70185C2.60575 2.7434 2.71398 2.80776 2.80663 2.89125C2.89928 2.97474 2.97453 3.07572 3.02805 3.18837C3.08157 3.30103 3.1123 3.42315 3.11849 3.54771C3.12035 3.58304 3.12035 3.61843 3.11849 3.65375L3.19662 27.1811C3.20262 27.4395 3.10593 27.6898 2.92775 27.877C2.74956 28.0643 2.5044 28.1732 2.246 28.1801H2.19206L0.290817 28.1912V29.5121L13.7167 29.4748L14.1762 29.4916L26.8058 29.4507V28.1075L26.257 28.1317ZM15.6849 28.1782L14.2078 28.1652L13.7613 28.1819L10.5393 28.1968C10.4079 28.1998 10.2773 28.1768 10.1548 28.1292C10.0323 28.0816 9.92049 28.0103 9.82562 27.9194C9.73075 27.8285 9.65474 27.7198 9.60195 27.5995C9.54915 27.4792 9.5206 27.3496 9.51795 27.2183V27.1811L9.50493 3.57376C9.49868 3.44556 9.5178 3.31739 9.56121 3.19661C9.60461 3.07582 9.67145 2.96479 9.75788 2.8699C9.8443 2.77501 9.94861 2.69812 10.0648 2.64364C10.181 2.58916 10.3069 2.55817 10.4351 2.55245C10.4642 2.55058 10.4934 2.55058 10.5225 2.55245L14.8198 2.53198L16.1853 2.54873C17.9191 2.54873 18.7079 4.55042 17.2773 6.18005L9.73747 15.1914L16.3397 26.69C16.7732 27.6015 16.5685 28.1689 15.6849 28.1782Z" fill="#1D1916"/>
<path d="M25.2337 38.2163C23.9726 38.3987 22.6905 38.0748 21.6672 37.3154C20.644 36.5559 19.9626 35.4226 19.7719 34.1627C19.743 33.8354 19.7789 33.5057 19.8776 33.1923C19.9762 32.8789 20.1357 32.588 20.3468 32.3363C20.5579 32.0846 20.8166 31.8769 21.108 31.7252C21.3994 31.5735 21.7179 31.4808 22.0452 31.4522C22.1764 31.4411 22.3083 31.4411 22.4396 31.4522C25.4049 31.4522 23.3697 36.5197 25.643 36.475C26.9452 36.462 27.4531 35.4593 27.4531 33.2883L27.5033 11.7701C27.5048 11.5117 27.4038 11.2633 27.2225 11.0792C27.0412 10.8951 26.7943 10.7903 26.536 10.7879H26.495L24.3575 10.7767V9.45591L28.9562 9.43544C30.2752 9.43544 31.9457 8.90339 32.0443 7.29981H33.1196L33.207 30.0905C33.45 31.9977 32.926 33.9233 31.7502 35.4445C30.5744 36.9657 28.8428 37.9579 26.9359 38.2033C26.3711 38.2753 25.7996 38.2797 25.2337 38.2163ZM32.9224 3.25364C32.9283 3.61814 32.8624 3.98025 32.7283 4.31926C32.5942 4.65827 32.3947 4.96756 32.1411 5.22945C31.8875 5.49134 31.5848 5.70071 31.2503 5.8456C30.9158 5.99048 30.556 6.06805 30.1915 6.07386H30.1264C29.7153 6.16726 29.2886 6.16753 28.8775 6.07465C28.4664 5.98178 28.0813 5.79812 27.7503 5.53711C27.4194 5.27611 27.151 4.94438 26.9649 4.56622C26.7787 4.18806 26.6796 3.77306 26.6746 3.3516C26.6696 2.93015 26.759 2.51292 26.9362 2.13048C27.1133 1.74804 27.3738 1.41008 27.6985 1.14135C28.0232 0.872618 28.4039 0.679923 28.8127 0.577386C29.2216 0.474849 29.6482 0.465068 30.0612 0.54875C30.4239 0.513588 30.79 0.550227 31.1385 0.656583C31.487 0.762939 31.8112 0.936923 32.0924 1.16859C32.3737 1.40026 32.6065 1.68508 32.7776 2.00677C32.9488 2.32846 33.0549 2.68072 33.0898 3.04342C33.0898 3.0676 33.0898 3.08993 33.0898 3.11411L32.9224 3.25364Z" fill="#1D1916"/>
<path d="M53.0903 8.68015C58.5745 8.70619 60.4385 12.3301 60.4441 18.6514L50.51 18.6868V19.3695C50.51 26.1038 51.8774 28.4273 54.2027 28.3883C56.5281 28.3492 58.7493 26.3103 58.8907 22.8073H60.1557C60.2552 24.6214 59.63 26.4008 58.4177 27.754C57.2054 29.1073 55.5053 29.9236 53.6912 30.0235L53.401 30.0346C51.8247 30.0734 50.2713 29.6514 48.9314 28.8204C47.5914 27.9893 46.5231 26.7853 45.8574 25.356L45.6714 25.2722C45.6329 26.5978 45.0697 27.8539 44.1055 28.7644C43.1413 29.6748 41.8551 30.1652 40.5295 30.1277C40.3583 30.1277 40.1853 30.109 40.016 30.0867C38.6991 30.2436 37.3737 29.8713 36.3311 29.0516C35.2885 28.2319 34.6139 27.0318 34.4556 25.715C34.4191 25.4063 34.411 25.095 34.4314 24.7848C34.4202 19.5034 40.3341 17.1985 44.931 17.178V12.7245C44.931 10.7451 44.304 9.93399 43.0186 9.93399C42.6171 9.9313 42.219 10.0079 41.8472 10.1595C41.4754 10.311 41.1372 10.5345 40.852 10.8171C40.5668 11.0998 40.3402 11.4359 40.1852 11.8063C40.0303 12.1767 39.95 12.5741 39.9491 12.9756C39.949 13.085 39.9546 13.1942 39.9658 13.303C39.8505 13.5523 40.0105 13.9281 40.0198 14.5085C40.0681 15.1099 39.8755 15.7059 39.4844 16.1654C39.0933 16.6248 38.5358 16.9101 37.9343 16.9585C37.8538 16.9631 37.7731 16.9631 37.6925 16.9585C37.117 16.9984 36.5493 16.8082 36.114 16.4298C35.6787 16.0513 35.4114 15.5155 35.3708 14.9401C35.3634 14.8391 35.3634 14.7378 35.3708 14.6369C35.3504 11.6045 38.9817 8.69875 43.8259 8.68386C44.6046 8.60423 45.3912 8.69621 46.1304 8.95333C46.8696 9.21046 47.5435 9.62648 48.1047 10.1721C49.5694 9.16518 51.3132 8.64334 53.0903 8.68015ZM40.1928 24.5635C40.2076 26.5205 40.6039 28.1855 42.2056 28.2283C44.464 28.2134 44.8603 24.6304 44.8491 22.426V18.7426C43.7181 18.696 40.189 18.5435 40.1928 24.5635ZM55.6073 17.3269C55.5924 11.3311 54.7088 10.1312 53.0866 10.1349C51.4644 10.1386 50.6403 12.0696 50.5919 17.2394L55.6073 17.3269Z" fill="#1D1916"/>
<path d="M68.5233 19.3119V27.008C68.5122 27.266 68.6039 27.5178 68.7783 27.7083C68.9527 27.8987 69.1955 28.0122 69.4535 28.0238H69.5409L71.1408 28.0107V29.3315L60.0998 29.4394L60.0849 28.0851L61.9769 28.0963C62.1082 28.0983 62.2387 28.0743 62.3608 28.0258C62.4828 27.9773 62.5941 27.9052 62.6883 27.8136C62.7825 27.722 62.8577 27.6128 62.9096 27.4921C62.9615 27.3714 62.9891 27.2417 62.9908 27.1103V27.075L62.855 11.6735C62.8569 11.4148 62.7562 11.1659 62.5748 10.9814C62.3935 10.7969 62.1463 10.6918 61.8876 10.6894H61.856L59.964 10.6782L59.938 9.34811L64.3227 9.31276C65.6436 9.31276 67.3141 8.78071 67.4127 7.17712H68.4861L68.5066 12.386L68.6647 12.4585C68.8452 11.3979 69.3935 10.4348 70.2133 9.73807C71.0332 9.04138 72.0722 8.65567 73.148 8.64863C73.6799 8.63602 74.2091 8.72834 74.7053 8.9203C75.2014 9.11226 75.655 9.40011 76.0399 9.7674C76.4248 10.1347 76.7335 10.5742 76.9485 11.0609C77.1635 11.5475 77.2805 12.0718 77.2928 12.6036C77.2984 12.8257 77.2853 13.0479 77.2537 13.2678C77.2835 15.3141 76.2659 16.8842 74.6884 16.9065C73.1108 16.9289 72.7741 16.2275 72.763 14.6742C72.7518 13.1208 73.0308 12.5162 73.016 11.4651C73.0011 10.4141 72.7853 10.349 71.8551 10.3322C69.6897 10.4196 68.4154 14.4807 68.5233 19.3119Z" fill="#1D1916"/>
<path d="M119.393 19.163C119.393 25.8992 120.761 28.2227 123.088 28.1837C125.415 28.1446 127.633 26.1057 127.798 22.6027L129.03 22.6139C129.121 24.4338 128.487 26.2157 127.266 27.5688C126.046 28.9218 124.338 29.7357 122.519 29.8319L122.281 29.8412C117.47 29.8412 113.379 26.2787 113.372 19.2374C113.364 12.1962 116.636 8.51089 121.996 8.51089C127.356 8.51089 129.355 12.1385 129.383 18.471L119.425 18.4952L119.393 19.163ZM124.513 17.1557C124.498 11.1581 123.603 9.92659 121.981 9.92845C120.359 9.93031 119.522 11.8874 119.485 17.0348L124.513 17.1557Z" fill="#1D1916"/>
<path d="M137.918 26.8089C137.904 27.0602 137.99 27.3069 138.158 27.4949C138.325 27.6828 138.56 27.7968 138.811 27.8116C138.847 27.8144 138.882 27.8144 138.917 27.8116H140.707V29.1548L129.374 29.1827L129.329 27.9549H131.221C131.353 27.9568 131.483 27.9329 131.605 27.8844C131.727 27.8359 131.839 27.7637 131.933 27.6722C132.027 27.5806 132.102 27.4713 132.154 27.3507C132.206 27.23 132.233 27.1002 132.235 26.9689V26.928L132.185 11.6009C132.196 11.3429 132.104 11.0911 131.93 10.9006C131.756 10.7102 131.513 10.5967 131.255 10.5852H131.165L129.275 10.574V9.25504H133.617C134.97 9.24016 136.618 8.69695 136.739 7.10638L137.755 7.04685L137.918 26.8089ZM137.859 2.82209C137.865 3.18651 137.799 3.54851 137.665 3.88742C137.531 4.22633 137.331 4.53549 137.077 4.79723C136.824 5.05898 136.521 5.26817 136.187 5.41286C135.852 5.55754 135.492 5.63488 135.128 5.64046H135.063C134.32 5.6514 133.603 5.36691 133.07 4.84957C132.537 4.33222 132.232 3.62435 132.22 2.88162V2.83325C132.219 2.08395 132.515 1.36469 133.043 0.83346C133.572 0.302229 134.289 0.00246335 135.039 6.89075e-10C135.407 -8.17761e-06 135.771 0.0727827 136.111 0.214179C136.451 0.355574 136.759 0.562779 137.018 0.823871C137.278 1.08496 137.483 1.39479 137.622 1.73549C137.761 2.07619 137.832 2.44106 137.829 2.80907L137.859 2.82209Z" fill="#1D1916"/>
<path d="M148.12 29.8077C146.492 29.665 144.883 29.3532 143.319 28.8776C143.224 28.8692 143.128 28.8796 143.037 28.9083C142.947 28.937 142.862 28.9833 142.79 29.0447C142.717 29.1061 142.657 29.1813 142.613 29.266C142.57 29.3506 142.543 29.4431 142.535 29.538C142.527 29.5997 142.527 29.6623 142.535 29.724H141.708L141.65 22.5544L142.881 22.5655C142.822 23.3019 142.908 24.0428 143.135 24.7458C143.362 25.4489 143.725 26.1004 144.204 26.6631C144.682 27.2257 145.267 27.6886 145.925 28.0251C146.582 28.3617 147.3 28.5654 148.036 28.6246C148.062 28.6264 148.087 28.6264 148.113 28.6246C148.583 28.6967 149.064 28.6655 149.521 28.5333C149.978 28.4011 150.401 28.171 150.76 27.8589C151.119 27.5469 151.407 27.1604 151.601 26.7262C151.796 26.2921 151.895 25.8207 151.889 25.3448C151.859 20.2215 141.568 23.3897 141.494 15.1131C141.535 13.31 142.291 11.5971 143.595 10.351C144.899 9.10495 146.644 8.42769 148.447 8.46811C148.555 8.46811 148.665 8.46811 148.773 8.48485C150.186 8.62454 151.576 8.93692 152.912 9.41501C153.089 9.44116 153.269 9.39616 153.413 9.28984C153.557 9.18352 153.653 9.02453 153.681 8.84762C153.692 8.77799 153.692 8.70703 153.681 8.6374H154.531L154.549 15.3513L153.308 15.3624C153.169 11.8092 151.203 9.73127 148.777 9.75173C148.065 9.66897 147.35 9.87214 146.788 10.3166C146.227 10.761 145.865 11.4104 145.782 12.1218C145.765 12.2662 145.76 12.4118 145.767 12.5571C145.767 17.805 156.201 14.9215 156.216 23.0883C156.317 27.8581 152.516 29.8059 148.12 29.8077Z" fill="#1D1916"/>
<path d="M110.038 1.02869L109.107 1.03985L94.0035 1.08264L82.2612 1.22588V2.5467L84.1532 2.556C84.7578 2.556 85.0629 2.97085 85.2191 3.59219L92.6976 29.3928L97.0488 29.3686L100.835 19.2523L104.04 29.3463H107.889L114.13 6.8775C115.161 3.17176 116.409 2.41276 117.574 2.4574H118.1V1.11426L109.864 1.09752L110.038 1.02869ZM97.5604 24.0258L91.7116 3.63684C91.6313 3.40634 91.6448 3.1535 91.7492 2.93285C91.8536 2.71221 92.0405 2.54144 92.2697 2.4574C92.3827 2.41855 92.502 2.4015 92.6213 2.40718H93.9979H94.8481C95.4527 2.40718 95.7355 2.81086 95.8806 3.45453L100.262 16.9362L97.5604 24.0258ZM101.543 3.58475C101.5 3.4426 101.492 3.29224 101.519 3.14625C101.546 3.00026 101.608 2.86288 101.699 2.74559C101.79 2.62831 101.908 2.53453 102.043 2.47209C102.177 2.40965 102.325 2.38038 102.473 2.38671H103.27L103.828 2.36625C105.416 2.37555 105.115 3.33733 104.525 4.9372L103.13 8.7806L101.543 3.58475ZM112.543 6.70077L107.764 24.0016L103.858 11.2306L106.103 5.21996C106.858 3.20153 107.405 2.37555 108.573 2.38857H109.1L110.03 2.39973L110.588 2.37927C112.981 2.37183 113.425 3.55871 112.543 6.70077Z" fill="#1D1916"/>
</svg>
