<svg width="90" height="90" viewBox="0 0 90 90" fill="none" xmlns="http://www.w3.org/2000/svg">
<path fill-rule="evenodd" clip-rule="evenodd" d="M89.7751 45C89.7751 69.7286 69.7286 89.775 45.0001 89.775C20.2715 89.775 0.225098 69.7286 0.225098 45C0.225098 20.2715 20.2715 0.225006 45.0001 0.225006C69.7286 0.225006 89.7751 20.2715 89.7751 45Z" fill="#1D1916"/>
<path d="M45.0001 15.6846C28.8161 15.6846 15.6836 28.8171 15.6836 45.0011C15.6836 61.1851 28.8161 74.315 45.0001 74.315C61.1841 74.315 74.3166 61.1851 74.3166 45.0011C74.3166 28.8171 61.1841 15.6846 45.0001 15.6846ZM45.0001 16.7611C60.6022 16.7611 73.2375 29.399 73.2375 45.0011C73.2375 60.6032 60.6022 73.2385 45.0001 73.2385C29.398 73.2385 16.7627 60.6032 16.7627 45.0011C16.7627 29.399 29.398 16.7611 45.0001 16.7611Z" fill="#FCFAF8"/>
<path d="M45 2.1012C21.3127 2.1012 2.09961 21.3143 2.09961 45.0016C2.09961 68.6889 21.3127 87.8981 45 87.8981C68.6873 87.8981 87.9004 68.6889 87.9004 45.0016C87.9004 21.3143 68.6873 2.1012 45 2.1012ZM45 3.01445C68.1927 3.01445 86.9833 21.8089 86.9833 45.0016C86.9833 68.1942 68.1927 86.9849 45 86.9849C21.8073 86.9849 3.01666 68.1942 3.01666 45.0016C3.01666 21.8089 21.8073 3.01445 45 3.01445Z" fill="#FCFAF8"/>
<path d="M44.9998 4.85284C22.8784 4.85284 4.84863 22.8799 4.84863 45.0012C4.84863 67.1226 22.8784 85.1468 44.9998 85.1468C67.1212 85.1468 85.151 67.1226 85.151 45.0012C85.151 22.8799 67.1212 4.85284 44.9998 4.85284ZM44.9998 13.694C62.3587 13.694 76.2705 27.6423 76.2705 45.0012C76.2705 62.3601 62.3587 76.2299 44.9998 76.2299C27.6409 76.2299 13.7291 62.3601 13.7291 45.0012C13.7291 27.6423 27.6409 13.694 44.9998 13.694ZM9.41643 42.7327L11.7101 44.4039L10.8213 47.1519H7.95552L7.05822 44.3927L9.41643 42.7327ZM80.6196 42.7327L82.9133 44.4039L82.0273 47.1519H79.1615L78.2642 44.3927L80.6196 42.7327Z" fill="#FCFAF8"/>
<path d="M29.6738 26.4261H27.6821V23.8239H34.5913V26.4261H33.4248L44.8637 37.4366L52.401 30.1655C53.1843 30.5415 53.9553 31.0287 54.7237 31.5393L46.2091 39.6516L46.2091 43.8468L43.654 41.3206V39.7958L29.6738 26.4261Z" fill="#FCFAF8"/>
<path d="M56.306 26.426H55.0498V23.7342H61.959V26.426H59.9849L57.5494 28.8055C56.8123 28.1786 56.0753 27.7947 55.3382 27.3474L56.306 26.426Z" fill="#FCFAF8"/>
<path d="M35.5337 27.5877L37.5686 29.4945C37.5686 29.4945 40.6638 27.764 45.0354 27.764C52.7504 27.764 58.8986 32.825 61.4271 39.549H64.167V31.8018H61.6033V34.037C58.4685 29.2127 52.3921 25.1762 45.0514 25.1762C39.4271 25.1762 35.5337 27.5877 35.5337 27.5877Z" fill="#FCFAF8"/>
<path d="M38.8986 52.8065V55.2292H32.5278V52.8065H34.448V38.8985H32.6176V36.4758H37.5527L53.3451 51.4606V38.8985H51.4608V36.4758H57.8316V38.8985H55.8575V55.2292H53.7681L37.0143 39.3933V52.8065H38.8986Z" fill="#FCFAF8"/>
<path d="M42.8896 62.3174V64.9176C32.8046 63.9701 25.0825 55.2383 25.0825 45.1291C25.0825 38.4525 28.0869 33.4365 32.2088 29.7909L34.1179 31.635C30.187 34.8871 27.6743 39.6946 27.6743 45.1411C27.6743 53.8855 34.3759 61.2648 42.8896 62.3174Z" fill="#FCFAF8"/>
<path d="M46.9287 64.9233V62.3174C53.7455 61.5774 59.7533 56.6769 61.5728 50.2055H64.2864C62.3073 57.9373 55.3795 64.053 46.9287 64.9233Z" fill="#FCFAF8"/>
<path d="M48.2304 69.8552H41.6802V67.253H43.5645V46.5255L46.2094 48.9482V67.253H48.2304V69.8552Z" fill="#FCFAF8"/>
<path d="M22.7709 20.2576L19.2978 16.8616L18.5603 17.6158L20.6987 19.7067L16.9692 19.243L16.2803 19.9475L19.7534 23.3436L20.4907 22.5895L18.2828 20.4306L22.1354 20.9075L22.7709 20.2576Z" fill="#1D1916"/>
<path d="M26.4834 17.3516L25.8978 16.6028L23.8206 18.2272L23.1922 17.4237L24.996 16.0131L24.4104 15.2642L22.6066 16.6748L21.9996 15.8986L24.0495 14.2956L23.4637 13.5466L20.5776 15.8036L23.57 19.63L26.4834 17.3516Z" fill="#1D1916"/>
<path d="M30.9863 9.41946L29.9932 9.9313L30.6056 13.316L28.124 10.8791L27.3099 11.2987L27.8545 14.7338L25.4534 12.271L24.4355 12.7955L28.151 16.3844L28.9776 15.9584L28.4961 12.6311L30.9266 14.954L31.7532 14.528L30.9863 9.41946Z" fill="#1D1916"/>
<path d="M38.8478 7.38647L37.6629 7.65279L36.9396 9.81394L35.3812 8.16558L34.1626 8.43946L36.6291 10.9008L37.0491 12.7695L38.0916 12.5351L37.6671 10.6463L38.8478 7.38647Z" fill="#1D1916"/>
<path d="M43.9396 7.64588L43.9297 7.63626C43.6816 7.39365 43.4048 7.21189 43.0992 7.09097C42.7936 6.97006 42.4805 6.91305 42.16 6.91993C41.8395 6.92683 41.5222 6.99665 41.2079 7.12941C40.8937 7.26218 40.6056 7.46251 40.3436 7.7304C40.0817 7.99831 39.8871 8.29163 39.7598 8.61038C39.6326 8.92914 39.5707 9.25043 39.5744 9.57425C39.578 9.89808 39.6429 10.2122 39.769 10.5167C39.8951 10.8212 40.0822 11.0947 40.3302 11.3372L40.3402 11.347C40.5882 11.5895 40.865 11.7712 41.1706 11.8921C41.4762 12.013 41.7893 12.07 42.1097 12.0631C42.4302 12.0562 42.7476 11.9864 43.0618 11.8537C43.376 11.721 43.6641 11.5207 43.9261 11.2527C44.1881 10.9848 44.3827 10.6914 44.51 10.3727C44.6372 10.0539 44.699 9.73265 44.6954 9.40882C44.6918 9.085 44.6269 8.77087 44.5009 8.46644C44.3748 8.16202 44.1877 7.8885 43.9396 7.64588ZM43.1684 8.45451C43.3172 8.6 43.4319 8.76224 43.5125 8.94124C43.5931 9.12024 43.6385 9.30375 43.6487 9.49177C43.659 9.6798 43.6291 9.8658 43.5592 10.0498C43.4893 10.2338 43.38 10.4018 43.2312 10.5539C43.0792 10.7094 42.912 10.8225 42.7296 10.8932C42.5472 10.9639 42.3603 10.9979 42.1689 10.9952C41.9775 10.9924 41.7906 10.952 41.6081 10.874C41.4257 10.7959 41.2601 10.6841 41.1112 10.5385L41.1013 10.5289C40.9524 10.3833 40.8377 10.221 40.7572 10.0419C40.6767 9.86286 40.6313 9.67935 40.621 9.49137C40.6107 9.3034 40.6397 9.11823 40.708 8.93586C40.7764 8.7535 40.8865 8.58459 41.0385 8.42914C41.1873 8.27702 41.3537 8.16476 41.5377 8.09236C41.7217 8.01997 41.9095 7.98514 42.1009 7.98788C42.2923 7.99063 42.4792 8.03108 42.6616 8.10925C42.8441 8.18743 43.0097 8.29925 43.1585 8.44474L43.1684 8.45451Z" fill="#1D1916"/>
<path d="M49.8715 12.0432L48.7994 10.2354C49.1161 10.14 49.3782 9.97505 49.5858 9.74047C49.7934 9.5059 49.9099 9.19236 49.9353 8.79985L49.9362 8.78612C49.9687 8.28288 49.8337 7.88007 49.531 7.57768C49.2284 7.2753 48.7885 7.10545 48.2115 7.06811L45.9957 6.92477L45.6821 11.7722L46.7485 11.8412L46.8488 10.29L47.6867 10.3442L48.6251 11.9626L49.8715 12.0432ZM48.8514 8.78534C48.8379 8.99315 48.7568 9.15484 48.6079 9.27041C48.459 9.38598 48.2531 9.43526 47.99 9.41824L46.9097 9.34836L46.9998 7.95635L48.0592 8.02488C48.3223 8.04191 48.524 8.11293 48.6643 8.23793C48.8045 8.36295 48.8672 8.54084 48.8523 8.7716L48.8514 8.78534Z" fill="#1D1916"/>
<path d="M54.7892 13.175L53.377 9.99649L55.7546 8.41356L54.4946 8.13362L52.1103 9.77905L52.5708 7.70619L51.5277 7.47443L50.4741 12.2163L51.5173 12.4481L51.8393 10.9985L52.5144 10.5513L53.536 12.8966L54.7892 13.175Z" fill="#1D1916"/>
<path d="M61.4156 15.1242L61.0769 14.2189C60.8317 14.3015 60.6008 14.3499 60.3839 14.364C60.167 14.3782 59.932 14.3284 59.6789 14.2147C59.489 14.1294 59.3316 14.0143 59.2065 13.8693C59.0814 13.7243 58.9914 13.5634 58.9364 13.3866C58.8814 13.2098 58.8602 13.0227 58.8727 12.8255C58.8852 12.6283 58.9342 12.4348 59.0195 12.2448L59.0252 12.2323C59.1105 12.0423 59.2223 11.8782 59.3605 11.7399C59.4986 11.6017 59.6532 11.4948 59.824 11.4194C59.9948 11.3441 60.1755 11.306 60.3659 11.3054C60.5563 11.3048 60.7444 11.3461 60.9301 11.4295C61.1538 11.53 61.3354 11.6649 61.4749 11.834C61.6144 12.0032 61.7357 12.2048 61.8386 12.4387L62.7802 12.0021C62.7244 11.8554 62.6565 11.7133 62.5762 11.5758C62.496 11.4383 62.3995 11.3087 62.2868 11.187C62.1741 11.0654 62.0399 10.9493 61.8841 10.8387C61.7284 10.7282 61.5471 10.6265 61.3403 10.5336C60.9985 10.38 60.6592 10.2999 60.3225 10.2931C59.9857 10.2864 59.6691 10.342 59.3727 10.4598C59.0763 10.5777 58.809 10.7493 58.5709 10.9745C58.3328 11.1998 58.1427 11.4706 58.0006 11.787L57.9948 11.7998C57.8527 12.1162 57.776 12.4392 57.7647 12.769C57.7535 13.0987 57.8032 13.4114 57.9138 13.707C58.0245 14.0027 58.1925 14.2721 58.4179 14.5154C58.6433 14.7586 58.9184 14.9533 59.2434 15.0992C59.4587 15.196 59.6609 15.2653 59.85 15.3071C60.0392 15.349 60.2222 15.3678 60.399 15.3636C60.5759 15.3594 60.7473 15.3363 60.9132 15.2941C61.0792 15.252 61.2466 15.1954 61.4156 15.1242H61.4156Z" fill="#1D1916"/>
<path d="M62.5937 16.8842L65.1175 12.7337L64.2045 12.1785L61.6807 16.329L62.5937 16.8842Z" fill="#1D1916"/>
<path d="M68.8275 16.5786L69.4194 15.7909L66.2018 13.373L65.6098 14.1607L66.7915 15.0487L64.4653 18.1443L65.3196 18.7862L67.6458 15.6907L68.8275 16.5786Z" fill="#1D1916"/>
<path d="M73.4897 19.7124L72.6293 18.8553L70.4175 19.4042L70.9726 17.2048L70.0877 16.3233L69.3336 19.7252L67.9819 21.0821L68.739 21.8363L70.1053 20.4647L73.4897 19.7124Z" fill="#1D1916"/>
<path d="M22.0449 69.2044L19.878 66.8006L16.6309 69.9257L16.9414 70.275L18.3561 68.9135L20.004 70.7478L20.3381 70.4263L18.6902 68.5919L19.8499 67.4758L21.7063 69.5303L22.0449 69.2044Z" fill="#1D1916" stroke="#1D1916" stroke-width="0.354575"/>
<path d="M33.6647 76.8094L35.1613 77.3655L35.3139 76.921L31.9534 75.6693L31.8008 76.1137L33.2234 76.6381L31.9126 80.456L32.3539 80.6274L33.6647 76.8094Z" fill="#1D1916" stroke="#1D1916" stroke-width="0.354575"/>
<path d="M38.3895 77.6387L36.394 77.179L35.4741 81.5907L37.5442 82.0692C37.7633 82.1198 37.967 82.1463 38.1582 82.1366C38.3494 82.127 38.5197 82.0868 38.6694 82.0159C38.819 81.945 38.944 81.8425 39.0444 81.7085C39.1448 81.5745 39.2147 81.413 39.2541 81.224C39.2857 81.0727 39.2908 80.9325 39.2694 80.8034C39.2481 80.6743 39.2079 80.5581 39.1489 80.4549C39.0899 80.3517 39.0141 80.2565 38.9216 80.1692C38.8291 80.082 38.7275 80.0046 38.6168 79.9371C38.705 79.9194 38.7923 79.8915 38.8788 79.8534C38.9652 79.8154 39.0478 79.762 39.1265 79.6933C39.2051 79.6246 39.2741 79.5402 39.3332 79.4401C39.3924 79.3399 39.4373 79.2163 39.4679 79.0693C39.503 78.9012 39.5041 78.7412 39.4714 78.5893C39.4386 78.4374 39.3747 78.2998 39.2796 78.1766C39.1846 78.0534 39.0622 77.9454 38.9125 77.8526C38.7628 77.7598 38.5885 77.6885 38.3895 77.6387H38.3895ZM37.9049 79.5865L36.4316 79.2575L36.7483 77.7386L38.2561 78.0763C38.543 78.1481 38.7493 78.2683 38.8753 78.4368C39.0011 78.6054 39.0409 78.801 38.9945 79.0236C38.9401 79.2842 38.8129 79.4601 38.6126 79.5514C38.4124 79.6428 38.1781 79.6475 37.9049 79.5865ZM37.6489 81.6245L36.0151 81.2552L36.3396 79.6987L37.8933 80.0478C38.2472 80.1274 38.4973 80.2686 38.6495 80.446C38.8018 80.6233 38.8525 80.8339 38.8017 81.0776C38.7491 81.3297 38.6204 81.503 38.4155 81.5976C38.2106 81.6921 37.9567 81.694 37.6489 81.6245Z" fill="#1D1916" stroke="#1D1916" stroke-width="0.354575"/>
<path d="M43.2627 78.1594L42.8261 78.127L40.5273 82.6209L41.0052 82.6563L41.6552 81.4798L44.1048 81.6088L44.5476 82.8349L45.0492 82.8721L43.2627 78.1594ZM43.9375 81.1384L41.8537 81.0364L43.0183 78.7346L43.9375 81.1384Z" fill="#1D1916" stroke="#1D1916" stroke-width="0.354575"/>
<path d="M51.5194 82.2264L54.5105 81.6731L54.4135 81.2133L51.8832 81.6882L51.0497 77.7386L50.5889 77.8168L51.5194 82.2264Z" fill="#1D1916" stroke="#1D1916" stroke-width="0.354575"/>
<path d="M67.4076 69.7149L67.045 70.0096L68.755 72.0728C69.0699 72.4528 69.1474 72.7327 69.1474 73.1061C69.1474 73.4873 68.8875 73.801 68.5977 74.0506C68.2886 74.3169 68.0658 74.4485 67.6002 74.4485C67.2497 74.4485 66.8448 74.1886 66.5212 73.8215L64.8401 71.7751L64.4775 72.0698L66.18 74.1404C66.3817 74.3858 66.608 74.5635 66.8339 74.6948C67.0599 74.8261 67.3145 74.934 67.5882 74.934C68.1037 74.934 68.434 74.7993 68.8768 74.4481C69.2934 74.1322 69.6651 73.6156 69.6651 73.0579C69.67 72.5162 69.3662 72.0169 69.062 71.6668L67.4076 69.7149Z" fill="#1D1916" stroke="#1D1916" stroke-width="0.354575"/>
<path d="M46.7877 82.7158L49.8267 82.5856L49.7948 82.1168L47.223 82.2338L46.9491 78.2064L46.4819 78.2196L46.7877 82.7158Z" fill="#1D1916" stroke="#1D1916" stroke-width="0.354575"/>
<path d="M63.5119 78.0127L66.1217 76.4502L65.8702 76.0531L63.6649 77.3815L61.5051 73.9712L61.1006 74.2054L63.5119 78.0127Z" fill="#1D1916" stroke="#1D1916" stroke-width="0.354575"/>
<path d="M25.2793 73.0342C25.2793 74.2016 24.3329 75.1479 23.1655 75.1479C21.9981 75.1479 21.0518 74.2016 21.0518 73.0342C21.0518 71.8668 21.9981 70.9204 23.1655 70.9204C24.3329 70.9204 25.2793 71.8668 25.2793 73.0342V73.0342Z" stroke="#1D1916" stroke-width="0.850979" stroke-linecap="square" stroke-linejoin="round"/>
<path d="M30.3525 76.3528C30.3525 77.5202 29.4062 78.4665 28.2388 78.4665C27.0714 78.4665 26.125 77.5202 26.125 76.3528C26.125 75.1854 27.0714 74.239 28.2388 74.239C29.4062 74.239 30.3525 75.1854 30.3525 76.3528V76.3528Z" stroke="#1D1916" stroke-width="0.850979" stroke-linecap="square" stroke-linejoin="round"/>
<path d="M69.7815 67.2494L68.3804 68.7428L71.7306 71.7571L73.1854 70.2087C73.3393 70.0448 73.4647 69.8821 73.5525 69.712C73.6404 69.5419 73.6913 69.3744 73.7053 69.2095C73.7193 69.0445 73.6936 68.8849 73.6283 68.7307C73.563 68.5765 73.4586 68.4349 73.3151 68.3057C73.2002 68.2024 73.0816 68.1274 72.9593 68.0809C72.8369 68.0344 72.7163 68.0107 72.5974 68.0098C72.4785 68.0089 72.3581 68.0264 72.2362 68.0625C72.1143 68.0985 71.9963 68.1474 71.8822 68.2092C71.9113 68.124 71.9311 68.0345 71.9417 67.9407C71.9523 67.8468 71.9477 67.7486 71.9279 67.6461C71.9082 67.5435 71.8699 67.4415 71.8131 67.34C71.7563 67.2385 71.6721 67.1375 71.5604 67.037C71.4327 66.9222 71.295 66.8407 71.1473 66.7926C70.9995 66.7445 70.8485 66.7306 70.6942 66.7507C70.5398 66.7709 70.3849 66.8223 70.2294 66.905C70.074 66.9877 69.9247 67.1025 69.7815 67.2494ZM71.2211 68.6481L70.1956 69.7558L69.0423 68.7181L70.0926 67.5848C70.2989 67.373 70.5066 67.2551 70.7157 67.2311C70.9247 67.2071 71.1137 67.2712 71.2828 67.4232C71.4806 67.6013 71.5686 67.7998 71.5468 68.0188C71.5251 68.2378 71.4113 68.4426 71.2211 68.6481ZM72.8537 69.8945L71.7127 71.1208L70.5307 70.0573L71.614 68.8902C71.8608 68.6243 72.1086 68.4793 72.3385 68.4369C72.5684 68.3945 72.7759 68.4566 72.961 68.6231C73.1524 68.7953 73.2374 68.9938 73.2161 69.2184C73.1947 69.4431 73.0687 69.6634 72.8537 69.8945Z" fill="#1D1916" stroke="#1D1916" stroke-width="0.354575"/>
<path d="M61.1579 77.9307C60.8589 78.6262 60.4474 79.1498 59.5128 79.1498C58.5782 79.1498 57.8304 78.402 57.8304 77.4673C57.8304 76.5327 58.5782 75.7849 59.5128 75.7849C59.773 75.7849 60.0187 75.8429 60.2378 75.9467L60.5149 75.1294C60.207 74.9965 59.8681 74.9228 59.5128 74.9228C58.1126 74.9228 56.9683 76.0672 56.9683 77.4673C56.9683 78.8675 58.1126 80.0119 59.5128 80.0119C60.6635 80.0119 61.6414 79.239 61.9534 78.1863" fill="#1D1916"/>
</svg>
