<svg width="128" height="38" viewBox="0 0 128 38" fill="none" xmlns="http://www.w3.org/2000/svg">
<path fill-rule="evenodd" clip-rule="evenodd" d="M39.7541 13.9329L42.3495 11.1347L38.9554 5.6374L35.0619 7.13691L36.6592 3.838L30.8692 0.639531L29.0731 1.63963L28.474 0.440033H6.80952L0.218262 5.4379V15.2303H6.40726V37.1229H17.986L26.5722 29.4298L27.2711 30.1287L34.3578 26.3311L39.9477 21.0339L42.4434 16.0367L39.7482 13.9374" fill="#1D1916"/>
<path fill-rule="evenodd" clip-rule="evenodd" d="M11.9156 14.2589V6.16168H7.22412V14.2589H11.9156Z" fill="#FCFAF8"/>
<path fill-rule="evenodd" clip-rule="evenodd" d="M17.2616 18.5618V15.2629H7.37793V18.5618H17.2616Z" fill="#FCFAF8"/>
<path fill-rule="evenodd" clip-rule="evenodd" d="M17.2616 22.93V19.6324H7.37793V22.93H17.2616Z" fill="#FCFAF8"/>
<path fill-rule="evenodd" clip-rule="evenodd" d="M17.2616 27.3632V24.0644H7.37793V27.3632H17.2616Z" fill="#FCFAF8"/>
<path fill-rule="evenodd" clip-rule="evenodd" d="M17.2616 31.7965V28.4983H7.37793V31.7965H17.2616Z" fill="#FCFAF8"/>
<path fill-rule="evenodd" clip-rule="evenodd" d="M17.2616 36.1646V32.8663H7.37793V36.1646H17.2616Z" fill="#FCFAF8"/>
<path fill-rule="evenodd" clip-rule="evenodd" d="M6.04791 14.2589V6.16168H1.35645V14.2589H6.04791Z" fill="#FCFAF8"/>
<path fill-rule="evenodd" clip-rule="evenodd" d="M17.7833 14.2589V6.16168H13.0918V14.2589H17.7833Z" fill="#FCFAF8"/>
<path fill-rule="evenodd" clip-rule="evenodd" d="M36.7549 14.8457L34.2149 10.8955L28.702 14.4499L31.2596 7.96038L26.8961 6.23595L23.9623 13.6813L23.7007 13.6454V6.16751H19.0093V14.2648H23.8005C23.8005 14.2648 27.7937 14.4644 27.7937 17.7632C27.7937 21.0614 23.202 21.3613 23.202 21.3613H19.4585V29.6542H24.1995V22.6652L27.5316 29.0381L31.3866 26.9551L28.6504 21.7225L33.5844 24.7893L36.0585 20.7973L31.7113 18.0957L36.7542 14.8437" fill="#FCFAF8"/>
<path fill-rule="evenodd" clip-rule="evenodd" d="M49.4032 0.633087L43.0146 5.63096V37.2182H71.6615L77.7508 32.1205V22.928H71.1595L72.1576 21.6286V14.6331L77.548 10.4359V0.637007H49.3966" fill="#1D1916"/>
<path fill-rule="evenodd" clip-rule="evenodd" d="M60.1602 14.3241V6.22678H55.4688V14.3241H60.1602Z" fill="#FCFAF8"/>
<path fill-rule="evenodd" clip-rule="evenodd" d="M60.1602 25.2118V17.4666H55.4688V25.2118H60.1602Z" fill="#FCFAF8"/>
<path fill-rule="evenodd" clip-rule="evenodd" d="M60.1602 36.2949V27.5522H55.4688V36.2949H60.1602Z" fill="#FCFAF8"/>
<path fill-rule="evenodd" clip-rule="evenodd" d="M65.7671 14.3241V6.22678H61.0757V14.3241H65.7671Z" fill="#FCFAF8"/>
<path fill-rule="evenodd" clip-rule="evenodd" d="M65.7671 25.2118V17.4666H61.0757V25.2118H65.7671Z" fill="#FCFAF8"/>
<path fill-rule="evenodd" clip-rule="evenodd" d="M65.7671 36.2949V27.5522H61.0757V36.2949H65.7671Z" fill="#FCFAF8"/>
<path fill-rule="evenodd" clip-rule="evenodd" d="M71.3741 14.3241V6.22678H66.6826V14.3241H71.3741Z" fill="#FCFAF8"/>
<path fill-rule="evenodd" clip-rule="evenodd" d="M71.3741 36.2949V27.5522H66.6826V36.2949H71.3741Z" fill="#FCFAF8"/>
<path fill-rule="evenodd" clip-rule="evenodd" d="M54.2926 9.62997V6.33109H44.2134V9.62997H54.2926Z" fill="#FCFAF8"/>
<path fill-rule="evenodd" clip-rule="evenodd" d="M54.2926 36.2949V32.996H44.2134V36.2949H54.2926Z" fill="#FCFAF8"/>
<path fill-rule="evenodd" clip-rule="evenodd" d="M54.2926 14.0632V10.765H44.2134V14.0632H54.2926Z" fill="#FCFAF8"/>
<path fill-rule="evenodd" clip-rule="evenodd" d="M54.2926 18.4965V15.1977H44.2134V18.4965H54.2926Z" fill="#FCFAF8"/>
<path fill-rule="evenodd" clip-rule="evenodd" d="M54.2926 22.9299V19.631H44.2134V22.9299H54.2926Z" fill="#FCFAF8"/>
<path fill-rule="evenodd" clip-rule="evenodd" d="M54.2926 27.3631V24.0649H44.2134V27.3631H54.2926Z" fill="#FCFAF8"/>
<path fill-rule="evenodd" clip-rule="evenodd" d="M54.2926 31.8617V28.5628H44.2134V31.8617H54.2926Z" fill="#FCFAF8"/>
<path fill-rule="evenodd" clip-rule="evenodd" d="M80.5666 5.0663L87.4512 0.668213H116.3V18.8577L112.107 22.5556H116.2V31.5526L110.112 36.9501H80.963V19.0605L84.756 15.5621H80.564V5.06566" fill="#1D1916"/>
<path fill-rule="evenodd" clip-rule="evenodd" d="M109.122 14.1937V6.09644H104.529V14.1937H109.122Z" fill="#FCFAF8"/>
<path fill-rule="evenodd" clip-rule="evenodd" d="M86.4342 14.1937V6.09644H81.8418V14.1937H86.4342Z" fill="#FCFAF8"/>
<path fill-rule="evenodd" clip-rule="evenodd" d="M92.0406 14.1937V6.09644H87.4482V14.1937H92.0406Z" fill="#FCFAF8"/>
<path fill-rule="evenodd" clip-rule="evenodd" d="M97.7781 14.1937V6.09644H93.1851V14.1937H97.7781Z" fill="#FCFAF8"/>
<path fill-rule="evenodd" clip-rule="evenodd" d="M103.45 14.1937V6.09644H98.8574V14.1937H103.45Z" fill="#FCFAF8"/>
<path fill-rule="evenodd" clip-rule="evenodd" d="M109.122 36.3601V28.2629H104.529V36.3601H109.122Z" fill="#FCFAF8"/>
<path fill-rule="evenodd" clip-rule="evenodd" d="M86.4342 36.3601V28.2629H81.8418V36.3601H86.4342Z" fill="#FCFAF8"/>
<path fill-rule="evenodd" clip-rule="evenodd" d="M92.0406 36.3601V28.2629H87.4482V36.3601H92.0406Z" fill="#FCFAF8"/>
<path fill-rule="evenodd" clip-rule="evenodd" d="M97.7781 36.3601V28.2629H93.1851V36.3601H97.7781Z" fill="#FCFAF8"/>
<path fill-rule="evenodd" clip-rule="evenodd" d="M103.45 36.3601V28.2629H98.8574V36.3601H103.45Z" fill="#FCFAF8"/>
<path fill-rule="evenodd" clip-rule="evenodd" d="M86.4342 27.1025V19.605H81.8418V27.1025H86.4342Z" fill="#FCFAF8"/>
<path fill-rule="evenodd" clip-rule="evenodd" d="M92.0406 25.994V18.4966H87.4482V25.994H92.0406Z" fill="#FCFAF8"/>
<path fill-rule="evenodd" clip-rule="evenodd" d="M97.7781 24.8205V17.323H93.1851V24.8205H97.7781Z" fill="#FCFAF8"/>
<path fill-rule="evenodd" clip-rule="evenodd" d="M103.45 23.7123V16.2148H98.8574V23.7123H103.45Z" fill="#FCFAF8"/>
<path fill-rule="evenodd" clip-rule="evenodd" d="M109.122 22.6691V15.1716H104.529V22.6691H109.122Z" fill="#FCFAF8"/>
<path fill-rule="evenodd" clip-rule="evenodd" d="M119.292 3.95802C119.292 1.77332 121.064 0 123.266 0C125.458 0 127.218 1.77332 127.218 3.95802C127.218 6.16293 125.458 7.93558 123.266 7.93558C121.064 7.93558 119.292 6.16293 119.292 3.95802Z" fill="#1D1916"/>
<path fill-rule="evenodd" clip-rule="evenodd" d="M126.529 3.95807C126.529 2.1639 125.075 0.696991 123.273 0.696991C121.461 0.696991 119.995 2.1639 119.995 3.95807C119.995 5.77311 121.461 7.24001 123.273 7.24001C125.075 7.24001 126.529 5.77311 126.529 3.95807Z" fill="#FCFAF8"/>
<path fill-rule="evenodd" clip-rule="evenodd" d="M122.422 4.21877V6.23396H121.695V1.56989H123.201C125.039 1.56989 125.658 3.60528 123.993 3.94364V3.96483C125.047 4.17346 124.752 5.42196 125.057 6.23364H124.13C123.961 5.37958 124.172 4.21845 123.034 4.21845H122.422L122.422 4.21877ZM123.192 3.49119C124.232 3.49119 124.412 2.2981 123.297 2.2981H122.421V3.49119H123.192" fill="#1D1916"/>
</svg>
